<svg xmlns="http://www.w3.org/2000/svg" xmlns:xlink="http://www.w3.org/1999/xlink" version="1.1" x="0px" y="0px" viewBox="0 0 100 125" enable-background="new 0 0 100 100" xml:space="preserve"><g><polygon points="23.796,58.464 49.1,40.08 45.991,37.822 12.551,62.117 39.933,62.117 38.746,58.463  "/><polygon points="33.907,27.348 59.203,45.727 60.39,42.073 53.373,36.975 53.374,36.974 53.374,36.974 50.266,34.716    50.265,34.717 26.956,17.782 35.421,43.832 38.529,41.574  "/><polygon points="66.623,27.348 56.955,57.105 60.797,57.105 73.573,17.782 51.43,33.87 54.539,36.128  "/><g><polygon points="46.653,62.117 87.979,62.118 65.855,46.044 64.668,49.698 76.733,58.463 45.466,58.463   "/><polygon points="54.882,63.484 50.265,77.694 40.612,47.986 37.504,50.244 50.265,89.518 58.724,63.484   "/></g></g><path d="M50.393,93.26c-23.871,0-43.29-19.42-43.29-43.291c0-23.87,19.42-43.29,43.29-43.29c23.871,0,43.291,19.42,43.291,43.29  C93.684,73.84,74.264,93.26,50.393,93.26z M50.393,10.719c-21.643,0-39.25,17.608-39.25,39.25c0,21.643,17.607,39.251,39.25,39.251  s39.251-17.608,39.251-39.251C89.644,28.327,72.036,10.719,50.393,10.719z"/><text x="0" y="115" fill="#000000" font-size="5px" font-weight="bold" font-family="'Helvetica Neue', Helvetica, Arial-Unicode, Arial, Sans-serif">Created by Andrew Cameron</text><text x="0" y="120" fill="#000000" font-size="5px" font-weight="bold" font-family="'Helvetica Neue', Helvetica, Arial-Unicode, Arial, Sans-serif">from the Noun Project</text></svg>