<svg xmlns="http://www.w3.org/2000/svg" xmlns:xlink="http://www.w3.org/1999/xlink" version="1.1" x="0px" y="0px" viewBox="0 0 100 125" enable-background="new 0 0 100 100" xml:space="preserve"><path d="M94.655,87.051L51.813,12.896c-0.268-0.464-0.763-0.749-1.299-0.749c-0.535,0-1.03,0.285-1.299,0.749L6.27,87.239  c-0.268,0.464-0.268,1.036,0,1.501c0.268,0.463,0.764,0.75,1.299,0.75h85.896c0.008-0.001,0.014-0.002,0.021,0  c0.829,0,1.5-0.672,1.5-1.5C94.985,87.635,94.861,87.309,94.655,87.051z M82.283,71.635L70.15,67.691  c1.301-1.154,2.406-2.285,3.324-3.299H78.1L82.283,71.635z M61.313,55.584c4.051,2.08,7.28,4.971,9.471,7.311  c-2.19,2.34-5.42,5.23-9.471,7.311c1.41-2.091,2.25-4.601,2.25-7.311S62.723,57.664,61.313,55.584z M76.367,61.393h-2.895  c-0.916-1.014-2.021-2.143-3.322-3.299l3.629-1.179L76.367,61.393z M72.246,54.259l-4.879,1.585  c-0.75-0.553-1.535-1.096-2.366-1.613l5.091-3.699L72.246,54.259z M68.584,47.92l-6.486,4.712c-0.555-0.271-1.123-0.526-1.705-0.766  l5.832-8.028L68.584,47.92z M64.582,40.995l-7.156,9.851c-0.428-0.121-0.857-0.238-1.297-0.339l5.021-15.454L64.582,40.995z   M59.131,31.559L53.136,50.01c-0.366-0.039-0.735-0.069-1.108-0.092l-0.001-30.656L59.131,31.559z M49.026,19.221l0.001,30.695  c-0.373,0.023-0.744,0.052-1.109,0.09l-6.004-18.474L49.026,19.221z M39.895,35.027l5.029,15.475  c-0.441,0.102-0.871,0.217-1.299,0.338l-7.167-9.862L39.895,35.027z M34.815,43.82l5.841,8.039c-0.584,0.24-1.154,0.496-1.709,0.767  l-6.493-4.717L34.815,43.82z M39.723,70.205c-4.05-2.08-7.279-4.971-9.47-7.311c2.19-2.34,5.42-5.23,9.47-7.311  c-1.42,2.08-2.25,4.601-2.25,7.311S38.303,68.114,39.723,70.205z M30.945,50.521l5.098,3.703c-0.834,0.518-1.619,1.061-2.371,1.615  l-4.883-1.586L30.945,50.521z M27.255,56.91l3.634,1.18c-1.303,1.156-2.408,2.289-3.326,3.304h-2.898L27.255,56.91z M22.932,64.394  h4.631c0.918,1.015,2.025,2.146,3.328,3.303l-12.146,3.947L22.932,64.394z M10.168,86.49L16.5,75.527l17.176-5.582  c0.75,0.555,1.535,1.1,2.368,1.616L15.498,86.49H10.168z M20.602,86.49l18.346-13.33c0.557,0.271,1.125,0.527,1.709,0.768  L31.529,86.49H20.602z M35.237,86.49l8.387-11.545c0.429,0.122,0.859,0.237,1.3,0.338L41.283,86.49H35.237z M49.027,86.49h-4.59  l3.479-10.709c0.367,0.039,0.738,0.066,1.111,0.09V86.49z M50.473,72.935c-5.52-0.03-10-4.521-10-10.04  c0-5.54,4.51-10.04,10.04-10.04c5.54,0,10.05,4.5,10.05,10.04c0,5.52-4.49,10.01-10,10.04H50.473z M52.027,86.49V75.87  c0.373-0.022,0.743-0.052,1.109-0.091l3.48,10.711H52.027z M59.771,86.49l-3.643-11.211c0.439-0.1,0.87-0.217,1.297-0.338  l8.391,11.549H59.771z M69.525,86.49l-9.133-12.569c0.584-0.239,1.151-0.495,1.707-0.767L80.453,86.49H69.525z M85.558,86.49  L65.001,71.555c0.831-0.516,1.616-1.06,2.365-1.613l17.161,5.576l6.339,10.973H85.558z M50.513,56.875  c-3.319,0-6.021,2.699-6.021,6.02s2.701,6.02,6.021,6.02c3.33,0,6.03-2.699,6.03-6.02S53.843,56.875,50.513,56.875z M50.513,65.914  c-1.66,0-3.021-1.35-3.021-3.02s1.36-3.02,3.021-3.02c1.67,0,3.03,1.35,3.03,3.02S52.183,65.914,50.513,65.914z"/><text x="0" y="115" fill="#000000" font-size="5px" font-weight="bold" font-family="'Helvetica Neue', Helvetica, Arial-Unicode, Arial, Sans-serif">Created by Sergey Demushkin</text><text x="0" y="120" fill="#000000" font-size="5px" font-weight="bold" font-family="'Helvetica Neue', Helvetica, Arial-Unicode, Arial, Sans-serif">from the Noun Project</text></svg>