<svg xmlns="http://www.w3.org/2000/svg" xmlns:xlink="http://www.w3.org/1999/xlink" version="1.1" x="0px" y="0px" viewBox="0 0 95 118.75" enable-background="new 0 0 95 95" xml:space="preserve"><g><path d="M67.047,47.88L48.132,15.117L29.216,47.88L10.301,80.643h37.831h37.831L67.047,47.88z M48.132,64.603   c-7.421,0-13.801-3.523-16.641-8.575c2.84-5.051,9.22-8.574,16.641-8.574c7.42,0,13.8,3.523,16.639,8.574   C61.932,61.079,55.552,64.603,48.132,64.603z"/><path d="M48.132,48.464c-4.21,0-7.621,3.412-7.621,7.621c0,4.209,3.411,7.622,7.621,7.622c4.209,0,7.621-3.413,7.621-7.622   C55.753,51.876,52.341,48.464,48.132,48.464z M48.132,62.985c-3.811,0-6.9-3.089-6.9-6.9s3.09-6.9,6.9-6.9s6.9,3.089,6.9,6.9   S51.942,62.985,48.132,62.985z"/><path d="M50.292,55.092c-0.907,0-1.643-0.736-1.643-1.645c0-0.533,0.255-1.006,0.648-1.307c-0.37-0.109-0.762-0.17-1.166-0.17   c-2.273,0-4.115,1.842-4.115,4.114s1.842,4.114,4.115,4.114c2.272,0,4.114-1.842,4.114-4.114c0-0.693-0.173-1.345-0.477-1.918   C51.503,54.714,50.942,55.092,50.292,55.092z"/></g><text x="0" y="110" fill="#000000" font-size="5px" font-weight="bold" font-family="'Helvetica Neue', Helvetica, Arial-Unicode, Arial, Sans-serif">Created by Guilherme Furtado</text><text x="0" y="115" fill="#000000" font-size="5px" font-weight="bold" font-family="'Helvetica Neue', Helvetica, Arial-Unicode, Arial, Sans-serif">from the Noun Project</text></svg>