<svg xmlns="http://www.w3.org/2000/svg" xmlns:xlink="http://www.w3.org/1999/xlink" version="1.1" x="0px" y="0px" viewBox="0 0 100 125" enable-background="new 0 0 100 100" xml:space="preserve"><g><path fill="#000000" d="M59.623,32.46l6.43-12.501c0.135-0.263,0.032-0.585-0.231-0.72c-0.263-0.135-0.585-0.032-0.72,0.231   l-6.115,11.888L59.623,32.46z"/><path fill="#000000" d="M54.756,24.031l1.227-7.562c0.047-0.291-0.151-0.566-0.442-0.614c-0.293-0.048-0.566,0.151-0.614,0.442   l-1.017,6.268L54.756,24.031z"/><path fill="#000000" d="M57.472,28.735l5.692-17.519c0.091-0.281-0.062-0.583-0.343-0.674c-0.281-0.091-0.583,0.063-0.674,0.343   l-5.395,16.603L57.472,28.735z"/><path fill="#000000" d="M42.528,28.735l0.72-1.247l-5.395-16.603c-0.091-0.28-0.392-0.435-0.674-0.343   c-0.281,0.091-0.434,0.393-0.343,0.674L42.528,28.735z"/><path fill="#000000" d="M50,15.793l0.535,0.926V9.046c0-0.295-0.239-0.535-0.535-0.535s-0.535,0.239-0.535,0.535v7.673L50,15.793z"/><path fill="#000000" d="M45.404,23.753l0.854-1.479l-0.929-6.013c-0.045-0.292-0.318-0.491-0.61-0.447   c-0.292,0.045-0.492,0.318-0.447,0.61L45.404,23.753z"/><path fill="#000000" d="M25.634,25.447c-0.209,0.208-0.211,0.547-0.003,0.756l11.606,11.695l0.554-0.96L26.39,25.45   C26.182,25.24,25.844,25.24,25.634,25.447z"/><path fill="#000000" d="M15.814,55.281c0.041,0.264,0.268,0.453,0.528,0.453c0.027,0,0.055-0.002,0.083-0.006l11.549-1.784   l0.686-1.188l-12.399,1.915C15.969,54.716,15.769,54.989,15.814,55.281z"/><path fill="#000000" d="M19.239,34.178c-0.135,0.263-0.032,0.585,0.231,0.72l15.034,7.733l0.535-0.927l-15.08-7.757   C19.697,33.813,19.375,33.916,19.239,34.178z"/><path fill="#000000" d="M15.856,44.459c-0.047,0.291,0.151,0.566,0.442,0.614l15.359,2.493l0.572-0.991l-15.759-2.558   C16.179,43.969,15.903,44.167,15.856,44.459z"/><path fill="#000000" d="M19.356,64.868c-0.264,0.133-0.369,0.455-0.236,0.718c0.094,0.186,0.282,0.294,0.478,0.294   c0.081,0,0.163-0.018,0.24-0.057l1.803-0.91l0.976-1.691L19.356,64.868z"/><path fill="#000000" d="M80.285,66.112c0.194,0,0.381-0.106,0.476-0.29c0.135-0.263,0.032-0.585-0.231-0.72l-2.933-1.508   l0.988,1.711l1.456,0.749C80.119,66.093,80.202,66.112,80.285,66.112z"/><path fill="#000000" d="M73.989,74.708c0.136,0,0.272-0.052,0.377-0.155c0.209-0.208,0.211-0.547,0.003-0.756l-6.506-6.555h-1.507   l7.253,7.309C73.714,74.655,73.852,74.708,73.989,74.708z"/><path fill="#000000" d="M80.881,34.414c-0.133-0.264-0.455-0.37-0.718-0.236l-15.137,7.64l0.536,0.928l15.084-7.613   C80.908,34.999,81.014,34.677,80.881,34.414z"/><path fill="#000000" d="M66.903,45.07l22.212-7.217c0.281-0.091,0.435-0.393,0.343-0.674c-0.091-0.28-0.392-0.435-0.674-0.343   l-22.428,7.287L66.903,45.07z"/><path fill="#000000" d="M64.182,40.357l19.265-13.997c0.239-0.174,0.292-0.508,0.118-0.747c-0.174-0.239-0.507-0.292-0.747-0.118   L63.644,39.426L64.182,40.357z"/><path fill="#000000" d="M73.796,25.631l-11.518,11.43l0.553,0.958L74.55,26.39c0.209-0.208,0.211-0.547,0.003-0.756   C74.345,25.424,74.006,25.423,73.796,25.631z"/><path fill="#000000" d="M83.617,55.991c0.257,0,0.484-0.187,0.527-0.449c0.047-0.291-0.151-0.566-0.442-0.614l-12.256-1.989   l0.69,1.196l11.394,1.849C83.56,55.989,83.589,55.991,83.617,55.991z"/><path fill="#000000" d="M61.297,35.361l13.208-18.179c0.174-0.239,0.121-0.573-0.118-0.747c-0.239-0.174-0.573-0.12-0.747,0.118   L60.712,34.347L61.297,35.361z"/><path fill="#000000" d="M84.186,44.719c-0.045-0.292-0.319-0.491-0.61-0.447l-15.73,2.43l0.574,0.994l15.32-2.367   C84.03,45.284,84.231,45.011,84.186,44.719z"/><path fill="#000000" d="M53.204,67.241h-1.082l2.549,16.498c0.041,0.264,0.268,0.453,0.528,0.453c0.027,0,0.055-0.002,0.083-0.006   c0.292-0.045,0.492-0.318,0.447-0.61L53.204,67.241z"/><path fill="#000000" d="M59.301,67.241h-1.198l6.765,13.403c0.094,0.186,0.282,0.294,0.478,0.294c0.081,0,0.163-0.018,0.24-0.057   c0.264-0.133,0.369-0.455,0.236-0.718L59.301,67.241z"/><path fill="#000000" d="M49.465,67.241v23.713c0,0.295,0.239,0.535,0.535,0.535s0.535-0.239,0.535-0.535V67.241H49.465z"/><path fill="#000000" d="M56.164,67.241H55.04l7.107,21.874c0.073,0.226,0.283,0.37,0.509,0.37c0.055,0,0.11-0.009,0.165-0.026   c0.281-0.091,0.435-0.393,0.343-0.674L56.164,67.241z"/><path fill="#000000" d="M46.66,67.241l-2.644,16.29c-0.047,0.291,0.151,0.566,0.442,0.614c0.029,0.005,0.058,0.007,0.086,0.007   c0.257,0,0.484-0.187,0.527-0.449l2.672-16.461H46.66z"/><path fill="#000000" d="M83.447,73.639l-8.807-6.398h-1.82l9.998,7.264c0.095,0.069,0.205,0.102,0.314,0.102   c0.166,0,0.328-0.077,0.433-0.22C83.739,74.148,83.686,73.813,83.447,73.639z"/><path fill="#000000" d="M89.115,62.147l-15.205-4.94l0.799,1.384l14.075,4.573c0.055,0.018,0.111,0.026,0.165,0.026   c0.226,0,0.435-0.144,0.509-0.37C89.549,62.54,89.396,62.238,89.115,62.147z"/><path fill="#000000" d="M90.954,49.465H69.441l0.617,1.07h20.896c0.295,0,0.535-0.239,0.535-0.535   C91.489,49.705,91.249,49.465,90.954,49.465z"/><path fill="#000000" d="M43.836,67.241l-7,21.543c-0.091,0.281,0.062,0.583,0.343,0.674c0.055,0.018,0.111,0.026,0.165,0.026   c0.226,0,0.435-0.144,0.509-0.37l7.107-21.874H43.836z"/><path fill="#000000" d="M63.187,67.241h-1.322L73.64,83.447c0.105,0.144,0.268,0.22,0.433,0.22c0.109,0,0.219-0.033,0.314-0.102   c0.239-0.174,0.292-0.508,0.118-0.747L63.187,67.241z"/><path fill="#000000" d="M25.827,74.524c0.136,0,0.272-0.052,0.377-0.155l7.183-7.128h-1.519L25.45,73.61   c-0.209,0.208-0.211,0.547-0.003,0.756C25.552,74.472,25.689,74.524,25.827,74.524z"/><path fill="#000000" d="M10.885,37.853l22.212,7.217l0.547-0.947l-22.428-7.287c-0.281-0.091-0.583,0.063-0.674,0.343   C10.451,37.46,10.604,37.762,10.885,37.853z"/><path fill="#000000" d="M16.553,26.361l19.265,13.997l0.538-0.931L17.182,25.495c-0.239-0.174-0.573-0.12-0.747,0.118   C16.261,25.852,16.314,26.187,16.553,26.361z"/><path fill="#000000" d="M38.703,35.36l0.585-1.014L26.361,16.553c-0.173-0.239-0.508-0.292-0.747-0.118   c-0.239,0.174-0.292,0.508-0.118,0.747L38.703,35.36z"/><path fill="#000000" d="M30.559,49.465H9.046c-0.295,0-0.535,0.239-0.535,0.535c0,0.295,0.239,0.535,0.535,0.535h20.896   L30.559,49.465z"/><path fill="#000000" d="M26.09,57.207l-15.205,4.94c-0.281,0.091-0.435,0.393-0.343,0.674c0.073,0.226,0.283,0.37,0.509,0.37   c0.055,0,0.11-0.009,0.165-0.026l14.075-4.573L26.09,57.207z"/><path fill="#000000" d="M40.468,32.302l0.639-1.107l-5.976-11.839c-0.133-0.264-0.455-0.371-0.718-0.236   c-0.264,0.133-0.369,0.455-0.236,0.718L40.468,32.302z"/><path fill="#000000" d="M40.531,67.241L33.948,80.04c-0.135,0.263-0.032,0.585,0.231,0.72c0.078,0.04,0.162,0.059,0.244,0.059   c0.194,0,0.381-0.106,0.476-0.29l6.835-13.289H40.531z"/><path fill="#000000" d="M36.813,67.241L25.495,82.818c-0.174,0.239-0.121,0.573,0.118,0.747c0.095,0.069,0.205,0.102,0.314,0.102   c0.166,0,0.328-0.077,0.433-0.22l11.774-16.206H36.813z"/><path fill="#000000" d="M25.36,67.241l-8.807,6.398c-0.239,0.174-0.292,0.508-0.118,0.747c0.105,0.144,0.268,0.22,0.433,0.22   c0.109,0,0.219-0.033,0.314-0.102l9.998-7.264H25.36z"/></g><ellipse transform="matrix(0.309 -0.9511 0.9511 0.309 2.4153 129.6096)" fill="#000000" cx="90.4" cy="63.143" rx="0.52" ry="0.52"/><circle fill="#000000" cx="92.484" cy="50.015" r="0.52"/><ellipse transform="matrix(0.9511 -0.309 0.309 0.9511 -6.9736 29.745)" fill="#000000" cx="90.41" cy="36.886" rx="0.52" ry="0.52"/><ellipse transform="matrix(0.809 -0.5878 0.5878 0.809 1.3972 54.3814)" fill="#000000" cx="84.379" cy="25.041" rx="0.52" ry="0.52"/><ellipse transform="matrix(0.809 -0.5878 0.5878 0.809 -0.3655 48.9566)" fill="#000000" cx="75.15" cy="25.041" rx="0.52" ry="0.52"/><ellipse transform="matrix(0.5878 -0.809 0.809 0.5878 12.3312 61.1829)" fill="#000000" cx="66.207" cy="18.49" rx="0.52" ry="0.52"/><ellipse transform="matrix(0.309 -0.9511 0.9511 0.309 24.1818 63.3327)" fill="#000000" cx="55.676" cy="15.024" rx="0.52" ry="0.52"/><circle fill="#000000" cx="44.591" cy="14.982" r="0.52"/><ellipse transform="matrix(0.5878 -0.809 0.809 0.5878 -19.9624 93.2356)" fill="#000000" cx="81.51" cy="66.207" rx="0.52" ry="0.52"/><ellipse transform="matrix(0.309 -0.9511 0.9511 0.309 5.7652 119.2879)" fill="#000000" cx="84.976" cy="55.676" rx="0.52" ry="0.52"/><circle fill="#000000" cx="85.018" cy="44.591" r="0.52"/><ellipse transform="matrix(0.9511 -0.309 0.309 0.9511 -6.5215 26.8877)" fill="#000000" cx="81.632" cy="34.034" rx="0.52" ry="0.52"/><ellipse transform="matrix(0.5878 -0.809 0.809 0.5878 18.2563 67.1081)" fill="#000000" cx="74.984" cy="15.639" rx="0.52" ry="0.52"/><ellipse transform="matrix(0.309 -0.9511 0.9511 0.309 34.4996 66.6852)" fill="#000000" cx="63.143" cy="9.6" rx="0.52" ry="0.52"/><circle fill="#000000" cx="7.516" cy="49.985" r="0.52"/><ellipse transform="matrix(0.9511 -0.309 0.309 0.9511 -19.0345 6.053)" fill="#000000" cx="9.591" cy="63.114" rx="0.52" ry="0.52"/><ellipse transform="matrix(0.809 -0.5878 0.5878 0.809 -41.0759 23.4967)" fill="#000000" cx="15.621" cy="74.959" rx="0.52" ry="0.52"/><ellipse transform="matrix(0.5878 -0.809 0.809 0.5878 -57.9383 55.0149)" fill="#000000" cx="25.016" cy="84.361" rx="0.52" ry="0.52"/><ellipse transform="matrix(0.309 -0.9511 0.9511 0.309 -60.5076 97.5221)" fill="#000000" cx="36.857" cy="90.4" rx="0.52" ry="0.52"/><circle fill="#000000" cx="49.985" cy="92.484" r="0.52"/><ellipse transform="matrix(0.9511 -0.309 0.309 0.9511 -24.8458 23.924)" fill="#000000" cx="63.114" cy="90.409" rx="0.52" ry="0.52"/><ellipse transform="matrix(0.809 -0.5878 0.5878 0.809 -35.2818 60.1788)" fill="#000000" cx="74.959" cy="84.379" rx="0.52" ry="0.52"/><ellipse transform="matrix(0.5878 -0.809 0.809 0.5878 -25.8877 99.161)" fill="#000000" cx="84.362" cy="74.984" rx="0.52" ry="0.52"/><ellipse transform="matrix(0.9511 -0.309 0.309 0.9511 -4.0103 11.4168)" fill="#000000" cx="34.034" cy="18.368" rx="0.52" ry="0.52"/><ellipse transform="matrix(0.809 -0.5878 0.5878 0.809 -9.8237 19.4635)" fill="#000000" cx="25.041" cy="24.85" rx="0.52" ry="0.52"/><ellipse transform="matrix(0.5878 -0.809 0.809 0.5878 -19.7173 28.8888)" fill="#000000" cx="18.49" cy="33.793" rx="0.52" ry="0.52"/><ellipse transform="matrix(0.309 -0.9511 0.9511 0.309 -31.7726 44.9161)" fill="#000000" cx="15.024" cy="44.324" rx="0.52" ry="0.52"/><circle fill="#000000" cx="14.982" cy="55.409" r="0.52"/><ellipse transform="matrix(0.9511 -0.309 0.309 0.9511 -19.4862 8.905)" fill="#000000" cx="18.368" cy="65.966" rx="0.52" ry="0.52"/><ellipse transform="matrix(0.809 -0.5878 0.5878 0.809 -39.3134 28.9212)" fill="#000000" cx="24.85" cy="74.959" rx="0.52" ry="0.52"/><ellipse transform="matrix(0.5878 -0.809 0.809 0.5878 -52.0128 60.9402)" fill="#000000" cx="33.793" cy="81.51" rx="0.52" ry="0.52"/><ellipse transform="matrix(0.309 -0.9511 0.9511 0.309 -50.1889 100.8755)" fill="#000000" cx="44.324" cy="84.976" rx="0.52" ry="0.52"/><circle fill="#000000" cx="55.409" cy="85.018" r="0.52"/><ellipse transform="matrix(0.9511 -0.309 0.309 0.9511 -21.9978 24.381)" fill="#000000" cx="65.966" cy="81.632" rx="0.52" ry="0.52"/><ellipse transform="matrix(0.809 -0.5878 0.5878 0.809 -29.8569 58.4161)" fill="#000000" cx="74.959" cy="75.15" rx="0.52" ry="0.52"/><circle fill="#000000" cx="50.015" cy="7.516" r="0.52"/><ellipse transform="matrix(0.9511 -0.309 0.309 0.9511 -1.1583 11.8684)" fill="#000000" cx="36.886" cy="9.591" rx="0.52" ry="0.52"/><ellipse transform="matrix(0.809 -0.5878 0.5878 0.809 -4.3993 17.7011)" fill="#000000" cx="25.041" cy="15.621" rx="0.52" ry="0.52"/><ellipse transform="matrix(0.5878 -0.809 0.809 0.5878 -13.7922 22.9646)" fill="#000000" cx="15.639" cy="25.016" rx="0.52" ry="0.52"/><ellipse transform="matrix(0.309 -0.9511 0.9511 0.309 -28.42 34.5972)" fill="#000000" cx="9.6" cy="36.857" rx="0.52" ry="0.52"/><path fill="#000000" stroke="#020303" stroke-width="0.5348" stroke-miterlimit="10" d="M54.808,52.678"/><path fill="#000000" stroke="#020303" stroke-width="0.5348" stroke-miterlimit="10" d="M45.402,45.844"/><path fill="#000000" stroke="#020303" stroke-width="0.5348" stroke-miterlimit="10" d="M55.918,49.261"/><path fill="#000000" stroke="#020303" stroke-width="0.5348" stroke-miterlimit="10" d="M44.291,49.261"/><path fill="#000000" stroke="#020303" stroke-width="0.5348" stroke-miterlimit="10" d="M54.808,45.844"/><path fill="#000000" stroke="#020303" stroke-width="0.5348" stroke-miterlimit="10" d="M45.402,52.678"/><path fill="#000000" d="M50.105,19.002L23.18,65.637h53.849L50.105,19.002z M69.153,57.342l3.245,5.621h-6.215  c0.114-1.182,0.476-2.33,1.08-3.375C67.76,58.727,68.401,57.969,69.153,57.342z M53.074,29.493  c-0.941,0.358-1.944,0.544-2.969,0.544c-1.022,0-2.026-0.189-2.968-0.546l2.968-5.141L53.074,29.493z M46.596,30.426  c1.109,0.445,2.297,0.681,3.508,0.681c1.215,0,2.402-0.233,3.51-0.678l10.157,17.592c-2.186-2.395-7.399-7.262-13.667-7.262  c-6.268,0-11.481,4.868-13.667,7.263L46.596,30.426z M51.865,49.856c-0.001-0.008-0.002-0.015-0.003-0.022l2.571-0.835  c0.072,0.277,0.118,0.563,0.135,0.858H51.865z M54.567,50.39c-0.017,0.295-0.063,0.581-0.135,0.858l-2.581-0.839  c0.001-0.006,0.002-0.013,0.003-0.019H54.567z M51.715,49.319c-0.004-0.009-0.008-0.017-0.013-0.026l2.17-1.577  c0.156,0.243,0.288,0.501,0.395,0.773L51.715,49.319z M51.409,48.845c-0.008-0.009-0.017-0.019-0.025-0.028l1.562-2.15  c0.224,0.185,0.43,0.39,0.615,0.615L51.409,48.845z M50.969,48.478c-0.014-0.008-0.027-0.017-0.041-0.025l0.81-2.493  c0.272,0.107,0.53,0.24,0.773,0.395L50.969,48.478z M50.43,48.258c-0.019-0.005-0.038-0.01-0.058-0.014V45.66  c0.295,0.018,0.581,0.063,0.858,0.135L50.43,48.258z M50.408,51.922l0.822,2.528c-0.277,0.072-0.563,0.118-0.858,0.135v-2.655  C50.384,51.928,50.396,51.925,50.408,51.922z M50.909,51.733c0.008-0.005,0.016-0.01,0.024-0.015l1.579,2.173  c-0.243,0.156-0.501,0.288-0.773,0.395L50.909,51.733z M51.355,51.389c0.005-0.005,0.01-0.011,0.015-0.016l2.191,1.592  c-0.185,0.224-0.391,0.43-0.615,0.615L51.355,51.389z M51.677,50.935c0.003-0.006,0.005-0.012,0.008-0.017l2.583,0.839  c-0.107,0.272-0.24,0.53-0.395,0.773L51.677,50.935z M57.255,50.123c0-2.408-1.198-4.541-3.028-5.837  c3.628,1.457,6.559,4.407,7.833,5.837c-1.274,1.43-4.204,4.38-7.833,5.837C56.057,54.664,57.255,52.531,57.255,50.123z   M45.982,55.96c-3.63-1.458-6.561-4.409-7.833-5.838c1.272-1.433,4.204-4.39,7.846-5.844c-1.837,1.295-3.04,3.432-3.04,5.845  C42.954,52.531,44.152,54.664,45.982,55.96z M45.941,51.757l2.402-0.78c0.012,0.023,0.027,0.045,0.04,0.067l-2.046,1.487  C46.181,52.287,46.048,52.029,45.941,51.757z M48.718,51.461c0.017,0.016,0.033,0.031,0.051,0.046l-1.506,2.072  c-0.224-0.185-0.43-0.391-0.615-0.615L48.718,51.461z M49.219,51.797c0.018,0.008,0.035,0.017,0.052,0.025l-0.801,2.465  c-0.272-0.107-0.53-0.24-0.773-0.395L49.219,51.797z M49.79,51.955c0.016,0.002,0.031,0.003,0.047,0.004v2.626  c-0.295-0.018-0.581-0.063-0.858-0.135L49.79,51.955z M48.157,50.459c0.001,0.005,0.001,0.01,0.002,0.015l-2.383,0.774  c-0.072-0.277-0.118-0.563-0.135-0.858h1.819c-0.333-0.098-0.627-0.285-0.856-0.535h-0.963c0.017-0.295,0.063-0.581,0.135-0.858  l0.413,0.134c-0.052-0.173-0.081-0.356-0.081-0.546c0-0.014,0.002-0.028,0.002-0.042l-0.17-0.055  c0.088-0.222,0.196-0.433,0.317-0.637c0.106-0.25,0.266-0.471,0.464-0.652c0.166-0.192,0.345-0.372,0.541-0.534l0.106,0.146  c0.184-0.064,0.38-0.101,0.584-0.105l-0.256-0.353c0.243-0.156,0.501-0.288,0.773-0.395l0.298,0.916  c0.313,0.143,0.58,0.367,0.773,0.648l-0.562-1.729c0.277-0.072,0.563-0.118,0.858-0.135v2.555c-0.001,0-0.002,0-0.004,0  c0.024,0.12,0.037,0.244,0.037,0.371C49.871,49.569,49.117,50.374,48.157,50.459z M35.34,50.935  c0.267,0.349,6.63,8.553,14.765,8.553c8.135,0,14.498-8.204,14.765-8.553l0.333-0.435l3.411,5.908  c-0.911,0.729-1.686,1.621-2.277,2.645c-0.698,1.21-1.113,2.54-1.229,3.91H36.026c-0.143-1.289-0.55-2.54-1.207-3.677  c-0.753-1.303-1.794-2.389-3.04-3.195l3.228-5.591L35.34,50.935z M31.244,57.017c1.085,0.712,1.991,1.664,2.649,2.804  c0.562,0.973,0.916,2.041,1.054,3.142h-7.135L31.244,57.017z"/><text x="0" y="115" fill="#000000" font-size="5px" font-weight="bold" font-family="'Helvetica Neue', Helvetica, Arial-Unicode, Arial, Sans-serif">Created by Andrew Cameron</text><text x="0" y="120" fill="#000000" font-size="5px" font-weight="bold" font-family="'Helvetica Neue', Helvetica, Arial-Unicode, Arial, Sans-serif">from the Noun Project</text></svg>