<?xml version="1.0" encoding="UTF-8" standalone="no"?>
<!-- Created with Inkscape (http://www.inkscape.org/) -->

<svg
   xmlns:dc="http://purl.org/dc/elements/1.1/"
   xmlns:cc="http://creativecommons.org/ns#"
   xmlns:rdf="http://www.w3.org/1999/02/22-rdf-syntax-ns#"
   xmlns:svg="http://www.w3.org/2000/svg"
   xmlns="http://www.w3.org/2000/svg"
   xmlns:sodipodi="http://sodipodi.sourceforge.net/DTD/sodipodi-0.dtd"
   xmlns:inkscape="http://www.inkscape.org/namespaces/inkscape"
   width="744.09448819"
   height="1052.3622047"
   id="svg4333"
   version="1.1"
   inkscape:version="0.48.4 r9939"
   sodipodi:docname="New document 24">
  <defs
     id="defs4335" />
  <sodipodi:namedview
     id="base"
     pagecolor="#ffffff"
     bordercolor="#666666"
     borderopacity="1.0"
     inkscape:pageopacity="0.0"
     inkscape:pageshadow="2"
     inkscape:zoom="0.49497475"
     inkscape:cx="342.81936"
     inkscape:cy="622.44015"
     inkscape:document-units="px"
     inkscape:current-layer="layer1"
     showgrid="false"
     inkscape:window-width="750"
     inkscape:window-height="694"
     inkscape:window-x="198"
     inkscape:window-y="79"
     inkscape:window-maximized="0" />
  <metadata
     id="metadata4338">
    <rdf:RDF>
      <cc:Work
         rdf:about="">
        <dc:format>image/svg+xml</dc:format>
        <dc:type
           rdf:resource="http://purl.org/dc/dcmitype/StillImage" />
        <dc:title></dc:title>
      </cc:Work>
    </rdf:RDF>
  </metadata>
  <g
     inkscape:label="Layer 1"
     inkscape:groupmode="layer"
     id="layer1">
    <path
       style="fill:none;stroke:#000000;stroke-width:5.84640884;stroke-linecap:round;stroke-linejoin:round;stroke-miterlimit:4;stroke-opacity:1;stroke-dasharray:none"
       d="m 184.22729,555.53973 c -50.97586,0 -92.299917,-39.55946 -92.299917,-88.35852 0,-48.79911 41.324057,-88.35859 92.299917,-88.35859 3.186,0 6.33426,0.15464 9.43712,0.45619 3.10284,0.30165 6.16027,0.75044 9.16451,1.33895 3.00426,0.5885 5.95533,1.31675 8.84553,2.17729 2.89017,0.86055 5.71946,1.85342 8.48013,2.97123"
       id="path2987"
       inkscape:connector-curvature="0"
       sodipodi:nodetypes="csssssc" />
    <path
       style="fill:none;stroke:#000000;stroke-width:5.93936729;stroke-linecap:round;stroke-linejoin:round;stroke-miterlimit:4;stroke-opacity:1"
       d="m 311.34085,447.41867 c 0.34522,-0.20871 0.69288,-0.41272 1.04294,-0.61179 0.35,-0.19907 0.70239,-0.39335 1.05703,-0.58266 0.3547,-0.18941 0.71166,-0.37364 1.07085,-0.55298 1.43682,-0.71741 2.9093,-1.35464 4.41352,-1.90698 1.50422,-0.55228 3.0401,-1.01967 4.60369,-1.39741 1.5636,-0.37767 3.15484,-0.66573 4.76971,-0.85933 1.61492,-0.19352 3.25346,-0.29276 4.91162,-0.29276 26.53063,0 48.03796,25.38946 48.03796,56.70894 0,31.31944 -21.50733,56.70887 -48.03796,56.70887 -1.65816,0 -3.2967,-0.0994 -4.91162,-0.29276 -1.61487,-0.19351 -3.20611,-0.48165 -4.76971,-0.85933 -1.56359,-0.37773 -3.09947,-0.84512 -4.60369,-1.39741 -1.50422,-0.55231 -2.9767,-1.18954 -4.41352,-1.90695 -1.43677,-0.71741 -2.83787,-1.51498 -4.19921,-2.38799 -1.36133,-0.87299 -2.68291,-1.82145 -3.96073,-2.84054 -1.27779,-1.01911 -2.51186,-2.10886 -3.69812,-3.26457 -1.18627,-1.15567 -2.32471,-2.3773 -3.41135,-3.66009 -0.13593,-0.16048 -0.27069,-0.32165 -0.40507,-0.48388 -0.13447,-0.16253 -0.26747,-0.32547 -0.40016,-0.4896 -0.13241,-0.164 -0.26425,-0.32919 -0.39518,-0.49523 -0.13096,-0.16574 -0.26076,-0.33289 -0.3902,-0.50077 -0.1292,-0.16808 -0.25753,-0.33658 -0.38516,-0.50627 -0.12745,-0.16954 -0.25431,-0.34026 -0.38004,-0.51173 -0.126,-0.1716 -0.25081,-0.34389 -0.37493,-0.51719"
       id="path3757"
       inkscape:connector-curvature="0"
       sodipodi:nodetypes="csssssssssssssssssssssssc" />
    <path
       style="fill:none;stroke:#000000;stroke-width:5.93936729;stroke-linecap:round;stroke-linejoin:round;stroke-miterlimit:4;stroke-opacity:1"
       d="m 344.93808,552.87135 c -0.75211,-0.27596 -1.4963,-0.57354 -2.23204,-0.89158 -0.73577,-0.31802 -1.46306,-0.65664 -2.18147,-1.01535 -5.74719,-2.86965 -10.92288,-7.02203 -15.26944,-12.15319 -0.27186,-0.3207 -0.54007,-0.64521 -0.8052,-0.97349 -0.26513,-0.32827 -0.52694,-0.66029 -0.78541,-0.996 -0.25841,-0.33569 -0.51352,-0.67505 -0.76517,-1.01803 -0.25169,-0.34295 -0.49993,-0.68952 -0.74466,-1.03961 -0.0614,-0.0877 -0.12219,-0.17539 -0.183,-0.26308 -0.0608,-0.088 -0.12131,-0.17627 -0.18153,-0.26456 -0.0605,-0.0885 -0.12043,-0.17714 -0.18036,-0.26571 m 2.15317,-73.60538 c 0.51688,-0.67138 0.9487,-1.13099 1.49203,-1.7724 4.34658,-5.13116 9.52225,-9.28357 15.26946,-12.15319 0.7184,-0.35871 1.4457,-0.69736 2.18147,-1.01538 0.73576,-0.31804 1.47992,-0.61542 2.23204,-0.89158 0.75208,-0.27594 1.51211,-0.53105 2.2796,-0.76418"
       id="path3757-3"
       inkscape:connector-curvature="0"
       sodipodi:nodetypes="csssssssssccssssc" />
    <path
       style="fill:none;stroke:#000000;stroke-width:6.40396404;stroke-linecap:round;stroke-linejoin:round;stroke-miterlimit:4;stroke-opacity:1"
       d="m 560.00281,434.65065 c 0.21311,-0.0798 0.42709,-0.15815 0.64153,-0.23532 0.21457,-0.0769 0.42951,-0.15289 0.64513,-0.22772 0.21573,-0.0743 0.43187,-0.14762 0.64868,-0.21982 0.2169,-0.0722 0.43422,-0.14236 0.6522,-0.21194 0.21807,-0.0689 0.43652,-0.1371 0.65564,-0.20346 0.21925,-0.0663 0.43878,-0.13183 0.65902,-0.19555 0.22011,-0.0637 0.44099,-0.12629 0.66233,-0.18738 0.22129,-0.0611 0.44322,-0.12103 0.66562,-0.17949 0.22216,-0.0585 0.44541,-0.11546 0.66885,-0.1713 0.22363,-0.0555 0.44752,-0.1102 0.67205,-0.16282 0.2245,-0.0529 0.44959,-0.10465 0.67514,-0.15464 0.22538,-0.05 0.45164,-0.0991 0.67819,-0.14616 0.22655,-0.0473 0.45367,-0.0932 0.68122,-0.13797 0.22742,-0.0444 0.45561,-0.0877 0.68415,-0.1295 0.22859,-0.0415 0.4576,-0.0821 0.68707,-0.12102 0.22976,-0.0386 0.45946,-0.076 0.6899,-0.11225 0.23035,-0.0359 0.46134,-0.0704 0.69269,-0.10377 0.23122,-0.033 0.46317,-0.0646 0.69542,-0.095 0.2324,-0.0301 0.46497,-0.0588 0.69812,-0.0862 0.23328,-0.0263 0.46672,-0.0529 0.70073,-0.0774 0.23414,-0.0234 0.46846,-0.047 0.70329,-0.0681 0.23473,-0.0204 0.47014,-0.041 0.7058,-0.0593 0.23561,-0.0175 0.47181,-0.0351 0.7083,-0.0503 0.23648,-0.0147 0.47338,-0.0292 0.71069,-0.0412 0.23736,-0.0117 0.47496,-0.0234 0.71303,-0.0322 0.23795,-0.008 0.47651,-0.0175 0.71533,-0.0234 0.23883,-0.006 0.47803,-0.0117 0.71759,-0.0146 0.23941,-0.003 0.47947,-0.006 0.71975,-0.006 30.75583,0 55.68833,25.46193 55.68833,56.87077 0,31.40886 -24.9325,56.87073 -55.68833,56.87073 -7.68896,0 -15.01396,-1.59136 -21.67641,-4.46917 -6.66247,-2.87781 -12.66241,-7.04206 -17.7012,-12.18786 -5.03881,-5.14578 -9.11651,-11.27314 -11.93448,-18.07704 -0.0883,-0.21281 -0.17509,-0.42588 -0.26045,-0.63983 -0.0854,-0.21398 -0.16984,-0.42854 -0.25315,-0.64378 -0.083,-0.21544 -0.16487,-0.43108 -0.24584,-0.64757 -0.0804,-0.21633 -0.1599,-0.43367 -0.23795,-0.65141 -0.0781,-0.21749 -0.15493,-0.43615 -0.23035,-0.65512"
       id="path3757-3-2"
       inkscape:connector-curvature="0"
       sodipodi:nodetypes="csssssssssssssssssssssssssssssssssssssc" />
    <path
       style="fill:none;stroke:#000000;stroke-width:6.40396404;stroke-linecap:round;stroke-linejoin:round;stroke-miterlimit:4;stroke-opacity:1"
       d="m 594.39888,542.7565 c -0.22216,-0.0581 -0.44433,-0.11839 -0.66564,-0.17949 -0.22129,-0.0611 -0.44214,-0.12364 -0.66238,-0.18737 -0.22012,-0.0637 -0.43991,-0.12921 -0.65901,-0.19556 -0.21923,-0.0666 -0.43765,-0.13447 -0.65564,-0.20346 -0.21807,-0.0693 -0.43535,-0.13972 -0.65213,-0.21193 -0.21662,-0.0717 -0.43308,-0.14499 -0.64872,-0.21953 -0.21573,-0.0745 -0.43067,-0.15026 -0.64512,-0.22772 -0.21456,-0.0769 -0.42828,-0.15552 -0.64153,-0.23532 -0.2131,-0.0798 -0.42583,-0.16077 -0.63784,-0.24321 -0.21223,-0.0824 -0.4234,-0.16575 -0.63414,-0.25081 -0.21076,-0.0851 -0.42088,-0.17101 -0.63036,-0.25841 -0.20929,-0.0874 -0.41833,-0.17598 -0.62656,-0.26602 -3.33122,-1.43891 -6.49684,-3.19944 -9.45945,-5.24346 -2.96265,-2.04402 -5.72232,-4.37151 -8.24172,-6.94443 -0.31503,-0.3216 -0.62609,-0.64705 -0.93346,-0.97626 -0.30732,-0.32918 -0.61087,-0.66219 -0.91047,-0.99883 -0.29962,-0.33663 -0.59534,-0.67698 -0.88707,-1.02093 -0.29144,-0.34394 -0.57953,-0.69151 -0.86325,-1.04259 -0.28384,-0.35107 -0.56339,-0.70572 -0.83893,-1.06381 -0.27537,-0.35812 -0.54702,-0.71966 -0.81426,-1.08459 -0.26718,-0.36494 -0.5303,-0.73326 -0.78909,-1.10492 m 3.30553,-70.13943 c 0.29144,-0.34394 0.58745,-0.68428 0.88707,-1.02092 0.2996,-0.33667 0.60312,-0.66965 0.91047,-0.99883 0.30734,-0.32922 0.61854,-0.65465 0.93346,-0.97627 2.5194,-2.57288 5.27907,-4.90039 8.24172,-6.94441 2.96261,-2.04403 6.12823,-3.80456 9.45945,-5.24345 0.20814,-0.09 0.41706,-0.1786 0.62656,-0.26601 0.2096,-0.0874 0.4196,-0.17363 0.63036,-0.25841 0.21077,-0.0851 0.42212,-0.16838 0.63414,-0.25081 0.21222,-0.0824 0.42462,-0.16341 0.63784,-0.24321 0.2131,-0.0798 0.42708,-0.15814 0.64153,-0.23531 0.21456,-0.0772 0.42947,-0.15289 0.64512,-0.22772 0.21573,-0.0745 0.43187,-0.14763 0.64872,-0.21983 0.21661,-0.0719 0.43418,-0.14236 0.65213,-0.21193 0.21807,-0.0693 0.43652,-0.1371 0.65564,-0.20346"
       id="path3757-3-2-2"
       inkscape:connector-curvature="0"
       sodipodi:nodetypes="cssssssssssssssssssssccsssssssssssssc" />
    <path
       style="fill:none;stroke:#000000;stroke-width:5.84640884;stroke-linecap:round;stroke-linejoin:round;stroke-miterlimit:4;stroke-opacity:1;stroke-dasharray:none"
       d="M 374.08479,524.49396 C 353.54586,492.7384 339.57783,477.06137 319.29258,456.00846 306.19253,442.41265 291.74502,430.019 276.40943,419.00642 258.73027,406.31088 233.19853,391.40876 220.19211,385.79235"
       id="path3813"
       inkscape:connector-curvature="0"
       sodipodi:nodetypes="caac" />
    <path
       style="fill:none;stroke:#000000;stroke-width:5.84640884;stroke-linecap:round;stroke-linejoin:round;stroke-miterlimit:4;stroke-opacity:1;stroke-dasharray:none"
       d="m 352.91697,548.76705 c -10.39436,-9.35946 -13.54684,-11.40111 -19.70676,-13.00642 -9.79916,-2.55368 -25.01152,-2.8068 -37.44279,-1.57654 -22.60886,2.23748 -43.84527,12.18722 -66.21462,16.1595 -15.24639,2.70741 -36.85158,5.61644 -46.16304,5.19769"
       id="path3815"
       inkscape:connector-curvature="0"
       sodipodi:nodetypes="csaac" />
    <path
       style="fill:none;stroke:#000000;stroke-width:5.84640884;stroke-linecap:round;stroke-linejoin:round;stroke-miterlimit:4;stroke-opacity:1;stroke-dasharray:none"
       d="m 633.54087,499.89434 c 0,0 -41.18198,-16.3467 -55.96711,-31.9249 -16.09777,-16.96124 -19.40239,-42.67433 -31.53079,-62.66741 -10.50181,-17.31172 -18.81371,-37.83004 -35.51173,-49.28258 -14.73217,-10.10423 -33.9931,-14.18051 -51.84684,-13.56793 -15.42615,0.5293 -32.46089,4.39007 -43.88828,14.76607 -9.16475,8.32155 -13.74555,21.59924 -15.1742,33.89558 -2.85615,24.58304 -0.408,52.78708 13.99179,72.91492 12.49658,17.46755 35.85428,24.39142 55.96712,31.92493 24.34552,9.11891 52.12383,6.23309 76.46214,15.37123 18.56606,6.97088 51.63165,29.56012 51.63165,29.56012"
       id="path3920"
       inkscape:connector-curvature="0"
       sodipodi:nodetypes="caaaaaaaaac" />
    <path
       style="fill:none;stroke:#000000;stroke-width:5.84640884;stroke-linecap:round;stroke-linejoin:round;stroke-miterlimit:4;stroke-opacity:1;stroke-dasharray:none"
       d="m 498.67487,372.07066 c 14.67647,17.05938 14.90437,17.44939 14.90437,17.44939"
       id="path3817-8-3"
       inkscape:connector-curvature="0" />
    <path
       style="fill:none;stroke:#000000;stroke-width:5.84640884;stroke-linecap:round;stroke-linejoin:round;stroke-miterlimit:4;stroke-opacity:1;stroke-dasharray:none"
       d="m 514.34596,373.07641 c -16.18043,15.64023 -16.55659,15.89031 -16.55659,15.89031"
       id="path3817-8-3-8"
       inkscape:connector-curvature="0" />
    <path
       style="fill:none;stroke:#000000;stroke-width:5.84640884;stroke-linecap:round;stroke-linejoin:round;stroke-miterlimit:4;stroke-opacity:1;stroke-dasharray:none"
       d="m 409.03729,387.36273 c 17.01176,14.73167 17.29417,15.0842 17.29417,15.0842"
       id="path3817-8-3-3"
       inkscape:connector-curvature="0" />
    <path
       style="fill:none;stroke:#000000;stroke-width:5.84640884;stroke-linecap:round;stroke-linejoin:round;stroke-miterlimit:4;stroke-opacity:1;stroke-dasharray:none"
       d="m 424.68714,386.06775 c -13.72133,17.83672 -14.05691,18.13906 -14.05691,18.13906"
       id="path3817-8-3-8-3"
       inkscape:connector-curvature="0" />
    <path
       style="fill:none;stroke:#000000;stroke-width:5.84640884;stroke-linecap:round;stroke-linejoin:round;stroke-miterlimit:4;stroke-opacity:1;stroke-dasharray:none"
       d="m 441.49009,388.40944 c 0.37827,-0.48654 0.74121,-0.93978 1.13046,-1.39414 0.37324,-0.45598 0.99989,-1.1054 1.36687,-1.51097 1.54798,-1.56292 1.14211,-1.06525 1.89227,-1.63015 0.75015,-0.56491 1.52185,-1.07861 2.23842,-1.56269 1.98692,-1.21096 3.96225,-2.0128 5.96585,-2.7531 0.78505,-0.27391 1.57592,-0.53252 2.37431,-0.76477 0.8026,-0.23357 1.60814,-0.4626 2.42678,-0.63141 0.8114,-0.16721 1.63063,-0.31369 2.45669,-0.37687 0.81895,-0.0625 1.64615,-0.0766 2.46401,-9.3e-4 1.63287,0.15084 3.24803,0.494 4.83571,0.90438 1.66888,0.43138 3.30451,0.99679 4.90718,1.63141 1.48156,0.58666 2.94375,1.23672 4.33906,2.00637 1.08913,0.60078 2.35993,1.38821 3.13139,2.02938"
       id="path3825-9"
       inkscape:connector-curvature="0"
       sodipodi:nodetypes="cccsccaaaaaaac" />
    <path
       style="fill:none;stroke:#000000;stroke-width:5.84640884;stroke-linecap:round;stroke-linejoin:round;stroke-miterlimit:4;stroke-opacity:1;stroke-dasharray:none"
       d="m 471.29964,379.47221 c 0.16575,1.31018 0.15172,0.91151 0.16984,2.28878 0.14558,11.01814 -4.72615,19.5644 -10.88142,19.08859 -6.15528,-0.47581 -11.1534,-8.04411 -11.29904,-19.06227"
       id="path3827-0"
       inkscape:connector-curvature="0"
       sodipodi:nodetypes="cssc" />
    <path
       style="fill:none;stroke:#000000;stroke-width:5.84640884;stroke-linecap:round;stroke-linejoin:round;stroke-miterlimit:4;stroke-opacity:1;stroke-dasharray:none"
       d="m 459.80911,378.85371 0.91558,12.11786"
       id="path3829-2"
       inkscape:connector-curvature="0" />
    <path
       style="fill:none;stroke:#000000;stroke-width:5.84640884;stroke-linecap:round;stroke-linejoin:round;stroke-miterlimit:4;stroke-opacity:1;stroke-dasharray:none"
       d="m 232.208,439.73442 c 17.01176,14.73167 17.29417,15.0842 17.29417,15.0842"
       id="path3817-8-3-3-7"
       inkscape:connector-curvature="0" />
    <path
       style="fill:none;stroke:#000000;stroke-width:5.84640884;stroke-linecap:round;stroke-linejoin:round;stroke-miterlimit:4;stroke-opacity:1;stroke-dasharray:none"
       d="m 247.85784,438.43944 c -13.72131,17.83672 -14.0569,18.13906 -14.0569,18.13906"
       id="path3817-8-3-8-3-8"
       inkscape:connector-curvature="0" />
    <path
       style="fill:none;stroke:#000000;stroke-width:5.84640884;stroke-linecap:round;stroke-linejoin:round;stroke-miterlimit:4;stroke-opacity:1;stroke-dasharray:none"
       d="m 111.66338,466.63538 c 18.3653,13.00528 18.68071,13.32865 18.68071,13.32865"
       id="path3817-8-3-3-7-4"
       inkscape:connector-curvature="0" />
    <path
       style="fill:none;stroke:#000000;stroke-width:5.84640884;stroke-linecap:round;stroke-linejoin:round;stroke-miterlimit:4;stroke-opacity:1;stroke-dasharray:none"
       d="m 127.11275,463.82276 c -11.91939,19.08797 -12.22393,19.42157 -12.22393,19.42157"
       id="path3817-8-3-8-3-8-5"
       inkscape:connector-curvature="0" />
    <path
       style="fill:none;stroke:#000000;stroke-width:5.84640884;stroke-linecap:round;stroke-linejoin:round;stroke-miterlimit:4;stroke-opacity:1;stroke-dasharray:none"
       d="m 160.77646,466.41857 c 0.23561,-0.56944 0.46549,-1.10267 0.72031,-1.64398 0.23882,-0.53866 0.671,-1.33097 0.9173,-1.81935 1.07819,-1.91741 0.81882,-1.32993 1.39233,-2.07352 0.57352,-0.7436 1.18138,-1.4435 1.74392,-2.10028 1.59475,-1.69447 3.28677,-2.99135 5.02233,-4.2364 0.68435,-0.47227 1.37832,-0.93134 2.08658,-1.36698 0.71189,-0.43798 1.4279,-0.87243 2.1725,-1.25227 0.73802,-0.37636 1.48907,-0.7348 2.26881,-1.01476 0.77305,-0.27741 1.56693,-0.51033 2.37552,-0.65445 1.6144,-0.28764 3.26273,-0.38489 4.90242,-0.41015 1.72352,-0.0263 3.45049,0.0851 5.1641,0.27186 1.58408,0.17276 3.1663,0.4119 4.71574,0.78403 1.20942,0.29056 2.64354,0.71276 3.55742,1.12643"
       id="path3825-9-7"
       inkscape:connector-curvature="0"
       sodipodi:nodetypes="cccsccaaaaaaac" />
    <path
       style="fill:none;stroke:#000000;stroke-width:5.84640884;stroke-linecap:round;stroke-linejoin:round;stroke-miterlimit:4;stroke-opacity:1;stroke-dasharray:none"
       d="m 187.14929,449.89715 c 0.50718,1.21935 0.38797,0.83867 0.77061,2.16182 3.06189,10.58519 0.63057,20.11726 -5.43052,21.29057 -6.06112,1.17332 -12.88712,-4.79882 -15.94903,-15.38401"
       id="path3827-0-7"
       inkscape:connector-curvature="0"
       sodipodi:nodetypes="cssc" />
    <path
       style="fill:none;stroke:#000000;stroke-width:5.84640884;stroke-linecap:round;stroke-linejoin:round;stroke-miterlimit:4;stroke-opacity:1;stroke-dasharray:none"
       d="m 175.90606,452.34752 4.09588,11.44139"
       id="path3829-2-5"
       inkscape:connector-curvature="0" />
    <path
       style="fill:none;stroke:#000000;stroke-width:5.84640884;stroke-linecap:round;stroke-linejoin:round;stroke-miterlimit:4;stroke-opacity:1;stroke-dasharray:none"
       d="m 441.59728,536.54887 c 3.74428,-4.72959 12.41524,-14.78004 12.21815,-24.23927"
       id="path4199"
       inkscape:connector-curvature="0"
       sodipodi:nodetypes="cc" />
    <path
       style="fill:none;stroke:#000000;stroke-width:5.84640884;stroke-linecap:round;stroke-linejoin:round;stroke-miterlimit:4;stroke-opacity:1;stroke-dasharray:none"
       d="m 466.23069,536.15474 c -6.70027,-6.30614 -12.0211,-11.03577 -12.21817,-25.2246"
       id="path4201"
       inkscape:connector-curvature="0"
       sodipodi:nodetypes="cc" />
    <path
       sodipodi:type="arc"
       style="fill:none;stroke:#000000;stroke-width:2;stroke-linecap:round;stroke-linejoin:round;stroke-miterlimit:4;stroke-opacity:1;stroke-dasharray:none"
       id="path4205"
       sodipodi:cx="218.55891"
       sodipodi:cy="173.19348"
       sodipodi:rx="1.8202007"
       sodipodi:ry="1.8202007"
       d="m 220.37911,173.19348 a 1.8202007,1.8202007 0 1 1 -3.6404,0 1.8202007,1.8202007 0 1 1 3.6404,0 z"
       transform="matrix(2.9232044,0,0,2.9232044,-184.6828,0.70888713)" />
    <path
       style="fill:none;stroke:#000000;stroke-width:5.84640884;stroke-linecap:round;stroke-linejoin:round;stroke-miterlimit:4;stroke-opacity:1;stroke-dasharray:none"
       d="m 391.31575,520.6051 c 4.24226,-6.65777 10.72857,-8.68738 13.5097,-8.68738 4.85036,0 8.39179,2.14505 11.73614,4.932"
       id="path4207"
       inkscape:connector-curvature="0"
       sodipodi:nodetypes="csc" />
    <path
       style="fill:none;stroke:#000000;stroke-width:5.84640884;stroke-linecap:round;stroke-linejoin:round;stroke-miterlimit:4;stroke-opacity:1;stroke-dasharray:none"
       d="m 394.98025,537.24682 c 4.24226,-6.65778 10.72856,-8.68739 13.5097,-8.68739 4.85035,0 8.39178,2.14505 11.73613,4.932"
       id="path4207-5"
       inkscape:connector-curvature="0"
       sodipodi:nodetypes="csc" />
    <path
       style="fill:none;stroke:#000000;stroke-width:5.84640884;stroke-linecap:round;stroke-linejoin:round;stroke-miterlimit:4;stroke-opacity:1;stroke-dasharray:none"
       d="m 512.23529,515.97171 c -5.46867,-5.69356 -12.22744,-6.40799 -14.9543,-5.86109 -4.75564,0.95381 -7.80609,3.75343 -10.53709,7.14361"
       id="path4207-5-3"
       inkscape:connector-curvature="0"
       sodipodi:nodetypes="csc" />
    <path
       style="fill:none;stroke:#000000;stroke-width:5.84640884;stroke-linecap:round;stroke-linejoin:round;stroke-miterlimit:4;stroke-opacity:1;stroke-dasharray:none"
       d="m 514.53252,532.08332 c -5.72463,-5.4361 -12.50909,-5.83909 -15.20788,-5.16743 -4.7068,1.17145 -7.62533,4.1083 -10.19757,7.62045"
       id="path4207-5-3-3"
       inkscape:connector-curvature="0"
       sodipodi:nodetypes="csc" />
    <path
       style="fill:none;stroke:#000000;stroke-width:5.84640884;stroke-linecap:round;stroke-linejoin:round;stroke-miterlimit:4;stroke-opacity:1;stroke-dasharray:none"
       d="m 267.38973,411.21406 c 0.78827,-16.55367 0.74062,-29.78514 -5.12376,-42.9607 -3.40737,-7.65535 -14.73485,-10.7388 -16.55367,-18.91845 -1.33573,-6.00707 1.55889,-12.72003 5.12377,-17.73608 4.47673,-6.29912 11.56007,-11.03947 18.91844,-13.40058 26.64576,-8.54993 57.10864,-8.30611 83.95073,-0.39414 16.18903,4.77188 19.05064,14.28547 30.34835,16.55367 15.02147,3.01581 30.81228,-1.19271 45.71966,-4.72962 18.29753,-4.34126 36.51812,-5.27171 54.9078,-5.3706 20.66274,-0.11111 41.23948,7.82661 61.75605,5.3706 30.54466,-3.65646 57.09872,-24.49365 87.45611,-29.47107 17.05143,-2.79579 36.48896,-7.93694 51.83733,0 4.85387,2.51003 7.92709,8.13693 9.47565,13.37737 2.52954,8.56007 0.90588,18.06049 -1.11479,26.75476 -2.71185,11.66824 -10.1446,21.7236 -14.49217,32.88606 -3.56107,9.14311 -9.55648,18.05774 -9.47562,27.86954 0.0862,10.4605 8.66578,19.25938 10.59041,29.54169 3.96662,21.1916 4.89617,43.34008 1.67217,64.65731 -4.07676,26.95563 -10.13215,55.45152 -26.19735,77.47731 -18.78852,25.75948 -47.67162,44.16149 -76.91991,56.85384 -24.43726,10.6046 -54.55302,3.01348 -78.59208,14.49217 -7.72889,3.69057 -18.08954,8.27529 -19.50867,16.72172 -1.89023,11.2503 10.74525,20.19016 17.27909,29.5417 6.34926,9.08736 16.67849,15.50976 21.18086,25.63998 2.59323,5.83471 5.99798,13.43239 2.78696,18.95128 -1.80455,3.10157 -6.45303,4.14592 -10.03306,3.90171 -3.81691,-0.26045 -7.29202,-2.9049 -10.03302,-5.57391 -3.40158,-3.31225 -2.55987,-13.02512 -7.24607,-12.26257 -2.62568,0.42726 -1.43836,5.15355 -1.67219,7.80346 -0.46572,5.27796 -0.96486,10.81054 0.55741,15.88563 1.56317,5.21152 4.20274,10.59779 8.5002,13.93478 7.63611,5.92945 18.07228,8.06094 27.73019,8.5002 9.95585,0.45284 21.39628,-0.0117 29.26301,-6.13131 5.83749,-4.54037 8.66077,-12.61265 9.75435,-19.92672 1.0016,-6.69899 -1.58473,-13.48921 -3.205,-20.06604 -1.18411,-4.80636 -4.67892,-9.1244 -4.73782,-14.07412 -0.0503,-4.23093 0.62323,-9.2862 3.76237,-12.12326 5.37963,-4.86193 14.21504,-5.76748 21.32018,-4.31976 6.35017,1.29389 11.1598,6.72732 16.02501,11.00846 6.17402,5.43284 13.88648,10.57735 16.44303,18.39389 4.16378,12.73061 1.0104,27.53181 -3.90175,39.99279 -5.3219,13.50041 -14.46595,26.41323 -26.47605,34.55821 -9.06669,6.14882 -20.69491,9.54604 -31.63193,8.91826 -13.43405,-0.77111 -24.27248,-12.13866 -37.34516,-15.32826 -8.10968,-1.97868 -24.94324,-2.22956 -24.94324,-2.22956"
       id="path4263"
       inkscape:connector-curvature="0"
       sodipodi:nodetypes="caaaasasaaaaaaaaaaaaaaaaaaaaaaaaaaaaaaaaaaaac" />
    <path
       style="fill:none;stroke:#000000;stroke-width:5.84640884;stroke-linecap:round;stroke-linejoin:round;stroke-miterlimit:4;stroke-opacity:1;stroke-dasharray:none"
       d="m 491.89794,768.50459 c 0,11.00846 -1.59601,23.84626 0.8361,35.39433 1.12883,5.35987 5.82355,9.72971 6.27062,15.18888 0.21807,2.66141 -0.25666,5.63249 -1.8115,7.80346 -2.10141,2.93414 -5.69923,4.82394 -9.19696,5.71326 -3.11137,0.79108 -6.6068,0.56392 -9.61497,-0.5574 -3.56922,-1.33044 -6.92142,-3.81363 -9.05761,-6.96736 -2.68003,-3.95662 -2.46143,-9.23879 -3.90173,-13.79543 -0.88994,-2.81542 -0.26103,-7.08997 -2.92629,-8.36085 -2.36058,-1.12564 -5.40259,0.94244 -7.38545,2.6476 -4.08118,3.50963 -4.575,9.80542 -7.66412,14.21346 -1.6426,2.34392 -2.96296,5.61759 -5.71325,6.40998 -3.53141,1.01745 -7.79081,-0.68482 -10.59043,-3.06563 -2.31084,-1.96514 -3.12782,-5.28843 -3.90174,-8.2215 -1.62785,-6.16934 -2.26864,-12.77049 -1.39346,-19.09067 0.76588,-5.53078 3.6704,-10.54981 5.71326,-15.74628 2.9165,-7.41885 7.07175,-14.3738 9.33627,-22.01693 2.19758,-7.41713 4.14846,-15.11791 4.0411,-22.85299 -0.0705,-5.07355 -0.28736,-10.66447 -3.06565,-14.91022 -1.05849,-1.61753 -2.81622,-3.55493 -4.73782,-3.34435 -3.43205,0.37614 -4.84264,4.94276 -6.9674,7.66412 -3.09199,3.96015 -3.8909,10.24727 -8.36086,12.54131 -3.59738,1.84623 -8.87911,1.99555 -12.12323,-0.41805 -2.79301,-2.078 -3.02441,-6.42719 -3.34435,-9.89368 -0.27156,-2.94349 0.18183,-6.02426 1.25414,-8.7789 2.98176,-7.65994 9.37922,-13.50284 13.93477,-20.34478 3.64881,-5.48007 8.99046,-10.23261 10.72977,-16.58237 1.24038,-4.52824 1.46549,-9.83719 -0.55739,-14.07412 -2.79386,-5.8517 -9.13415,-9.38094 -14.63152,-12.81997 C 405.70287,647.1296 392.34351,643.86742 380.00177,638.63258 344.1957,623.4451 302.9416,617.24992 272.70406,592.7872 258.91802,581.63407 249.74431,565.28593 242.04757,549.3107"
       id="path4265"
       inkscape:connector-curvature="0"
       sodipodi:nodetypes="caaaaaaaaaaaaaaaaaaaaaaaaaaaaaac" />
    <path
       style="fill:none;stroke:#000000;stroke-width:5.84640884;stroke-linecap:round;stroke-linejoin:round;stroke-miterlimit:4;stroke-opacity:1;stroke-dasharray:none"
       d="m 280.97047,351.88976 c 8.37472,-1.01798 14.90288,-1.09112 20.21631,0.20404 3.68727,0.8988 11.39152,5.34415 14.68153,10.34604 2.28676,3.47665 3.16261,8.10046 2.56187,12.21818 -0.25871,1.77417 -1.08893,3.70729 -2.56187,4.72962 -1.36228,0.94551 -3.27727,0.86063 -4.92669,0.68973 -2.60416,-0.2698 -5.13785,-1.32541 -7.39003,-2.66041 -2.30176,-1.3644 -4.49422,-3.11616 -6.01055,-5.32081 -1.43123,-2.08095 -2.13338,-4.62443 -2.66041,-7.09444 -0.5562,-2.6068 -0.46175,-5.31593 -0.49268,-7.98123 -0.0204,-1.70905 0.19703,-5.12373 0.19703,-5.12373"
       id="path4267"
       inkscape:connector-curvature="0"
       sodipodi:nodetypes="csaaaaaaaac" />
    <path
       style="fill:none;stroke:#000000;stroke-width:5.84640884;stroke-linecap:round;stroke-linejoin:round;stroke-miterlimit:4;stroke-opacity:1;stroke-dasharray:none"
       d="m 656.0495,327.74792 c -15.46759,5.29521 -16.63435,7.00678 -22.85304,13.23803 -4.20409,4.21256 -7.28997,9.74318 -8.91823,15.46761 -0.8137,2.86073 -1.01797,6.03744 -0.27857,8.91826 0.59016,2.29936 1.73898,4.68703 3.62301,6.13126 2.06604,1.58377 4.97445,2.61227 7.52479,2.09024 2.03967,-0.41748 3.6981,-2.18585 4.87717,-3.90174 1.82195,-2.65143 2.75208,-5.98459 2.9263,-9.19696 0.21574,-3.97498 -1.4297,-7.83673 -2.3689,-11.70518 -0.92277,-3.80072 -3.20501,-11.28716 -3.20501,-11.28716"
       id="path4269"
       inkscape:connector-curvature="0"
       sodipodi:nodetypes="caaaaaaaac" />
    <path
       style="fill:none;stroke:#000000;stroke-width:5.84640884;stroke-linecap:round;stroke-linejoin:round;stroke-miterlimit:4;stroke-opacity:1;stroke-dasharray:none"
       d="m 371.04715,289.22936 9.45925,-9.65631 31.72783,38.23106 z"
       id="path4275"
       inkscape:connector-curvature="0" />
    <path
       style="fill:none;stroke:#000000;stroke-width:5.84640884;stroke-linecap:round;stroke-linejoin:round;stroke-miterlimit:4;stroke-opacity:1;stroke-dasharray:none"
       d="m 398.63658,241.14493 23.0569,-16.15953 14.97709,83.35949 z"
       id="path4277"
       inkscape:connector-curvature="0" />
    <path
       style="fill:none;stroke:#000000;stroke-width:5.84640884;stroke-linecap:round;stroke-linejoin:round;stroke-miterlimit:4;stroke-opacity:1;stroke-dasharray:none"
       d="m 26.770464,383.62462 71.338375,2.56187 -68.579425,19.70673 z"
       id="path4279"
       inkscape:connector-curvature="0" />
    <path
       style="fill:none;stroke:#000000;stroke-width:5.84640884;stroke-linecap:round;stroke-linejoin:round;stroke-miterlimit:4;stroke-opacity:1;stroke-dasharray:none"
       d="m 59.089498,354.45865 c 0.394136,-0.78828 12.021123,-18.32727 12.021123,-18.32727 l 46.902049,46.11376 z"
       id="path4281"
       inkscape:connector-curvature="0" />
    <path
       style="fill:none;stroke:#000000;stroke-width:5.84640884;stroke-linecap:round;stroke-linejoin:round;stroke-miterlimit:4;stroke-opacity:1;stroke-dasharray:none"
       d="m 461.59961,748.3963 c 2.06919,4.33549 4.58705,7.54672 3.84278,11.52845 -0.22714,1.21531 -1.13944,3.02213 -2.36481,2.85748 -1.10722,-0.14879 -1.4015,-1.93756 -1.37947,-3.05454 0.0362,-1.83571 2.46336,-4.92671 2.46336,-4.92671"
       id="path4283"
       inkscape:connector-curvature="0"
       sodipodi:nodetypes="caaac" />
  </g>
</svg>
