<?xml version="1.0" encoding="UTF-8" standalone="no"?>
<!-- Created with Inkscape (http://www.inkscape.org/) -->

<svg
   xmlns:dc="http://purl.org/dc/elements/1.1/"
   xmlns:cc="http://creativecommons.org/ns#"
   xmlns:rdf="http://www.w3.org/1999/02/22-rdf-syntax-ns#"
   xmlns:svg="http://www.w3.org/2000/svg"
   xmlns="http://www.w3.org/2000/svg"
   xmlns:sodipodi="http://sodipodi.sourceforge.net/DTD/sodipodi-0.dtd"
   xmlns:inkscape="http://www.inkscape.org/namespaces/inkscape"
   width="744.09448819"
   height="1052.3622047"
   id="svg4302"
   version="1.1"
   inkscape:version="0.48.4 r9939"
   sodipodi:docname="New document 11">
  <defs
     id="defs4304">
    <inkscape:path-effect
       effect="spiro"
       id="path-effect4240-9-5-3-0-6-2"
       is_visible="true" />
  </defs>
  <sodipodi:namedview
     id="base"
     pagecolor="#ffffff"
     bordercolor="#666666"
     borderopacity="1.0"
     inkscape:pageopacity="0.0"
     inkscape:pageshadow="2"
     inkscape:zoom="0.35"
     inkscape:cx="-26.507938"
     inkscape:cy="692.60215"
     inkscape:document-units="px"
     inkscape:current-layer="layer1"
     showgrid="false"
     inkscape:window-width="819"
     inkscape:window-height="721"
     inkscape:window-x="144"
     inkscape:window-y="38"
     inkscape:window-maximized="0" />
  <metadata
     id="metadata4307">
    <rdf:RDF>
      <cc:Work
         rdf:about="">
        <dc:format>image/svg+xml</dc:format>
        <dc:type
           rdf:resource="http://purl.org/dc/dcmitype/StillImage" />
        <dc:title></dc:title>
      </cc:Work>
    </rdf:RDF>
  </metadata>
  <g
     inkscape:label="Layer 1"
     inkscape:groupmode="layer"
     id="layer1">
    <rect
       style="fill:#ffd5f6;fill-opacity:1;stroke:none"
       id="rect3195"
       width="430.8606"
       height="211.4975"
       x="150.92728"
       y="316.50192" />
    <path
       sodipodi:type="arc"
       style="fill:#eeffaa;fill-opacity:1;stroke:none;display:inline"
       id="path7108-0"
       sodipodi:cx="249.88649"
       sodipodi:cy="922.99951"
       sodipodi:rx="7.323606"
       sodipodi:ry="5.2401662"
       d="m 257.2101,922.99951 a 7.323606,5.2401662 0 1 1 -14.64722,0 7.323606,5.2401662 0 1 1 14.64722,0 z"
       transform="matrix(9.7883137,0,0,9.7883137,-2080.3455,-8380.2587)" />
    <path
       style="fill:#eeffaa;fill-opacity:1;stroke:#000000;stroke-width:19.57662773;stroke-linecap:round;stroke-linejoin:round;stroke-miterlimit:4;stroke-opacity:1;stroke-dasharray:none;display:inline"
       d="m 433.90411,665.43838 -25.99052,47.46089 117.52222,1.13006 -154.81296,240.69424 11.87088,-168.82295 -107.47167,0.79872 18.37805,-119.85653"
       id="path4238-0-8-2-7"
       inkscape:path-effect="#path-effect4240-9-5-3-0-6-2"
       inkscape:original-d="m 433.90411,665.43838 -25.99052,47.46089 117.52222,1.13006 -154.81296,240.69424 11.87088,-168.82295 -107.47167,0.79872 18.37805,-119.85653"
       inkscape:connector-curvature="0" />
    <path
       style="fill:#ffd5f6;fill-opacity:1;stroke:#ffd5f6;stroke-width:5.01966906;stroke-linecap:round;stroke-linejoin:round;stroke-miterlimit:4;stroke-opacity:1;stroke-dasharray:none;display:inline"
       d="m 244.50229,572.94743 c -66.85183,-21.78095 -105.5372,-35.5768 -105.5372,-37.63626 0,-1.78823 -2.32864,-5.60284 -5.17469,-8.47688 -5.15355,-5.20454 -5.16363,-5.63562 -2.48771,-106.40033 2.54869,-95.97921 2.94276,-101.41564 7.67248,-105.8656 2.74219,-2.57991 4.98567,-6.6633 4.98567,-9.07425 0,-3.54377 20.30958,-11.09408 106.03269,-39.41853 89.94903,-29.72064 106.63302,-34.5318 109.98962,-31.71864 3.14666,2.63727 5.8584,2.71077 13.24311,0.35826 8.79714,-2.80162 14.74658,-1.12733 112.94998,31.78617 93.12073,31.20975 103.74477,35.3183 104.45922,40.39687 0.43755,3.10935 2.82276,7.08762 5.30058,8.84031 4.16199,2.94384 4.6467,10.99247 6.36025,105.58908 1.68466,93.0062 1.48478,102.54579 -2.17829,103.9653 -2.21824,0.86039 -4.04718,4.1526 -4.0644,7.31783 -0.0293,5.36107 -7.42934,8.14153 -108.13279,40.62856 -97.71095,31.52169 -108.75217,34.57428 -114.8731,31.75779 -5.20288,-2.39393 -8.24577,-2.43759 -13.13415,-0.18892 -3.49922,1.61008 -7.15242,2.83646 -8.11813,2.72527 -0.96514,-0.11062 -49.24776,-15.67549 -107.29314,-34.58711 z m 147.02214,-94.05492 c 18.44569,-13.26414 23.58161,-47.73526 7.11218,-47.73526 -2.26002,0 -6.14372,2.2703 -8.63035,5.0452 -6.79123,7.57831 -34.84532,7.31803 -41.01842,-0.38077 -5.26406,-6.56493 -16.47549,-4.91256 -18.89468,2.78468 -4.07105,12.95366 9.69523,37.71202 24.81837,44.63529 9.89276,4.52857 27.11089,2.4831 36.6129,-4.34962 l 0,0 z M 542.6695,469.215 c 16.36939,-7.50704 28.43632,-27.58591 28.43632,-47.3171 0,-6.63481 -1.37976,-9.1415 -6.2697,-11.39154 -5.33659,-2.4555 -7.12609,-2.07199 -12.02603,2.57677 -5.10774,4.84571 -8.56223,5.46139 -30.64418,5.46139 -21.79642,0 -25.41897,-0.62644 -29.16526,-5.04519 -9.42066,-11.111 -20.5253,-2.50815 -18.634,14.4361 3.82234,34.24491 38.25958,55.0574 68.30285,41.27957 l 0,0 z m -302.51714,-2.40117 c 17.66459,-8.10404 31.14084,-28.61027 31.18861,-47.45854 0.0293,-11.95094 -14.64068,-17.93268 -20.5491,-8.3786 -2.79877,4.52582 -5.82522,5.04528 -29.39548,5.04528 -23.57006,0 -26.59651,-0.51976 -29.39528,-5.04528 -6.89724,-11.1531 -18.06522,-4.31596 -18.06522,11.05972 0,34.23032 36.0576,58.6134 66.21647,44.77742 z"
       id="path6769-9-6-0"
       inkscape:connector-curvature="0" />
    <path
       style="fill:#ffd5f6;fill-opacity:1;stroke:#000000;stroke-width:19.57662773;stroke-linecap:round;stroke-miterlimit:4;stroke-opacity:1;stroke-dasharray:none;display:inline"
       d="m 367.361,228.89702 c 2.99072,-3.72905 6.12318,-7.30326 9.38239,-10.71635 3.25912,-3.41307 6.645,-6.66525 10.14216,-9.75004 13.98838,-12.33943 29.75774,-22.00421 46.32604,-28.6032 33.13656,-13.19788 69.46912,-14.13276 101.14342,0.32399 31.6742,14.45645 52.69314,41.56695 61.07076,73.71236 2.0944,8.03641 3.39879,16.3875 3.88205,24.93406 0.24176,4.27338 0.27798,8.59561 0.10473,12.9518 -0.0881,2.1782 -0.22513,4.36481 -0.41698,6.55808 -0.19185,2.19327 -0.43558,4.39319 -0.73315,6.59791"
       id="path4194-1-1-4-7-9-0-0"
       inkscape:connector-curvature="0"
       sodipodi:nodetypes="cssssssssc" />
    <path
       style="fill:#ffd5f6;fill-opacity:1;stroke:#000000;stroke-width:19.57662773;stroke-linecap:round;stroke-miterlimit:4;stroke-opacity:1;stroke-dasharray:none;display:inline"
       d="m 366.88107,228.95271 c -2.99072,-3.72904 -6.12317,-7.30325 -9.38239,-10.71634 -3.25912,-3.41308 -6.64499,-6.66525 -10.14216,-9.75004 -13.98838,-12.33944 -29.75775,-22.00422 -46.32603,-28.60321 -33.13657,-13.19787 -69.46913,-14.13276 -101.14343,0.324 -31.6742,14.45645 -52.69313,41.56694 -61.07075,73.71236 -2.09441,8.0363 -3.39881,16.3874 -3.88205,24.93396 -0.24177,4.27338 -0.27799,8.59561 -0.10474,12.95181 0.0881,2.17818 0.22514,4.3648 0.41699,6.55807 0.19185,2.19326 0.43558,4.39318 0.73314,6.59791"
       id="path4194-1-1-9-3-2-5-1-3"
       inkscape:connector-curvature="0"
       sodipodi:nodetypes="cssssssssc" />
    <path
       style="fill:#ffd5f6;fill-opacity:1;stroke:#000000;stroke-width:19.57662773;stroke-linecap:round;stroke-miterlimit:4;stroke-opacity:1;stroke-dasharray:none;display:inline"
       d="m 598.19987,307.98806 c 57.19625,0 103.56291,49.94419 103.56291,111.55331 0,30.80461 -11.59171,58.69298 -30.3329,78.88019 -9.37056,10.09352 -20.52855,18.26186 -32.91859,23.90669 -6.19512,2.82245 -12.6982,5.01406 -19.43989,6.50011 -3.3708,0.74295 -6.80131,1.3091 -10.28272,1.69035 -1.74086,0.19087 -3.49433,0.33476 -5.25945,0.43068"
       id="path4216-2-17-9-4-5-3"
       inkscape:connector-curvature="0"
       sodipodi:nodetypes="csssssc" />
    <path
       style="fill:#ffd5f6;fill-opacity:1;stroke:#000000;stroke-width:19.57662773;stroke-linecap:round;stroke-miterlimit:4;stroke-opacity:1;stroke-dasharray:none;display:inline"
       d="m 135.26657,308.04366 c -57.196244,0 -103.562899,49.94419 -103.562899,111.55331 0,30.8046 11.591712,58.69298 30.332907,78.88019 9.370549,10.09351 20.528541,18.26186 32.918586,23.90668 6.195126,2.82246 12.698186,5.01406 19.439876,6.50012 3.37081,0.74294 6.80132,1.30909 10.28273,1.69035 1.74085,0.19087 3.49433,0.33476 5.25946,0.43069"
       id="path4216-2-1-1-5-1-5-6"
       inkscape:connector-curvature="0"
       sodipodi:nodetypes="csssssc" />
    <path
       style="fill:#ffd5f6;fill-opacity:1;stroke:#000000;stroke-width:19.57662773;stroke-linecap:round;stroke-miterlimit:4;stroke-opacity:1;stroke-dasharray:none;display:inline"
       d="m 366.98327,608.68857 c 3.06324,3.72299 6.27166,7.29141 9.60987,10.69892 3.3382,3.40751 6.8061,6.6544 10.38814,9.73419 14.32764,12.31937 30.47943,21.96841 47.44943,28.55672 33.9403,13.17654 71.154,14.10985 103.59648,-0.32399 32.44239,-14.43297 53.971,-41.49951 62.55183,-73.59265 2.14511,-8.02339 3.48121,-16.36078 3.97621,-24.89364 0.24666,-4.26634 0.28484,-8.58161 0.10767,-12.93066 -0.0881,-2.17467 -0.23002,-4.35776 -0.42775,-6.54741 -0.19674,-2.18973 -0.44634,-4.38604 -0.75174,-6.58724"
       id="path4194-1-1-4-9-7-0-1-6"
       inkscape:connector-curvature="0"
       sodipodi:nodetypes="cssssssssc" />
    <path
       style="fill:#ffd5f6;fill-opacity:1;stroke:#000000;stroke-width:19.57662773;stroke-linecap:round;stroke-miterlimit:4;stroke-opacity:1;stroke-dasharray:none;display:inline"
       d="m 366.49159,608.63298 c -3.06315,3.72299 -6.27166,7.29132 -9.60987,10.69892 -3.3381,3.40751 -6.8061,6.65438 -10.38804,9.73418 -14.32765,12.31938 -30.47953,21.9685 -47.44964,28.55682 -33.94018,13.17635 -71.15389,14.10976 -103.59627,-0.324 -32.44239,-14.43296 -53.9711,-41.4994 -62.55184,-73.59265 -2.1452,-8.02319 -3.4812,-16.36077 -3.9762,-24.89344 -0.24862,-4.26644 -0.28484,-8.58161 -0.10767,-12.93085 0.0881,-2.17457 0.23002,-4.35766 0.42775,-6.5474 0.19675,-2.18965 0.44634,-4.38605 0.75174,-6.58715"
       id="path4194-1-1-9-3-6-1-1-9-5"
       inkscape:connector-curvature="0"
       sodipodi:nodetypes="cssssssssc" />
    <path
       style="fill:#ffd5f6;fill-opacity:1;stroke:#000000;stroke-width:19.57662773;stroke-linecap:round;stroke-linejoin:round;stroke-miterlimit:4;stroke-opacity:1;stroke-dasharray:none;display:inline"
       d="m 186.05088,415.9283 c 0,23.33231 16.7995,42.24696 37.52272,42.24696 20.72333,0 37.52282,-18.91465 37.52282,-42.24696"
       id="path4248-4-7-6-4-3-2-1"
       inkscape:connector-curvature="0"
       sodipodi:nodetypes="csc" />
    <path
       style="fill:#ffd5f6;fill-opacity:1;stroke:#000000;stroke-width:19.57662773;stroke-linecap:round;stroke-linejoin:round;stroke-miterlimit:4;stroke-opacity:1;stroke-dasharray:none;display:inline"
       d="m 483.41457,418.92392 c 0,23.3323 16.79948,42.24694 37.52272,42.24694 20.72332,0 37.52281,-18.91464 37.52281,-42.24694"
       id="path4248-4-7-6-3-4-9-2-0"
       inkscape:connector-curvature="0"
       sodipodi:nodetypes="csc" />
    <path
       style="fill:#ffd5f6;fill-opacity:1;stroke:#000000;stroke-width:19.57662773;stroke-linecap:round;stroke-linejoin:round;stroke-miterlimit:4;stroke-opacity:1;stroke-dasharray:none;display:inline"
       d="m 340.6803,472.93163 c 0,-17.84655 12.84961,-32.31397 28.70042,-32.31397 15.8509,0 28.7006,14.46742 28.7006,32.31397"
       id="path4248-4-7-6-3-2-67-7-9-3"
       inkscape:connector-curvature="0"
       sodipodi:nodetypes="csc" />
  </g>
</svg>
