<?xml version="1.0" encoding="UTF-8" standalone="no"?>
<!-- Created with Inkscape (http://www.inkscape.org/) -->

<svg
   xmlns:dc="http://purl.org/dc/elements/1.1/"
   xmlns:cc="http://creativecommons.org/ns#"
   xmlns:rdf="http://www.w3.org/1999/02/22-rdf-syntax-ns#"
   xmlns:svg="http://www.w3.org/2000/svg"
   xmlns="http://www.w3.org/2000/svg"
   xmlns:sodipodi="http://sodipodi.sourceforge.net/DTD/sodipodi-0.dtd"
   xmlns:inkscape="http://www.inkscape.org/namespaces/inkscape"
   width="744.09448819"
   height="1052.3622047"
   id="svg4200"
   version="1.1"
   inkscape:version="0.48.4 r9939"
   sodipodi:docname="New document 8">
  <defs
     id="defs4202" />
  <sodipodi:namedview
     id="base"
     pagecolor="#ffffff"
     bordercolor="#666666"
     borderopacity="1.0"
     inkscape:pageopacity="0.0"
     inkscape:pageshadow="2"
     inkscape:zoom="0.24748737"
     inkscape:cx="354.76484"
     inkscape:cy="641.71591"
     inkscape:document-units="px"
     inkscape:current-layer="layer1"
     showgrid="false"
     inkscape:window-width="497"
     inkscape:window-height="438"
     inkscape:window-x="217"
     inkscape:window-y="45"
     inkscape:window-maximized="0" />
  <metadata
     id="metadata4205">
    <rdf:RDF>
      <cc:Work
         rdf:about="">
        <dc:format>image/svg+xml</dc:format>
        <dc:type
           rdf:resource="http://purl.org/dc/dcmitype/StillImage" />
        <dc:title></dc:title>
      </cc:Work>
    </rdf:RDF>
  </metadata>
  <g
     inkscape:label="Layer 1"
     inkscape:groupmode="layer"
     id="layer1">
    <rect
       style="fill:#ffd5f6;fill-opacity:1;stroke:none;display:inline"
       id="rect4163"
       width="427.14636"
       height="229.62204"
       x="153.27133"
       y="205.93031" />
    <path
       style="fill:#ffd5f6;fill-opacity:1;stroke:#ffd5f6;stroke-width:5.01384497;stroke-linecap:round;stroke-linejoin:round;stroke-miterlimit:4;stroke-opacity:1;stroke-dasharray:none;display:inline"
       d="M 249.95831,464.72182 C 183.18405,442.96614 144.54356,429.1863 144.54356,427.12923 c 0,-1.78615 -2.32584,-5.59633 -5.16859,-8.46704 -5.14767,-5.19851 -5.15774,-5.62909 -2.48491,-106.27688 2.54583,-95.86785 2.93944,-101.29798 7.66357,-105.74277 2.73901,-2.57692 4.97989,-6.65558 4.97989,-9.06374 0,-3.53965 20.28601,-11.08119 105.90967,-39.37277 89.84465,-29.68617 106.50928,-34.49174 109.86199,-31.68184 3.143,2.6342 5.85161,2.70763 13.22773,0.35784 8.78695,-2.79837 14.72948,-1.12602 112.81894,31.74929 93.01269,31.17353 103.6244,35.27732 104.33803,40.34999 0.43702,3.10575 2.81947,7.0794 5.29441,8.83006 4.15716,2.94042 4.64131,10.97972 6.35287,105.46657 1.68272,92.89829 1.48307,102.42682 -2.17576,103.84467 -2.21565,0.85939 -4.04249,4.14778 -4.05969,7.30936 -0.0293,5.35483 -7.42071,8.13208 -108.0073,40.58141 -97.5976,31.48512 -108.626,34.53416 -114.73983,31.72094 -5.19684,-2.39115 -8.23621,-2.43476 -13.11892,-0.1887 -3.49516,1.60822 -7.14411,2.83317 -8.1087,2.7221 -0.96402,-0.11048 -49.19052,-15.65731 -107.16865,-34.54697 z m 146.85155,-93.94579 c 18.42428,-13.24876 23.55425,-47.67988 7.10394,-47.67988 -2.25741,0 -6.13661,2.26767 -8.62034,5.03934 -6.78336,7.56952 -34.8049,7.30955 -40.97083,-0.38033 -5.25795,-6.5573 -16.45628,-4.90685 -18.87275,2.78146 -4.06634,12.93862 9.68398,37.66826 24.78957,44.58351 9.88128,4.5233 27.07943,2.48022 36.57041,-4.34459 l 0,0 z m 150.9697,-9.66629 c 16.3504,-7.49834 28.40333,-27.5539 28.40333,-47.2622 0,-6.62711 -1.37816,-9.13089 -6.26243,-11.37832 -5.3304,-2.45265 -7.11783,-2.06958 -12.01207,2.57379 -5.10181,4.84008 -8.5523,5.45505 -30.60862,5.45505 -21.77113,0 -25.38948,-0.62572 -29.13142,-5.03934 -9.40974,-11.09812 -20.50149,-2.50524 -18.61239,14.41935 3.8179,34.20517 38.21519,54.99352 68.2236,41.23167 l 0,0 z m -302.16613,-2.39838 c 17.64409,-8.09463 31.1048,-28.57707 31.15242,-47.40348 0.0293,-11.93707 -14.62369,-17.91187 -20.52526,-8.36888 -2.79552,4.52058 -5.81845,5.03944 -29.36127,5.03944 -23.54281,0 -26.56576,-0.51916 -29.36128,-5.03944 -6.88914,-11.14015 -18.04415,-4.31094 -18.04415,11.04689 0,34.1906 36.01567,58.5454 66.13954,44.72547 z"
       id="path6769-9-5"
       inkscape:connector-curvature="0" />
    <path
       style="fill:#d7d7f4;fill-opacity:1;stroke:none;display:inline"
       d="m 206.50698,684.91414 c -6.35161,-3.13058 -10.46369,-9.44455 -11.16079,-17.13637 -0.54555,-6.02524 0.16914,-7.75205 10.08815,-24.37219 5.87176,-9.83826 10.95156,-17.88773 11.28858,-17.88773 0.3373,0 5.36764,8.00263 11.17926,17.7836 11.7873,19.83803 12.70966,23.99353 7.38669,33.27783 -5.59457,9.75837 -18.38107,13.46189 -28.78189,8.33486 l 0,0 z"
       id="path6811-14"
       inkscape:connector-curvature="0" />
    <path
       style="fill:#d7d7f4;fill-opacity:1;stroke:none;display:inline"
       d="m 364.33091,721.37338 c -6.3516,-3.13058 -10.4637,-9.44454 -11.16078,-17.13705 -0.54557,-6.02456 0.16914,-7.75214 10.08825,-24.372 5.87164,-9.83805 10.95156,-17.88753 11.28847,-17.88753 0.33731,0 5.36765,8.00264 11.17926,17.7839 11.7873,19.83745 12.70965,23.99362 7.38679,33.27782 -5.59467,9.75839 -18.38117,13.46092 -28.78199,8.33486 l 0,0 z"
       id="path6811-2-0"
       inkscape:connector-curvature="0" />
    <path
       sodipodi:nodetypes="csssccc"
       inkscape:connector-curvature="0"
       id="path5548-9-82-6-2"
       d="m 400.47739,691.11566 c 1.50507,3.50308 2.33728,7.3552 2.33728,11.39895 0,16.17304 -13.31631,29.28492 -29.74287,29.28492 -16.42656,0 -29.74296,-13.11188 -29.74296,-29.28492 0,-4.04375 0.83201,-7.89587 2.33737,-11.39895 l 27.51998,-45.60198 z"
       style="fill:#f4d7d7;fill-opacity:0;stroke:#000000;stroke-width:19.55391312;stroke-linecap:round;stroke-linejoin:round;stroke-miterlimit:4;stroke-opacity:1;stroke-dasharray:none;display:inline" />
    <path
       style="fill:#d7d7f4;fill-opacity:1;stroke:none;display:inline"
       d="m 522.30394,846.55069 c -6.3515,-3.13058 -10.46359,-9.44455 -11.16069,-17.13608 -0.54555,-6.02553 0.16914,-7.75214 10.08815,-24.37297 5.87176,-9.83757 10.95156,-17.88694 11.28857,-17.88694 0.33731,0 5.36756,8.00244 11.17918,17.7833 11.78729,19.83745 12.70965,23.99364 7.38678,33.27783 -5.59466,9.75838 -18.38107,13.46092 -28.78199,8.33486 l 0,0 z"
       id="path6811-7-6"
       inkscape:connector-curvature="0" />
    <path
       sodipodi:nodetypes="csssccc"
       inkscape:connector-curvature="0"
       id="path5548-9-82-3-5"
       d="m 558.45042,816.29296 c 1.50506,3.50309 2.33728,7.3552 2.33728,11.39896 0,16.17402 -13.31631,29.28491 -29.74277,29.28491 -16.42655,0 -29.74297,-13.11089 -29.74297,-29.28491 0,-4.04376 0.83202,-7.89587 2.33737,-11.39896 l 27.51999,-45.60168 z"
       style="fill:#f4d7d7;fill-opacity:0;stroke:#000000;stroke-width:19.55391312;stroke-linecap:round;stroke-linejoin:round;stroke-miterlimit:4;stroke-opacity:1;stroke-dasharray:none;display:inline" />
    <path
       style="fill:#d7d7f4;fill-opacity:1;stroke:none;display:inline"
       d="m 516.44969,695.55733 c -6.3515,-3.13059 -10.46359,-9.44454 -11.16068,-17.13705 -0.54556,-6.02476 0.16914,-7.75157 10.08815,-24.3717 5.87175,-9.83826 10.95156,-17.88773 11.28857,-17.88773 0.33731,0 5.36765,8.00263 11.17918,17.7836 11.78729,19.83804 12.70974,23.99382 7.38678,33.27802 -5.59457,9.75838 -18.38107,13.46091 -28.782,8.33486 l 0,0 z"
       id="path6811-0-4"
       inkscape:connector-curvature="0" />
    <path
       sodipodi:nodetypes="csssccc"
       inkscape:connector-curvature="0"
       id="path5548-9-82-2-8"
       d="m 552.59627,665.29931 c 1.50507,3.50357 2.33728,7.35569 2.33728,11.39924 0,16.17305 -13.31631,29.28493 -29.74287,29.28493 -16.42656,0 -29.74296,-13.11188 -29.74296,-29.28493 0,-4.04355 0.83201,-7.89567 2.33737,-11.39924 l 27.51999,-45.60158 z"
       style="fill:#f4d7d7;fill-opacity:0;stroke:#000000;stroke-width:19.55391312;stroke-linecap:round;stroke-linejoin:round;stroke-miterlimit:4;stroke-opacity:1;stroke-dasharray:none;display:inline" />
    <path
       style="fill:#d7d7f4;fill-opacity:1;stroke:none;display:inline"
       d="m 201.11626,842.4385 c -6.35161,-3.13058 -10.4636,-9.44454 -11.1607,-17.13705 -0.54555,-6.02456 0.16914,-7.75215 10.08817,-24.37199 5.87174,-9.83856 10.95156,-17.88792 11.28857,-17.88792 0.33731,0 5.36765,8.00341 11.17916,17.78428 11.7873,19.83744 12.70966,23.99363 7.38678,33.27783 -5.59466,9.75837 -18.38106,13.46091 -28.78198,8.33485 l 0,0 z"
       id="path6811-1-8"
       inkscape:connector-curvature="0" />
    <path
       sodipodi:nodetypes="csssccc"
       inkscape:connector-curvature="0"
       id="path5548-9-82-68-3"
       d="m 237.26273,812.18077 c 1.50508,3.50309 2.33728,7.35521 2.33728,11.39896 0,16.17304 -13.31631,29.28492 -29.74287,29.28492 -16.42655,0 -29.74296,-13.11188 -29.74296,-29.28492 0,-4.04375 0.83202,-7.89587 2.33737,-11.39896 l 27.51999,-45.60167 z"
       style="fill:#f4d7d7;fill-opacity:0;stroke:#000000;stroke-width:19.55391312;stroke-linecap:round;stroke-linejoin:round;stroke-miterlimit:4;stroke-opacity:1;stroke-dasharray:none;display:inline" />
    <path
       style="fill:#d7d7f4;fill-opacity:1;stroke:none;display:inline"
       d="m 363.65894,875.3624 c -6.3515,-3.13058 -10.4636,-9.44454 -11.16069,-17.13705 -0.54556,-6.02456 0.16915,-7.75215 10.08816,-24.37199 5.87174,-9.83856 10.95156,-17.88792 11.28857,-17.88792 0.33731,0 5.36765,8.00341 11.17916,17.78427 11.7873,19.83745 12.70975,23.99364 7.38679,33.27784 -5.59457,9.75838 -18.38107,13.46091 -28.78199,8.33485 l 0,0 z"
       id="path6811-72-1"
       inkscape:connector-curvature="0" />
    <path
       sodipodi:nodetypes="csssccc"
       inkscape:connector-curvature="0"
       id="path5548-9-82-0-2"
       d="m 399.80552,845.10467 c 1.50506,3.50309 2.33728,7.35521 2.33728,11.39896 0,16.17305 -13.31631,29.28491 -29.74287,29.28491 -16.42656,0 -29.74297,-13.11186 -29.74297,-29.28491 0,-4.04375 0.83202,-7.89587 2.33738,-11.39896 L 372.51432,799.503 z"
       style="fill:#f4d7d7;fill-opacity:0;stroke:#000000;stroke-width:19.55391312;stroke-linecap:round;stroke-linejoin:round;stroke-miterlimit:4;stroke-opacity:1;stroke-dasharray:none;display:inline" />
    <path
       style="fill:#ffd5f6;fill-opacity:1;stroke:#000000;stroke-width:19.55391312;stroke-linecap:round;stroke-miterlimit:4;stroke-opacity:1;stroke-dasharray:none;display:inline"
       d="m 372.67447,121.07061 c 2.98724,-3.72474 6.11607,-7.29479 9.3715,-10.70392 3.25534,-3.40913 6.63729,-6.65751 10.1304,-9.73872 13.97214,-12.325131 29.72322,-21.978701 46.27227,-28.570031 33.09814,-13.18256 69.38854,-14.11637 101.02608,0.32361 31.63745,14.43969 52.63199,41.518731 60.9999,73.626841 2.09198,8.02708 3.39485,16.36848 3.87754,24.90514 0.24148,4.26842 0.27766,8.58563 0.10456,12.93676 -0.088,2.17567 -0.22487,4.35975 -0.4165,6.55047 -0.19163,2.19072 -0.43507,4.3881 -0.7323,6.59026"
       id="path4194-1-1-4-7-9-1"
       inkscape:connector-curvature="0"
       sodipodi:nodetypes="cssssssssc" />
    <path
       style="fill:#ffd5f6;fill-opacity:1;stroke:#000000;stroke-width:19.55391312;stroke-linecap:round;stroke-miterlimit:4;stroke-opacity:1;stroke-dasharray:none;display:inline"
       d="m 372.1951,121.12624 c -2.98725,-3.72473 -6.11607,-7.29479 -9.3715,-10.70392 -3.25534,-3.40912 -6.63729,-6.65752 -10.1304,-9.73872 -13.97214,-12.325131 -29.72322,-21.978701 -46.27228,-28.570041 -33.09813,-13.18255 -69.38853,-14.11635 -101.02607,0.32362 -31.63745,14.43969 -52.632,41.518731 -60.9999,73.626851 -2.09198,8.02698 -3.39486,16.36838 -3.87755,24.90503 -0.24148,4.26842 -0.27765,8.58564 -0.10466,12.93677 0.088,2.17566 0.22487,4.35974 0.4165,6.55047 0.19163,2.19072 0.43507,4.38809 0.7323,6.59025"
       id="path4194-1-1-9-3-2-5-2"
       inkscape:connector-curvature="0"
       sodipodi:nodetypes="cssssssssc" />
    <path
       style="fill:#ffd5f6;fill-opacity:1;stroke:#000000;stroke-width:19.55391312;stroke-linecap:round;stroke-miterlimit:4;stroke-opacity:1;stroke-dasharray:none;display:inline"
       d="m 603.2455,200.06988 c 57.12989,0 103.44275,49.88623 103.44275,111.42387 0,30.76885 -11.57827,58.62487 -30.29772,78.78867 -9.35967,10.0818 -20.50472,18.24068 -32.88039,23.87895 -6.18794,2.81918 -12.68345,5.00824 -19.41733,6.49258 -3.36689,0.74207 -6.79342,1.30757 -10.27079,1.68838 -1.73883,0.19065 -3.49027,0.33438 -5.25335,0.43019"
       id="path4216-2-17-9-4-7"
       inkscape:connector-curvature="0"
       sodipodi:nodetypes="csssssc" />
    <path
       style="fill:#ffd5f6;fill-opacity:1;stroke:#000000;stroke-width:19.55391312;stroke-linecap:round;stroke-miterlimit:4;stroke-opacity:1;stroke-dasharray:none;display:inline"
       d="m 140.84933,200.12541 c -57.129878,0 -103.442734,49.88624 -103.442734,111.42387 0,30.76886 11.578264,58.62488 30.297713,78.78867 9.359676,10.08181 20.504722,18.24068 32.880391,23.87895 6.18794,2.81918 12.68345,5.00825 19.41734,6.49259 3.36688,0.74207 6.79342,1.30756 10.27078,1.68837 1.73883,0.19065 3.49028,0.33438 5.25336,0.43019"
       id="path4216-2-1-1-5-1-9"
       inkscape:connector-curvature="0"
       sodipodi:nodetypes="csssssc" />
    <path
       style="fill:#ffd5f6;fill-opacity:1;stroke:#000000;stroke-width:19.55391312;stroke-linecap:round;stroke-miterlimit:4;stroke-opacity:1;stroke-dasharray:none;display:inline"
       d="m 372.29718,500.42149 c 3.0597,3.71867 6.26438,7.28296 9.59871,10.68652 3.33433,3.40355 6.79822,6.64667 10.37609,9.72289 14.31103,12.30508 30.44407,21.9429 47.39439,28.52359 33.9009,13.16125 71.07143,14.09347 103.47628,-0.32363 32.40474,-14.41621 53.90838,-41.45135 62.47925,-73.50726 2.14261,-8.01407 3.47716,-16.34179 3.97159,-24.86475 0.24637,-4.26139 0.2845,-8.57166 0.10754,-12.91565 -0.088,-2.17215 -0.22976,-4.35271 -0.42725,-6.53982 -0.19652,-2.1872 -0.44582,-4.38095 -0.75087,-6.5796"
       id="path4194-1-1-4-9-7-0-5"
       inkscape:connector-curvature="0"
       sodipodi:nodetypes="cssssssssc" />
    <path
       style="fill:#ffd5f6;fill-opacity:1;stroke:#000000;stroke-width:19.55391312;stroke-linecap:round;stroke-miterlimit:4;stroke-opacity:1;stroke-dasharray:none;display:inline"
       d="m 371.80608,500.36596 c -3.05961,3.71867 -6.26439,7.28286 -9.59873,10.68651 -3.33423,3.40356 -6.7982,6.64667 -10.37599,9.72289 -14.31101,12.30508 -30.44417,21.94302 -47.39458,28.52369 -33.90081,13.16105 -71.07133,14.09338 -103.47608,-0.32362 -32.40474,-14.41622 -53.90847,-41.45127 -62.47925,-73.50726 -2.14271,-8.01388 -3.47717,-16.3418 -3.97159,-24.86456 -0.24834,-4.26149 -0.28451,-8.57166 -0.10755,-12.91585 0.088,-2.17206 0.22976,-4.3526 0.42725,-6.53981 0.19652,-2.1871 0.44584,-4.38095 0.75088,-6.5795"
       id="path4194-1-1-9-3-6-1-1-95"
       inkscape:connector-curvature="0"
       sodipodi:nodetypes="cssssssssc" />
    <path
       style="fill:#ffd5f6;fill-opacity:1;stroke:#000000;stroke-width:19.55391312;stroke-linecap:round;stroke-linejoin:round;stroke-miterlimit:4;stroke-opacity:1;stroke-dasharray:none;display:inline"
       d="m 191.57473,307.88488 c 0,23.30523 16.78,42.19793 37.47918,42.19793 20.69928,0 37.47928,-18.8927 37.47928,-42.19793"
       id="path4248-4-7-6-4-3-6"
       inkscape:connector-curvature="0"
       sodipodi:nodetypes="csc" />
    <path
       style="fill:#ffd5f6;fill-opacity:1;stroke:#000000;stroke-width:19.55391312;stroke-linecap:round;stroke-linejoin:round;stroke-miterlimit:4;stroke-opacity:1;stroke-dasharray:none;display:inline"
       d="m 488.59339,310.87701 c 0,23.30523 16.77999,42.19793 37.47917,42.19793 20.69929,0 37.47928,-18.8927 37.47928,-42.19793"
       id="path4248-4-7-6-3-4-9-0"
       inkscape:connector-curvature="0"
       sodipodi:nodetypes="csc" />
    <path
       style="fill:#ffd5f6;fill-opacity:1;stroke:#000000;stroke-width:19.55391312;stroke-linecap:round;stroke-linejoin:round;stroke-miterlimit:4;stroke-opacity:1;stroke-dasharray:none;display:inline"
       d="m 346.02473,364.82206 c 0,-17.82584 12.8347,-32.27647 28.66711,-32.27647 15.83252,0 28.66731,14.45063 28.66731,32.27647"
       id="path4248-4-7-6-3-2-67-7-0"
       inkscape:connector-curvature="0"
       sodipodi:nodetypes="csc" />
    <path
       sodipodi:nodetypes="csssccc"
       inkscape:connector-curvature="0"
       id="path5548-9-82-9"
       d="m 242.65346,654.65631 c 1.50506,3.50358 2.33727,7.35569 2.33727,11.39905 0,16.17402 -13.31631,29.28492 -29.74286,29.28492 -16.42656,0 -29.74297,-13.1109 -29.74297,-29.28492 0,-4.04336 0.83202,-7.89547 2.33738,-11.39905 l 27.51998,-45.60158 z"
       style="fill:#f4d7d7;fill-opacity:0;stroke:#000000;stroke-width:19.55391312;stroke-linecap:round;stroke-linejoin:round;stroke-miterlimit:4;stroke-opacity:1;stroke-dasharray:none;display:inline" />
  </g>
</svg>
