<?xml version="1.0" encoding="UTF-8" standalone="no"?>
<!-- Created with Inkscape (http://www.inkscape.org/) -->

<svg
   xmlns:dc="http://purl.org/dc/elements/1.1/"
   xmlns:cc="http://creativecommons.org/ns#"
   xmlns:rdf="http://www.w3.org/1999/02/22-rdf-syntax-ns#"
   xmlns:svg="http://www.w3.org/2000/svg"
   xmlns="http://www.w3.org/2000/svg"
   xmlns:sodipodi="http://sodipodi.sourceforge.net/DTD/sodipodi-0.dtd"
   xmlns:inkscape="http://www.inkscape.org/namespaces/inkscape"
   width="744.09448819"
   height="1052.3622047"
   id="svg3233"
   version="1.1"
   inkscape:version="0.48.4 r9939"
   sodipodi:docname="New document 5">
  <defs
     id="defs3235" />
  <sodipodi:namedview
     id="base"
     pagecolor="#ffffff"
     bordercolor="#666666"
     borderopacity="1.0"
     inkscape:pageopacity="0.0"
     inkscape:pageshadow="2"
     inkscape:zoom="0.35"
     inkscape:cx="399.19585"
     inkscape:cy="509.44228"
     inkscape:document-units="px"
     inkscape:current-layer="layer1"
     showgrid="false"
     inkscape:window-width="497"
     inkscape:window-height="438"
     inkscape:window-x="252"
     inkscape:window-y="60"
     inkscape:window-maximized="0" />
  <metadata
     id="metadata3238">
    <rdf:RDF>
      <cc:Work
         rdf:about="">
        <dc:format>image/svg+xml</dc:format>
        <dc:type
           rdf:resource="http://purl.org/dc/dcmitype/StillImage" />
        <dc:title></dc:title>
      </cc:Work>
    </rdf:RDF>
  </metadata>
  <g
     inkscape:label="Layer 1"
     inkscape:groupmode="layer"
     id="layer1">
    <path
       style="fill:#ffd5f6;fill-opacity:1;stroke:#ffd5f6;stroke-width:4.72096443;stroke-linecap:round;stroke-linejoin:round;stroke-miterlimit:4;stroke-opacity:1;stroke-dasharray:none;display:inline"
       d="m 254.11406,594.9035 c -62.87378,-20.48483 -99.25711,-33.45973 -99.25711,-35.39664 0,-1.68182 -2.18997,-5.26942 -4.86667,-7.97245 -4.84687,-4.89483 -4.85645,-5.30026 -2.33966,-100.06878 2.39702,-90.26779 2.76765,-95.38071 7.21591,-99.56586 2.57892,-2.42639 4.68891,-6.26679 4.68891,-8.53428 0,-3.33289 19.1011,-10.4339 99.7231,-37.07284 84.59633,-27.95207 100.28751,-32.47692 103.44438,-29.83117 2.9594,2.48034 5.50978,2.54948 12.45504,0.33694 8.27366,-2.6349 13.86906,-1.06024 106.22869,29.89467 87.5794,29.35256 97.57124,33.21661 98.24317,37.99298 0.4115,2.92432 2.65478,6.66585 4.98515,8.31425 3.91433,2.76866 4.3702,10.33835 5.98177,99.3058 1.58441,87.47169 1.39644,96.44362 -2.04867,97.77865 -2.08622,0.80919 -3.80633,3.90548 -3.82254,6.88238 -0.0276,5.04204 -6.98724,7.65705 -101.69813,38.21087 -91.89647,29.64594 -102.28066,32.51687 -108.03736,29.86799 -4.89327,-2.25148 -7.75509,-2.29254 -12.35258,-0.17768 -3.29099,1.51427 -6.72679,2.66767 -7.63504,2.56309 -0.9077,-0.10403 -46.31708,-14.7427 -100.90836,-32.52894 z m 138.27321,-88.45801 c 17.34804,-12.47483 22.17834,-44.89467 6.68897,-44.89467 -2.12554,0 -5.77814,2.1352 -8.1168,4.74497 -6.38711,7.12734 -32.77178,6.88255 -38.57753,-0.35812 -4.95082,-6.17426 -15.49501,-4.62022 -17.77022,2.61898 -3.8289,12.18282 9.1182,35.4679 23.34141,41.97918 9.30407,4.25909 25.4976,2.33534 34.43417,-4.0908 l 0,0 z m 142.15089,-9.10163 c 15.39529,-7.06033 26.74417,-25.94436 26.74417,-44.5014 0,-6.24 -1.29766,-8.59752 -5.89662,-10.71367 -5.01903,-2.30937 -6.70204,-1.9487 -11.31039,2.42344 -4.80379,4.55736 -8.05272,5.1364 -28.82064,5.1364 -20.49938,0 -23.90637,-0.58917 -27.42972,-4.74497 -8.86007,-10.44982 -19.30391,-2.3589 -17.52516,13.57705 3.59489,32.2071 35.98288,51.78111 64.23836,38.82315 l 0,0 z m -284.51517,-2.25828 c 16.61341,-7.62179 29.28773,-26.90776 29.33265,-44.63443 0.0276,-11.23978 -13.76944,-16.86557 -19.32628,-7.88002 -2.63222,4.2565 -5.47858,4.74506 -27.64624,4.74506 -22.16748,0 -25.01384,-0.48883 -27.64606,-4.74506 -6.48681,-10.48941 -16.99021,-4.05913 -16.99021,10.40159 0,32.19338 33.91192,55.1255 62.27614,42.11286 z"
       id="path6769-9"
       inkscape:connector-curvature="0" />
    <path
       style="fill:#d7d7f4;fill-opacity:1;stroke:none;display:inline"
       d="m 213.20082,802.23368 c -5.98058,-2.94771 -9.85237,-8.89274 -10.50875,-16.13563 -0.51369,-5.67328 0.15926,-7.29921 9.49886,-22.9485 5.52876,-9.26356 10.31183,-16.84283 10.62916,-16.84283 0.3176,0 5.0541,7.53517 10.52614,16.74478 11.09875,18.67921 11.96723,22.59197 6.95529,31.33411 -5.26785,9.18845 -17.30735,12.67497 -27.1007,7.84807 l 0,0 z"
       id="path6811"
       inkscape:connector-curvature="0" />
    <path
       style="fill:#d7d7f4;fill-opacity:1;stroke:none;display:inline"
       d="m 361.80556,836.56291 c -5.98058,-2.94771 -9.85247,-8.89275 -10.50884,-16.13563 -0.51369,-5.67329 0.15926,-7.29922 9.49895,-22.9485 5.52866,-9.26357 10.31184,-16.84282 10.62907,-16.84282 0.3176,0 5.0541,7.53515 10.52623,16.74477 11.09875,18.6792 11.96722,22.59197 6.95529,31.3341 -5.26786,9.18845 -17.30744,12.67498 -27.1007,7.84808 l 0,0 z"
       id="path6811-2"
       inkscape:connector-curvature="0" />
    <path
       sodipodi:nodetypes="csssccc"
       inkscape:connector-curvature="0"
       id="path5548-9-82-6"
       d="m 395.84057,808.07231 c 1.41714,3.29891 2.20074,6.92601 2.20074,10.73318 0,15.22895 -12.53845,27.57444 -28.00546,27.57444 -15.46701,0 -28.00555,-12.34549 -28.00555,-27.57444 0,-3.80717 0.78342,-7.43427 2.20084,-10.73318 l 25.91242,-42.9378 z"
       style="fill:#f4d7d7;fill-opacity:0;stroke:#000000;stroke-width:18.41168213;stroke-linecap:round;stroke-linejoin:round;stroke-miterlimit:4;stroke-opacity:1;stroke-dasharray:none;display:inline" />
    <path
       style="fill:#d7d7f4;fill-opacity:1;stroke:none;display:inline"
       d="m 510.55068,954.42825 c -5.98048,-2.94772 -9.85236,-8.89276 -10.50874,-16.13564 -0.51368,-5.67328 0.15927,-7.29922 9.49887,-22.94851 5.52874,-9.26356 10.31182,-16.84282 10.62915,-16.84282 0.3176,0 5.054,7.53517 10.52614,16.74479 11.09875,18.6792 11.96723,22.59195 6.9553,31.3341 -5.26786,9.18844 -17.30736,12.67497 -27.10072,7.84808 l 0,0 z"
       id="path6811-7"
       inkscape:connector-curvature="0" />
    <path
       sodipodi:nodetypes="csssccc"
       inkscape:connector-curvature="0"
       id="path5548-9-82-3"
       d="m 544.58569,925.93763 c 1.41715,3.29892 2.20075,6.92602 2.20075,10.73319 0,15.22894 -12.53845,27.57444 -28.00536,27.57444 -15.46702,0 -28.00555,-12.3455 -28.00555,-27.57444 0,-3.80717 0.78341,-7.43427 2.20084,-10.73319 l 25.91242,-42.93778 z"
       style="fill:#f4d7d7;fill-opacity:0;stroke:#000000;stroke-width:18.41168213;stroke-linecap:round;stroke-linejoin:round;stroke-miterlimit:4;stroke-opacity:1;stroke-dasharray:none;display:inline" />
    <path
       style="fill:#d7d7f4;fill-opacity:1;stroke:none;display:inline"
       d="m 505.03841,812.25498 c -5.98048,-2.94771 -9.85237,-8.89275 -10.50874,-16.13564 -0.51369,-5.67328 0.15925,-7.29921 9.49886,-22.94849 5.52875,-9.26357 10.31183,-16.84283 10.62916,-16.84283 0.3176,0 5.05409,7.53516 10.52614,16.74478 11.09875,18.6792 11.96732,22.59197 6.95528,31.3341 -5.26776,9.18845 -17.30734,12.67498 -27.1007,7.84808 l 0,0 z"
       id="path6811-0"
       inkscape:connector-curvature="0" />
    <path
       sodipodi:nodetypes="csssccc"
       inkscape:connector-curvature="0"
       id="path5548-9-82-2"
       d="m 539.07351,783.76438 c 1.41714,3.2989 2.20074,6.92601 2.20074,10.73318 0,15.22895 -12.53843,27.57444 -28.00545,27.57444 -15.46701,0 -28.00555,-12.34549 -28.00555,-27.57444 0,-3.80717 0.78342,-7.43428 2.20084,-10.73318 l 25.91241,-42.9378 z"
       style="fill:#f4d7d7;fill-opacity:0;stroke:#000000;stroke-width:18.41168213;stroke-linecap:round;stroke-linejoin:round;stroke-miterlimit:4;stroke-opacity:1;stroke-dasharray:none;display:inline" />
    <path
       style="fill:#d7d7f4;fill-opacity:1;stroke:none;display:inline"
       d="m 208.12499,950.55608 c -5.98057,-2.94771 -9.85236,-8.89275 -10.50874,-16.13563 -0.51369,-5.67328 0.15926,-7.29922 9.49886,-22.94851 5.52875,-9.26355 10.31183,-16.84282 10.62915,-16.84282 0.31761,0 5.0541,7.53517 10.52615,16.74478 11.09875,18.67921 11.96723,22.59196 6.95529,31.33411 -5.26786,9.18844 -17.30735,12.67497 -27.10071,7.84807 l 0,0 z"
       id="path6811-1"
       inkscape:connector-curvature="0" />
    <path
       sodipodi:nodetypes="csssccc"
       inkscape:connector-curvature="0"
       id="path5548-9-82-68"
       d="m 242.16,922.06547 c 1.41715,3.29892 2.20075,6.92602 2.20075,10.73319 0,15.22894 -12.53845,27.57443 -28.00546,27.57443 -15.46702,0 -28.00555,-12.34549 -28.00555,-27.57443 0,-3.80717 0.78342,-7.43427 2.20084,-10.73319 L 216.463,879.12768 z"
       style="fill:#f4d7d7;fill-opacity:0;stroke:#000000;stroke-width:18.41168213;stroke-linecap:round;stroke-linejoin:round;stroke-miterlimit:4;stroke-opacity:1;stroke-dasharray:none;display:inline" />
    <path
       style="fill:#d7d7f4;fill-opacity:1;stroke:none;display:inline"
       d="m 361.17283,981.55676 c -5.98048,-2.9477 -9.85236,-8.89276 -10.50874,-16.13564 -0.51368,-5.67328 0.15927,-7.29922 9.49887,-22.9485 5.52875,-9.26357 10.31182,-16.84283 10.62916,-16.84283 0.31759,0 5.0541,7.53517 10.52613,16.74478 11.09875,18.67921 11.96732,22.59197 6.9553,31.33411 -5.26777,9.18848 -17.30736,12.67498 -27.10072,7.84808 l 0,0 z"
       id="path6811-72"
       inkscape:connector-curvature="0" />
    <path
       sodipodi:nodetypes="csssccc"
       inkscape:connector-curvature="0"
       id="path5548-9-82-0"
       d="m 395.20793,953.06614 c 1.41716,3.29891 2.20076,6.92602 2.20076,10.73318 0,15.22894 -12.53845,27.57444 -28.00546,27.57444 -15.46701,0 -28.00555,-12.3455 -28.00555,-27.57444 0,-3.80716 0.78341,-7.43427 2.20084,-10.73318 l 25.91242,-42.93779 z"
       style="fill:#f4d7d7;fill-opacity:0;stroke:#000000;stroke-width:18.41168213;stroke-linecap:round;stroke-linejoin:round;stroke-miterlimit:4;stroke-opacity:1;stroke-dasharray:none;display:inline" />
    <path
       style="fill:#ffd5f6;fill-opacity:1;stroke:#000000;stroke-width:18.41168213;stroke-linecap:round;stroke-miterlimit:4;stroke-opacity:1;stroke-dasharray:none;display:inline"
       d="m 369.66173,271.32646 c 2.81275,-3.50714 5.7588,-6.86865 8.82408,-10.07864 3.06517,-3.20998 6.24956,-6.26862 9.53862,-9.16985 13.15598,-11.60516 27.98696,-20.69482 43.56932,-26.90112 31.16472,-12.41251 65.33523,-13.29176 95.12469,0.30472 29.78937,13.59619 49.55753,39.09342 57.43662,69.32596 1.96978,7.55818 3.19655,15.41233 3.65104,23.45032 0.22739,4.01909 0.26145,8.08411 0.0985,12.18108 -0.0829,2.04856 -0.21173,4.10506 -0.39217,6.16781 -0.18043,2.06276 -0.40965,4.13177 -0.68951,6.20529"
       id="path4194-1-1-4-7-9"
       inkscape:connector-curvature="0"
       sodipodi:nodetypes="cssssssssc" />
    <path
       style="fill:#ffd5f6;fill-opacity:1;stroke:#000000;stroke-width:18.41168213;stroke-linecap:round;stroke-miterlimit:4;stroke-opacity:1;stroke-dasharray:none;display:inline"
       d="m 369.21037,271.37885 c -2.81275,-3.50715 -5.75881,-6.86867 -8.82408,-10.07865 -3.06517,-3.20999 -6.24957,-6.26863 -9.53863,-9.16984 -13.15598,-11.60516 -27.98696,-20.69483 -43.56932,-26.90113 -31.16471,-12.41252 -65.33523,-13.29176 -95.12468,0.30471 -29.78938,13.5962 -49.55754,39.09344 -57.43663,69.32597 -1.96977,7.55809 -3.19654,15.41223 -3.65104,23.45022 -0.22738,4.01909 -0.26144,8.08411 -0.0985,12.18108 0.0829,2.04858 0.21173,4.10507 0.39217,6.16783 0.18043,2.06274 0.40965,4.13176 0.68951,6.20529"
       id="path4194-1-1-9-3-2-5"
       inkscape:connector-curvature="0"
       sodipodi:nodetypes="cssssssssc" />
    <path
       style="fill:#ffd5f6;fill-opacity:1;stroke:#000000;stroke-width:18.41168213;stroke-linecap:round;stroke-miterlimit:4;stroke-opacity:1;stroke-dasharray:none;display:inline"
       d="m 586.7641,345.71105 c 53.79264,0 97.40016,46.97216 97.40016,104.9151 0,28.97152 -10.90193,55.20035 -28.52789,74.18629 -8.81293,9.49287 -19.30695,17.17515 -30.95967,22.48407 -5.82648,2.6545 -11.94256,4.71569 -18.28309,6.11332 -3.17021,0.69872 -6.39658,1.23119 -9.67082,1.58975 -1.63726,0.17952 -3.28639,0.31485 -4.94648,0.40507"
       id="path4216-2-17-9-4"
       inkscape:connector-curvature="0"
       sodipodi:nodetypes="csssssc" />
    <path
       style="fill:#ffd5f6;fill-opacity:1;stroke:#000000;stroke-width:18.41168213;stroke-linecap:round;stroke-miterlimit:4;stroke-opacity:1;stroke-dasharray:none;display:inline"
       d="m 151.37853,345.76334 c -53.792679,0 -97.400197,46.97215 -97.400197,104.9151 0,28.97152 10.901925,55.20034 28.52789,74.18628 8.812936,9.49288 19.306947,17.17515 30.959707,22.48407 5.82646,2.65451 11.94255,4.7157 18.28307,6.11332 3.17022,0.69874 6.3966,1.2312 9.67084,1.58977 1.63726,0.17951 3.28639,0.31484 4.94648,0.40505"
       id="path4216-2-1-1-5-1"
       inkscape:connector-curvature="0"
       sodipodi:nodetypes="csssssc" />
    <path
       style="fill:#ffd5f6;fill-opacity:1;stroke:#000000;stroke-width:18.41168213;stroke-linecap:round;stroke-miterlimit:4;stroke-opacity:1;stroke-dasharray:none;display:inline"
       d="m 369.30648,628.5178 c 2.88096,3.50144 5.89845,6.85753 9.03801,10.06226 3.13956,3.20474 6.4011,6.25841 9.76998,9.15493 13.47505,11.58629 28.6657,20.66114 44.62586,26.85741 31.92061,12.39244 66.91985,13.27021 97.43178,-0.30472 30.51183,-13.57411 50.75935,-39.03001 58.82955,-69.21338 2.01746,-7.54594 3.27407,-15.38719 3.7396,-23.41229 0.23199,-4.01247 0.26789,-8.07095 0.10128,-12.1612 -0.0829,-2.04526 -0.21634,-4.09843 -0.4023,-6.15779 -0.18504,-2.05944 -0.41979,-4.12504 -0.70701,-6.19526"
       id="path4194-1-1-4-9-7-0"
       inkscape:connector-curvature="0"
       sodipodi:nodetypes="cssssssssc" />
    <path
       style="fill:#ffd5f6;fill-opacity:1;stroke:#000000;stroke-width:18.41168213;stroke-linecap:round;stroke-miterlimit:4;stroke-opacity:1;stroke-dasharray:none;display:inline"
       d="m 368.84407,628.46551 c -2.88088,3.50145 -5.89846,6.85743 -9.03802,10.06227 -3.13947,3.20473 -6.4011,6.2584 -9.76989,9.15493 -13.47504,11.58629 -28.66579,20.66122 -44.62605,26.85749 -31.92052,12.39225 -66.91975,13.27013 -97.43158,-0.30472 -30.51184,-13.5741 -50.75945,-39.02991 -58.82957,-69.21338 -2.01755,-7.54575 -3.27405,-15.38719 -3.73959,-23.41211 -0.23382,-4.01255 -0.26789,-8.07094 -0.10128,-12.16138 0.0829,-2.04517 0.21633,-4.09834 0.40229,-6.15778 0.18503,-2.05935 0.41978,-4.12505 0.70701,-6.19516"
       id="path4194-1-1-9-3-6-1-1"
       inkscape:connector-curvature="0"
       sodipodi:nodetypes="cssssssssc" />
    <path
       style="fill:#ffd5f6;fill-opacity:1;stroke:#000000;stroke-width:18.41168213;stroke-linecap:round;stroke-linejoin:round;stroke-miterlimit:4;stroke-opacity:1;stroke-dasharray:none;display:inline"
       d="m 199.14083,447.22809 c 0,21.94387 15.7998,39.73297 35.28985,39.73297 19.49015,0 35.28995,-17.7891 35.28995,-39.73297"
       id="path4248-4-7-6-4-3"
       inkscape:connector-curvature="0"
       sodipodi:nodetypes="csc" />
    <path
       style="fill:#ffd5f6;fill-opacity:1;stroke:#000000;stroke-width:18.41168213;stroke-linecap:round;stroke-linejoin:round;stroke-miterlimit:4;stroke-opacity:1;stroke-dasharray:none;display:inline"
       d="m 478.80931,450.04545 c 0,21.94387 15.7998,39.73296 35.28986,39.73296 19.49015,0 35.28995,-17.78909 35.28995,-39.73296"
       id="path4248-4-7-6-3-4-9"
       inkscape:connector-curvature="0"
       sodipodi:nodetypes="csc" />
    <path
       style="fill:#ffd5f6;fill-opacity:1;stroke:#000000;stroke-width:18.41168213;stroke-linecap:round;stroke-linejoin:round;stroke-miterlimit:4;stroke-opacity:1;stroke-dasharray:none;display:inline"
       d="m 344.56872,470.44826 c 0,16.78455 12.08497,30.39106 26.99254,30.39106 14.90767,0 26.99273,-13.60651 26.99273,-30.39106"
       id="path4248-4-7-6-3-2-67-7"
       inkscape:connector-curvature="0"
       sodipodi:nodetypes="csc" />
    <path
       sodipodi:nodetypes="csssccc"
       inkscape:connector-curvature="0"
       id="path5548-9-82"
       d="m 247.23583,773.74307 c 1.41714,3.29892 2.20074,6.92602 2.20074,10.73319 0,15.22894 -12.53845,27.57444 -28.00546,27.57444 -15.467,0 -28.00555,-12.3455 -28.00555,-27.57444 0,-3.80717 0.78342,-7.43427 2.20084,-10.73319 l 25.91242,-42.93779 z"
       style="fill:#f4d7d7;fill-opacity:0;stroke:#000000;stroke-width:18.41168213;stroke-linecap:round;stroke-linejoin:round;stroke-miterlimit:4;stroke-opacity:1;stroke-dasharray:none;display:inline" />
  </g>
</svg>
