<?xml version="1.0" encoding="UTF-8" standalone="no"?>
<!-- Created with Inkscape (http://www.inkscape.org/) -->

<svg
   xmlns:dc="http://purl.org/dc/elements/1.1/"
   xmlns:cc="http://creativecommons.org/ns#"
   xmlns:rdf="http://www.w3.org/1999/02/22-rdf-syntax-ns#"
   xmlns:svg="http://www.w3.org/2000/svg"
   xmlns="http://www.w3.org/2000/svg"
   xmlns:sodipodi="http://sodipodi.sourceforge.net/DTD/sodipodi-0.dtd"
   xmlns:inkscape="http://www.inkscape.org/namespaces/inkscape"
   width="744.09448819"
   height="1052.3622047"
   id="svg2"
   version="1.1"
   inkscape:version="0.48.3.1 r9886"
   sodipodi:docname="kitty_head2.svg">
  <defs
     id="defs4" />
  <sodipodi:namedview
     id="base"
     pagecolor="#ffffff"
     bordercolor="#666666"
     borderopacity="1.0"
     inkscape:pageopacity="0.0"
     inkscape:pageshadow="2"
     inkscape:zoom="0.62"
     inkscape:cx="326.45971"
     inkscape:cy="520.25096"
     inkscape:document-units="px"
     inkscape:current-layer="layer1"
     showgrid="false"
     inkscape:window-width="1440"
     inkscape:window-height="849"
     inkscape:window-x="0"
     inkscape:window-y="0"
     inkscape:window-maximized="1" />
  <metadata
     id="metadata7">
    <rdf:RDF>
      <cc:Work
         rdf:about="">
        <dc:format>image/svg+xml</dc:format>
        <dc:type
           rdf:resource="http://purl.org/dc/dcmitype/StillImage" />
        <dc:title></dc:title>
      </cc:Work>
    </rdf:RDF>
  </metadata>
  <g
     inkscape:label="Layer 1"
     inkscape:groupmode="layer"
     id="layer1">
    <path
       style="fill:#ff0000;fill-opacity:0.55686275;stroke:#ff0101;stroke-width:0;stroke-miterlimit:4;stroke-opacity:0.55686275;stroke-dasharray:none"
       d="m 367.55538,680.54535 c -9.56626,-1.70803 -19.62104,-9.06216 -26.60698,-19.4605 -5.71198,-8.5021 -11.22568,-22.44555 -13.59631,-34.38326 -1.15493,-5.81589 -2.62722,-18.14086 -2.21662,-18.55573 0.11357,-0.11476 2.30229,0.0896 4.86382,0.45402 16.85305,2.3979 35.73452,-7.00956 42.8193,-21.33421 0.68817,-1.39141 1.39724,-2.52876 1.5757,-2.52742 0.17845,10e-4 0.99674,1.20401 1.81841,2.6726 3.73667,6.67861 10.31073,12.92648 17.62611,16.75156 6.294,3.29103 11.80135,4.61153 19.39445,4.65024 l 6.11131,0.0312 -0.39089,5.35733 c -1.73509,23.78037 -12.69645,48.38093 -26.25375,58.9212 -8.05094,6.25932 -16.94931,8.88623 -25.14455,7.423 l 0,0 z"
       id="path4143"
       inkscape:connector-curvature="0" />
    <path
       style="color:#000000;fill:none;stroke:#ffffff;stroke-width:10;stroke-linecap:round;stroke-linejoin:miter;stroke-miterlimit:4;stroke-opacity:1;stroke-dasharray:none;stroke-dashoffset:0;marker:none;visibility:visible;display:inline;overflow:visible;enable-background:accumulate"
       d="m 374.46009,588.30304 0,55.04032"
       id="path4157"
       inkscape:connector-curvature="0" />
    <path
       style="fill:none;stroke:#000000;stroke-width:5;stroke-miterlimit:4;stroke-opacity:1"
       d="m 295.57489,337.36878 c 1.10492,-0.22012 2.21268,-0.43546 3.32325,-0.64603 1.11057,-0.21056 2.22395,-0.41635 3.34008,-0.61737 1.11613,-0.20101 2.23501,-0.39725 3.35661,-0.58872 1.1216,-0.19146 2.24591,-0.37815 3.37289,-0.56006 1.12697,-0.1819 2.25661,-0.35904 3.38887,-0.53139 1.13226,-0.17235 2.26714,-0.33992 3.4046,-0.50272 1.13745,-0.16279 2.27748,-0.32081 3.42003,-0.47404 18.28086,-2.45174 37.20877,-3.67964 56.59551,-3.67964 19.38674,0 38.31465,1.2279 56.59551,3.67964 4.57022,0.61293 9.09999,1.30236 13.58639,2.06821 1.1216,0.19147 2.24048,0.38771 3.35661,0.58872 1.11613,0.20102 2.22951,0.40681 3.34008,0.61737 1.11057,0.21057 2.20462,0.26426 3.30954,0.48438 M 655.1493,591.67952 c -0.23969,2.28163 -0.50859,4.54547 -0.80636,6.79147 -0.29776,2.246 -0.62438,4.47417 -0.9795,6.68446 -0.35511,2.21029 -0.73871,4.40271 -1.15043,6.57721 -0.41173,2.17449 -0.85157,4.33107 -1.31917,6.4697 -0.4676,2.13862 -0.96296,4.25929 -1.4857,6.36195 -0.52275,2.10267 -1.07287,4.18734 -1.65002,6.25397 -0.57715,2.06663 -1.18132,4.11523 -1.81214,6.14574 -0.63082,2.03051 -1.28829,4.04295 -1.97205,6.03726 -0.68376,1.99431 -1.3938,3.97051 -2.12976,5.92854 -0.73595,1.95804 -1.49783,3.89791 -2.28525,5.81958 -0.78742,1.92167 -1.6004,3.82514 -2.43855,5.71037 -0.83816,1.88523 -1.70149,3.75222 -2.58964,5.60092 -14.21039,29.57927 -34.77313,54.47825 -60.18256,74.53054 -25.40943,20.05228 -55.66555,35.25789 -89.26268,45.45042 -33.59713,10.19253 -70.53528,15.37199 -109.30876,15.37199 -38.77349,0 -75.71163,-5.17946 -109.30876,-15.37199 -33.59713,-10.19253 -63.85324,-25.39814 -89.26268,-45.45042 -25.40943,-20.05229 -45.97217,-44.95127 -60.18256,-74.53054 -1.7763,-3.69741 -3.45334,-7.46795 -5.02819,-11.31129 -1.57484,-3.84334 -3.0475,-7.75949 -4.41501,-11.74812 -1.36751,-3.98863 -2.62989,-8.04973 -3.78418,-12.183 -1.1543,-4.13326 -2.20052,-8.33868 -3.13572,-12.61592 -0.935205,-4.27725 -1.759388,-8.62633 -2.469611,-13.04691 -0.710223,-4.42058 -1.306487,-8.91267 -1.78585,-13.47593 -0.479364,-4.56327 -0.841827,-9.19771 -1.08445,-13.90302"
       id="path2985"
       inkscape:connector-curvature="0"
       sodipodi:nodetypes="cssssssssssssccssssssssssssssssssssssssc" />
    <path
       style="fill:none;stroke:#000000;stroke-width:5;stroke-miterlimit:4;stroke-opacity:1"
       d="m 119.70196,10.641704 c 6.52081,-27.436178 32.19282,-114.468744 40.40085,-137.800224 8.20803,-23.33148 13.09239,-45.29645 22.74445,-63.83197 9.65207,-18.53552 19.96535,-34.50023 30.81826,-47.54851 10.85291,-13.04829 22.24544,-23.18013 34.056,-30.04991 11.81057,-6.86977 24.03916,-10.47748 36.56419,-10.47748 12.52503,0 24.75362,3.60771 36.56418,10.47748 11.81057,6.86978 23.2031,17.00162 34.05601,30.04991 10.8529,13.04828 21.16619,29.01299 30.81825,47.54851 1.20651,2.31694 2.40268,4.67405 3.58829,7.07065 1.18561,2.3966 2.36065,4.8327 3.52488,7.30761 1.16423,2.47492 2.31765,4.98865 3.46003,7.54053 1.14238,2.55188 4.31259,9.85176 5.43265,12.47924"
       id="path3762"
       inkscape:connector-curvature="0"
       sodipodi:nodetypes="csssssssssssc"
       transform="matrix(0.92982438,-0.36800356,0.36800356,0.92982438,-18.565918,629.7965)" />
    <path
       style="fill:none;stroke:#000000;stroke-width:5;stroke-miterlimit:4;stroke-opacity:1"
       d="m 654.45927,597.19751 c 4.0334,-27.91051 12.19123,-118.2829 13.14527,-142.99766 0.95405,-24.71477 4.49564,-46.93579 2.34205,-67.72256 -2.15359,-20.78678 -5.86806,-39.42648 -11.15755,-55.553 -5.28948,-16.12653 -12.15398,-29.73985 -20.60762,-40.47387 -8.45366,-10.73401 -18.49645,-18.58871 -30.14253,-23.19796 -11.64608,-4.60926 -24.34417,-5.75489 -37.85401,-3.71354 -13.50986,2.04136 -27.83147,7.2697 -42.72459,15.40841 -14.8931,8.1387 -30.35772,19.18775 -46.15358,32.87054 -1.97448,1.71034 -3.95414,3.46185 -5.9385,5.25396 -1.98437,1.79211 -3.97344,3.62483 -5.96675,5.49762 -1.99331,1.8728 -3.99085,3.78567 -5.99216,5.73807 -2.00131,1.9524 -7.63543,7.57336 -9.64382,9.60426"
       id="path3762-4"
       inkscape:connector-curvature="0"
       sodipodi:nodetypes="csssssssssssc" />
    <g
       id="g4109">
      <path
         inkscape:connector-curvature="0"
         id="path3815-1"
         d="m 202.94504,533.60882 c -34.99483,0 -63.39699,28.26843 -63.61527,63.21194 l 8.96305,0 c 0.60877,-29.4407 24.66259,-53.12851 54.24888,-53.12851 29.58629,0 53.61826,23.68781 54.22647,53.12851 l 9.76973,0 c -0.21811,-34.94351 -28.59804,-63.21194 -63.59286,-63.21194 z"
         style="fill:#000000;fill-opacity:1;stroke:#000000;stroke-width:3.58522105;stroke-miterlimit:4;stroke-opacity:1;stroke-dasharray:none" />
      <path
         transform="matrix(1.07006,0,0,1.07006,-5.9336213,-41.471586)"
         d="m 143.23901,598.30267 a 3.3502035,3.3502035 0 1 1 -6.7004,0 3.3502035,3.3502035 0 1 1 6.7004,0 z"
         sodipodi:ry="3.3502035"
         sodipodi:rx="3.3502035"
         sodipodi:cy="598.30267"
         sodipodi:cx="139.88881"
         id="path4026"
         style="fill:#000000;fill-opacity:1;stroke:#000000;stroke-width:5;stroke-miterlimit:4;stroke-opacity:1;stroke-dasharray:none"
         sodipodi:type="arc" />
      <path
         transform="matrix(1.1370739,0,0,1.1370739,102.57273,-81.298875)"
         d="m 143.23901,598.30267 a 3.3502035,3.3502035 0 1 1 -6.7004,0 3.3502035,3.3502035 0 1 1 6.7004,0 z"
         sodipodi:ry="3.3502035"
         sodipodi:rx="3.3502035"
         sodipodi:cy="598.30267"
         sodipodi:cx="139.88881"
         id="path4026-9"
         style="fill:#000000;fill-opacity:1;stroke:#000000;stroke-width:5;stroke-miterlimit:4;stroke-opacity:1;stroke-dasharray:none"
         sodipodi:type="arc" />
    </g>
    <g
       id="g4114">
      <path
         inkscape:connector-curvature="0"
         id="path3815-1-98"
         d="m 546.80611,533.35813 c -34.99483,0 -63.39699,28.26843 -63.61527,63.21194 l 8.96305,0 c 0.60877,-29.4407 24.66259,-53.12851 54.24888,-53.12851 29.58629,0 53.61826,23.68781 54.22647,53.12851 l 9.76973,0 c -0.21811,-34.94351 -28.59804,-63.21194 -63.59286,-63.21194 z"
         style="fill:#000000;fill-opacity:1;stroke:#000000;stroke-width:3.58522105;stroke-miterlimit:4;stroke-opacity:1;stroke-dasharray:none" />
      <path
         transform="matrix(1.07006,0,0,1.07006,337.92745,-41.722279)"
         d="m 143.23901,598.30267 a 3.3502035,3.3502035 0 1 1 -6.7004,0 3.3502035,3.3502035 0 1 1 6.7004,0 z"
         sodipodi:ry="3.3502035"
         sodipodi:rx="3.3502035"
         sodipodi:cy="598.30267"
         sodipodi:cx="139.88881"
         id="path4026-8"
         style="fill:#000000;fill-opacity:1;stroke:#000000;stroke-width:5;stroke-miterlimit:4;stroke-opacity:1;stroke-dasharray:none"
         sodipodi:type="arc" />
      <path
         transform="matrix(1.1370739,0,0,1.1370739,446.4338,-81.54956)"
         d="m 143.23901,598.30267 a 3.3502035,3.3502035 0 1 1 -6.7004,0 3.3502035,3.3502035 0 1 1 6.7004,0 z"
         sodipodi:ry="3.3502035"
         sodipodi:rx="3.3502035"
         sodipodi:cy="598.30267"
         sodipodi:cx="139.88881"
         id="path4026-9-5"
         style="fill:#000000;fill-opacity:1;stroke:#000000;stroke-width:5;stroke-miterlimit:4;stroke-opacity:1;stroke-dasharray:none"
         sodipodi:type="arc" />
    </g>
    <g
       id="g4101">
      <g
         transform="matrix(0.63127789,0,0,0.63127789,104.3941,502.1547)"
         id="g4019">
        <path
           style="fill:#000000;fill-opacity:1;stroke:#000000;stroke-width:3.58522105;stroke-miterlimit:4;stroke-opacity:1;stroke-dasharray:none"
           d="m 368.39103,169.29132 c -34.99483,0 -63.39699,-28.26843 -63.61527,-63.21194 l 8.96305,0 c 0.60877,29.4407 24.66259,53.12851 54.24888,53.12851 29.58629,0 53.61826,-23.68781 54.22647,-53.12851 l 9.76973,0 c -0.21811,34.94351 -28.59804,63.21194 -63.59286,63.21194 z"
           id="path3815-1-9-5"
           inkscape:connector-curvature="0" />
        <path
           style="fill:#000000;fill-opacity:1;stroke:#000000;stroke-width:3.58522105;stroke-miterlimit:4;stroke-opacity:1;stroke-dasharray:none"
           d="m 487.57274,169.29131 c -34.99483,0 -63.39699,-28.26843 -63.61527,-63.21194 l 8.96305,0 c 0.60877,29.4407 24.66259,53.12851 54.24888,53.12851 29.58629,0 53.61826,-23.68781 54.22647,-53.12851 l 9.76973,0 c -0.21811,34.94351 -28.59804,63.21194 -63.59286,63.21194 z"
           id="path3815-1-9-5-7"
           inkscape:connector-curvature="0" />
      </g>
      <path
         d="m 387.76825,564.80066 c 0,7.24359 -5.8721,13.11569 -13.11569,13.11569 -7.2436,0 -13.11569,-5.8721 -13.11569,-13.11569 0,-7.2436 5.87209,-13.11569 13.11569,-13.11569 7.24359,0 13.11569,5.87209 13.11569,13.11569 z"
         sodipodi:ry="13.11569"
         sodipodi:rx="13.11569"
         sodipodi:cy="564.80066"
         sodipodi:cx="374.65256"
         id="path4023"
         style="fill:#000000;fill-opacity:1;stroke:#000000;stroke-width:5;stroke-miterlimit:4;stroke-opacity:1;stroke-dasharray:none"
         sodipodi:type="arc" />
      <path
         transform="matrix(0.8758465,0,0,0.8758465,39.611474,74.774682)"
         d="m 298.68951,562.89648 c 0,1.08564 -0.88008,1.96573 -1.96572,1.96573 -1.08564,0 -1.96573,-0.88009 -1.96573,-1.96573 0,-1.08564 0.88009,-1.96572 1.96573,-1.96572 1.08564,0 1.96572,0.88008 1.96572,1.96572 z"
         sodipodi:ry="1.9657258"
         sodipodi:rx="1.9657258"
         sodipodi:cy="562.89648"
         sodipodi:cx="296.72379"
         id="path4070"
         style="fill:#000000;fill-opacity:1;stroke:#000000;stroke-width:5;stroke-miterlimit:4;stroke-opacity:1;stroke-dasharray:none"
         sodipodi:type="arc" />
      <path
         transform="matrix(0.94368406,0,0,0.94368406,169.25235,37.15044)"
         d="m 298.68951,562.89648 c 0,1.08564 -0.88008,1.96573 -1.96572,1.96573 -1.08564,0 -1.96573,-0.88009 -1.96573,-1.96573 0,-1.08564 0.88009,-1.96572 1.96573,-1.96572 1.08564,0 1.96572,0.88008 1.96572,1.96572 z"
         sodipodi:ry="1.9657258"
         sodipodi:rx="1.9657258"
         sodipodi:cy="562.89648"
         sodipodi:cx="296.72379"
         id="path4070-4"
         style="fill:#000000;fill-opacity:1;stroke:#000000;stroke-width:5;stroke-miterlimit:4;stroke-opacity:1;stroke-dasharray:none"
         sodipodi:type="arc" />
    </g>
    <path
       style="fill:none;stroke:#000000;stroke-width:3.72214341;stroke-miterlimit:4;stroke-opacity:1"
       d="m 420.34103,603.96886 c 0,10.71657 -1.3423,20.92586 -3.76968,30.21174 -2.42739,9.28588 -5.93987,17.64833 -10.28025,24.67121 -4.34038,7.02289 -9.50867,12.70622 -15.24765,16.6338 -5.73899,3.92761 -12.04869,6.09947 -18.67189,6.09947 -6.6232,0 -12.93289,-2.17186 -18.67188,-6.09947 -5.73898,-3.92758 -10.90727,-9.61091 -15.24765,-16.6338 -4.34039,-7.02288 -7.85286,-15.38533 -10.28025,-24.67121 -2.42738,-9.28588 -3.76968,-19.49517 -3.76968,-30.21174"
       id="path4119"
       inkscape:connector-curvature="0"
       sodipodi:nodetypes="csssssssc" />
    <path
       sodipodi:type="arc"
       id="path4145"
       style="fill:#000000;stroke:none"
       sodipodi:cx="-72.991669"
       sodipodi:cy="530.01556"
       sodipodi:rx="0.017716534"
       sodipodi:ry="0.017716534"
       d="m -72.973952,530.01556 a 0.01771653,0.01771653 0 1 1 -0.03543,0 0.01771653,0.01771653 0 1 1 0.03543,0 z" />
    <path
       style="color:#000000;fill:none;stroke:#000000;stroke-width:0.03543307;stroke-linecap:butt;stroke-linejoin:miter;stroke-miterlimit:4;stroke-opacity:1;stroke-dasharray:none;stroke-dashoffset:0;marker:none;visibility:visible;display:inline;overflow:visible;enable-background:accumulate"
       d="m -90.09909,652.0485 c -1.289608,-6.44803 -1.140495,-3.764 -1.140495,-7.98346"
       id="path4147"
       inkscape:connector-curvature="0" />
    <path
       sodipodi:type="arc"
       id="path4149"
       style="fill:#000000;stroke:none"
       sodipodi:cx="-79.834641"
       sodipodi:cy="625.81714"
       sodipodi:rx="0.017716534"
       sodipodi:ry="0.017716534"
       d="m -79.816924,625.81714 a 0.01771653,0.01771653 0 1 1 -0.03543,0 0.01771653,0.01771653 0 1 1 0.03543,0 z" />
    <path
       sodipodi:type="arc"
       style="fill:#000000;fill-opacity:1;stroke:#000000;stroke-width:10;stroke-linecap:round;stroke-linejoin:round;stroke-miterlimit:4;stroke-opacity:1;stroke-dasharray:none"
       id="path4182"
       sodipodi:cx="153.2258"
       sodipodi:cy="512.03961"
       sodipodi:rx="14.516129"
       sodipodi:ry="14.516129"
       d="m 167.74193,512.03961 a 14.516129,14.516129 0 1 1 -29.03226,0 14.516129,14.516129 0 1 1 29.03226,0 z"
       transform="matrix(0.58910374,0,0,0.58910374,64.635009,189.54549)" />
    <path
       sodipodi:type="arc"
       style="fill:#000000;fill-opacity:1;stroke:#000000;stroke-width:10;stroke-linecap:round;stroke-linejoin:round;stroke-miterlimit:4;stroke-opacity:1;stroke-dasharray:none"
       id="path4182-8"
       sodipodi:cx="153.2258"
       sodipodi:cy="512.03961"
       sodipodi:rx="14.516129"
       sodipodi:ry="14.516129"
       d="m 167.74193,512.03961 a 14.516129,14.516129 0 1 1 -29.03226,0 14.516129,14.516129 0 1 1 29.03226,0 z"
       transform="matrix(0.2823012,0,0,0.2823012,97.773483,360.55347)" />
    <path
       style="color:#000000;fill:none;stroke:#000000;stroke-width:10;stroke-linecap:butt;stroke-linejoin:miter;stroke-miterlimit:4;stroke-opacity:1;stroke-dasharray:none;stroke-dashoffset:0;marker:none;visibility:visible;display:inline;overflow:visible;enable-background:accumulate"
       d="m 155.39242,490.09824 -14.82643,14.82643 11.09012,-19.20865"
       id="path4202"
       inkscape:connector-curvature="0" />
    <path
       sodipodi:type="arc"
       id="path4204"
       style="fill:#000000;stroke:none"
       sodipodi:cx="140.28085"
       sodipodi:cy="503.78418"
       sodipodi:rx="0.017716534"
       sodipodi:ry="0.017716534"
       d="m 140.29857,503.78418 a 0.01771653,0.01771653 0 1 1 -0.0354,0 0.01771653,0.01771653 0 1 1 0.0354,0 z" />
    <path
       style="color:#000000;fill:none;stroke:#000000;stroke-width:0.03543307;stroke-linecap:butt;stroke-linejoin:miter;stroke-miterlimit:4;stroke-opacity:1;stroke-dasharray:none;stroke-dashoffset:0;marker:none;visibility:visible;display:inline;overflow:visible;enable-background:accumulate"
       d="m 141.13623,504.92467 18.13295,-4.85871"
       id="path4208"
       inkscape:connector-curvature="0" />
    <path
       style="color:#000000;fill:none;stroke:#000000;stroke-width:10;stroke-linecap:butt;stroke-linejoin:miter;stroke-miterlimit:4;stroke-opacity:1;stroke-dasharray:none;stroke-dashoffset:0;marker:none;visibility:visible;display:inline;overflow:visible;enable-background:accumulate"
       d="m 158.83172,495.21265 -17.46483,10.08333"
       id="path4210"
       inkscape:connector-curvature="0" />
    <path
       sodipodi:type="arc"
       style="fill:#000000;fill-opacity:1;stroke:#000000;stroke-width:10;stroke-linecap:round;stroke-linejoin:round;stroke-miterlimit:4;stroke-opacity:1;stroke-dasharray:none"
       id="path4182-5"
       sodipodi:cx="153.2258"
       sodipodi:cy="512.03961"
       sodipodi:rx="14.516129"
       sodipodi:ry="14.516129"
       d="m 167.74193,512.03961 a 14.516129,14.516129 0 1 1 -29.03226,0 14.516129,14.516129 0 1 1 29.03226,0 z"
       transform="matrix(-0.58910374,0,0,0.58910374,678.2407,189.05311)" />
    <path
       sodipodi:type="arc"
       style="fill:#000000;fill-opacity:1;stroke:#000000;stroke-width:10;stroke-linecap:round;stroke-linejoin:round;stroke-miterlimit:4;stroke-opacity:1;stroke-dasharray:none"
       id="path4182-8-3"
       sodipodi:cx="153.2258"
       sodipodi:cy="512.03961"
       sodipodi:rx="14.516129"
       sodipodi:ry="14.516129"
       d="m 167.74193,512.03961 a 14.516129,14.516129 0 1 1 -29.03226,0 14.516129,14.516129 0 1 1 29.03226,0 z"
       transform="matrix(-0.2823012,0,0,0.2823012,645.10223,360.06109)" />
    <path
       style="color:#000000;fill:none;stroke:#000000;stroke-width:10;stroke-linecap:butt;stroke-linejoin:miter;stroke-miterlimit:4;stroke-opacity:1;stroke-dasharray:none;stroke-dashoffset:0;marker:none;visibility:visible;display:inline;overflow:visible;enable-background:accumulate"
       d="m 587.48329,489.60586 14.82643,14.82643 -11.09012,-19.20865"
       id="path4202-3"
       inkscape:connector-curvature="0" />
    <path
       transform="matrix(-1,0,0,1,742.87571,-0.49238378)"
       sodipodi:type="arc"
       id="path4204-9"
       style="fill:#000000;stroke:none"
       sodipodi:cx="140.28085"
       sodipodi:cy="503.78418"
       sodipodi:rx="0.017716534"
       sodipodi:ry="0.017716534"
       d="m 140.29857,503.78418 a 0.01771653,0.01771653 0 1 1 -0.0354,0 0.01771653,0.01771653 0 1 1 0.0354,0 z" />
    <path
       style="color:#000000;fill:none;stroke:#000000;stroke-width:0.03543307;stroke-linecap:butt;stroke-linejoin:miter;stroke-miterlimit:4;stroke-opacity:1;stroke-dasharray:none;stroke-dashoffset:0;marker:none;visibility:visible;display:inline;overflow:visible;enable-background:accumulate"
       d="m 601.73948,504.43229 -18.13295,-4.85871"
       id="path4208-4"
       inkscape:connector-curvature="0" />
    <path
       style="color:#000000;fill:none;stroke:#000000;stroke-width:10;stroke-linecap:butt;stroke-linejoin:miter;stroke-miterlimit:4;stroke-opacity:1;stroke-dasharray:none;stroke-dashoffset:0;marker:none;visibility:visible;display:inline;overflow:visible;enable-background:accumulate"
       d="m 584.04399,494.72027 17.46483,10.08333"
       id="path4210-2"
       inkscape:connector-curvature="0" />
    <path
       style="fill:#000000;fill-opacity:1;stroke:#000000;stroke-width:10;stroke-linecap:round;stroke-linejoin:round;stroke-miterlimit:4;stroke-opacity:1;stroke-dasharray:none"
       d="m 148.47025,340.82533 c -18.75723,12.87435 -17.80472,47.07109 1.61402,77.72998 l 70.36401,-48.29556 c -21.62734,-29.143 -53.22081,-42.30877 -71.97803,-29.43442 z"
       id="path4262"
       inkscape:connector-curvature="0" />
    <path
       style="fill:#000000;fill-opacity:1;stroke:#000000;stroke-width:10;stroke-linecap:round;stroke-linejoin:round;stroke-miterlimit:4;stroke-opacity:1;stroke-dasharray:none"
       d="m 592.72304,334.58472 c 18.75723,12.87435 17.80472,47.07109 -1.61402,77.72998 l -70.36401,-48.29556 c 21.62734,-29.143 53.22081,-42.30877 71.97803,-29.43442 z"
       id="path4262-4"
       inkscape:connector-curvature="0" />
  </g>
</svg>
