<?xml version="1.0" encoding="UTF-8" standalone="no"?>
<!-- Created with Inkscape (http://www.inkscape.org/) -->

<svg
   xmlns:dc="http://purl.org/dc/elements/1.1/"
   xmlns:cc="http://creativecommons.org/ns#"
   xmlns:rdf="http://www.w3.org/1999/02/22-rdf-syntax-ns#"
   xmlns:svg="http://www.w3.org/2000/svg"
   xmlns="http://www.w3.org/2000/svg"
   xmlns:sodipodi="http://sodipodi.sourceforge.net/DTD/sodipodi-0.dtd"
   xmlns:inkscape="http://www.inkscape.org/namespaces/inkscape"
   id="svg2"
   version="1.1"
   inkscape:version="0.91 r13725"
   xml:space="preserve"
   width="765"
   height="635"
   viewBox="0 0 765 635"
   sodipodi:docname="damask-bw-1.svg"><metadata
     id="metadata8"><rdf:RDF><cc:Work
         rdf:about=""><dc:format>image/svg+xml</dc:format><dc:type
           rdf:resource="http://purl.org/dc/dcmitype/StillImage" /><dc:title></dc:title></cc:Work></rdf:RDF></metadata><defs
     id="defs6" /><sodipodi:namedview
     pagecolor="#ffffff"
     bordercolor="#666666"
     borderopacity="1"
     objecttolerance="10"
     gridtolerance="10"
     guidetolerance="10"
     inkscape:pageopacity="0"
     inkscape:pageshadow="2"
     inkscape:window-width="1358"
     inkscape:window-height="827"
     id="namedview4"
     showgrid="false"
     inkscape:zoom="2.1023899"
     inkscape:cx="335.92864"
     inkscape:cy="251.30619"
     inkscape:window-x="1814"
     inkscape:window-y="116"
     inkscape:window-maximized="0"
     inkscape:current-layer="g10" /><g
     id="g10"
     inkscape:groupmode="layer"
     inkscape:label="ink_ext_XXXXXX"
     transform="matrix(1.25,0,0,-1.25,0,635)"><path
       inkscape:connector-curvature="0"
       id="path124"
       style="fill:#000000;fill-opacity:1;fill-rule:nonzero;stroke:none"
       d="m 222.138,285.146 c 0,0 1.573,8.811 6.899,10.228 l -1.932,0.019 c 0,0 3.468,2.023 4.774,2.281 1.297,0.239 11.029,3.881 7.625,7.469 0,0 -20.879,-0.975 -17.366,-19.997" /><path
       inkscape:connector-curvature="0"
       id="path128"
       style="fill:#000000;fill-opacity:1;fill-rule:nonzero;stroke:none"
       d="m 239.1,275.083 c 0,0 -12.602,-1.895 -9.272,-13.208 0,0 0.405,5.445 3.541,6.641 l -1.168,-0.111 c 0,0 1.969,1.435 2.741,1.674 0.773,0.239 6.448,3.054 4.158,5.004" /><path
       inkscape:connector-curvature="0"
       id="path132"
       style="fill:#000000;fill-opacity:1;fill-rule:nonzero;stroke:none"
       d="m 365.243,305.143 c -3.403,-3.588 6.328,-7.23 7.634,-7.469 1.297,-0.258 4.765,-2.281 4.765,-2.281 l -1.932,-0.019 c 5.335,-1.417 6.899,-10.228 6.899,-10.228 3.514,19.022 -17.366,19.997 -17.366,19.997" /><path
       inkscape:connector-curvature="0"
       id="path136"
       style="fill:#000000;fill-opacity:1;fill-rule:nonzero;stroke:none"
       d="m 365.648,275.083 c -2.291,-1.95 3.384,-4.765 4.158,-5.004 0.772,-0.239 2.74,-1.674 2.74,-1.674 l -1.168,0.111 c 3.136,-1.196 3.541,-6.641 3.541,-6.641 3.33,11.313 -9.271,13.208 -9.271,13.208" /><path
       inkscape:connector-curvature="0"
       id="path140"
       style="fill:#000000;fill-opacity:1;fill-rule:nonzero;stroke:none"
       d="m 301.343,268.037 c 4.323,0.129 4.443,-2.097 4.425,-2.98 0,0 -1.454,2.631 -3.9,0.718 0,0 7.91,-4.691 3.771,-13.283 -0.083,-0.165 8.434,8.444 3.716,13.706 0,0 2.033,0.275 0.193,1.987 0,0 -4.985,6.788 -10.559,2.501 0,0 -1.978,-2.796 2.354,-2.649" /><path
       inkscape:connector-curvature="0"
       id="path142"
       style="fill:#000000;fill-opacity:1;fill-rule:nonzero;stroke:none"
       d="m 296.827,252.769 c 0,0 -2.023,-0.277 -0.184,-1.987 0,0 4.986,-6.807 10.56,-2.502 0,0 1.978,2.796 -2.355,2.649 -4.323,-0.147 -4.443,2.078 -4.434,2.98 0,0 1.472,-2.649 3.9,-0.718 0,0 -7.827,4.655 -3.762,13.282 0.083,0.166 -8.434,-8.443 -3.725,-13.704" /><path
       inkscape:connector-curvature="0"
       id="path144"
       style="fill:#000000;fill-opacity:1;fill-rule:nonzero;stroke:none"
       d="m 261.635,267.338 c -6.926,-0.129 -5.905,-8.131 -5.905,-8.131 0.846,1.527 8.554,5.592 6.595,-4.194 -1.978,-9.806 13.264,-13.172 13.264,-13.172 l -2.98,-2.668 c 13.015,-11.644 28.578,1.012 28.578,1.012 -3.192,-2.87 -14.331,1.656 -16.759,3.348 -2.41,1.693 -6.089,1.399 -6.089,1.399 4.332,0.091 -2.097,7.322 -4.949,9.437 -2.869,2.097 -3.403,7.082 -3.403,7.082 l 2.667,-3.421 c -6.852,17.623 12.455,27.759 12.455,27.759 -23.639,0.829 -23.474,-18.451 -23.474,-18.451" /><path
       inkscape:connector-curvature="0"
       id="path146"
       style="fill:#000000;fill-opacity:1;fill-rule:nonzero;stroke:none"
       d="m 290.811,355.604 c 1.123,-0.221 4.103,-1.969 4.103,-1.969 l -1.674,0 c 4.581,-1.233 5.924,-8.812 5.924,-8.812 3.053,16.355 -14.901,17.219 -14.901,17.219 -2.944,-3.072 5.426,-6.218 6.548,-6.438" /><path
       inkscape:connector-curvature="0"
       id="path148"
       style="fill:#000000;fill-opacity:1;fill-rule:nonzero;stroke:none"
       d="m 274.053,285.992 c -0.313,-0.203 23.013,5.446 20.511,19.206 0,0 3.716,-1.637 2.392,3.164 0,0 -1.325,16.649 -15.186,15.214 0,0 -6.245,-2.668 1.205,-6.936 7.432,-4.249 5.316,-8.131 4.36,-9.621 0,0 0.294,5.979 -5.823,5.261 0,0 8.389,-16.041 -7.459,-26.288" /><path
       inkscape:connector-curvature="0"
       id="path150"
       style="fill:#000000;fill-opacity:1;fill-rule:nonzero;stroke:none"
       d="m 298.759,241.878 c -15.857,10.265 -7.469,26.307 -7.469,26.307 -6.108,0.698 -5.823,-5.28 -5.823,-5.28 -0.947,1.49 -3.071,5.372 4.369,9.64 7.451,4.249 1.196,6.916 1.196,6.916 -13.852,1.435 -15.177,-15.213 -15.177,-15.213 -1.324,-4.802 2.383,-3.146 2.383,-3.146 -2.493,-13.761 20.833,-19.427 20.521,-19.224" /><path
       inkscape:connector-curvature="0"
       id="path152"
       style="fill:#000000;fill-opacity:1;fill-rule:nonzero;stroke:none"
       d="m 296.33,194.729 c 5.17,3.274 0.433,4.837 0.433,4.837 13.65,10.504 -2.934,34.953 -2.824,34.512 5.979,-22.48 -14.938,-30.17 -14.938,-30.17 4.986,-5.685 9.677,0 9.677,0 -0.368,-2.152 -1.656,-7.451 -11.958,-5.17 -10.32,2.263 -6.816,-5.316 -6.816,-5.316 11.452,-12.785 26.426,1.307 26.426,1.307" /><path
       inkscape:connector-curvature="0"
       id="path154"
       style="fill:#000000;fill-opacity:1;fill-rule:nonzero;stroke:none"
       d="m 282.92,232.091 c 4.58,-11.314 -5.832,-16.704 -5.832,-16.704 2.98,-2.631 5.041,0.626 5.041,0.626 -0.047,-1.141 -0.368,-3.974 -5.887,-3.459 -5.528,0.497 -3.21,-3.219 -3.21,-3.219 6.797,-5.924 13.695,2.392 13.695,2.392 2.484,2.041 -0.091,2.556 -0.091,2.556 6.438,6.365 -3.808,18.028 -3.716,17.808" /><path
       inkscape:connector-curvature="0"
       id="path156"
       style="fill:#000000;fill-opacity:1;fill-rule:nonzero;stroke:none"
       d="m 258.195,313.844 c 8.61,0.681 9.051,-3.771 9.106,-5.556 0,0 -3.155,5.151 -7.855,1.085 0,0 16.05,-8.59 8.711,-26.177 -0.138,-0.331 16.087,17.623 6.199,27.686 0,0 4.029,0.736 0.203,3.992 0,0 -10.569,13.135 -21.313,4.047 0,0 -3.697,-5.758 4.949,-5.077" /><path
       inkscape:connector-curvature="0"
       id="path158"
       style="fill:#000000;fill-opacity:1;fill-rule:nonzero;stroke:none"
       d="m 241.786,316.217 c -8.012,-3.495 -5.961,3.863 -4.802,4.857 0,0 -7.045,-0.589 -5.887,-6.549 0,0 -16.529,-3.422 -11.452,-23.492 0,0 5.105,18.396 21.469,15.783 l -3.412,1.656 c 0,0 4.359,0.46 6.696,-1.601 2.327,-2.06 9.713,-6.217 8.977,-2.501 0,0 0.442,-3.201 2.318,-4.967 1.895,-1.748 7.837,-10.449 5.97,-13.705 0,0 7.956,15.655 -4.425,24.65 l -1.719,-3.053 c 0,0 -5.713,12.418 -13.733,8.922" /><path
       inkscape:connector-curvature="0"
       id="path160"
       style="fill:#000000;fill-opacity:1;fill-rule:nonzero;stroke:none"
       d="m 253.449,298.593 c 0,0 -11.801,6.972 -17.394,-2.998 0,0 -1.168,-5.464 5.215,-2.465 6.375,2.962 7.984,-0.294 8.536,-1.637 0,0 -3.881,3.016 -6.292,-1.417 0,0 14.644,-1.95 14.12,-17.44 -0.009,-0.312 7.221,18.028 -3.191,22.867 0,0 2.85,1.692 -0.994,3.09" /><path
       inkscape:connector-curvature="0"
       id="path162"
       style="fill:#000000;fill-opacity:1;fill-rule:nonzero;stroke:none"
       d="m 247.875,230.545 c 0,0 -7.193,7.653 -1.307,14.607 l -1.747,-1.14 c 0,0 1.021,2.189 2.649,2.704 1.637,0.515 5.703,2.796 3.744,3.514 0,0 1.637,-0.699 2.999,-0.313 1.369,0.386 7.164,0.699 8.158,-1.104 0,0 -5.096,8.223 -12.859,4.949 l 0.938,-1.674 c 0,0 -7.478,0.846 -8.112,-3.918 -0.645,-4.784 -3.524,-1.711 -3.661,-0.884 0,0 -1.73,-3.495 1.407,-4.636 0,0 -3.109,-8.756 7.791,-12.105" /><path
       inkscape:connector-curvature="0"
       id="path164"
       style="fill:#000000;fill-opacity:1;fill-rule:nonzero;stroke:none"
       d="m 248.519,236.212 -0.562,-0.902 c 0,0 0.028,2.208 0.286,2.888 0.257,0.681 1.315,6.31 -1.343,5.722 0,0 -5.501,-10.1 4.47,-13.871 0,0 -3.707,3.256 -2.851,6.163" /><path
       inkscape:connector-curvature="0"
       id="path168"
       style="fill:#000000;fill-opacity:1;fill-rule:nonzero;stroke:none"
       d="m 267.375,243.184 c 0.138,-0.092 -6.439,8.536 -11.682,5.022 0,0 0.018,1.821 -1.729,0.405 0,0 -6.66,-3.551 -3.55,-9.033 0,0 2.225,-2.097 2.649,1.748 0.414,3.845 2.409,3.679 3.2,3.551 0,0 -2.529,-0.957 -1.122,-3.367 0,0 5.096,6.346 12.234,1.674" /><path
       inkscape:connector-curvature="0"
       id="path170"
       style="fill:#000000;fill-opacity:1;fill-rule:nonzero;stroke:none"
       d="m 264.643,214.909 c 0,0 3.376,-1.748 4.562,1.287 0,0 8.527,-3.182 11.985,7.433 0,0 -7.616,-6.918 -14.33,-1.031 l 1.085,-1.729 c 0,0 -2.115,1.031 -2.594,2.649 -0.478,1.601 -2.649,5.63 -3.385,3.716 0,0 0.736,1.582 0.368,2.925 -0.349,1.343 -0.57,7.027 1.233,7.966 0,0 -8.131,-4.838 -5.078,-12.51 l 1.656,0.902 c 0,0 -0.956,-7.304 3.698,-8.021 4.663,-0.699 1.618,-3.458 0.8,-3.587" /><path
       inkscape:connector-curvature="0"
       id="path172"
       style="fill:#000000;fill-opacity:1;fill-rule:nonzero;stroke:none"
       d="m 281.733,227.032 c 0,0 -3.247,-3.569 -6.08,-2.686 l 0.883,-0.57 c 0,0 -2.171,0.074 -2.842,0.331 -0.662,0.257 -6.145,1.398 -5.62,-1.214 0,0 9.796,-5.556 13.659,4.139" /><path
       inkscape:connector-curvature="0"
       id="path176"
       style="fill:#000000;fill-opacity:1;fill-rule:nonzero;stroke:none"
       d="m 263.604,229.883 c 0,0 3.366,-6.567 8.784,-3.624 0,0 2.097,2.153 -1.665,2.631 -3.762,0.478 -3.56,2.428 -3.422,3.201 0,0 0.902,-2.502 3.275,-1.177 0,0 -6.108,5.095 -1.426,12.012 0.092,0.147 -8.471,-6.144 -5.105,-11.332 0,0 -1.803,0.037 -0.441,-1.711" /><path
       inkscape:connector-curvature="0"
       id="path178"
       style="fill:#000000;fill-opacity:1;fill-rule:nonzero;stroke:none"
       d="m 249.53,279.351 -0.864,-1.95 c 0,0 -4.231,7.175 -8.877,4.544 -4.635,-2.613 -3.853,1.968 -3.219,2.649 0,0 -4.222,-0.81 -3.155,-4.342 0,0 -9.805,-3.108 -5.463,-14.956 0,0 1.941,11.461 12.012,10.909 l -2.171,0.791 c 0,0 2.613,0.552 4.158,-0.552 1.545,-1.104 6.273,-3.164 5.611,-0.956 0,0 0.46,-1.913 1.711,-2.852 1.251,-0.956 5.408,-5.85 4.47,-7.947 0,0 3.845,9.989 -4.213,14.662" /><path
       inkscape:connector-curvature="0"
       id="path180"
       style="fill:#000000;fill-opacity:1;fill-rule:nonzero;stroke:none"
       d="m 240.921,267.908 c 3.679,2.208 4.856,0.332 5.28,-0.441 0,0 -2.539,1.582 -3.735,-1.269 0,0 9.014,-0.258 9.658,-9.677 0.009,-0.183 3.238,11.369 -3.366,13.65 0,0 1.619,1.214 -0.801,1.821 0,0 -7.588,3.477 -10.348,-2.906 0,0 -0.367,-3.385 3.312,-1.178" /><path
       inkscape:connector-curvature="0"
       id="path182"
       style="fill:#000000;fill-opacity:1;fill-rule:nonzero;stroke:none"
       d="m 275.58,347.564 -3.441,1.178 c 0,0 4.103,0.938 6.568,-0.754 2.456,-1.674 9.98,-4.802 8.857,-1.325 0,0 0.783,-3.017 2.788,-4.47 2.005,-1.454 8.683,-9.051 7.275,-12.381 0,0 5.768,15.858 -7.073,22.977 l -1.288,-3.091 c 0,0 -6.898,11.167 -14.128,6.917 -7.239,-4.268 -6.144,2.981 -5.151,4.066 0,0 -6.641,-1.398 -4.838,-6.935 0,0 -15.37,-5.17 -8.196,-23.732 0,0 2.732,18.121 18.627,17.55" /><path
       inkscape:connector-curvature="0"
       id="path184"
       style="fill:#000000;fill-opacity:1;fill-rule:nonzero;stroke:none"
       d="m 274.246,345.78 c 0,0 -19.795,-3.348 -14.23,-21.082 0,0 0.479,8.573 5.39,10.559 l -1.839,-0.22 c 0,0 3.063,2.336 4.277,2.722 1.205,0.405 10.063,5.004 6.402,8.021" /><path
       inkscape:connector-curvature="0"
       id="path188"
       style="fill:#000000;fill-opacity:1;fill-rule:nonzero;stroke:none"
       d="m 277.327,334.521 c 5.73,3.588 7.634,0.663 8.315,-0.551 0,0 -4.037,2.428 -5.831,-2.079 0,0 14.229,-0.166 15.499,-14.993 0.027,-0.294 4.774,18.028 -5.712,21.413 0,0 2.52,1.968 -1.307,2.833 0,0 -12.049,5.28 -16.225,-4.875 0,0 -0.478,-5.335 5.261,-1.748" /><path
       inkscape:connector-curvature="0"
       id="path190"
       style="fill:#000000;fill-opacity:1;fill-rule:nonzero;stroke:none"
       d="m 319.639,285.789 c 0,0 19.306,-10.136 12.454,-27.759 l 2.668,3.421 c 0,0 -0.534,-4.985 -3.404,-7.082 -2.851,-2.115 -9.281,-9.346 -4.949,-9.437 0,0 -3.678,0.294 -6.089,-1.399 -2.428,-1.692 -13.567,-6.218 -16.759,-3.348 0,0 15.563,-12.656 28.588,-1.012 l -2.98,2.668 c 0,0 15.232,3.366 13.264,13.172 -1.969,9.786 5.739,5.721 6.586,4.194 0,0 1.03,8.002 -5.905,8.131 0,0 0.164,19.28 -23.474,18.451" /><path
       inkscape:connector-curvature="0"
       id="path192"
       style="fill:#000000;fill-opacity:1;fill-rule:nonzero;stroke:none"
       d="m 311.508,353.635 -1.675,0 c 0,0 2.989,1.748 4.103,1.969 1.121,0.22 9.492,3.366 6.548,6.438 0,0 -17.954,-0.864 -14.9,-17.219 0,0 1.343,7.579 5.924,8.812" /><path
       inkscape:connector-curvature="0"
       id="path194"
       style="fill:#000000;fill-opacity:1;fill-rule:nonzero;stroke:none"
       d="m 330.704,285.992 c -15.83,10.283 -7.46,26.288 -7.46,26.288 -6.116,0.718 -5.831,-5.261 -5.831,-5.261 -0.957,1.49 -3.072,5.372 4.36,9.621 7.45,4.268 1.204,6.936 1.204,6.936 -13.861,1.435 -15.186,-15.214 -15.186,-15.214 -1.324,-4.801 2.391,-3.164 2.391,-3.164 -2.492,-13.76 20.826,-19.409 20.522,-19.206" /><path
       inkscape:connector-curvature="0"
       id="path196"
       style="fill:#000000;fill-opacity:1;fill-rule:nonzero;stroke:none"
       d="m 305.988,241.878 c -0.312,-0.203 23.014,5.463 20.531,19.224 0,0 3.698,-1.656 2.383,3.146 0,0 -1.334,16.648 -15.187,15.213 0,0 -6.245,-2.667 1.196,-6.916 7.45,-4.268 5.316,-8.15 4.369,-9.64 0,0 0.285,5.978 -5.823,5.28 0,0 8.371,-16.024 -7.469,-26.307" /><path
       inkscape:connector-curvature="0"
       id="path198"
       style="fill:#000000;fill-opacity:1;fill-rule:nonzero;stroke:none"
       d="m 334.852,193.422 c 0,0 3.496,7.579 -6.825,5.316 -10.301,-2.281 -11.589,3.018 -11.948,5.17 0,0 4.682,-5.685 9.667,0 0,0 -20.971,7.708 -14.937,30.17 0.11,0.441 -16.465,-24.008 -2.825,-34.512 0,0 -4.736,-1.563 0.433,-4.837 0,0 14.975,-14.092 26.435,-1.307" /><path
       inkscape:connector-curvature="0"
       id="path200"
       style="fill:#000000;fill-opacity:1;fill-rule:nonzero;stroke:none"
       d="m 327.659,215.387 c 0,0 -10.43,5.39 -5.831,16.704 0.092,0.22 -10.146,-11.443 -3.717,-17.808 0,0 -2.575,-0.515 -0.091,-2.556 0,0 6.898,-8.316 13.696,-2.392 0,0 2.317,3.716 -3.21,3.219 -5.52,-0.515 -5.841,2.318 -5.887,3.459 0,0 2.06,-3.257 5.04,-0.626" /><path
       inkscape:connector-curvature="0"
       id="path202"
       style="fill:#000000;fill-opacity:1;fill-rule:nonzero;stroke:none"
       d="m 330.198,314.874 c -3.826,-3.256 0.194,-3.992 0.194,-3.992 -9.889,-10.063 6.346,-28.017 6.208,-27.686 -7.349,17.587 8.702,26.177 8.702,26.177 -4.691,4.066 -7.856,-1.085 -7.856,-1.085 0.055,1.785 0.497,6.237 9.115,5.556 8.637,-0.681 4.94,5.077 4.94,5.077 -10.743,9.088 -21.303,-4.047 -21.303,-4.047" /><path
       inkscape:connector-curvature="0"
       id="path204"
       style="fill:#000000;fill-opacity:1;fill-rule:nonzero;stroke:none"
       d="m 347.509,310.348 c -12.381,-8.995 -4.415,-24.65 -4.415,-24.65 -1.876,3.256 4.065,11.957 5.961,13.705 1.876,1.766 2.317,4.967 2.317,4.967 -0.726,-3.716 6.659,0.441 8.987,2.501 2.336,2.061 6.687,1.601 6.687,1.601 l -3.403,-1.656 c 16.354,2.613 21.459,-15.783 21.459,-15.783 5.087,20.07 -11.452,23.492 -11.452,23.492 1.159,5.96 -5.886,6.549 -5.886,6.549 1.158,-0.994 3.209,-8.352 -4.802,-4.857 -8.021,3.496 -13.733,-8.922 -13.733,-8.922 l -1.72,3.053" /><path
       inkscape:connector-curvature="0"
       id="path206"
       style="fill:#000000;fill-opacity:1;fill-rule:nonzero;stroke:none"
       d="m 347.123,272.636 c -0.478,15.49 14.109,17.44 14.109,17.44 -2.41,4.433 -6.291,1.417 -6.291,1.417 0.552,1.343 2.17,4.599 8.536,1.637 6.384,-2.999 5.216,2.465 5.216,2.465 -5.593,9.97 -17.386,2.998 -17.386,2.998 -3.853,-1.398 -0.993,-3.09 -0.993,-3.09 -10.421,-4.839 -3.191,-23.179 -3.191,-22.867" /><path
       inkscape:connector-curvature="0"
       id="path208"
       style="fill:#000000;fill-opacity:1;fill-rule:nonzero;stroke:none"
       d="m 366.07,247.286 c -0.127,-0.827 -3.016,-3.9 -3.651,0.884 -0.644,4.764 -8.122,3.918 -8.122,3.918 l 0.947,1.674 c -7.763,3.274 -12.868,-4.949 -12.868,-4.949 0.994,1.803 6.789,1.49 8.159,1.104 1.37,-0.386 2.998,0.313 2.998,0.313 -1.959,-0.718 2.106,-2.999 3.744,-3.514 1.638,-0.515 2.65,-2.704 2.65,-2.704 l -1.748,1.14 c 5.896,-6.954 -1.306,-14.607 -1.306,-14.607 10.9,3.349 7.8,12.105 7.8,12.105 3.127,1.141 1.397,4.636 1.397,4.636" /><path
       inkscape:connector-curvature="0"
       id="path210"
       style="fill:#000000;fill-opacity:1;fill-rule:nonzero;stroke:none"
       d="m 357.856,243.92 c -2.658,0.588 -1.6,-5.041 -1.351,-5.722 0.258,-0.68 0.294,-2.888 0.294,-2.888 l -0.57,0.902 c 0.865,-2.907 -2.852,-6.163 -2.852,-6.163 9.971,3.771 4.479,13.871 4.479,13.871" /><path
       inkscape:connector-curvature="0"
       id="path214"
       style="fill:#000000;fill-opacity:1;fill-rule:nonzero;stroke:none"
       d="m 349.615,241.51 c 1.399,2.41 -1.131,3.367 -1.131,3.367 0.791,0.128 2.787,0.294 3.201,-3.551 0.424,-3.845 2.649,-1.748 2.649,-1.748 3.109,5.482 -3.551,9.033 -3.551,9.033 -1.747,1.416 -1.728,-0.405 -1.728,-0.405 -5.244,3.514 -11.821,-5.114 -11.682,-5.022 7.138,4.691 12.242,-1.674 12.242,-1.674" /><path
       inkscape:connector-curvature="0"
       id="path216"
       style="fill:#000000;fill-opacity:1;fill-rule:nonzero;stroke:none"
       d="m 341.181,238.125 c 1.803,-0.939 1.582,-6.623 1.232,-7.966 -0.358,-1.343 0.368,-2.925 0.368,-2.925 -0.736,1.914 -2.907,-2.115 -3.385,-3.716 -0.469,-1.618 -2.593,-2.649 -2.593,-2.649 l 1.085,1.729 c -6.706,-5.887 -14.322,1.031 -14.322,1.031 3.459,-10.615 11.976,-7.433 11.976,-7.433 1.187,-3.035 4.571,-1.287 4.571,-1.287 -0.818,0.129 -3.863,2.888 0.791,3.587 4.655,0.717 3.698,8.021 3.698,8.021 l 1.656,-0.902 c 3.063,7.672 -5.077,12.51 -5.077,12.51" /><path
       inkscape:connector-curvature="0"
       id="path218"
       style="fill:#000000;fill-opacity:1;fill-rule:nonzero;stroke:none"
       d="m 323.014,227.032 c 3.864,-9.695 13.66,-4.139 13.66,-4.139 0.533,2.612 -4.958,1.471 -5.62,1.214 -0.672,-0.257 -2.833,-0.331 -2.833,-0.331 l 0.874,0.57 c -2.833,-0.883 -6.081,2.686 -6.081,2.686" /><path
       inkscape:connector-curvature="0"
       id="path222"
       style="fill:#000000;fill-opacity:1;fill-rule:nonzero;stroke:none"
       d="m 335.598,242.926 c 4.625,-6.953 -1.426,-12.012 -1.426,-12.012 2.373,-1.325 3.274,1.177 3.274,1.177 0.138,-0.773 0.34,-2.723 -3.421,-3.201 -3.762,-0.478 -1.666,-2.631 -1.666,-2.631 5.418,-2.943 8.785,3.624 8.785,3.624 1.361,1.748 -0.432,1.711 -0.432,1.711 3.356,5.188 -5.206,11.479 -5.114,11.332" /><path
       inkscape:connector-curvature="0"
       id="path224"
       style="fill:#000000;fill-opacity:1;fill-rule:nonzero;stroke:none"
       d="m 371.332,280.252 c 1.068,3.532 -3.155,4.342 -3.155,4.342 0.634,-0.681 1.417,-5.262 -3.219,-2.649 -4.645,2.631 -8.876,-4.544 -8.876,-4.544 l -0.865,1.95 c -8.058,-4.673 -4.213,-14.662 -4.213,-14.662 -0.938,2.097 3.219,6.991 4.471,7.947 1.251,0.939 1.719,2.852 1.719,2.852 -0.671,-2.208 4.057,-0.148 5.602,0.956 1.546,1.104 4.158,0.552 4.158,0.552 l -2.171,-0.791 c 10.072,0.552 12.022,-10.909 12.022,-10.909 4.333,11.848 -5.473,14.956 -5.473,14.956" /><path
       inkscape:connector-curvature="0"
       id="path226"
       style="fill:#000000;fill-opacity:1;fill-rule:nonzero;stroke:none"
       d="m 367.138,269.086 c -2.76,6.383 -10.339,2.906 -10.339,2.906 -2.428,-0.607 -0.81,-1.821 -0.81,-1.821 -6.603,-2.281 -3.375,-13.833 -3.366,-13.65 0.662,9.419 9.658,9.677 9.658,9.677 -1.196,2.851 -3.725,1.269 -3.725,1.269 0.414,0.773 1.592,2.649 5.27,0.441 3.68,-2.207 3.312,1.178 3.312,1.178" /><path
       inkscape:connector-curvature="0"
       id="path228"
       style="fill:#000000;fill-opacity:1;fill-rule:nonzero;stroke:none"
       d="m 315.49,349.698 -1.297,3.091 c -12.841,-7.119 -7.073,-22.977 -7.073,-22.977 -1.407,3.33 5.271,10.927 7.276,12.381 2.004,1.453 2.795,4.47 2.795,4.47 -1.122,-3.477 6.394,-0.349 8.859,1.325 2.464,1.692 6.559,0.754 6.559,0.754 l -3.441,-1.178 c 15.895,0.571 18.626,-17.55 18.626,-17.55 7.175,18.562 -8.196,23.732 -8.196,23.732 1.804,5.537 -4.837,6.935 -4.837,6.935 0.993,-1.085 2.096,-8.334 -5.152,-4.066 -7.229,4.25 -14.119,-6.917 -14.119,-6.917" /><path
       inkscape:connector-curvature="0"
       id="path230"
       style="fill:#000000;fill-opacity:1;fill-rule:nonzero;stroke:none"
       d="m 330.511,345.78 c -3.67,-3.017 5.187,-7.616 6.392,-8.021 1.224,-0.386 4.286,-2.722 4.286,-2.722 l -1.848,0.22 c 4.921,-1.986 5.39,-10.559 5.39,-10.559 5.574,17.734 -14.22,21.082 -14.22,21.082" /><path
       inkscape:connector-curvature="0"
       id="path234"
       style="fill:#000000;fill-opacity:1;fill-rule:nonzero;stroke:none"
       d="m 309.447,316.898 c 1.26,14.827 15.489,14.993 15.489,14.993 -1.784,4.507 -5.831,2.079 -5.831,2.079 0.681,1.214 2.594,4.139 8.315,0.551 5.74,-3.587 5.262,1.748 5.262,1.748 -4.168,10.155 -16.226,4.875 -16.226,4.875 -3.826,-0.865 -1.306,-2.833 -1.306,-2.833 -10.486,-3.385 -5.74,-21.707 -5.703,-21.413" /><path
       inkscape:connector-curvature="0"
       id="path236"
       style="fill:#000000;fill-opacity:1;fill-rule:nonzero;stroke:none"
       d="m 217.907,204.625 c 0.019,0.019 0.019,0.019 0.028,0.019 -0.009,0 -0.009,0 -0.028,-0.019" /><path
       inkscape:connector-curvature="0"
       id="path238"
       style="fill:#000000;fill-opacity:1;fill-rule:nonzero;stroke:none"
       d="m 195.5,211.175 c -3.182,2.556 -8.314,2.501 -8.314,2.501 6.015,-0.294 -2.208,10.339 -5.961,13.521 -3.762,3.201 -4.029,10.137 -4.029,10.137 l 3.367,-4.986 c -7.827,25.074 19.868,37.29 19.868,37.29 -32.672,3.366 -34.254,-23.345 -34.254,-23.345 -9.603,0.46 -8.941,-10.707 -8.941,-10.707 1.307,2.042 12.381,6.935 8.72,-6.438 -3.651,-13.375 17.127,-19.5 17.127,-19.5 l -4.378,-3.404 c 15.526,-15.913 35.909,-3.753 39.202,-1.619 -5.151,-2.906 -19.316,4.065 -22.407,6.55" /><path
       inkscape:connector-curvature="0"
       id="path240"
       style="fill:#000000;fill-opacity:1;fill-rule:nonzero;stroke:none"
       d="m 217.935,204.644 c 0.285,0.184 0.45,0.295 0.45,0.295 -0.147,-0.111 -0.294,-0.203 -0.45,-0.295" /><path
       inkscape:connector-curvature="0"
       id="path242"
       style="fill:#000000;fill-opacity:1;fill-rule:nonzero;stroke:none"
       d="m 182.807,235.255 c 6.411,-4.525 9.897,11.571 9.989,13.668 0.111,2.098 2.493,8.003 2.493,8.003 l 0.46,-3.035 c 1.021,8.683 14.478,13.153 14.478,13.153 -30.658,1.177 -27.42,-31.789 -27.42,-31.789" /><path
       inkscape:connector-curvature="0"
       id="path246"
       style="fill:#000000;fill-opacity:1;fill-rule:nonzero;stroke:none"
       d="m 237.941,214.246 c -24.154,-4.561 -30.575,18.176 -30.575,18.176 -6.411,-4.82 -0.791,-10.192 -0.791,-10.192 -2.235,0.552 -7.727,2.318 -4.498,13.007 3.229,10.688 -5.05,7.615 -5.05,7.615 -14.385,-11.056 -0.754,-27.961 -0.754,-27.961 3.054,-5.722 5.078,-0.847 5.078,-0.847 9.961,-15.231 37.068,0.276 36.59,0.202" /><path
       inkscape:connector-curvature="0"
       id="path248"
       style="fill:#000000;fill-opacity:1;fill-rule:nonzero;stroke:none"
       d="m 257.055,194.729 -2.41,-3.717 c 0,0 -6.292,16.152 -16.704,12.326 -10.403,-3.827 -7.257,5.335 -5.721,6.512 0,0 -8.941,-0.239 -7.929,-7.856 0,0 -21.174,-3.071 -16.263,-28.863 0,0 7.856,22.885 28.349,18.359 l -4.195,2.336 c 0,0 5.547,0.258 8.343,-2.519 2.806,-2.779 11.82,-8.592 11.195,-3.827 0,0 0.294,-4.084 2.557,-6.457 2.253,-2.355 9.125,-13.816 6.512,-17.808 0,0 11.24,19.206 -3.734,31.514" /><path
       inkscape:connector-curvature="0"
       id="path250"
       style="fill:#000000;fill-opacity:1;fill-rule:nonzero;stroke:none"
       d="m 234.225,189.504 c 0,0 -26.491,0.331 -23.474,-24.008 0,0 2.649,11.02 9.493,12.418 l -2.447,0.165 c 0,0 4.544,2.3 6.217,2.539 1.656,0.221 14.24,4.084 10.211,8.886" /><path
       inkscape:connector-curvature="0"
       id="path254"
       style="fill:#000000;fill-opacity:1;fill-rule:nonzero;stroke:none"
       d="m 252.382,176.166 c 0,0 3.734,1.95 -1.012,3.992 0,0 -14.413,9.713 -22.232,-2.502 0,0 -1.886,-6.806 6.411,-3.513 8.279,3.293 10.072,-0.957 10.67,-2.686 0,0 -4.673,4.103 -8.067,-1.325 0,0 18.479,-3.568 16.566,-23.124 -0.037,-0.386 10.468,22.26 -2.336,29.158" /><path
       inkscape:connector-curvature="0"
       id="path256"
       style="fill:#000000;fill-opacity:1;fill-rule:nonzero;stroke:none"
       d="m 426.043,206.244 -4.379,3.404 c 0,0 20.788,6.125 17.127,19.5 -3.66,13.373 7.414,8.48 8.72,6.438 0,0 0.663,11.167 -8.941,10.707 0,0 -1.582,26.711 -34.244,23.345 0,0 27.686,-12.216 19.859,-37.29 l 3.366,4.986 c 0,0 -0.257,-6.936 -4.028,-10.137 -3.753,-3.182 -11.977,-13.815 -5.962,-13.521 0,0 -5.131,0.055 -8.314,-2.501 -3.091,-2.485 -17.256,-9.456 -22.407,-6.55 3.293,-2.134 23.685,-14.294 39.203,1.619" /><path
       inkscape:connector-curvature="0"
       id="path258"
       style="fill:#000000;fill-opacity:1;fill-rule:nonzero;stroke:none"
       d="m 386.813,204.644 c -0.157,0.092 -0.304,0.184 -0.45,0.295 0,0 0.164,-0.111 0.45,-0.295" /><path
       inkscape:connector-curvature="0"
       id="path260"
       style="fill:#000000;fill-opacity:1;fill-rule:nonzero;stroke:none"
       d="m 386.84,204.625 c -0.018,0.019 -0.018,0.019 -0.027,0.019 0.009,0 0.009,0 0.027,-0.019" /><path
       inkscape:connector-curvature="0"
       id="path262"
       style="fill:#000000;fill-opacity:1;fill-rule:nonzero;stroke:none"
       d="m 408.998,253.891 0.46,3.035 c 0,0 2.383,-5.905 2.493,-8.003 0.092,-2.097 3.578,-18.193 9.989,-13.668 0,0 3.238,32.966 -27.419,31.789 0,0 13.456,-4.47 14.477,-13.153" /><path
       inkscape:connector-curvature="0"
       id="path266"
       style="fill:#000000;fill-opacity:1;fill-rule:nonzero;stroke:none"
       d="m 403.396,214.044 c 0,0 2.034,-4.875 5.079,0.847 0,0 13.63,16.905 -0.745,27.961 0,0 -8.279,3.073 -5.06,-7.615 3.228,-10.689 -2.253,-12.455 -4.488,-13.007 0,0 5.62,5.372 -0.791,10.192 0,0 -6.43,-22.737 -30.584,-18.176 -0.469,0.074 26.629,-15.433 36.589,-0.202" /><path
       inkscape:connector-curvature="0"
       id="path268"
       style="fill:#000000;fill-opacity:1;fill-rule:nonzero;stroke:none"
       d="m 353.027,187.48 c -0.625,-4.765 8.389,1.048 11.195,3.827 2.805,2.777 8.352,2.519 8.352,2.519 l -4.204,-2.336 c 20.493,4.526 28.349,-18.359 28.349,-18.359 4.912,25.792 -16.262,28.863 -16.262,28.863 1.02,7.617 -7.929,7.856 -7.929,7.856 1.536,-1.177 4.682,-10.339 -5.721,-6.512 -10.412,3.826 -16.694,-12.326 -16.694,-12.326 l -2.42,3.717 c -14.974,-12.308 -3.735,-31.514 -3.735,-31.514 -2.612,3.992 4.259,15.453 6.513,17.808 2.263,2.373 2.556,6.457 2.556,6.457" /><path
       inkscape:connector-curvature="0"
       id="path270"
       style="fill:#000000;fill-opacity:1;fill-rule:nonzero;stroke:none"
       d="m 370.532,189.504 c -4.038,-4.802 8.545,-8.665 10.21,-8.886 1.664,-0.239 6.208,-2.539 6.208,-2.539 l -2.446,-0.165 c 6.844,-1.398 9.492,-12.418 9.492,-12.418 3.018,24.339 -23.464,24.008 -23.464,24.008" /><path
       inkscape:connector-curvature="0"
       id="path274"
       style="fill:#000000;fill-opacity:1;fill-rule:nonzero;stroke:none"
       d="m 366.605,170.132 c -3.404,5.428 -8.077,1.325 -8.077,1.325 0.598,1.729 2.392,5.979 10.67,2.686 8.297,-3.293 6.42,3.513 6.42,3.513 -7.827,12.215 -22.231,2.502 -22.231,2.502 -4.756,-2.042 -1.022,-3.992 -1.022,-3.992 -12.804,-6.898 -2.29,-29.544 -2.327,-29.158 -1.922,19.556 16.567,23.124 16.567,23.124" /><path
       inkscape:connector-curvature="0"
       id="path276"
       style="fill:#000000;fill-opacity:1;fill-rule:nonzero;stroke:none"
       d="m 317.744,169.434 c 0,0 -11.148,15.212 -23.63,5.61 0,0 -4.425,-6.273 5.27,-5.942 9.677,0.313 9.934,-4.672 9.916,-6.678 0,0 -3.275,5.905 -8.739,1.601 0,0 17.587,-10.431 8.435,-29.729 -0.175,-0.367 18.893,18.931 8.324,30.685 0,0 4.544,0.607 0.424,4.453" /><path
       inkscape:connector-curvature="0"
       id="path278"
       style="fill:#000000;fill-opacity:1;fill-rule:nonzero;stroke:none"
       d="m 288.862,130.488 c 0,0 11.157,-15.232 23.639,-5.611 0,0 4.424,6.255 -5.271,5.942 -9.676,-0.331 -9.943,4.673 -9.906,6.678 0,0 3.256,-5.924 8.72,-1.619 0,0 -17.55,10.431 -8.426,29.728 0.184,0.369 -18.893,-18.929 -8.333,-30.666 0,0 -4.544,-0.626 -0.423,-4.452" /><path
       inkscape:connector-curvature="0"
       id="path280"
       style="fill:#000000;fill-opacity:1;fill-rule:nonzero;stroke:none"
       d="m 271.698,114.14259 c -4.084,-4.3047 7.579,-8.6641 9.124,-8.9766 1.564,-0.2949 5.721,-2.741 5.721,-2.741 l -2.317,-0.0188 c 6.383,-1.7109 8.241,-12.270701 8.241,-12.270701 4.25,22.811801 -20.769,24.007101 -20.769,24.007101" /><path
       inkscape:connector-curvature="0"
       id="path282"
       style="fill:#000000;fill-opacity:1;fill-rule:nonzero;stroke:none"
       d="m 295.374,92.637889 c 11.792,17.293001 -8.444,27.374001 -8.444,27.374001 -4.939,-2.061 3.1,-9.9162 4.277,-10.726 1.177,-0.8269 3.725,-4.3406 3.725,-4.3406 l -1.913,0.8274 c 4.654,-3.7344 2.355,-13.134801 2.355,-13.134801" /><path
       inkscape:connector-curvature="0"
       id="path284"
       style="fill:#000000;fill-opacity:1;fill-rule:nonzero;stroke:none"
       d="m 282.754,124.307 c 0,0 -15.416,20.015 0.423,31.66 0,0 -1.527,7.12 -8.554,2.539 0,0 0.745,19.445 19.831,21.063 0,0 -17.072,15.417 -32.745,-21.119 0,0 -0.58,-34.952 21.045,-34.143" /><path
       inkscape:connector-curvature="0"
       id="path286"
       style="fill:#000000;fill-opacity:1;fill-rule:nonzero;stroke:none"
       d="m 312.28,90.135489 c 0,0 1.858,10.559801 8.241,12.270701 l -2.317,0.0188 c 0,0 4.157,2.4461 5.721,2.741 1.555,0.3125 13.209,4.6719 9.125,8.9766 0,0 -25.02,-1.1953 -20.77,-24.007101" /><path
       inkscape:connector-curvature="0"
       id="path288"
       style="fill:#000000;fill-opacity:1;fill-rule:nonzero;stroke:none"
       d="m 313.54,109.28589 c 1.187,0.8098 9.226,8.665 4.278,10.726 0,0 -20.227,-10.081 -8.445,-27.374001 0,0 -2.29,9.400401 2.365,13.134801 l -1.923,-0.8274 c 0,0 2.548,3.5137 3.725,4.3406" /><path
       inkscape:connector-curvature="0"
       id="path290"
       style="fill:#000000;fill-opacity:1;fill-rule:nonzero;stroke:none"
       d="m 310.293,179.569 c 19.096,-1.618 19.831,-21.063 19.831,-21.063 -7.027,4.581 -8.554,-2.539 -8.554,-2.539 15.839,-11.645 0.423,-31.66 0.423,-31.66 21.634,-0.809 21.046,34.143 21.046,34.143 -15.674,36.536 -32.746,21.119 -32.746,21.119" /><path
       inkscape:connector-curvature="0"
       id="path292"
       style="fill:#000000;fill-opacity:1;fill-rule:nonzero;stroke:none"
       d="m 301.629,74.020689 c 0.257,0 0.496,0.0367 0.744,0.0555 0.249,-0.0188 0.488,-0.0555 0.746,-0.0555 3.145,0 5.942,1.4352 7.726,3.6426 l -16.906,0 c 1.793,-2.2074 4.553,-3.6426 7.69,-3.6426" /><path
       inkscape:connector-curvature="0"
       id="path294"
       style="fill:#000000;fill-opacity:1;fill-rule:nonzero;stroke:none"
       d="m 303.119,92.895689 c -0.258,0 -0.497,-0.0371 -0.746,-0.0559 -0.248,0.0188 -0.487,0.0559 -0.744,0.0559 -3.661,0 -6.825,-1.9504 -8.509,-4.8203 l 18.553,0 c -1.693,2.8699 -4.875,4.8203 -8.554,4.8203" /><path
       inkscape:connector-curvature="0"
       id="path302"
       style="fill:#000000;fill-opacity:1;fill-rule:nonzero;stroke:none"
       d="m 302.373,86.401589 c -5.748,0 -10.421,-1.4907 -10.421,-3.3301 0,-1.8574 4.673,-3.3481 10.421,-3.3481 5.759,0 10.422,1.4907 10.422,3.3481 0,1.8394 -4.663,3.3301 -10.422,3.3301" /></g></svg>