<?xml version="1.0" encoding="UTF-8" standalone="no"?>
<svg
   xmlns:dc="http://purl.org/dc/elements/1.1/"
   xmlns:cc="http://creativecommons.org/ns#"
   xmlns:rdf="http://www.w3.org/1999/02/22-rdf-syntax-ns#"
   xmlns:svg="http://www.w3.org/2000/svg"
   xmlns="http://www.w3.org/2000/svg"
   version="1.1"
   id="svg2"
   viewBox="0 0 744.09448819 1052.3622047"
   height="297mm"
   width="210mm">
  <defs
     id="defs4" />
  <metadata
     id="metadata7">
    <rdf:RDF>
      <cc:Work
         rdf:about="">
        <dc:format>image/svg+xml</dc:format>
        <dc:type
           rdf:resource="http://purl.org/dc/dcmitype/StillImage" />
        <dc:title></dc:title>
      </cc:Work>
    </rdf:RDF>
  </metadata>
  <g
     id="layer1">
    <g
       transform="matrix(2.6634684,0,0,2.6634684,-407.27248,-673.04301)"
       id="text4136"
       style="font-style:normal;font-variant:normal;font-weight:normal;font-stretch:normal;font-size:20px;line-height:125%;font-family:'Some Time Later';-inkscape-font-specification:'Some Time Later, Normal';text-align:start;letter-spacing:0px;word-spacing:0px;writing-mode:lr-tb;text-anchor:start;fill:#000000;fill-opacity:1;stroke:none;stroke-width:1px;stroke-linecap:butt;stroke-linejoin:miter;stroke-opacity:1">
      <path
         id="path4217"
         d="m 203.41715,289.56507 1.89925,-0.0316 c 0,0 0.0872,-4.23162 0.27664,-4.54729 0.15784,-0.35513 0.32325,-0.24659 0.52844,0.0612 0.25254,0.37881 1.23395,4.45454 1.23395,4.45454 l 1.78172,0.0631 c 0,0 0.83816,-4.41945 1.08433,-4.64164 0.16573,-0.34329 0.48298,-0.28305 0.6053,0.005 0.24858,0.37486 0.19037,4.67634 0.19037,4.67634 l 2.13395,0 -0.34,-14 -2.21395,0 c 0,0 -1.88411,4.3435 -2.29448,4.817 -0.25254,-0.56821 -1.31395,-4.72424 -1.31395,-4.72424 l -3.47903,0 c -0.13804,0.71948 -0.12297,12.99876 -0.0925,13.86724 z" />
      <path
         id="path4219"
         d="m 218.14603,275.72078 -3.51286,-0.14428 c 0,0 -0.78139,8.08739 0.24929,11.92857 0.13609,0.5072 0.34817,1.05415 0.76,1.38 0.72174,0.57106 1.74812,0.61552 2.66,0.74 0.75302,0.10279 1.52428,0.0805 2.28,0 0.78664,-0.0838 1.69578,-0.014 2.32,-0.5 0.65166,-0.50734 0.91171,-1.41589 1.1,-2.22 0.85726,-3.66097 0,-11.28 0,-11.28 l -4.08964,0.11214 -0.0447,5.26929 c 0,0 0.0288,0.83768 -0.40651,1.22277 -0.30188,0.24834 -0.65566,0.29651 -0.88893,0.11723 -0.25408,-0.19527 -0.32206,-0.36786 -0.34206,-1.00179 0,-0.32 -0.0846,-5.62393 -0.0846,-5.62393 z" />
      <path
         id="path4221"
         d="m 229.94593,283.55686 c 0.3,-0.2 1.52549,-0.34647 2.01112,-0.89687 0.75936,-0.86065 1.01096,-2.14722 0.99978,-3.29492 -0.0107,-1.10045 -0.22232,-2.38183 -1.02,-3.14 -0.57554,-0.54703 -1.51022,-0.53793 -2.3,-0.62 -1.53418,-0.15943 -4.62,0.26 -4.62,0.26 0.14,1.06 0.0568,3.02321 0.0568,4.10321 l 0,0.38 c -0.02,2.54 -0.13679,9.12643 -0.13679,9.12643 l 2.08,0.06 c 0,0 -0.26026,-3.78014 -0.0316,-3.90673 0.11719,-0.30134 1.19066,-0.19914 1.28552,0.0631 0.30565,0.21148 1.27989,3.8666 1.27989,3.8666 l 3.60638,0.0367 c 0,0 -0.62217,-2.181 -1.14784,-3.17664 -0.54896,-1.03977 -2.06329,-2.86097 -2.06329,-2.86097 z m 1.08548,-4.39749 c -0.0874,0.29157 -0.3,0.48 -0.56,0.48 l -0.02,0 -2.06,-0.04 0.0208,-1.47359 2.1,0.04 c 0.2,0 0.4,0.16 0.46,0.36 0.12087,0.73572 0.06,0.14189 0.0592,0.63359 z" />
      <path
         id="path4223"
         d="m 242.44527,277.38507 c -0.15378,-0.42505 -0.43289,-0.84664 -0.82,-1.08 -1.19207,-0.7186 -2.73039,-0.60001 -4.12,-0.68 -0.95955,-0.0552 -2.88,0.14 -2.88,0.14 l 0.1,13.84 c 0,0 3.4374,0.0748 5.12,-0.22 0.70198,-0.12301 1.47368,-0.20735 2.04,-0.64 0.49082,-0.37497 0.83967,-0.96351 1,-1.56 0.84881,-3.15787 0.67245,-6.72509 -0.44,-9.8 z m -2.92857,5.74464 c -0.0288,2.38947 -0.13935,2.45365 -0.37702,3.03678 -0.3691,0.63417 -0.71998,0.80593 -0.83441,0.75858 -0.0987,-0.075 -0.0473,-8.08081 0,-8.14 0.075,-0.0631 0.59174,-0.099 0.87394,0.58213 0.18189,0.33389 0.365,1.47961 0.33749,3.76251 z" />
      <path
         id="path4225"
         d="m 244.91081,276.54257 c -1.31787,1.52281 -1.27233,5.125 0.13392,6.04018 -1.42857,0.73661 -1.33563,4.83074 0.11161,6.39732 1.22846,1.32976 5.40574,0.52381 5.40574,0.52381 l 0,-3.48433 -3.39612,0 0.0631,-1.99343 3.41448,-0.12627 -0.0631,-3.47015 -3.51806,-0.12627 0,-1.6294 3.56716,-0.1894 -0.12627,-2.62702 c 0,0 -4.36346,-0.73516 -5.59246,0.68496 z" />
    </g>
    <path
       d="m 320.83474,96.937886 6.79303,-0.02295 0.2477,-11.953225 c 0,0 2.40938,-2.060049 4.01948,-0.202245 4.33487,4.211015 2.85245,10.718252 3.47172,11.832931 1.11468,0.619261 9.42714,0.247708 9.42714,0.247708 0,0 -1.23432,-6.203374 -3.71138,-10.662088 -1.98166,-3.591754 -5.69303,-6.9465 -5.69303,-6.9465 0,0 4.85058,-2.155674 6.58452,-6.490534 1.73395,-2.848628 4.35516,-11.940081 4.35516,-11.940081 l -8.87606,-0.05238 c 0,0 -1.17059,9.978472 -4.26693,12.8271 -3.59174,1.362387 -5.45669,0 -5.45669,0 l 0,-12.693035 -7.01851,-0.123854 z"
       style="font-style:normal;font-variant:normal;font-weight:normal;font-stretch:normal;font-size:medium;line-height:125%;font-family:'Some Time Later';-inkscape-font-specification:'Some Time Later, Normal';text-align:start;letter-spacing:0px;word-spacing:0px;writing-mode:lr-tb;text-anchor:start;fill:#000000;fill-opacity:1;stroke:none;stroke-width:1px;stroke-linecap:butt;stroke-linejoin:miter;stroke-opacity:1"
       id="path4165" />
    <path
       d="m 348.18142,60.733681 -0.12717,35.93684 9.15006,-0.104198 -0.12411,-35.858684 z"
       style="font-style:normal;font-variant:normal;font-weight:normal;font-stretch:normal;font-size:medium;line-height:125%;font-family:'Some Time Later';-inkscape-font-specification:'Some Time Later, Normal';text-align:start;letter-spacing:0px;word-spacing:0px;writing-mode:lr-tb;text-anchor:start;fill:#000000;fill-opacity:1;stroke:none;stroke-width:1px;stroke-linecap:butt;stroke-linejoin:miter;stroke-opacity:1"
       id="path4167" />
    <path
       d="m 361.1046,60.376959 0.59985,36.560927 18.50851,0 -0.37157,-12.595233 c 0,0 -8.66153,2.989079 -11.88172,0.140451 -1.73394,-2.229357 0.71069,-24.079838 0.71069,-24.079838 z"
       style="font-style:normal;font-variant:normal;font-weight:normal;font-stretch:normal;font-size:medium;line-height:125%;font-family:'Some Time Later';-inkscape-font-specification:'Some Time Later, Normal';text-align:start;letter-spacing:0px;word-spacing:0px;writing-mode:lr-tb;text-anchor:start;fill:#000000;fill-opacity:1;stroke:none;stroke-width:1px;stroke-linecap:butt;stroke-linejoin:miter;stroke-opacity:1"
       id="path4169" />
    <path
       d="m 382.88374,60.329583 0.59985,36.560927 18.50851,0 -0.37156,-12.595233 c 0,0 -8.66153,2.989079 -11.88172,0.140451 -1.73394,-2.229357 0.71068,-24.079838 0.71068,-24.079838 z"
       style="font-style:normal;font-variant:normal;font-weight:normal;font-stretch:normal;font-size:medium;line-height:125%;font-family:'Some Time Later';-inkscape-font-specification:'Some Time Later, Normal';text-align:start;letter-spacing:0px;word-spacing:0px;writing-mode:lr-tb;text-anchor:start;fill:#000000;fill-opacity:1;stroke:none;stroke-width:1px;stroke-linecap:butt;stroke-linejoin:miter;stroke-opacity:1"
       id="path4169-8" />
    <path
       id="path4221-6"
       d="m 276.82973,82.609273 c 0.79903,-0.53271 4.0631,-0.92282 5.35657,-2.3888 2.02252,-2.29232 2.69265,-5.71904 2.66287,-8.77591 -0.0284,-2.93101 -0.59215,-6.34392 -2.71674,-8.3633 -1.53293,-1.457 -4.02242,-1.43276 -6.12597,-1.65134 -4.08624,-0.42464 -12.30523,0.69251 -12.30523,0.69251 0.37288,2.82328 0.15122,8.05221 0.15122,10.92875 l 0,1.01213 c -0.0533,6.7652 -0.36431,24.30795 -0.36431,24.30795 0,0 3.69309,0.20429 5.54,0.1598 0.0103,-2.08473 -0.0944,-6.78105 0.63075,-9.85893 0.34855,-1.08823 1.94524,-1.22811 2.70927,-0.37846 1.67669,3.34444 2.50098,6.58327 3.40896,10.29858 l 9.60548,0.0977 c 0,0 -1.07478,-3.86305 -1.68983,-5.77066 -0.47984,-1.48817 -0.85284,-3.02921 -1.55968,-4.42392 -0.74193,-1.464 -1.63094,-2.89104 -2.7768,-4.06612 -0.72465,-0.74313 -2.52642,-1.8203 -2.52642,-1.8203 l -1.2e-4,1.1e-4 z m 2.89114,-11.71258 c -0.23278,0.77659 -0.79903,1.27845 -1.49155,1.27845 l -0.0533,0 -5.48674,-0.1066 0.0553,-3.92483 5.59331,0.10658 c 0.53269,0 1.06538,0.42617 1.22518,0.95886 0.32192,1.95955 0.15981,0.37792 0.15769,1.68756 z"
       style="font-style:normal;font-variant:normal;font-weight:normal;font-stretch:normal;font-size:20px;line-height:125%;font-family:'Some Time Later';-inkscape-font-specification:'Some Time Later, Normal';text-align:start;letter-spacing:0px;word-spacing:0px;writing-mode:lr-tb;text-anchor:start;fill:#000000;fill-opacity:1;stroke:none;stroke-width:1px;stroke-linecap:butt;stroke-linejoin:miter;stroke-opacity:1" />
    <path
       d="m 320.91182,138.51711 6.79303,-0.0229 0.2477,-11.95322 c 0,0 2.40938,-2.06005 4.01948,-0.20224 4.33487,4.21101 2.85245,10.71825 3.47172,11.83292 1.11468,0.61927 9.42714,0.24771 9.42714,0.24771 0,0 -1.23432,-6.20337 -3.71138,-10.66208 -1.98166,-3.59176 -5.69303,-6.9465 -5.69303,-6.9465 0,0 4.85058,-2.15568 6.58452,-6.49054 1.73395,-2.84862 4.35516,-11.94008 4.35516,-11.94008 l -8.87606,-0.0524 c 0,0 -1.17059,9.97847 -4.26693,12.8271 -3.59174,1.36239 -5.45669,0 -5.45669,0 l 0,-12.69303 -7.01851,-0.12386 z"
       style="font-style:normal;font-variant:normal;font-weight:normal;font-stretch:normal;font-size:medium;line-height:125%;font-family:'Some Time Later';-inkscape-font-specification:'Some Time Later, Normal';text-align:start;letter-spacing:0px;word-spacing:0px;writing-mode:lr-tb;text-anchor:start;fill:#000000;fill-opacity:1;stroke:none;stroke-width:1px;stroke-linecap:butt;stroke-linejoin:miter;stroke-opacity:1"
       id="path4165-5" />
    <path
       d="m 348.2585,102.31291 -0.12717,35.93684 9.15006,-0.1042 -0.12411,-35.85868 z"
       style="font-style:normal;font-variant:normal;font-weight:normal;font-stretch:normal;font-size:medium;line-height:125%;font-family:'Some Time Later';-inkscape-font-specification:'Some Time Later, Normal';text-align:start;letter-spacing:0px;word-spacing:0px;writing-mode:lr-tb;text-anchor:start;fill:#000000;fill-opacity:1;stroke:none;stroke-width:1px;stroke-linecap:butt;stroke-linejoin:miter;stroke-opacity:1"
       id="path4167-4" />
    <path
       d="m 361.18168,101.95619 0.59985,36.56092 18.50851,0 -0.37157,-12.59523 c 0,0 -8.66153,2.98908 -11.88172,0.14045 -1.73394,-2.22935 0.71069,-24.07983 0.71069,-24.07983 z"
       style="font-style:normal;font-variant:normal;font-weight:normal;font-stretch:normal;font-size:medium;line-height:125%;font-family:'Some Time Later';-inkscape-font-specification:'Some Time Later, Normal';text-align:start;letter-spacing:0px;word-spacing:0px;writing-mode:lr-tb;text-anchor:start;fill:#000000;fill-opacity:1;stroke:none;stroke-width:1px;stroke-linecap:butt;stroke-linejoin:miter;stroke-opacity:1"
       id="path4169-1" />
    <path
       d="m 382.96082,101.90881 0.59985,36.56093 18.50851,0 -0.37156,-12.59523 c 0,0 -8.66153,2.98908 -11.88172,0.14045 -1.73394,-2.22936 0.71068,-24.07984 0.71068,-24.07984 z"
       style="font-style:normal;font-variant:normal;font-weight:normal;font-stretch:normal;font-size:medium;line-height:125%;font-family:'Some Time Later';-inkscape-font-specification:'Some Time Later, Normal';text-align:start;letter-spacing:0px;word-spacing:0px;writing-mode:lr-tb;text-anchor:start;fill:#000000;fill-opacity:1;stroke:none;stroke-width:1px;stroke-linecap:butt;stroke-linejoin:miter;stroke-opacity:1"
       id="path4169-8-6" />
    <path
       d="m 320.91181,178.51711 6.79303,-0.0229 0.2477,-11.95322 c 0,0 2.40938,-2.06005 4.01948,-0.20225 4.33487,4.21102 2.85245,10.71826 3.47172,11.83293 1.11468,0.61927 9.42714,0.24771 9.42714,0.24771 0,0 -1.23432,-6.20337 -3.71138,-10.66209 -1.98166,-3.59175 -5.69303,-6.9465 -5.69303,-6.9465 0,0 4.85058,-2.15567 6.58452,-6.49053 1.73395,-2.84863 4.35516,-11.94008 4.35516,-11.94008 l -8.87606,-0.0524 c 0,0 -1.17059,9.97847 -4.26693,12.8271 -3.59174,1.36239 -5.45669,0 -5.45669,0 l 0,-12.69304 -7.01851,-0.12385 z"
       style="font-style:normal;font-variant:normal;font-weight:normal;font-stretch:normal;font-size:medium;line-height:125%;font-family:'Some Time Later';-inkscape-font-specification:'Some Time Later, Normal';text-align:start;letter-spacing:0px;word-spacing:0px;writing-mode:lr-tb;text-anchor:start;fill:#000000;fill-opacity:1;stroke:none;stroke-width:1px;stroke-linecap:butt;stroke-linejoin:miter;stroke-opacity:1"
       id="path4165-9" />
    <path
       d="m 348.25849,142.31291 -0.12717,35.93684 9.15006,-0.1042 -0.12411,-35.85868 z"
       style="font-style:normal;font-variant:normal;font-weight:normal;font-stretch:normal;font-size:medium;line-height:125%;font-family:'Some Time Later';-inkscape-font-specification:'Some Time Later, Normal';text-align:start;letter-spacing:0px;word-spacing:0px;writing-mode:lr-tb;text-anchor:start;fill:#000000;fill-opacity:1;stroke:none;stroke-width:1px;stroke-linecap:butt;stroke-linejoin:miter;stroke-opacity:1"
       id="path4167-43" />
    <path
       d="m 361.18167,141.95619 0.59985,36.56092 18.50851,0 -0.37157,-12.59523 c 0,0 -8.66153,2.98908 -11.88172,0.14045 -1.73394,-2.22936 0.71069,-24.07984 0.71069,-24.07984 z"
       style="font-style:normal;font-variant:normal;font-weight:normal;font-stretch:normal;font-size:medium;line-height:125%;font-family:'Some Time Later';-inkscape-font-specification:'Some Time Later, Normal';text-align:start;letter-spacing:0px;word-spacing:0px;writing-mode:lr-tb;text-anchor:start;fill:#000000;fill-opacity:1;stroke:none;stroke-width:1px;stroke-linecap:butt;stroke-linejoin:miter;stroke-opacity:1"
       id="path4169-16" />
    <path
       d="m 382.96081,141.90881 0.59985,36.56093 18.50851,0 -0.37156,-12.59524 c 0,0 -8.66153,2.98908 -11.88172,0.14046 -1.73394,-2.22936 0.71068,-24.07984 0.71068,-24.07984 z"
       style="font-style:normal;font-variant:normal;font-weight:normal;font-stretch:normal;font-size:medium;line-height:125%;font-family:'Some Time Later';-inkscape-font-specification:'Some Time Later, Normal';text-align:start;letter-spacing:0px;word-spacing:0px;writing-mode:lr-tb;text-anchor:start;fill:#000000;fill-opacity:1;stroke:none;stroke-width:1px;stroke-linecap:butt;stroke-linejoin:miter;stroke-opacity:1"
       id="path4169-8-68" />
    <g
       transform="matrix(2.6634684,0,0,2.6634684,-405.76927,-629.77454)"
       id="text4136-9"
       style="font-style:normal;font-variant:normal;font-weight:normal;font-stretch:normal;font-size:20px;line-height:125%;font-family:'Some Time Later';-inkscape-font-specification:'Some Time Later, Normal';text-align:start;letter-spacing:0px;word-spacing:0px;writing-mode:lr-tb;text-anchor:start;fill:#000000;fill-opacity:1;stroke:none;stroke-width:1px;stroke-linecap:butt;stroke-linejoin:miter;stroke-opacity:1">
      <path
         id="path4217-8"
         d="m 203.41715,289.56507 1.89925,-0.0316 c 0,0 0.0872,-4.23162 0.27664,-4.54729 0.15784,-0.35513 0.32325,-0.24659 0.52844,0.0612 0.25254,0.37881 1.23395,4.45454 1.23395,4.45454 l 1.78172,0.0631 c 0,0 0.83816,-4.41945 1.08433,-4.64164 0.16573,-0.34329 0.48298,-0.28305 0.6053,0.005 0.24858,0.37486 0.19037,4.67634 0.19037,4.67634 l 2.13395,0 -0.34,-14 -2.21395,0 c 0,0 -1.88411,4.3435 -2.29448,4.817 -0.25254,-0.56821 -1.31395,-4.72424 -1.31395,-4.72424 l -3.47903,0 c -0.13804,0.71948 -0.12297,12.99876 -0.0925,13.86724 z" />
      <path
         id="path4219-7"
         d="m 218.14603,275.72078 -3.51286,-0.14428 c 0,0 -0.78139,8.08739 0.24929,11.92857 0.13609,0.5072 0.34817,1.05415 0.76,1.38 0.72174,0.57106 1.74812,0.61552 2.66,0.74 0.75302,0.10279 1.52428,0.0805 2.28,0 0.78664,-0.0838 1.69578,-0.014 2.32,-0.5 0.65166,-0.50734 0.91171,-1.41589 1.1,-2.22 0.85726,-3.66097 0,-11.28 0,-11.28 l -4.08964,0.11214 -0.0447,5.26929 c 0,0 0.0288,0.83768 -0.40651,1.22277 -0.30188,0.24834 -0.65566,0.29651 -0.88893,0.11723 -0.25408,-0.19527 -0.32206,-0.36786 -0.34206,-1.00179 0,-0.32 -0.0846,-5.62393 -0.0846,-5.62393 z" />
      <path
         id="path4221-2"
         d="m 229.94593,283.55686 c 0.3,-0.2 1.52549,-0.34647 2.01112,-0.89687 0.75936,-0.86065 1.01096,-2.14722 0.99978,-3.29492 -0.0107,-1.10045 -0.22232,-2.38183 -1.02,-3.14 -0.57554,-0.54703 -1.51022,-0.53793 -2.3,-0.62 -1.53418,-0.15943 -4.62,0.26 -4.62,0.26 0.14,1.06 0.0568,3.02321 0.0568,4.10321 l 0,0.38 c -0.02,2.54 -0.13679,9.12643 -0.13679,9.12643 l 2.08,0.06 c 0,0 -0.26026,-3.78014 -0.0316,-3.90673 0.11719,-0.30134 1.19066,-0.19914 1.28552,0.0631 0.30565,0.21148 1.27989,3.8666 1.27989,3.8666 l 3.60638,0.0367 c 0,0 -0.62217,-2.181 -1.14784,-3.17664 -0.54896,-1.03977 -2.06329,-2.86097 -2.06329,-2.86097 z m 1.08548,-4.39749 c -0.0874,0.29157 -0.3,0.48 -0.56,0.48 l -0.02,0 -2.06,-0.04 0.0208,-1.47359 2.1,0.04 c 0.2,0 0.4,0.16 0.46,0.36 0.12087,0.73572 0.06,0.14189 0.0592,0.63359 z" />
      <path
         id="path4223-6"
         d="m 242.44527,277.38507 c -0.15378,-0.42505 -0.43289,-0.84664 -0.82,-1.08 -1.19207,-0.7186 -2.73039,-0.60001 -4.12,-0.68 -0.95955,-0.0552 -2.88,0.14 -2.88,0.14 l 0.1,13.84 c 0,0 3.4374,0.0748 5.12,-0.22 0.70198,-0.12301 1.47368,-0.20735 2.04,-0.64 0.49082,-0.37497 0.83967,-0.96351 1,-1.56 0.84881,-3.15787 0.67245,-6.72509 -0.44,-9.8 z m -2.92857,5.74464 c -0.0288,2.38947 -0.13935,2.45365 -0.37702,3.03678 -0.3691,0.63417 -0.71998,0.80593 -0.83441,0.75858 -0.0987,-0.075 -0.0473,-8.08081 0,-8.14 0.075,-0.0631 0.59174,-0.099 0.87394,0.58213 0.18189,0.33389 0.365,1.47961 0.33749,3.76251 z" />
      <path
         id="path4225-6"
         d="m 244.91081,276.54257 c -1.31787,1.52281 -1.27233,5.125 0.13392,6.04018 -1.42857,0.73661 -1.33563,4.83074 0.11161,6.39732 1.22846,1.32976 5.40574,0.52381 5.40574,0.52381 l 0,-3.48433 -3.39612,0 0.0631,-1.99343 3.41448,-0.12627 -0.0631,-3.47015 -3.51806,-0.12627 0,-1.6294 3.56716,-0.1894 -0.12627,-2.62702 c 0,0 -4.36346,-0.73516 -5.59246,0.68496 z" />
    </g>
    <path
       id="path4221-6-4"
       d="m 278.33294,125.87775 c 0.79903,-0.53271 4.0631,-0.92282 5.35657,-2.3888 2.02252,-2.29232 2.69265,-5.71904 2.66287,-8.77591 -0.0284,-2.93101 -0.59215,-6.34392 -2.71674,-8.3633 -1.53293,-1.457 -4.02242,-1.43276 -6.12597,-1.65134 -4.08624,-0.42464 -12.30523,0.69251 -12.30523,0.69251 0.37288,2.82328 0.15122,8.05221 0.15122,10.92875 l 0,1.01213 c -0.0533,6.7652 -0.36431,24.30795 -0.36431,24.30795 0,0 3.69309,0.20429 5.54,0.1598 0.0103,-2.08473 -0.0944,-6.78105 0.63075,-9.85893 0.34855,-1.08823 1.94524,-1.22811 2.70927,-0.37846 1.67669,3.34444 2.50098,6.58327 3.40896,10.29858 l 9.60548,0.0977 c 0,0 -1.07478,-3.86305 -1.68983,-5.77066 -0.47984,-1.48817 -0.85284,-3.02921 -1.55968,-4.42392 -0.74193,-1.464 -1.63094,-2.89104 -2.7768,-4.06612 -0.72465,-0.74313 -2.52642,-1.8203 -2.52642,-1.8203 l -1.2e-4,1.1e-4 z m 2.89114,-11.71258 c -0.23278,0.77659 -0.79903,1.27845 -1.49155,1.27845 l -0.0533,0 -5.48674,-0.1066 0.0553,-3.92483 5.59331,0.10658 c 0.53269,0 1.06538,0.42617 1.22518,0.95886 0.32192,1.95955 0.15981,0.37792 0.15769,1.68756 z"
       style="font-style:normal;font-variant:normal;font-weight:normal;font-stretch:normal;font-size:20px;line-height:125%;font-family:'Some Time Later';-inkscape-font-specification:'Some Time Later, Normal';text-align:start;letter-spacing:0px;word-spacing:0px;writing-mode:lr-tb;text-anchor:start;fill:#000000;fill-opacity:1;stroke:none;stroke-width:1px;stroke-linecap:butt;stroke-linejoin:miter;stroke-opacity:1" />
    <g
       transform="matrix(2.6634684,0,0,2.6634684,-404.34069,-589.77454)"
       id="text4136-4"
       style="font-style:normal;font-variant:normal;font-weight:normal;font-stretch:normal;font-size:20px;line-height:125%;font-family:'Some Time Later';-inkscape-font-specification:'Some Time Later, Normal';text-align:start;letter-spacing:0px;word-spacing:0px;writing-mode:lr-tb;text-anchor:start;fill:#000000;fill-opacity:1;stroke:none;stroke-width:1px;stroke-linecap:butt;stroke-linejoin:miter;stroke-opacity:1">
      <path
         id="path4217-5"
         d="m 203.41715,289.56507 1.89925,-0.0316 c 0,0 0.0872,-4.23162 0.27664,-4.54729 0.15784,-0.35513 0.32325,-0.24659 0.52844,0.0612 0.25254,0.37881 1.23395,4.45454 1.23395,4.45454 l 1.78172,0.0631 c 0,0 0.83816,-4.41945 1.08433,-4.64164 0.16573,-0.34329 0.48298,-0.28305 0.6053,0.005 0.24858,0.37486 0.19037,4.67634 0.19037,4.67634 l 2.13395,0 -0.34,-14 -2.21395,0 c 0,0 -1.88411,4.3435 -2.29448,4.817 -0.25254,-0.56821 -1.31395,-4.72424 -1.31395,-4.72424 l -3.47903,0 c -0.13804,0.71948 -0.12297,12.99876 -0.0925,13.86724 z" />
      <path
         id="path4219-6"
         d="m 218.14603,275.72078 -3.51286,-0.14428 c 0,0 -0.78139,8.08739 0.24929,11.92857 0.13609,0.5072 0.34817,1.05415 0.76,1.38 0.72174,0.57106 1.74812,0.61552 2.66,0.74 0.75302,0.10279 1.52428,0.0805 2.28,0 0.78664,-0.0838 1.69578,-0.014 2.32,-0.5 0.65166,-0.50734 0.91171,-1.41589 1.1,-2.22 0.85726,-3.66097 0,-11.28 0,-11.28 l -4.08964,0.11214 -0.0447,5.26929 c 0,0 0.0288,0.83768 -0.40651,1.22277 -0.30188,0.24834 -0.65566,0.29651 -0.88893,0.11723 -0.25408,-0.19527 -0.32206,-0.36786 -0.34206,-1.00179 0,-0.32 -0.0846,-5.62393 -0.0846,-5.62393 z" />
      <path
         id="path4221-4"
         d="m 229.94593,283.55686 c 0.3,-0.2 1.52549,-0.34647 2.01112,-0.89687 0.75936,-0.86065 1.01096,-2.14722 0.99978,-3.29492 -0.0107,-1.10045 -0.22232,-2.38183 -1.02,-3.14 -0.57554,-0.54703 -1.51022,-0.53793 -2.3,-0.62 -1.53418,-0.15943 -4.62,0.26 -4.62,0.26 0.14,1.06 0.0568,3.02321 0.0568,4.10321 l 0,0.38 c -0.02,2.54 -0.13679,9.12643 -0.13679,9.12643 l 2.08,0.06 c 0,0 -0.26026,-3.78014 -0.0316,-3.90673 0.11719,-0.30134 1.19066,-0.19914 1.28552,0.0631 0.30565,0.21148 1.27989,3.8666 1.27989,3.8666 l 3.60638,0.0367 c 0,0 -0.62217,-2.181 -1.14784,-3.17664 -0.54896,-1.03977 -2.06329,-2.86097 -2.06329,-2.86097 z m 1.08548,-4.39749 c -0.0874,0.29157 -0.3,0.48 -0.56,0.48 l -0.02,0 -2.06,-0.04 0.0208,-1.47359 2.1,0.04 c 0.2,0 0.4,0.16 0.46,0.36 0.12087,0.73572 0.06,0.14189 0.0592,0.63359 z" />
      <path
         id="path4223-7"
         d="m 242.44527,277.38507 c -0.15378,-0.42505 -0.43289,-0.84664 -0.82,-1.08 -1.19207,-0.7186 -2.73039,-0.60001 -4.12,-0.68 -0.95955,-0.0552 -2.88,0.14 -2.88,0.14 l 0.1,13.84 c 0,0 3.4374,0.0748 5.12,-0.22 0.70198,-0.12301 1.47368,-0.20735 2.04,-0.64 0.49082,-0.37497 0.83967,-0.96351 1,-1.56 0.84881,-3.15787 0.67245,-6.72509 -0.44,-9.8 z m -2.92857,5.74464 c -0.0288,2.38947 -0.13935,2.45365 -0.37702,3.03678 -0.3691,0.63417 -0.71998,0.80593 -0.83441,0.75858 -0.0987,-0.075 -0.0473,-8.08081 0,-8.14 0.075,-0.0631 0.59174,-0.099 0.87394,0.58213 0.18189,0.33389 0.365,1.47961 0.33749,3.76251 z" />
      <path
         id="path4225-7"
         d="m 244.91081,276.54257 c -1.31787,1.52281 -1.27233,5.125 0.13392,6.04018 -1.42857,0.73661 -1.33563,4.83074 0.11161,6.39732 1.22846,1.32976 5.40574,0.52381 5.40574,0.52381 l 0,-3.48433 -3.39612,0 0.0631,-1.99343 3.41448,-0.12627 -0.0631,-3.47015 -3.51806,-0.12627 0,-1.6294 3.56716,-0.1894 -0.12627,-2.62702 c 0,0 -4.36346,-0.73516 -5.59246,0.68496 z" />
    </g>
    <path
       id="path4221-6-8"
       d="m 279.76152,165.87775 c 0.79903,-0.53271 4.0631,-0.92282 5.35657,-2.3888 2.02252,-2.29232 2.69265,-5.71904 2.66287,-8.77591 -0.0284,-2.93101 -0.59215,-6.34392 -2.71674,-8.3633 -1.53293,-1.457 -4.02242,-1.43276 -6.12597,-1.65134 -4.08624,-0.42464 -12.30523,0.69251 -12.30523,0.69251 0.37288,2.82328 0.15122,8.05221 0.15122,10.92875 l 0,1.01213 c -0.0533,6.7652 -0.36431,24.30795 -0.36431,24.30795 0,0 3.69309,0.20429 5.54,0.1598 0.0103,-2.08473 -0.0944,-6.78105 0.63075,-9.85893 0.34855,-1.08823 1.94524,-1.22811 2.70927,-0.37846 1.67669,3.34444 2.50098,6.58327 3.40896,10.29858 l 9.60548,0.0977 c 0,0 -1.07478,-3.86305 -1.68983,-5.77066 -0.47984,-1.48817 -0.85284,-3.02921 -1.55968,-4.42392 -0.74193,-1.464 -1.63094,-2.89104 -2.7768,-4.06612 -0.72465,-0.74313 -2.52642,-1.8203 -2.52642,-1.8203 l -1.2e-4,1.1e-4 z m 2.89114,-11.71258 c -0.23278,0.77659 -0.79903,1.27845 -1.49155,1.27845 l -0.0533,0 -5.48674,-0.1066 0.0553,-3.92483 5.59331,0.10658 c 0.53269,0 1.06538,0.42617 1.22518,0.95886 0.32192,1.95955 0.15981,0.37792 0.15769,1.68756 z"
       style="font-style:normal;font-variant:normal;font-weight:normal;font-stretch:normal;font-size:20px;line-height:125%;font-family:'Some Time Later';-inkscape-font-specification:'Some Time Later, Normal';text-align:start;letter-spacing:0px;word-spacing:0px;writing-mode:lr-tb;text-anchor:start;fill:#000000;fill-opacity:1;stroke:none;stroke-width:1px;stroke-linecap:butt;stroke-linejoin:miter;stroke-opacity:1" />
  </g>
</svg>
