<?xml version="1.0" encoding="UTF-8" standalone="no"?>
<!-- Created with Inkscape (http://www.inkscape.org/) -->

<svg
   xmlns:dc="http://purl.org/dc/elements/1.1/"
   xmlns:cc="http://creativecommons.org/ns#"
   xmlns:rdf="http://www.w3.org/1999/02/22-rdf-syntax-ns#"
   xmlns:svg="http://www.w3.org/2000/svg"
   xmlns="http://www.w3.org/2000/svg"
   xmlns:sodipodi="http://sodipodi.sourceforge.net/DTD/sodipodi-0.dtd"
   xmlns:inkscape="http://www.inkscape.org/namespaces/inkscape"
   width="210mm"
   height="297mm"
   viewBox="0 0 744.09448819 1052.3622047"
   id="svg7672"
   version="1.1"
   inkscape:version="0.91 r13725"
   sodipodi:docname="kill2-outline.svg">
  <defs
     id="defs7674" />
  <sodipodi:namedview
     id="base"
     pagecolor="#ffffff"
     bordercolor="#666666"
     borderopacity="1.0"
     inkscape:pageopacity="0.0"
     inkscape:pageshadow="2"
     inkscape:zoom="5.6"
     inkscape:cx="80.915148"
     inkscape:cy="963.54212"
     inkscape:document-units="px"
     inkscape:current-layer="layer1"
     showgrid="false"
     inkscape:window-width="1920"
     inkscape:window-height="1055"
     inkscape:window-x="1440"
     inkscape:window-y="0"
     inkscape:window-maximized="1" />
  <metadata
     id="metadata7677">
    <rdf:RDF>
      <cc:Work
         rdf:about="">
        <dc:format>image/svg+xml</dc:format>
        <dc:type
           rdf:resource="http://purl.org/dc/dcmitype/StillImage" />
        <dc:title></dc:title>
      </cc:Work>
    </rdf:RDF>
  </metadata>
  <g
     inkscape:label="Layer 1"
     inkscape:groupmode="layer"
     id="layer1">
    <path
       inkscape:connector-curvature="0"
       style="font-style:normal;font-variant:normal;font-weight:normal;font-stretch:normal;font-size:medium;line-height:125%;font-family:'Some Time Later';-inkscape-font-specification:'Some Time Later, Normal';text-align:start;letter-spacing:0px;word-spacing:0px;writing-mode:lr-tb;text-anchor:start;display:inline;opacity:0.5;fill:#000000;fill-opacity:0.1416185;stroke:#000000;stroke-width:1.20000005px;stroke-linecap:butt;stroke-linejoin:miter;stroke-opacity:1"
       d="m 61.085247,8.2625406 c -4.099882,0.00109 -7.422857,3.3251174 -7.422648,7.4249994 0.0027,1.004476 0.209219,1.997956 0.60702,2.920308 -0.762312,-0.02856 -1.524696,-0.04356 -2.2875,-0.02808 0.05868,-0.149736 0.11088,-0.303552 0.171096,-0.452352 l -1.811712,0.414852 c -1.085196,0.01656 -2.109156,0.243108 -3.051564,0.625776 -5.69622,0.599736 -14.705016,-3.345396 -17.39766,3.810937 -0.795396,3.494424 -1.021812,7.169664 -2.308596,10.542192 0.794868,-5.007756 1.742832,-14.747581 -5.716404,-14.817193 -3.984179,1.60986 -11.42419,-2.5689 -12.4078064,3.679693 0.7492924,16.435068 0.184416,33.01902 0.45,49.509372 2.0208724,0.05892 4.4058484,0.27876 6.7945314,0.325788 -0.540588,0.543804 -0.935615,1.322832 -1.113287,2.451552 0.749291,16.435068 0.184416,33.019035 0.45,49.509385 1.596911,0.0466 3.423527,0.19134 5.296882,0.27655 -0.123264,0.33326 -0.223824,0.703 -0.290628,1.12735 0.749292,16.43507 0.184416,33.01901 0.45,49.50937 5.779968,0.16869 14.523936,1.72845 17.882808,-3.5578 3.134544,4.90093 9.235908,3.86961 14.746872,3.40546 7.44e-4,0.18657 -9.12e-4,0.37361 0,0.56015 0.666684,-0.33167 1.380936,-0.53711 2.118756,-0.68202 1.061112,-0.0408 2.092332,-0.041 3.03984,0.0844 0.31038,-0.0452 0.541164,-0.15415 0.735936,-0.29297 3.635184,0.17817 7.500408,1.0323 10.577352,0.0422 0.0024,0.17344 0.006,0.34689 0.0096,0.52032 l 31.875005,0 c -5.5e-4,-0.0187 -0.001,-0.0374 -0.002,-0.0563 l 26.13751,0 c -0.25974,-8.80002 -0.51885,-17.60005 -0.78047,-26.4 -4.67176,0.88461 -10.1761,4.40729 -14.68126,2.90626 -0.40323,-9.17988 0.84347,-18.29881 1.73438,-27.41953 l 8.27109,0 c -0.25974,-8.80002 -0.5187,-17.60005 -0.78047,-26.400001 -4.67176,0.884602 -10.176,4.407271 -14.68125,2.906241 -0.42347,-9.640941 0.9799,-19.213761 1.87032,-28.792965 l 7.46016,0 c -0.25974,-8.80002 -0.5187,-17.600052 -0.78048,-26.4 -4.67175,0.884604 -10.17606,4.407288 -14.68125,2.906256 -0.45346,-10.323264 1.20675,-20.568888 2.06719,-30.827353 l -3.39844,0.982032 c -4.885029,0.76032 -14.980491,-3.4974 -15.904695,4.359385 0.150696,8.092452 0.276372,16.18578 0.407808,24.278904 -3.196284,1.136676 -6.452088,2.219088 -9.307032,1.263276 -0.452496,-10.322536 1.204704,-20.567464 2.067192,-30.824981 l -3.398436,0.982032 c -1.616232,0.07668 -3.828168,-0.186456 -6.075,-0.3375 0.316463,-0.83426 0.479957,-1.718733 0.48264,-2.610996 2.09e-4,-4.100801 -3.324199,-7.4252086 -7.425,-7.4249994 z m -0.10548,5.6507754 c 0.947823,-7.42e-4 1.71637,0.767805 1.715628,1.715628 -5.51e-4,0.946909 -0.76872,1.71403 -1.715628,1.713288 -0.94599,-5.57e-4 -1.712726,-0.767298 -1.713276,-1.713288 -7.42e-4,-0.946904 0.766372,-1.715071 1.713276,-1.715628 z"
       id="path4165-1-64-9-8"
       sodipodi:nodetypes="ccccccccccccccccccccccccccccccccccccccccccccccccccccccc" />
    <g
       transform="translate(-328.44366,-305.69459)"
       id="g6890">
      <g
         transform="translate(-210.59312,-22.65118)"
         id="g6003-2-7"
         style="display:inline" />
      <g
         transform="translate(-205.28981,-20.63087)"
         id="g6009-8-8"
         style="display:inline" />
      <g
         transform="translate(-200.99667,-17.85295)"
         id="g6015-8-3"
         style="display:inline" />
    </g>
  </g>
</svg>
