<?xml version="1.0" encoding="UTF-8" standalone="no"?>
<!-- Created with Inkscape (http://www.inkscape.org/) -->

<svg
   xmlns:dc="http://purl.org/dc/elements/1.1/"
   xmlns:cc="http://creativecommons.org/ns#"
   xmlns:rdf="http://www.w3.org/1999/02/22-rdf-syntax-ns#"
   xmlns:svg="http://www.w3.org/2000/svg"
   xmlns="http://www.w3.org/2000/svg"
   xmlns:sodipodi="http://sodipodi.sourceforge.net/DTD/sodipodi-0.dtd"
   xmlns:inkscape="http://www.inkscape.org/namespaces/inkscape"
   width="210mm"
   height="297mm"
   viewBox="0 0 744.09448819 1052.3622047"
   id="svg7672"
   version="1.1"
   inkscape:version="0.91 r13725"
   sodipodi:docname="kill.svg">
  <defs
     id="defs7674" />
  <sodipodi:namedview
     id="base"
     pagecolor="#ffffff"
     bordercolor="#666666"
     borderopacity="1.0"
     inkscape:pageopacity="0.0"
     inkscape:pageshadow="2"
     inkscape:zoom="1.979899"
     inkscape:cx="85.399487"
     inkscape:cy="841.1112"
     inkscape:document-units="px"
     inkscape:current-layer="layer1"
     showgrid="false"
     inkscape:window-width="1920"
     inkscape:window-height="1055"
     inkscape:window-x="1440"
     inkscape:window-y="0"
     inkscape:window-maximized="1" />
  <metadata
     id="metadata7677">
    <rdf:RDF>
      <cc:Work
         rdf:about="">
        <dc:format>image/svg+xml</dc:format>
        <dc:type
           rdf:resource="http://purl.org/dc/dcmitype/StillImage" />
        <dc:title></dc:title>
      </cc:Work>
    </rdf:RDF>
  </metadata>
  <g
     inkscape:label="Layer 1"
     inkscape:groupmode="layer"
     id="layer1">
    <path
       inkscape:connector-curvature="0"
       style="font-style:normal;font-variant:normal;font-weight:normal;font-stretch:normal;font-size:medium;line-height:125%;font-family:'Some Time Later';-inkscape-font-specification:'Some Time Later, Normal';text-align:start;letter-spacing:0px;word-spacing:0px;writing-mode:lr-tb;text-anchor:start;display:inline;opacity:0.5;fill:#000000;fill-opacity:0.1416185;stroke:#000000;stroke-width:1px;stroke-linecap:butt;stroke-linejoin:miter;stroke-opacity:1"
       d="m 56.351253,11.117913 a 6.1871843,6.1871843 0 0 0 -6.18554,6.1875 6.1871843,6.1871843 0 0 0 0.50585,2.43359 c -0.63526,-0.0238 -1.27058,-0.0363 -1.90625,-0.0234 0.0489,-0.12478 0.0924,-0.25296 0.14258,-0.37696 l -1.50976,0.34571 c -0.90433,0.0138 -1.75763,0.20259 -2.54297,0.52148 -4.74685,0.49978 -12.25418,-2.78783 -14.49805,3.17578 -0.66283,2.91202 -0.85151,5.97472 -1.92383,8.78516 0.66239,-4.17313 1.45236,-12.28965 -4.76367,-12.34766 -3.320149,1.34155 -9.520159,-2.14075 -10.339839,3.06641 0.62441,13.69589 0.15368,27.51585 0.375,41.25781 1.68406,0.0491 3.67154,0.2323 5.66211,0.27149 -0.45049,0.45317 -0.77968,1.10236 -0.92774,2.04296 0.62441,13.69589 0.15368,27.51586 0.375,41.257817 1.33076,0.0388 2.85294,0.15945 4.414069,0.23046 -0.10272,0.27772 -0.18652,0.58583 -0.24219,0.93946 0.62441,13.69589 0.15368,27.51584 0.375,41.25781 4.81664,0.14057 12.10328,1.44037 14.90234,-2.96484 2.61212,4.08411 7.69659,3.22468 12.28906,2.83789 6.2e-4,0.15547 -7.6e-4,0.31134 0,0.46679 0.55557,-0.27639 1.15078,-0.44759 1.76563,-0.56835 0.88426,-0.034 1.74361,-0.0342 2.5332,0.0703 0.25865,-0.0377 0.45097,-0.12846 0.61328,-0.24414 3.02932,0.14847 6.25034,0.86025 8.81446,0.0352 0.002,0.14453 0.005,0.28907 0.008,0.4336 l 26.562505,0 c -4.6e-4,-0.0156 -8.5e-4,-0.0312 -0.002,-0.0469 l 21.781252,0 c -0.21645,-7.33335 -0.43237,-14.66671 -0.65039,-22 -3.89313,0.73717 -8.48008,3.67274 -12.234382,2.42188 -0.33603,-7.6499 0.702892,-15.24901 1.445312,-22.84961 l 6.89258,0 c -0.21645,-7.33335 -0.43225,-14.666707 -0.65039,-21.999997 -3.89314,0.73717 -8.480002,3.67273 -12.234382,2.42187 -0.35289,-8.03412 0.81659,-16.01147 1.5586,-23.99414 l 6.216802,0 c -0.21645,-7.33335 -0.43225,-14.66671 -0.6504,-22 -3.893122,0.73717 -8.480052,3.67274 -12.234372,2.42188 -0.37788,-8.60272 1.00563,-17.14074 1.72266,-25.68946 l -2.83203,0.81836 c -4.07086,0.6336 -12.483745,-2.9145 -13.253915,3.63282 0.12558,6.74371 0.23031,13.48815 0.33984,20.23242 -2.66357,0.94723 -5.37674,1.84924 -7.75586,1.05273 -0.37708,-8.60213 1.00392,-17.13957 1.72266,-25.6875 l -2.83203,0.81836 c -1.34686,0.0639 -3.19014,-0.15538 -5.0625,-0.28125 a 6.1871843,6.1871843 0 0 0 0.4022,-2.17583 6.1871843,6.1871843 0 0 0 -6.1875,-6.1875 z m -0.0879,4.70898 a 1.4285715,1.4285715 0 0 1 1.42969,1.42969 1.4285715,1.4285715 0 0 1 -1.42969,1.42774 1.4285715,1.4285715 0 0 1 -1.42773,-1.42774 1.4285715,1.4285715 0 0 1 1.42773,-1.42969 z m 23.376955,7.94532 7.56446,0.0273 c 0,0 -2.44488,21.85073 -0.71094,24.08008 3.22019,2.84863 11.88281,-0.14063 11.88281,-0.14063 l 0.3711,12.59571 -18.50782,0 -0.59961,-36.5625 z m -21.779295,0.0488 7.56445,0.0254 c 0,0 -2.44488,21.85071 -0.71094,24.08007 3.22019,2.84863 11.88282,-0.14062 11.88282,-0.14062 l 0.37109,12.5957 -18.50781,0 -0.59961,-36.56055 z m -4.02539,0.33008 0.125,35.85938 -9.15039,0.10351 0.12695,-35.9375 8.89844,-0.0254 z m -19.62696,0.041 8.87696,0.0527 c 0,0 -2.62152,9.09083 -4.35547,11.93946 -1.73394,4.33486 -6.58594,6.49023 -6.58594,6.49023 0,0 3.7117,3.35552 5.69336,6.94727 2.47706,4.45872 3.71289,10.66211 3.71289,10.66211 0,0 -8.31305,0.37121 -9.42773,-0.24805 -0.61927,-1.11468 0.86221,-7.62102 -3.47266,-11.83203 -1.6101,-1.8578 -4.01953,0.20117 -4.01953,0.20117 l -0.2461,11.95312 -6.794919,0.0234 -0.12304,-36.17969 7.019529,0.125 0,12.69141 c 0,0 1.86334,1.36238 5.45508,0 3.09634,-2.84863 4.26757,-12.82617 4.26757,-12.82617 z m 6.78516,15.97461 c 0.002,2.25097 -6.3e-4,4.50262 -0.0156,6.75586 -0.79431,-1.43674 -1.58974,-2.80525 -2.27344,-4.05274 0.86381,-0.84388 1.61485,-1.75212 2.28906,-2.70312 z m -12.38672,21.01172 c 1.98431,3.10252 5.39521,3.34984 8.9336,3.12109 -0.87392,0.55691 -1.5979,1.38837 -2.07422,2.6543 -0.66283,2.91202 -0.85151,5.97471 -1.92383,8.78515 0.66239,-4.17313 1.45236,-12.28964 -4.76367,-12.34765 -0.95867,0.38736 -2.16037,0.36512 -3.40039,0.27344 1.32045,-0.49042 2.4512,-1.263 3.22851,-2.48633 z m 52.582035,2.98437 0.002,0 0.85351,0 c -0.62896,0.61399 -1.06272,1.49578 -1.21094,2.75586 0.12558,6.74371 0.23032,13.48815 0.33985,20.23242 -2.66357,0.94723 -5.376745,1.84925 -7.755865,1.05274 -0.35217,-8.034 0.81353,-16.01175 1.55664,-23.99414 l 6.218755,0 c -4.6e-4,-0.0156 -0.003,-0.0312 -0.004,-0.0469 z m 3.83008,3.20899 7.56641,0.0273 c 0,0 -2.44488,21.85072 -0.71094,24.08008 3.22019,2.84863 11.882812,-0.14063 11.882812,-0.14063 l 0.3711,12.595707 -18.509772,0 -0.59961,-36.562497 z m -21.779305,0.0488 7.56641,0.0254 c 0,0 -2.44488,21.85073 -0.71094,24.08008 3.22019,2.84863 11.882775,-0.14062 11.882825,-0.14062 l 0.37109,12.595697 -18.507815,0 -0.60157,-36.560547 z m -4.02343,0.33008 0.12304,35.859377 -9.14843,0.10351 0.12695,-35.937497 8.89844,-0.0254 z m -19.62696,0.041 8.875,0.0527 c 0,0 -2.61956,9.09084 -4.35351,11.93946 -1.73394,4.33486 -6.58594,6.49023 -6.58594,6.49023 0,0 3.7117,3.35551 5.69336,6.94727 2.47706,4.45871 3.71094,10.662097 3.71094,10.662097 0,0 -8.3111,0.37123 -9.42578,-0.24804 -0.61927,-1.11467 0.86221,-7.622977 -3.47266,-11.833987 -1.6101,-1.85781 -4.01953,0.20313 -4.01953,0.20313 l -0.24805,11.953117 -6.79297,0.0234 -0.12304,-36.179687 7.01757,0.125 0,12.69141 c 0,0 1.8653,1.36239 5.45703,0 3.09635,-2.84863 4.26758,-12.82617 4.26758,-12.82617 z m 6.51368,15.94726 c 0.002,2.25097 -6.6e-4,4.50262 -0.0156,6.75586 -0.7943,-1.43674 -1.58974,-2.80524 -2.27344,-4.05273 0.86381,-0.84388 1.61482,-1.75213 2.28907,-2.70313 z m -12.38672,21.011717 c 0.31073,0.48583 0.65944,0.89692 1.03515,1.25196 -0.42968,-0.11285 -0.90027,-0.1787 -1.42578,-0.1836 -0.22857,0.0924 -0.47339,0.15599 -0.72656,0.20703 0.42071,-0.36193 0.80099,-0.77775 1.11719,-1.27539 z m 3.18164,2.58008 c 1.18948,0.44917 2.51919,0.6024 3.9082,0.60742 -0.30325,0.41209 -0.57872,0.87393 -0.79297,1.44336 -0.66283,2.91202 -0.85151,5.97472 -1.92383,8.78516 0.48801,-3.0745 1.03473,-8.28006 -1.1914,-10.83594 z m 42.511725,0.45117 6.37109,0 c -0.19164,0.4433 -0.32936,0.96062 -0.40039,1.56446 0.12558,6.74371 0.23031,13.48815 0.33984,20.23242 -2.66357,0.94723 -5.37674,1.84924 -7.75586,1.05273 -0.33535,-7.65003 0.70213,-15.24903 1.44532,-22.84961 z m 9.90234,2.36914 7.56641,0.0254 c 0,0 -2.44488,21.85072 -0.71094,24.08008 3.22019,2.84862 11.882812,-0.14062 11.882812,-0.14062 l 0.37109,12.5957 -18.507812,0 -0.60156,-36.56055 z m -21.777345,0.0469 7.56445,0.0254 c 0,0 -2.44488,21.85072 -0.71094,24.08008 3.220195,2.84863 11.882815,-0.14063 11.882815,-0.14063 l 0.3711,12.5957 -18.507825,0 -0.5996,-36.56054 z m -4.0254,0.33008 0.125,35.85937 -9.15039,0.10352 0.12696,-35.93555 8.89843,-0.0273 z m -19.62695,0.041 8.875,0.0527 c 0,0 -2.61956,9.09082 -4.35351,11.93945 -1.73394,4.33486 -6.58594,6.49023 -6.58594,6.49023 0,0 3.7117,3.35552 5.69336,6.94727 2.47706,4.45872 3.71094,10.66211 3.71094,10.66211 0,0 -8.31111,0.37122 -9.42579,-0.24805 -0.61927,-1.11467 0.86222,-7.62101 -3.47265,-11.83203 -1.6101,-1.8578 -4.01953,0.20117 -4.01953,0.20117 l -0.24805,11.95313 -6.79297,0.0234 -0.12305,-36.17968 7.01758,0.125 0,12.69336 c 0,0 1.86529,1.36239 5.45703,0 3.09634,-2.84863 4.26758,-12.82813 4.26758,-12.82813 z m 6.76758,15.59766 c 0.002,2.25097 -6e-4,4.50262 -0.0156,6.75586 -0.7943,-1.43674 -1.58973,-2.80525 -2.27343,-4.05274 0.86381,-0.84388 1.61486,-1.75212 2.28906,-2.70312 z"
       id="path4165-1-64-9-8" />
    <g
       transform="translate(-328.44366,-305.69459)"
       id="g6890">
      <g
         transform="translate(-210.59312,-22.65118)"
         id="g6003-2-7"
         style="display:inline" />
      <g
         transform="translate(-205.28981,-20.63087)"
         id="g6009-8-8"
         style="display:inline" />
      <g
         transform="translate(-200.99667,-17.85295)"
         id="g6015-8-3"
         style="display:inline" />
    </g>
  </g>
</svg>
