<?xml version="1.0" encoding="UTF-8" standalone="no"?>
<!-- Created with Inkscape (http://www.inkscape.org/) -->

<svg
   xmlns:dc="http://purl.org/dc/elements/1.1/"
   xmlns:cc="http://creativecommons.org/ns#"
   xmlns:rdf="http://www.w3.org/1999/02/22-rdf-syntax-ns#"
   xmlns:svg="http://www.w3.org/2000/svg"
   xmlns="http://www.w3.org/2000/svg"
   xmlns:sodipodi="http://sodipodi.sourceforge.net/DTD/sodipodi-0.dtd"
   xmlns:inkscape="http://www.inkscape.org/namespaces/inkscape"
   width="210mm"
   height="297mm"
   viewBox="0 0 744.09448819 1052.3622047"
   id="svg7672"
   version="1.1"
   inkscape:version="0.91 r13725"
   sodipodi:docname="kill2.svg">
  <defs
     id="defs7674" />
  <sodipodi:namedview
     id="base"
     pagecolor="#ffffff"
     bordercolor="#666666"
     borderopacity="1.0"
     inkscape:pageopacity="0.0"
     inkscape:pageshadow="2"
     inkscape:zoom="1.979899"
     inkscape:cx="-37.839123"
     inkscape:cy="841.1112"
     inkscape:document-units="px"
     inkscape:current-layer="layer1"
     showgrid="false"
     inkscape:window-width="1920"
     inkscape:window-height="1055"
     inkscape:window-x="1440"
     inkscape:window-y="0"
     inkscape:window-maximized="1" />
  <metadata
     id="metadata7677">
    <rdf:RDF>
      <cc:Work
         rdf:about="">
        <dc:format>image/svg+xml</dc:format>
        <dc:type
           rdf:resource="http://purl.org/dc/dcmitype/StillImage" />
        <dc:title></dc:title>
      </cc:Work>
    </rdf:RDF>
  </metadata>
  <g
     inkscape:label="Layer 1"
     inkscape:groupmode="layer"
     id="layer1">
    <path
       inkscape:connector-curvature="0"
       style="font-style:normal;font-variant:normal;font-weight:normal;font-stretch:normal;font-size:medium;line-height:125%;font-family:'Some Time Later';-inkscape-font-specification:'Some Time Later, Normal';text-align:start;letter-spacing:0px;word-spacing:0px;writing-mode:lr-tb;text-anchor:start;display:inline;opacity:0.5;fill:#000000;fill-opacity:0.1416185;stroke:#000000;stroke-width:1.20000005px;stroke-linecap:butt;stroke-linejoin:miter;stroke-opacity:1"
       d="m 61.085247,9.7777694 a 7.4246212,7.4246212 0 0 0 -7.422648,7.4249996 7.4246212,7.4246212 0 0 0 0.60702,2.920308 c -0.762312,-0.02856 -1.524696,-0.04356 -2.2875,-0.02808 0.05868,-0.149736 0.11088,-0.303552 0.171096,-0.452352 l -1.811712,0.414852 c -1.085196,0.01656 -2.109156,0.243108 -3.051564,0.625776 -5.69622,0.599736 -14.705016,-3.345396 -17.39766,3.810937 -0.795396,3.494424 -1.021812,7.169664 -2.308596,10.542192 0.794868,-5.007756 1.742832,-14.747581 -5.716404,-14.817193 -3.984179,1.60986 -11.42419,-2.5689 -12.4078064,3.679693 0.7492924,16.435068 0.184416,33.01902 0.45,49.509372 2.0208724,0.05892 4.4058484,0.27876 6.7945314,0.325788 -0.540588,0.543804 -0.935615,1.322832 -1.113287,2.451552 0.749291,16.435068 0.184416,33.019036 0.45,49.509386 1.596911,0.0466 3.423527,0.19134 5.296882,0.27655 -0.123264,0.33326 -0.223824,0.703 -0.290628,1.12735 0.749292,16.43507 0.184416,33.01901 0.45,49.50937 5.779968,0.16869 14.523936,1.72845 17.882808,-3.5578 3.134544,4.90093 9.235908,3.86961 14.746872,3.40546 7.44e-4,0.18657 -9.12e-4,0.37361 0,0.56015 0.666684,-0.33167 1.380936,-0.53711 2.118756,-0.68202 1.061112,-0.0408 2.092332,-0.041 3.03984,0.0844 0.31038,-0.0452 0.541164,-0.15415 0.735936,-0.29297 3.635184,0.17817 7.500408,1.0323 10.577352,0.0422 0.0024,0.17344 0.006,0.34689 0.0096,0.52032 l 31.875005,0 c -5.5e-4,-0.0187 -0.001,-0.0374 -0.002,-0.0563 l 26.13751,0 c -0.25974,-8.80002 -0.51885,-17.60005 -0.78047,-26.4 -4.67176,0.88461 -10.1761,4.40729 -14.68126,2.90626 -0.40323,-9.17988 0.84347,-18.29881 1.73438,-27.41953 l 8.27109,0 c -0.25974,-8.80002 -0.5187,-17.60005 -0.78047,-26.400002 -4.67176,0.884602 -10.176,4.407272 -14.68125,2.906242 -0.42347,-9.640942 0.9799,-19.213762 1.87032,-28.792966 l 7.46016,0 c -0.25974,-8.80002 -0.5187,-17.600052 -0.78048,-26.4 -4.67175,0.884604 -10.17606,4.407288 -14.68125,2.906256 -0.45346,-10.323264 1.20675,-20.568888 2.06719,-30.827353 l -3.39844,0.982032 c -4.885029,0.76032 -14.980491,-3.4974 -15.904695,4.359385 0.150696,8.092452 0.276372,16.18578 0.407808,24.278904 -3.196284,1.136676 -6.452088,2.219088 -9.307032,1.263276 -0.452496,-10.322536 1.204704,-20.567464 2.067192,-30.824981 l -3.398436,0.982032 c -1.616232,0.07668 -3.828168,-0.186456 -6.075,-0.3375 a 7.4246212,7.4246212 0 0 0 0.48264,-2.610996 7.4246212,7.4246212 0 0 0 -7.425,-7.4249996 z m -0.10548,5.6507756 a 1.7142858,1.7142858 0 0 1 1.715628,1.715628 1.7142858,1.7142858 0 0 1 -1.715628,1.713288 1.7142858,1.7142858 0 0 1 -1.713276,-1.713288 1.7142858,1.7142858 0 0 1 1.713276,-1.715628 z m 28.052346,9.534385 9.077352,0.03276 c 0,0 -2.933856,26.220876 -0.853128,28.896096 3.864233,3.418356 14.259373,-0.168756 14.259373,-0.168756 l 0.44532,15.114852 -22.209385,0 -0.719532,-43.875 z m -26.135154,0.05856 9.07734,0.03048 c 0,0 -2.933856,26.220852 -0.853128,28.896084 3.864228,3.418356 14.259384,-0.168744 14.259384,-0.168744 l 0.445308,15.11484 -22.209372,0 -0.719532,-43.87266 z m -4.830468,0.396096 0.15,43.031256 -10.980468,0.124212 0.15234,-43.125 10.678128,-0.03048 z m -23.552352,0.0492 10.652352,0.06324 c 0,0 -3.145824,10.908996 -5.226564,14.327352 -2.080728,5.201832 -7.903128,7.788276 -7.903128,7.788276 0,0 4.45404,4.026624 6.832032,8.336724 2.972472,5.350464 4.455468,12.794532 4.455468,12.794532 0,0 -9.97566,0.445452 -11.313276,-0.29766 -0.743124,-1.337616 1.034652,-9.145224 -4.167192,-14.198436 -1.93212,-2.22936 -4.823436,0.241404 -4.823436,0.241404 l -0.29532,14.343744 -8.153902,0.02808 -0.147648,-43.415628 8.423434,0.15 0,15.229692 c 0,0 2.236008,1.634856 6.546096,0 3.715608,-3.418356 5.121084,-15.391404 5.121084,-15.391404 z m 8.142192,19.169532 c 0.0024,2.701164 -7.56e-4,5.403144 -0.01872,8.107032 -0.953172,-1.724088 -1.907688,-3.3663 -2.728128,-4.863288 1.036572,-1.012656 1.93782,-2.102544 2.746872,-3.243744 z M 27.792267,69.850382 c 2.381172,3.723024 6.474252,4.019808 10.72032,3.745308 -1.048704,0.668292 -1.91748,1.666044 -2.489064,3.18516 -0.795396,3.494424 -1.021812,7.169652 -2.308596,10.54218 0.794868,-5.007756 1.742832,-14.747568 -5.716404,-14.81718 -1.150404,0.464832 -2.592444,0.438144 -4.080468,0.328128 1.58454,-0.588504 2.94144,-1.5156 3.874212,-2.983596 z m 63.098442,3.581244 0.0024,0 1.024212,0 c -0.754752,0.736788 -1.275264,1.794936 -1.453128,3.307032 0.150696,8.092452 0.276384,16.18578 0.40782,24.278902 -3.196284,1.13668 -6.452094,2.2191 -9.307038,1.26329 -0.422604,-9.6408 0.976236,-19.2141 1.867968,-28.792968 l 7.462506,0 c -5.52e-4,-0.01872 -0.0036,-0.03744 -0.0048,-0.05628 z m 4.596096,3.850788 9.079695,0.03276 c 0,0 -2.93386,26.220866 -0.85313,28.896096 3.86423,3.41836 14.25938,-0.16876 14.25938,-0.16876 l 0.44532,15.11486 -22.211733,0 -0.719532,-43.875004 z m -26.135166,0.05856 9.079692,0.03048 c 0,0 -2.933856,26.220876 -0.853128,28.896096 3.864228,3.41836 14.25933,-0.16874 14.25939,-0.16874 l 0.445308,15.11484 -22.209378,0 -0.721884,-43.872664 z m -4.828116,0.396096 0.147648,43.03126 -10.978116,0.12421 0.15234,-43.125002 10.678128,-0.03048 z m -23.552352,0.0492 10.65,0.06324 c 0,0 -3.143472,10.909008 -5.224212,14.327352 -2.080728,5.201832 -7.903128,7.788276 -7.903128,7.788276 0,0 4.45404,4.026612 6.832032,8.336722 2.972472,5.35046 4.453128,12.79452 4.453128,12.79452 0,0 -9.97332,0.44548 -11.310936,-0.29765 -0.743124,-1.3376 1.034652,-9.14757 -4.167192,-14.20078 -1.93212,-2.22938 -4.823436,0.24375 -4.823436,0.24375 l -0.29766,14.34375 -8.151564,0.0281 -0.147648,-43.415632 8.421084,0.15 0,15.229692 c 0,0 2.23836,1.634868 6.548436,0 3.71562,-3.418356 5.121096,-15.391404 5.121096,-15.391404 z m 7.816416,19.136712 c 0.0024,2.701164 -7.92e-4,5.403148 -0.01872,8.107028 -0.95316,-1.72408 -1.907688,-3.36628 -2.728128,-4.86327 1.036572,-1.012658 1.937784,-2.102558 2.746884,-3.243758 z M 33.923523,122.13705 c 0.372876,0.58299 0.791328,1.0763 1.24218,1.50235 -0.515616,-0.13542 -1.080324,-0.21444 -1.710936,-0.22032 -0.274284,0.11088 -0.568068,0.18719 -0.871872,0.24843 0.504852,-0.43431 0.961188,-0.9333 1.340628,-1.53046 z m 3.817968,3.09609 c 1.427376,0.53901 3.023028,0.72288 4.68984,0.72891 -0.3639,0.4945 -0.694464,1.04871 -0.951564,1.73203 -0.795396,3.49442 -1.021812,7.16966 -2.308596,10.54219 0.585612,-3.6894 1.241676,-9.93607 -1.42968,-13.00313 z m 51.01407,0.54141 7.645308,0 c -0.229968,0.53196 -0.395232,1.15274 -0.480468,1.87735 0.150696,8.09245 0.276372,16.18578 0.407808,24.2789 -3.196284,1.13668 -6.452088,2.21909 -9.307032,1.26328 -0.40242,-9.18004 0.842556,-18.29884 1.734384,-27.41953 z m 11.882809,2.84296 9.0797,0.0305 c 0,0 -2.93386,26.22087 -0.85313,28.8961 3.86423,3.41834 14.25937,-0.16874 14.25937,-0.16874 l 0.44531,15.11484 -22.20938,0 -0.72187,-43.87266 z m -26.132815,0.0563 9.07734,0.0305 c 0,0 -2.933856,26.22087 -0.853128,28.8961 3.864234,3.41836 14.259378,-0.16876 14.259378,-0.16876 l 0.44532,15.11484 -22.20939,0 -0.71952,-43.87264 z m -4.83048,0.3961 0.15,43.03124 -10.980468,0.12423 0.152352,-43.12266 10.678116,-0.0328 z m -23.55234,0.0492 10.65,0.0632 c 0,0 -3.143472,10.90898 -5.224212,14.32734 -2.080728,5.20183 -7.903128,7.78828 -7.903128,7.78828 0,0 4.45404,4.02662 6.832032,8.33672 2.972472,5.35046 4.453128,12.79453 4.453128,12.79453 0,0 -9.973332,0.44547 -11.310948,-0.29766 -0.743124,-1.3376 1.034664,-9.14521 -4.16718,-14.19843 -1.93212,-2.22936 -4.823436,0.2414 -4.823436,0.2414 l -0.29766,14.34376 -8.151564,0.0281 -0.14766,-43.41562 8.421096,0.15 0,15.23203 c 0,0 2.238348,1.63487 6.548436,0 3.715608,-3.41835 5.121096,-15.39375 5.121096,-15.39375 z m 8.121096,18.71719 c 0.0024,2.70117 -7.2e-4,5.40315 -0.01872,8.10703 -0.95316,-1.72408 -1.907676,-3.3663 -2.728116,-4.86328 1.036572,-1.01266 1.937832,-2.10255 2.746872,-3.24375 z"
       id="path4165-1-64-9-8" />
    <g
       transform="translate(-328.44366,-305.69459)"
       id="g6890">
      <g
         transform="translate(-210.59312,-22.65118)"
         id="g6003-2-7"
         style="display:inline" />
      <g
         transform="translate(-205.28981,-20.63087)"
         id="g6009-8-8"
         style="display:inline" />
      <g
         transform="translate(-200.99667,-17.85295)"
         id="g6015-8-3"
         style="display:inline" />
    </g>
  </g>
</svg>
