<?xml version="1.0" encoding="UTF-8" standalone="no"?>
<!-- Created with Inkscape (http://www.inkscape.org/) -->

<svg
   xmlns:dc="http://purl.org/dc/elements/1.1/"
   xmlns:cc="http://creativecommons.org/ns#"
   xmlns:rdf="http://www.w3.org/1999/02/22-rdf-syntax-ns#"
   xmlns:svg="http://www.w3.org/2000/svg"
   xmlns="http://www.w3.org/2000/svg"
   xmlns:sodipodi="http://sodipodi.sourceforge.net/DTD/sodipodi-0.dtd"
   xmlns:inkscape="http://www.inkscape.org/namespaces/inkscape"
   width="744.09448819"
   height="1052.3622047"
   id="svg4027"
   version="1.1"
   inkscape:version="0.48.4 r9939"
   sodipodi:docname="New document 4">
  <defs
     id="defs4029" />
  <sodipodi:namedview
     id="base"
     pagecolor="#ffffff"
     bordercolor="#666666"
     borderopacity="1.0"
     inkscape:pageopacity="0.0"
     inkscape:pageshadow="2"
     inkscape:zoom="0.49497475"
     inkscape:cx="453.22205"
     inkscape:cy="442.16977"
     inkscape:document-units="px"
     inkscape:current-layer="layer1"
     showgrid="false"
     inkscape:window-width="1297"
     inkscape:window-height="752"
     inkscape:window-x="137"
     inkscape:window-y="27"
     inkscape:window-maximized="0" />
  <metadata
     id="metadata4032">
    <rdf:RDF>
      <cc:Work
         rdf:about="">
        <dc:format>image/svg+xml</dc:format>
        <dc:type
           rdf:resource="http://purl.org/dc/dcmitype/StillImage" />
        <dc:title></dc:title>
      </cc:Work>
    </rdf:RDF>
  </metadata>
  <g
     inkscape:label="Layer 1"
     inkscape:groupmode="layer"
     id="layer1">
    <path
       style="fill:none;stroke:#000000;stroke-width:2;stroke-linecap:round;stroke-linejoin:round;stroke-miterlimit:4;stroke-opacity:1;stroke-dasharray:none"
       d="m 360.66023,722.2578 c 1.01695,2.03389 1.62753,4.10326 1.86441,6.27118 0.43066,3.94142 -0.0868,7.97317 -0.84746,11.86441 -0.49012,2.50744 -1.92308,4.77314 -2.37288,7.28813 -0.50766,2.83853 -1.91595,6.22991 -0.33898,8.64407 0.92949,1.42294 3.08984,2.24734 4.74576,1.86441 2.68818,-0.62165 4.46183,-3.58521 5.59322,-6.1017 1.35085,-3.00462 0.87143,-6.5394 1.01695,-9.8305 0.16973,-3.83847 0.23722,-7.70479 -0.16949,-11.52543 -0.18296,-1.71877 -0.84663,-3.36467 -1.01695,-5.08474 -0.0278,-0.28111 0,-0.84746 0,-0.84746"
       id="path2987"
       inkscape:connector-curvature="0"
       sodipodi:nodetypes="caaaaaaaaac" />
    <path
       style="fill:none;stroke:#000000;stroke-width:2;stroke-linecap:round;stroke-linejoin:round;stroke-miterlimit:4;stroke-opacity:1;stroke-dasharray:none"
       d="m 385.74498,740.05441 c -1.18644,-2.37289 -1.63483,-3.67763 -3.22034,-4.74577 -1.34176,-0.90392 -3.29218,-1.72723 -4.74576,-1.01695 -1.74813,0.85421 -2.13644,3.35139 -2.54238,5.25424 -0.38917,1.82421 -0.49853,3.85168 0.1695,5.59322 0.34457,0.89829 1.64634,1.26632 1.8644,2.20339 0.10559,0.45376 0.0118,1.04935 -0.33898,1.35593 -0.77044,0.67333 -2.22157,-0.26039 -3.05085,0.33899 -1.20886,0.87374 -1.98229,2.58089 -1.8644,4.06779 0.0805,1.01533 0.80631,2.04461 1.69491,2.54238 2.565,1.43684 5.93161,0.92046 8.81356,0.33898 4.5836,-0.92481 8.49221,-3.91743 12.71186,-5.9322 4.87954,-2.32985 10.20817,-3.93153 14.57628,-7.11865 4.61596,-3.36796 9.30319,-7.265 11.8644,-12.37288 2.61866,-5.22245 2.71075,-11.44843 2.88136,-17.28814 0.13938,-4.77089 0.40634,-9.87276 -1.52543,-14.23728 -1.37674,-3.11052 -3.87011,-5.86494 -6.77966,-7.62712 -2.59024,-1.56879 -5.7934,-2.4249 -8.81356,-2.20339 -3.8402,0.28166 -7.88832,1.75265 -10.67796,4.40678 -1.62956,1.5504 -2.58252,3.87236 -2.88136,6.10169 -0.25915,1.93329 0.22894,3.97839 1.01695,5.76271 1.00892,2.28454 3.17769,3.86315 4.57627,5.93221 1.87206,2.76954 3.99276,5.48456 5.08475,8.64407 0.96833,2.80173 1.65278,5.88611 1.18644,8.81355 -0.28622,1.7967 -1.00225,3.71885 -2.37288,4.91526 -1.79017,1.56263 -4.40546,2.30179 -6.77966,2.20339 -1.89755,-0.0786 -4.02209,-0.75816 -5.25424,-2.20339 -2.64038,-3.09699 -1.82993,-7.93281 -2.88136,-11.86441 -0.98845,-3.6961 -1.51368,-7.5927 -3.22034,-11.01695 -1.60284,-3.21594 -4.15997,-5.86742 -6.44067,-8.64406 -2.51352,-3.06009 -6.21004,-5.26417 -7.96611,-8.81356 -1.09578,-2.21482 -2.26843,-4.99173 -1.35593,-7.28814 0.9556,-2.40489 3.84715,-3.67035 6.27119,-4.57627 4.99266,-1.86588 10.78686,0.0346 15.9322,-1.35593 8.2704,-2.23513 16.31246,-5.94975 23.22034,-11.01695 6.89826,-5.06014 13.0468,-11.48311 17.45763,-18.81356 6.10762,-10.15038 9.98624,-21.83696 11.69491,-33.55932 0.88918,-6.10021 0.0604,-12.37713 -0.84745,-18.47458 -0.8415,-5.65174 -4.16956,-10.89653 -4.23729,-16.61017 -0.0687,-5.79683 2.93308,-11.23285 3.8983,-16.94916 0.95568,-5.65984 1.88916,-11.37874 1.86441,-17.11865 -0.0167,-3.86827 0.37919,-8.06809 -1.35593,-11.52542 -1.29068,-2.57177 -3.61839,-4.81751 -6.27119,-5.9322 -4.11774,-1.73025 -8.97143,-1.16216 -13.38983,-0.50848 -5.32002,0.78707 -10.28609,3.19521 -15.25424,5.25424 -4.87851,2.02188 -9.43996,4.74154 -14.23728,6.94915 -3.74699,1.72427 -7.33012,4.01758 -11.35594,4.91526 -1.82055,0.40595 -3.72807,0.14935 -5.59322,0.16949 -6.49704,0.0702 -12.9949,-0.27112 -19.49152,-0.16949 -4.24016,0.0663 -8.65073,1.72932 -12.71187,0.50847 -1.66676,-0.50106 -3.58081,-1.43896 -4.23729,-3.05085 -0.86537,-2.12477 0.57404,-4.56868 1.18645,-6.77966 0.63016,-2.27508 1.64131,-4.42815 2.54237,-6.61017 1.01374,-2.45489 2.60705,-4.70394 3.22034,-7.28813 0.26124,-1.10078 0.76341,-2.42691 0.16949,-3.38983 -1.10218,-1.78697 -3.69997,-2.15105 -5.76271,-2.54238 -4.1109,-0.7799 -8.37713,0.90657 -12.54238,0.50848 -1.96441,-0.18775 -3.91621,-0.6598 -5.76271,-1.35593 -1.79741,-0.67763 -3.2454,-2.15807 -5.08474,-2.71187 -2.28241,-0.68721 -4.83586,0.008 -7.11865,-0.67796 -2.88042,-0.86552 -5.28673,-2.87094 -7.9661,-4.23729 -2.40852,-1.22823 -4.59499,-3.32171 -7.28815,-3.55932 -2.04857,-0.18074 -4.41296,0.30883 -5.9322,1.69491 -2.19347,2.0012 -2.49401,5.4261 -3.22034,8.30509 -0.77997,3.09159 -0.38027,6.40666 -1.18644,9.49152 -0.83294,3.18728 -1.45714,6.76673 -3.72881,9.15254 -3.13734,3.29497 -8.18288,3.9897 -12.37288,5.76272 -6.12637,2.5924 -12.72139,4.08964 -18.64407,7.11864 -3.85055,1.96926 -6.86907,5.42244 -10.84746,7.11864 -2.55926,1.09115 -5.42888,1.22087 -8.13559,1.86441 -3.906,0.92867 -8.14295,1.0098 -11.69492,2.88136 -2.47807,1.30572 -4.98626,3.1043 -6.27118,5.59322 -1.40813,2.72759 -1.65844,6.1507 -1.01695,9.15254 0.46574,2.17939 1.91022,4.09616 3.38983,5.76271 2.16811,2.44205 5.44583,3.66547 7.79661,5.93221 2.62974,2.53573 4.89049,5.45673 6.94915,8.47458 1.82451,2.6746 3.23043,5.61345 4.74576,8.47458 2.95639,5.58202 4.73116,11.86133 8.47458,16.94915 2.41536,3.28281 5.50869,6.08949 8.81356,8.47458 3.93456,2.83953 9.25565,3.55508 12.88135,6.77966 5.22257,4.64479 8.00625,11.46028 11.86441,17.28813 3.47791,5.25347 5.63005,11.56319 10.16949,15.93221 6.60447,6.35652 15.19859,10.54281 23.72883,13.8983 5.54867,2.18265 11.53438,3.21503 17.45762,3.89831 5.61278,0.64747 11.34501,-0.54887 16.94916,0.16949 3.00369,0.38503 6.40196,0.37183 8.81356,2.20339 2.27689,1.72925 3.57386,4.67654 4.23728,7.45762 0.81374,3.41121 -0.002,7.03838 -0.50847,10.50848 -0.61399,4.20321 -2.44846,8.16799 -3.05085,12.37288 -0.56135,3.91843 -0.47026,7.90616 -0.50847,11.86441 -0.0464,4.80337 1.05261,9.6565 0.33898,14.40678 -0.15925,1.06006 -0.59056,2.06734 -1.01695,3.05084 -0.61339,1.41483 -1.85228,2.56623 -2.20339,4.0678 -0.34756,1.48638 -0.71982,3.33561 0.16949,4.57627 0.73967,1.0319 2.29529,1.47489 3.55932,1.35593 0.8586,-0.0808 2.20339,-1.35593 2.20339,-1.35593"
       id="path2989"
       inkscape:connector-curvature="0"
       sodipodi:nodetypes="caaaaaaaaaaaaaaaaaaaaaaaaaaaaaaaaaaaaaaaaaaaaaaaaaaaaaaaaaaaaaaaaaaaaaaaaaaaaaaaaaaaaaaaaaaaaaac" />
    <path
       style="fill:none;stroke:#000000;stroke-width:2;stroke-linecap:round;stroke-linejoin:round;stroke-miterlimit:4;stroke-opacity:1;stroke-dasharray:none"
       d="m 368.79583,753.27474 c 2.88135,0.84746 1.87746,0.84499 2.88135,1.01695 0.0557,0.01 0.16949,0 0.16949,0"
       id="path2991"
       inkscape:connector-curvature="0"
       sodipodi:nodetypes="cac" />
    <path
       style="fill:none;stroke:#000000;stroke-width:2;stroke-linecap:round;stroke-linejoin:round;stroke-miterlimit:4;stroke-opacity:1;stroke-dasharray:none"
       d="m 283.88056,635.90186 c 0.55085,-2.66948 1.33989,-4.06363 2.66949,-5.67796 1.12431,-1.36508 2.61733,-2.53214 4.27966,-3.1356 1.45013,-0.52642 3.13124,-0.706 4.61865,-0.29661 1.42025,0.3909 2.68114,1.38525 3.64408,2.5 0.91953,1.06451 1.49425,1.94051 2.16101,2.96611 0.46217,0.7109 1.00602,1.73934 1.27119,2.20338"
       id="path2993"
       inkscape:connector-curvature="0"
       sodipodi:nodetypes="caaasac" />
    <path
       style="fill:none;stroke:#000000;stroke-width:2;stroke-linecap:round;stroke-linejoin:round;stroke-miterlimit:4;stroke-opacity:1;stroke-dasharray:none"
       d="m 281.25344,614.88491 c 0.6005,-1.34759 1.14561,-2.15049 1.94916,-3.05084 0.80181,-0.8984 1.7365,-1.72074 2.80437,-2.27721 0.64904,-0.33822 1.62474,-0.55996 2.11088,-0.60415"
       id="path2995"
       inkscape:connector-curvature="0"
       sodipodi:nodetypes="caac" />
    <path
       style="fill:none;stroke:#000000;stroke-width:2;stroke-linecap:round;stroke-linejoin:round;stroke-miterlimit:4;stroke-opacity:1;stroke-dasharray:none"
       d="m 323.71108,616.57983 c 1.44068,-0.33898 2.64791,-0.43271 3.98305,-0.42373 0.71127,0.005 2.11865,0.25424 2.11865,0.25424"
       id="path2997"
       inkscape:connector-curvature="0"
       sodipodi:nodetypes="cac" />
    <path
       style="fill:none;stroke:#000000;stroke-width:2;stroke-linecap:round;stroke-linejoin:round;stroke-miterlimit:4;stroke-opacity:1;stroke-dasharray:none"
       d="m 325.12267,625.86779 c 2.37289,-0.76271 2.51257,-0.79141 3.81356,-0.84746 0.42708,-0.0184 1.27119,0.1695 1.27119,0.1695"
       id="path2999"
       inkscape:connector-curvature="0"
       sodipodi:nodetypes="cac" />
    <path
       style="fill:none;stroke:#000000;stroke-width:2;stroke-linecap:round;stroke-linejoin:round;stroke-miterlimit:4;stroke-opacity:1;stroke-dasharray:none"
       d="m 326.08396,635.64763 c 2.37288,-0.93221 2.48594,-0.93684 3.55932,-1.69492 0.39158,-0.27656 1.01695,-1.01695 1.01695,-1.01695 l 0,0 0,0 0,0"
       id="path3001"
       inkscape:connector-curvature="0"
       sodipodi:nodetypes="caaaac" />
    <path
       style="fill:none;stroke:#000000;stroke-width:2;stroke-linecap:round;stroke-linejoin:round;stroke-miterlimit:4;stroke-opacity:1;stroke-dasharray:none"
       d="m 347.51956,624.29445 c 0.89886,1.91758 1.30307,2.67556 2.51682,3.38572 0.74739,0.43729 1.71989,0.45449 2.57675,0.32959 0.65927,-0.0961 1.40578,-0.29335 1.82769,-0.80898 0.55704,-0.68078 0.49133,-1.70058 0.56928,-2.57675 0.0443,-0.4978 -0.0599,-1.4981 -0.0599,-1.4981"
       id="path3003"
       inkscape:connector-curvature="0"
       sodipodi:nodetypes="caaaac" />
    <path
       style="fill:none;stroke:#000000;stroke-width:2;stroke-linecap:round;stroke-linejoin:round;stroke-miterlimit:4;stroke-opacity:1;stroke-dasharray:none"
       d="m 363.24969,623.03604 c -0.38951,1.76777 -0.57945,2.60271 -1.46815,3.50557 -0.61178,0.62153 -1.53069,0.94796 -2.39697,1.04868 -0.82698,0.0962 -1.7069,-0.088 -2.45689,-0.44943 -0.56114,-0.27045 -1.0952,-0.6899 -1.40823,-1.22845 -0.45572,-0.78405 -0.53931,-2.66663 -0.53931,-2.66663"
       id="path3005"
       inkscape:connector-curvature="0"
       sodipodi:nodetypes="caaaac" />
    <path
       style="fill:none;stroke:#000000;stroke-width:2;stroke-linecap:round;stroke-linejoin:round;stroke-miterlimit:4;stroke-opacity:1;stroke-dasharray:none"
       d="m 409.57118,623.21581 c 0.12534,-1.97011 0.64525,-3.53521 1.79773,-4.79394 1.43591,-1.56829 3.64586,-2.46938 5.75273,-2.75652 1.80919,-0.24657 3.77417,0.11454 5.39319,0.95879 1.35257,0.70531 2.34398,1.99842 3.23591,3.23591 0.88795,1.23196 1.75617,3.04361 2.03742,4.07486"
       id="path3007"
       inkscape:connector-curvature="0"
       sodipodi:nodetypes="caaaac" />
    <path
       style="fill:none;stroke:#000000;stroke-width:2;stroke-linecap:round;stroke-linejoin:round;stroke-miterlimit:4;stroke-opacity:1;stroke-dasharray:none"
       d="m 419.99801,599.48579 c 1.05356,-0.14045 2.12981,-0.14902 3.15795,0.0783 1.15248,0.25481 2.28119,0.73413 3.2469,1.41276 0.78888,0.55437 1.67205,1.6669 1.98455,2.1044"
       id="path3009"
       inkscape:connector-curvature="0"
       sodipodi:nodetypes="caac" />
    <path
       style="fill:none;stroke:#000000;stroke-width:2;stroke-linecap:round;stroke-linejoin:round;stroke-miterlimit:4;stroke-opacity:1;stroke-dasharray:none"
       d="m 382.60524,615.7852 c 2.75652,-1.31833 3.21779,-1.47372 4.79394,-2.27712 0.44597,-0.22732 1.31834,-0.71909 1.31834,-0.71909"
       id="path3011"
       inkscape:connector-curvature="0"
       sodipodi:nodetypes="cac" />
    <path
       style="fill:none;stroke:#000000;stroke-width:2;stroke-linecap:round;stroke-linejoin:round;stroke-miterlimit:4;stroke-opacity:1;stroke-dasharray:none"
       d="m 384.40297,621.65778 c 2.15727,0 2.87595,0.0999 4.31455,0.11985 0.35951,0.005 1.07864,0 1.07864,0 l 0,0 0,0"
       id="path3013"
       inkscape:connector-curvature="0"
       sodipodi:nodetypes="caaac" />
    <path
       style="fill:none;stroke:#000000;stroke-width:2;stroke-linecap:round;stroke-linejoin:round;stroke-miterlimit:4;stroke-opacity:1;stroke-dasharray:none"
       d="m 385.84115,628.96855 c 2.39697,1.19848 2.02322,1.23361 3.11607,1.67788 0.53885,0.21906 1.67788,0.47939 1.67788,0.47939 l 0,0"
       id="path3015"
       inkscape:connector-curvature="0"
       sodipodi:nodetypes="caac" />
    <path
       style="fill:none;stroke:#000000;stroke-width:2;stroke-linecap:round;stroke-linejoin:round;stroke-miterlimit:4;stroke-opacity:1;stroke-dasharray:none"
       d="m 391.47404,573.11909 c 1.88446,2.51393 4.79486,4.27726 6.23212,7.07107 1.29446,2.51622 2.05038,5.44302 1.91758,8.26956 -0.0949,2.01908 -0.61342,4.20844 -1.91758,5.75273 -0.87637,1.03774 -2.25504,1.69796 -3.59545,1.91758 -1.43884,0.23575 -3.00642,-0.0752 -4.31455,-0.71909 -1.42019,-0.69908 -2.85899,-1.77803 -3.47561,-3.23592 -0.74714,-1.76649 -0.17842,-3.85807 0.11985,-5.75273 0.3243,-2.06006 1.3787,-3.94953 1.79772,-5.99243 0.35546,-1.73302 0.56707,-3.50455 0.59925,-5.27335 0.0284,-1.56237 -0.12956,-3.12848 -0.35955,-4.67409 -2.36801,-9.23696 2.15666,1.41628 2.99622,2.63667 z"
       id="path3017"
       inkscape:connector-curvature="0"
       sodipodi:nodetypes="caaaaaaaaacc" />
    <path
       style="fill:none;stroke:#000000;stroke-width:2;stroke-linecap:round;stroke-linejoin:round;stroke-miterlimit:4;stroke-opacity:1;stroke-dasharray:none"
       d="m 428.02786,541.95845 c -2.3333,1.60147 -3.73212,2.4302 -5.32427,3.96773 -2.27887,2.20069 -4.50259,4.59551 -5.9415,7.41789 -1.16652,2.28809 -2.53541,4.91106 -2.03742,7.43061 0.21537,1.08963 1.03266,2.16324 2.03742,2.63667 1.12089,0.52814 2.59038,0.39963 3.71531,-0.11985 1.07836,-0.49797 2.01449,-1.51215 2.39697,-2.63667 0.39602,-1.16434 0.19012,-2.55028 -0.30261,-3.6771 -0.48478,-1.10863 -1.56989,-1.84869 -2.45391,-2.67488 -0.74755,-0.69865 -2.39697,-1.91757 -2.39697,-1.91757"
       id="path3019"
       inkscape:connector-curvature="0"
       sodipodi:nodetypes="caaaaaaaac" />
    <path
       style="fill:none;stroke:#000000;stroke-width:2;stroke-linecap:round;stroke-linejoin:round;stroke-miterlimit:4;stroke-opacity:1;stroke-dasharray:none"
       d="m 301.34788,578.51227 c -0.2779,-1.31084 -0.19983,-2.1997 0.21349,-3.17748 0.57623,-1.3632 1.60324,-2.73259 2.96999,-3.30034 1.25805,-0.52259 2.7992,-0.25289 4.0816,0.20674 1.09438,0.39225 2.80221,2.07638 2.80221,2.07638"
       id="path3021"
       inkscape:connector-curvature="0"
       sodipodi:nodetypes="caaac" />
    <path
       style="fill:none;stroke:#000000;stroke-width:2;stroke-linecap:round;stroke-linejoin:round;stroke-miterlimit:4;stroke-opacity:1;stroke-dasharray:none"
       d="m 301.58758,560.05559 c 0.95129,-0.76328 1.8372,-0.88888 2.83143,-1.03445 1.084,-0.15871 1.99922,-0.20224 3.28085,0.19551"
       id="path3023"
       inkscape:connector-curvature="0"
       sodipodi:nodetypes="cac" />
    <path
       style="fill:none;stroke:#000000;stroke-width:2;stroke-linecap:round;stroke-linejoin:round;stroke-miterlimit:4;stroke-opacity:1;stroke-dasharray:none"
       d="m 289.24316,534.16829 c 0.7191,-2.03743 1.06515,-2.81983 2.26259,-3.55309 0.9925,-0.60776 2.42713,-0.83682 3.4756,-0.33171 0.83411,0.40184 1.26399,1.43613 1.51692,2.32677 0.24017,0.84571 -0.0642,2.63667 -0.0642,2.63667"
       id="path3025"
       inkscape:connector-curvature="0"
       sodipodi:nodetypes="caaac" />
    <path
       style="fill:none;stroke:#000000;stroke-width:2;stroke-linecap:round;stroke-linejoin:round;stroke-miterlimit:4;stroke-opacity:1;stroke-dasharray:none"
       d="m 323.63972,541.47905 c 1.12976,-1.12444 1.69,-1.55108 2.74604,-1.9071 0.95061,-0.32049 2.11624,-0.59231 3.0067,-0.13032 0.96528,0.5008 1.44667,1.70511 1.76133,2.74604 0.20911,0.69177 0.0364,2.16775 0.0364,2.16775"
       id="path3027"
       inkscape:connector-curvature="0"
       sodipodi:nodetypes="caaac" />
    <path
       style="fill:none;stroke:#000000;stroke-width:2;stroke-linecap:round;stroke-linejoin:round;stroke-miterlimit:4;stroke-opacity:1;stroke-dasharray:none"
       d="m 306.14183,533.32935 c -0.45281,1.58462 -0.31689,1.92697 0.21788,2.62213 0.4443,0.57755 1.33057,0.73484 2.05924,0.73363 1.06149,-0.002 2.29474,-0.28198 2.99622,-1.07864 0.2434,-0.27643 0.23969,-1.07864 0.23969,-1.07864 l 0,0 0.14167,0.25424"
       id="path3029"
       inkscape:connector-curvature="0"
       sodipodi:nodetypes="caaaacc" />
    <path
       style="fill:none;stroke:#000000;stroke-width:2;stroke-linecap:round;stroke-linejoin:round;stroke-miterlimit:4;stroke-opacity:1;stroke-dasharray:none"
       d="m 316.80835,538.36299 c -1.01445,0.93822 -1.70273,0.91028 -2.63667,0.95879 -0.82247,0.0427 -1.7325,-0.11266 -2.39697,-0.59924 -0.492,-0.36028 -0.89832,-0.95124 -0.95879,-1.55804 -0.0802,-0.80493 0.83894,-2.27712 0.83894,-2.27712"
       id="path3031"
       inkscape:connector-curvature="0"
       sodipodi:nodetypes="caaac" />
    <path
       style="fill:none;stroke:#000000;stroke-width:2;stroke-linecap:round;stroke-linejoin:round;stroke-miterlimit:4;stroke-opacity:1;stroke-dasharray:none"
       d="m 294.9959,510.19857 c 1.43631,0.36619 2.24844,0.58087 3.16571,1.24812 0.94495,0.68739 1.95286,1.57109 2.22749,2.70688 0.22099,0.91396 -0.0695,1.97962 -0.59925,2.75652 -0.32458,0.47604 -0.86228,0.94153 -1.43818,0.95879 -0.55475,0.0166 -1.214,-0.33124 -1.43818,-0.83894 -0.23106,-0.52325 -0.0161,-1.24656 0.35954,-1.67788 0.61423,-0.7052 2.63667,-0.95879 2.63667,-0.95879"
       id="path3033"
       inkscape:connector-curvature="0"
       sodipodi:nodetypes="caaaaaac" />
    <path
       style="fill:none;stroke:#000000;stroke-width:2;stroke-linecap:round;stroke-linejoin:round;stroke-miterlimit:4;stroke-opacity:1;stroke-dasharray:none"
       d="m 342.8155,523.38191 c -1.66811,0.0696 -2.58043,0.16842 -3.7153,0.7191 -1.04478,0.50697 -2.0175,1.29466 -2.63667,2.27712 -0.48572,0.7707 -0.82259,1.73158 -0.7191,2.63667 0.067,0.58603 0.33255,1.25556 0.83894,1.55803 0.51446,0.30728 1.26792,0.27999 1.79773,0 0.53828,-0.28446 0.95476,-0.90473 1.029,-1.50901 0.0644,-0.52456 -0.24037,-1.05861 -0.5496,-1.4872 -0.29935,-0.41489 -0.79611,-0.64283 -1.19849,-0.95879 -0.25424,-0.19964 -0.76811,-0.59198 -0.76811,-0.59198"
       id="path3035"
       inkscape:connector-curvature="0"
       sodipodi:nodetypes="caaaaaaaac" />
    <path
       style="fill:none;stroke:#000000;stroke-width:2;stroke-linecap:round;stroke-linejoin:round;stroke-miterlimit:4;stroke-opacity:1;stroke-dasharray:none"
       d="m 221.40885,569.64348 c 2.27713,-0.7191 3.62913,-1.17316 5.51304,-1.31834 1.4786,-0.11394 3.00378,-0.031 4.4344,0.35955 1.49956,0.40942 3.18495,0.8556 4.1947,2.03742 0.6239,0.73022 1.06196,1.82232 0.83894,2.75652 -0.30836,1.29169 -1.56258,2.29496 -2.75652,2.87637 -1.08289,0.52734 -2.48973,0.83713 -3.59546,0.35954 -0.60151,-0.2598 -1.00388,-0.93238 -1.19848,-1.55803 -0.22575,-0.72579 0.0251,-1.52296 0.11985,-2.27712 0.17776,-1.4148 0.83894,-4.1947 0.83894,-4.1947"
       id="path3037"
       inkscape:connector-curvature="0"
       sodipodi:nodetypes="caaaaaaaac" />
    <path
       style="fill:none;stroke:#000000;stroke-width:2;stroke-linecap:round;stroke-linejoin:round;stroke-miterlimit:4;stroke-opacity:1;stroke-dasharray:none"
       d="m 245.73812,605.47822 c -0.39577,-1.55855 -0.39523,-3.12566 0.11985,-4.55425 0.28619,-0.79375 0.79469,-1.64309 1.56352,-1.99072 1.16666,-0.52751 2.62878,-0.21501 3.83516,0.21394 1.20686,0.42912 2.36057,1.50618 3.11057,2.25618"
       id="path3039"
       inkscape:connector-curvature="0"
       sodipodi:nodetypes="caaac" />
    <path
       style="fill:none;stroke:#000000;stroke-width:2;stroke-linecap:round;stroke-linejoin:round;stroke-miterlimit:4;stroke-opacity:1;stroke-dasharray:none"
       d="m 240.70448,595.05139 c 0.12019,-1.27163 0.22842,-2.05515 0.69848,-2.94951 0.37592,-0.71523 0.91523,-1.4135 1.62603,-1.79773 0.76855,-0.41545 2.05803,-0.59375 2.58928,-0.40625"
       id="path3041"
       inkscape:connector-curvature="0"
       sodipodi:nodetypes="caac" />
    <path
       style="fill:none;stroke:#000000;stroke-width:2;stroke-linecap:round;stroke-linejoin:round;stroke-miterlimit:4;stroke-opacity:1;stroke-dasharray:none"
       d="m 269.70784,588.33987 c 1.31834,0.83292 1.96124,1.12743 2.99622,0.95879 0.73343,-0.11951 1.44357,-0.66506 1.79773,-1.31834 0.34324,-0.63315 0.2658,-1.45202 0.11984,-2.15727 -0.0724,-0.3499 -0.47939,-0.95879 -0.47939,-0.95879"
       id="path3043"
       inkscape:connector-curvature="0"
       sodipodi:nodetypes="caaac" />
    <path
       style="fill:none;stroke:#000000;stroke-width:2;stroke-linecap:round;stroke-linejoin:round;stroke-miterlimit:4;stroke-opacity:1;stroke-dasharray:none"
       d="m 280.01482,582.46729 c -0.27479,2.12217 -0.47224,2.61548 -1.43818,3.35576 -0.67264,0.5155 -1.69926,0.58266 -2.51682,0.35954 -0.74033,-0.20204 -1.79773,-1.43818 -1.79773,-1.43818"
       id="path3045"
       inkscape:connector-curvature="0"
       sodipodi:nodetypes="caac" />
    <path
       style="fill:none;stroke:#000000;stroke-width:2;stroke-linecap:round;stroke-linejoin:round;stroke-miterlimit:4;stroke-opacity:1;stroke-dasharray:none"
       d="m 256.88404,590.01775 c 0.42266,-0.46422 1.30698,-1.12282 2.09623,-1.42376 0.88525,-0.33756 2.40876,-0.35187 2.81756,-0.37397"
       id="path3047"
       inkscape:connector-curvature="0"
       sodipodi:nodetypes="cac" />
    <path
       style="fill:none;stroke:#000000;stroke-width:2;stroke-linecap:round;stroke-linejoin:round;stroke-miterlimit:4;stroke-opacity:1;stroke-dasharray:none"
       d="m 259.64056,593.25366 c 0.71159,-0.0281 1.68502,-0.33547 2.48124,-0.64605 0.60278,-0.23512 1.43598,-0.66564 1.71346,-0.91198"
       id="path3049"
       inkscape:connector-curvature="0"
       sodipodi:nodetypes="cac" />
    <path
       style="fill:none;stroke:#000000;stroke-width:2;stroke-linecap:round;stroke-linejoin:round;stroke-miterlimit:4;stroke-opacity:1;stroke-dasharray:none"
       d="m 263.11617,597.20867 c 0.36521,-0.70913 1.04574,-1.35033 1.67788,-1.91758 0.36294,-0.32568 0.80786,-0.65144 1.19848,-0.83894"
       id="path3051"
       inkscape:connector-curvature="0"
       sodipodi:nodetypes="cac" />
    <path
       style="fill:none;stroke:#000000;stroke-width:2;stroke-linecap:round;stroke-linejoin:round;stroke-miterlimit:4;stroke-opacity:1;stroke-dasharray:none"
       d="m 287.20574,585.10396 c 0.42788,-0.24503 1.11021,-0.57256 1.70398,-0.7555 0.57368,-0.17675 1.49038,-0.32314 1.77163,-0.32314"
       id="path3053"
       inkscape:connector-curvature="0"
       sodipodi:nodetypes="cac" />
    <path
       style="fill:none;stroke:#000000;stroke-width:2;stroke-linecap:round;stroke-linejoin:round;stroke-miterlimit:4;stroke-opacity:1;stroke-dasharray:none"
       d="m 285.76755,580.31001 c 0.66142,-0.34682 1.4225,-0.55963 2.17338,-0.64344 0.83021,-0.0927 2.50072,0.16404 2.50072,0.16404 0,0 -0.64082,-0.0442 0,0"
       id="path3055"
       inkscape:connector-curvature="0"
       sodipodi:nodetypes="cacc" />
    <path
       style="fill:none;stroke:#000000;stroke-width:2;stroke-linecap:round;stroke-linejoin:round;stroke-miterlimit:4;stroke-opacity:1;stroke-dasharray:none"
       d="m 284.56907,576.71454 c 0.3749,-0.7719 0.822,-1.50677 1.42208,-2.10371 0.4815,-0.47898 1.27414,-0.99962 1.69398,-1.1322"
       id="path3057"
       inkscape:connector-curvature="0"
       sodipodi:nodetypes="cac" />
    <path
       style="fill:none;stroke:#000000;stroke-width:2;stroke-linecap:round;stroke-linejoin:round;stroke-miterlimit:4;stroke-opacity:1;stroke-dasharray:none"
       d="m 230.15175,666.83407 c -1.49104,-0.0397 -2.99036,-0.83295 -4.0678,-1.86441 -1.87995,-1.79974 -2.65401,-4.50913 -3.55932,-6.94915 -1.83992,-4.95903 -3.58576,-10.13631 -3.72881,-15.42373 -0.042,-1.55079 0.0756,-3.23057 0.84745,-4.57627 0.81714,-1.4246 2.18156,-2.66971 3.72882,-3.22034 1.86371,-0.66324 4.18165,-0.75186 5.9322,0.16949 2.28998,1.20526 3.46845,3.93251 4.57627,6.27119 2.49903,5.27559 4.09067,11.12016 4.40678,16.94915 0.10514,1.93871 0.35847,4.24106 -0.84746,5.76271 -1.62255,2.04735 -4.67671,2.95093 -7.28813,2.88136 z"
       id="path3059"
       inkscape:connector-curvature="0"
       sodipodi:nodetypes="aaaaaaaaaaa" />
    <path
       style="fill:none;stroke:#000000;stroke-width:2;stroke-linecap:round;stroke-linejoin:round;stroke-miterlimit:4;stroke-opacity:1;stroke-dasharray:none"
       d="m 220.99921,652.2578 c 2.37288,1.35593 3.10903,1.23882 4.74576,1.52542 1.5592,0.27303 3.24295,0.66671 4.74576,0.16949 1.37379,-0.45453 2.43318,-1.62617 3.38983,-2.71186 0.78792,-0.8942 1.86441,-3.05085 1.86441,-3.05085"
       id="path3061"
       inkscape:connector-curvature="0"
       sodipodi:nodetypes="caaac" />
    <path
       style="fill:none;stroke:#000000;stroke-width:2;stroke-linecap:round;stroke-linejoin:round;stroke-miterlimit:4;stroke-opacity:1;stroke-dasharray:none"
       d="m 271.50768,744.96966 c -2.09646,0.0118 -0.32808,-4.38074 -1.52542,-6.10169 -2.22848,-3.20303 -6.75376,-4.0076 -9.66102,-6.61017 -2.38791,-2.13765 -5.12306,-4.29591 -6.27119,-7.28814 -0.911,-2.37422 -0.64932,-5.1298 -0.16949,-7.62712 0.46333,-2.41141 1.1353,-5.05315 2.88136,-6.77966 1.47718,-1.46063 3.68789,-2.26994 5.76271,-2.37288 1.76737,-0.0877 3.66852,0.46449 5.08475,1.52542 1.07859,0.80799 0.86369,3.53617 2.20339,3.38983 1.91943,-0.20967 0.74201,-3.98873 2.03389,-5.42373 1.43692,-1.59612 3.61536,-2.91561 5.76272,-2.88135 2.37594,0.0379 4.7556,1.55966 6.27118,3.38983 1.66383,2.00919 2.39075,4.84901 2.37288,7.45763 -0.0208,3.03714 -1.56819,5.9054 -2.88135,8.64406 -1.3077,2.72727 -3.08805,5.21686 -4.91526,7.62712 -1.59579,2.105 -4.03607,3.58836 -5.25423,5.93221 -1.12487,2.16435 0.74425,7.10494 -1.69492,7.11864 z"
       id="path3063"
       inkscape:connector-curvature="0"
       sodipodi:nodetypes="aaaaaaaaaaaaaaaaa" />
    <path
       sodipodi:type="arc"
       style="fill:#000000;fill-opacity:1;stroke:#000000;stroke-width:2.00016499;stroke-linecap:round;stroke-linejoin:round;stroke-miterlimit:4;stroke-opacity:1;stroke-dasharray:none"
       id="path3065"
       sodipodi:cx="242.18407"
       sodipodi:cy="320.87311"
       sodipodi:rx="2.187237"
       sodipodi:ry="2.187237"
       d="m 244.3713,320.87311 a 2.187237,2.187237 0 1 1 -4.37447,0 2.187237,2.187237 0 1 1 4.37447,0 z"
       transform="matrix(0.64769822,0,0,0.64769822,197.82709,413.95568)" />
    <path
       sodipodi:type="arc"
       style="fill:#000000;fill-opacity:1;stroke:#000000;stroke-width:1.58800006;stroke-linecap:round;stroke-linejoin:round;stroke-miterlimit:4;stroke-opacity:1;stroke-dasharray:none"
       id="path3835"
       sodipodi:cx="160.68703"
       sodipodi:cy="283.63016"
       sodipodi:rx="0.71909165"
       sodipodi:ry="0.71909165"
       d="m 161.40612,283.63016 a 0.71909165,0.71909165 0 1 1 -1.43818,0 0.71909165,0.71909165 0 1 1 1.43818,0 z"
       transform="translate(113.00579,300.42511)" />
    <path
       sodipodi:type="arc"
       style="fill:#000000;fill-opacity:1;stroke:#000000;stroke-width:1.58800006;stroke-linecap:round;stroke-linejoin:round;stroke-miterlimit:4;stroke-opacity:1;stroke-dasharray:none"
       id="path3839"
       sodipodi:cx="200.01059"
       sodipodi:cy="234.54449"
       sodipodi:rx="0.47669491"
       sodipodi:ry="0.47669491"
       d="m 200.48728,234.54449 a 0.47669491,0.47669491 0 1 1 -0.95339,0 0.47669491,0.47669491 0 1 1 0.95339,0 z"
       transform="translate(111.88904,300.18152)" />
    <g
       id="g3898"
       transform="matrix(0.94982915,0.31276923,-0.31276923,0.94982915,246.65333,210.9469)">
      <path
         sodipodi:nodetypes="aaaaaaaaaaaaaaaaaaaaaaaaa"
         inkscape:connector-curvature="0"
         id="path3841"
         d="m 324.91526,371.94915 c -0.51583,1.5574 -0.44257,3.28549 -0.25424,4.91525 0.25657,2.22026 0.75575,4.49999 1.86441,6.44068 1.02097,1.7872 2.50771,3.3757 4.23728,4.49153 2.3346,1.50616 5.11395,2.46619 7.88135,2.71186 2.56288,0.22751 5.25474,-0.19053 7.62713,-1.18644 1.7868,-0.75009 3.32479,-2.07107 4.66101,-3.47458 0.53363,-0.56051 0.81536,-1.3196 1.29455,-1.9273 0.4578,-0.58056 0.84142,-1.3001 1.50207,-1.63202 0.25981,-0.13053 0.57678,-0.0901 0.86754,-0.0908 0.30554,-7.8e-4 0.60714,0.10936 0.91212,0.0908 1.11445,-0.0678 2.30358,-0.17142 3.26822,-0.73363 1.08854,-0.63443 2.03414,-1.64612 2.53811,-2.80086 0.66747,-1.52939 0.69693,-3.33938 0.43401,-4.98723 -0.14389,-0.90186 -0.51283,-1.80039 -1.07511,-2.52005 -0.66806,-0.85504 -1.58281,-1.57599 -2.59627,-1.96369 -0.82655,-0.3162 -1.76269,-0.16226 -2.64573,-0.22062 -0.53885,-0.0356 -1.14593,0.18299 -1.61815,-0.079 -0.35168,-0.19511 -0.44985,-0.66705 -0.68777,-0.99131 -0.37099,-0.50562 -0.68691,-1.06697 -1.1527,-1.48689 -1.14325,-1.03065 -2.45111,-1.98426 -3.92224,-2.43706 -2.6211,-0.80675 -5.48713,-0.56386 -8.22034,-0.33898 -2.76076,0.22714 -5.55743,0.68175 -8.13559,1.69491 -1.47443,0.57942 -2.92295,1.36266 -4.0678,2.45764 -1.17769,1.12638 -2.19948,2.52081 -2.71186,4.06779 z"
         style="fill:none;stroke:#000000;stroke-width:2;stroke-linecap:round;stroke-linejoin:round;stroke-miterlimit:4;stroke-opacity:1;stroke-dasharray:none" />
      <path
         sodipodi:nodetypes="caaac"
         inkscape:connector-curvature="0"
         id="path3843"
         d="m 329.40678,372.11864 c 1.61017,1.01695 3.35775,1.61894 5.16949,1.94915 2.27884,0.41535 4.64741,0.26009 6.94915,0 2.39007,-0.27007 4.77689,-0.77872 7.0339,-1.61017 0.68765,-0.25333 1.94916,-1.01695 1.94916,-1.01695"
         style="fill:none;stroke:#000000;stroke-width:2;stroke-linecap:round;stroke-linejoin:round;stroke-miterlimit:4;stroke-opacity:1;stroke-dasharray:none" />
      <path
         sodipodi:nodetypes="caaaaaaac"
         inkscape:connector-curvature="0"
         id="path3845"
         d="m 333.05085,373.47457 c 1.35593,-0.67796 2.52489,-0.75209 3.81356,-1.01695 1.34222,-0.27587 3.37081,0.58655 4.06779,-0.59322 0.36829,-0.62341 -0.81084,-1.31143 -0.76271,-2.0339 0.0596,-0.89533 0.42805,-2.06584 1.27119,-2.37288 1.28646,-0.46849 2.61161,0.86985 3.81356,1.52543 1.36938,0.7469 2.32765,2.2374 3.81356,2.71186 0.0538,0.0172 0.14787,-0.0522 0.16949,0 0.0153,0.0369 -0.0847,0.0847 -0.0847,0.0847"
         style="fill:none;stroke:#000000;stroke-width:2;stroke-linecap:round;stroke-linejoin:round;stroke-miterlimit:4;stroke-opacity:1;stroke-dasharray:none" />
      <path
         sodipodi:nodetypes="aaaaa"
         inkscape:connector-curvature="0"
         id="path3847"
         d="m 357.20341,375.97458 c 0,0.89876 -0.45718,2.33051 -1.35594,2.33051 -0.89875,0 -1.35593,-1.43176 -1.35593,-2.33051 0,-0.89875 0.45718,-2.33051 1.35593,-2.33051 0.89876,0 1.35594,1.43175 1.35594,2.33051 z"
         style="fill:none;stroke:#000000;stroke-width:2;stroke-linecap:round;stroke-linejoin:round;stroke-miterlimit:4;stroke-opacity:1" />
    </g>
    <path
       style="fill:none;stroke:#000000;stroke-width:2;stroke-linecap:round;stroke-linejoin:round;stroke-miterlimit:4;stroke-opacity:1;stroke-dasharray:none"
       d="m 425.2365,660.73237 c 0.33899,2.0339 2.31091,3.33755 2.71187,4.0678 0.30834,0.56158 -3.84927,1.32138 -5.17678,2.75654 -1.40961,1.52392 -2.43798,3.63283 -2.49041,5.70807 -0.0494,1.95382 0.69255,4.09944 2.07032,5.48565 1.40898,1.41761 3.63171,1.78674 5.59687,2.15143 0.22219,0.0412 0.6695,-0.22583 0.67796,0 0.0101,0.2698 -2.52322,2.22243 -3.34611,3.65451 -0.95309,1.65869 -1.7739,3.56803 -1.70536,5.47982 0.0705,1.96521 0.85176,4.0176 2.15191,5.49294 1.30239,1.47788 3.27455,2.3611 5.1877,2.83036 1.36374,0.3345 2.86661,0.32523 4.21179,-0.0775 0.71382,-0.21369 1.81592,-1.3009 1.88991,-1.19373 0.13056,0.18911 -1.71447,3.4719 -1.69492,5.33899 0.0226,2.16028 0.62594,4.54629 2.08999,6.13496 1.61426,1.75166 4.19102,2.54791 6.55408,2.84809 2.32662,0.29555 4.95127,0.1267 6.94915,-1.1017 1.60291,-0.98556 2.55256,-2.85164 3.30509,-4.57627 0.28803,-0.6601 0.26785,-2.11099 0.42372,-2.11864 0.2122,-0.0104 1.41002,2.64085 2.54238,3.55932 1.14945,0.93233 2.61643,1.48982 4.06779,1.77966 1.52384,0.30432 3.12863,0.17305 4.66102,-0.0848 1.34783,-0.22679 2.73811,-0.54868 3.89831,-1.27118 1.2718,-0.792 2.47879,-1.87374 3.13559,-3.22034 0.54992,-1.12748 0.67691,-2.48573 0.50847,-3.72881 -0.11555,-0.85275 -0.53451,-1.6603 -1.01695,-2.37289 -0.22397,-0.33081 -0.93184,-0.67943 -0.84745,-0.84745 0.0709,-0.1411 4.19136,0.36828 6.10169,-0.33894 1.56837,-0.58063 2.94754,-1.73758 3.98305,-3.05084 0.86133,-1.09235 1.42924,-2.44808 1.69492,-3.81356 0.3185,-1.63693 0.22183,-3.37894 -0.16949,-5 -0.24908,-1.03185 -0.70089,-2.0461 -1.35594,-2.88136 -0.471,-0.60057 -1.11421,-1.06691 -1.77966,-1.44068 -0.36614,-0.20566 -1.25896,-0.25097 -1.18644,-0.42373 0.0858,-0.20449 3.18492,-0.44653 4.57627,-1.18644 1.23145,-0.65488 2.41205,-1.57842 3.13512,-2.77111 0.89149,-1.47051 1.19683,-3.28823 1.24156,-5.00729 0.0451,-1.73191 -0.31591,-3.50564 -0.98685,-5.10295 -0.55836,-1.32928 -1.37842,-2.60325 -2.45762,-3.55932 -0.95526,-0.84627 -2.17551,-1.38711 -3.38983,-1.77967 -0.57019,-0.18433 -1.72693,-0.0565 -1.77966,-0.25423 -0.0571,-0.21415 1.61166,-1.56263 2.11864,-2.54238 0.56788,-1.09745 0.89033,-2.34811 0.95406,-3.58214 0.0628,-1.21576 -0.0583,-2.50318 -0.57137,-3.60716 -0.62676,-1.34866 -1.69909,-2.52311 -2.91826,-3.37477 -1.27155,-0.88825 -2.81139,-1.46801 -4.35214,-1.6466 -1.10381,-0.12794 -2.25346,0.0762 -3.30508,0.43514 -1.16685,0.3983 -3.07711,1.91059 -3.19704,1.86028 -0.19662,-0.0825 -0.13965,-2.76808 -0.69253,-4.00491 -0.62839,-1.40575 -1.56049,-2.807 -2.86679,-3.62221 -1.71255,-1.06874 -3.90068,-1.38364 -5.91715,-1.2894 -1.63513,0.0764 -3.29153,0.62109 -4.67972,1.48852 -1.21334,0.75817 -2.25152,1.86436 -2.96246,3.10597 -0.40876,0.71387 -0.67796,2.37288 -0.67796,2.37288"
       id="path3849"
       inkscape:connector-curvature="0"
       sodipodi:nodetypes="csaaaasaaaaasaaaaasaaaaaaasaaaaaasaaaaaasaaaaaasaaaaac" />
    <path
       style="fill:none;stroke:#000000;stroke-width:2;stroke-linecap:round;stroke-linejoin:round;stroke-miterlimit:4;stroke-opacity:1;stroke-dasharray:none"
       d="m 436.59244,644.1222 c 5.08474,-0.84746 5.21393,-1.04533 7.79661,-0.67796 1.85933,0.26448 3.88964,0.74356 5.25423,2.03389 0.24067,0.22758 0.40996,0.90519 0.40996,0.90519"
       id="path3851"
       inkscape:connector-curvature="0"
       sodipodi:nodetypes="caac" />
    <path
       style="fill:none;stroke:#000000;stroke-width:2;stroke-linecap:round;stroke-linejoin:round;stroke-miterlimit:4;stroke-opacity:1;stroke-dasharray:none"
       d="m 368.58295,519.06736 c 1.95442,0.577 4.17529,0.51321 6.11228,-0.11984 2.18072,-0.71271 4.24422,-2.12879 5.63289,-3.95501 1.15488,-1.51877 1.734,-3.49406 1.91757,-5.39319 0.15547,-1.60836 -0.18407,-3.26923 -0.71909,-4.79394 -0.47417,-1.35129 -1.07651,-2.77575 -2.15727,-3.71531 -1.39968,-1.2168 -3.30432,-1.95497 -5.1535,-2.09735 -1.98539,-0.15287 -4.10168,0.35956 -5.81265,1.37826 -1.95696,1.16517 -3.52628,3.06119 -4.55425,5.09357 -0.92122,1.82133 -1.32005,3.95232 -1.2584,5.99243 0.0457,1.5112 0.31728,3.14593 1.19848,4.37447 1.1237,1.56662 2.94489,2.69002 4.79394,3.23591 z"
       id="path3888"
       inkscape:connector-curvature="0"
       sodipodi:nodetypes="aaaaaaaaaaaa" />
    <path
       style="fill:none;stroke:#000000;stroke-width:2;stroke-linecap:round;stroke-linejoin:round;stroke-miterlimit:4;stroke-opacity:1;stroke-dasharray:none"
       d="m 367.26462,515.47191 c 2.51682,-0.95879 3.04092,-0.99123 4.25463,-1.9775 1.29595,-1.05312 2.27498,-2.50882 2.99621,-4.01493 0.58798,-1.22784 0.92538,-2.59684 1.01871,-3.95501 0.0717,-1.04312 -0.15531,-2.09062 -0.35954,-3.11606 -0.0568,-0.28524 -0.2397,-0.83894 -0.2397,-0.83894"
       id="path3890"
       inkscape:connector-curvature="0"
       sodipodi:nodetypes="caaaac" />
    <path
       style="fill:none;stroke:#000000;stroke-width:2;stroke-linecap:round;stroke-linejoin:round;stroke-miterlimit:4;stroke-opacity:1;stroke-dasharray:none"
       d="m 366.66537,507.8016 c 1.55804,0.11984 2.69328,0.35488 4.01493,0.65916 1.15783,0.26657 3.41569,1.01872 3.41569,1.01872"
       id="path3892"
       inkscape:connector-curvature="0"
       sodipodi:nodetypes="cac" />
    <path
       style="fill:none;stroke:#000000;stroke-width:2;stroke-linecap:round;stroke-linejoin:round;stroke-miterlimit:4;stroke-opacity:1;stroke-dasharray:none"
       d="m 351.20491,519.9063 c -0.0726,-0.19357 -3.20983,-1.61328 -4.13478,-3.05613 -1.00214,-1.56327 -1.4941,-3.63057 -1.13856,-5.45311 0.33626,-1.7237 1.59934,-3.23572 2.93628,-4.37448 1.05462,-0.8983 3.81774,-1.29746 3.77524,-1.73781 -0.0388,-0.40253 -2.25648,-2.63426 -2.6966,-4.25462 -0.45578,-1.67804 -0.37707,-3.56615 0.17978,-5.21342 0.54135,-1.60141 1.61717,-3.07765 2.93628,-4.13477 1.16665,-0.93493 2.64804,-1.58045 4.13478,-1.73781 1.496,-0.15834 3.07838,0.18757 4.4344,0.83894 0.664,0.31895 1.67788,1.43819 1.67788,1.43819 l 0,0 c 0,0 -0.8572,-2.70252 -0.71909,-4.07486 0.14188,-1.40982 0.67959,-2.84322 1.55803,-3.955 0.99624,-1.26087 2.42191,-2.27497 3.95501,-2.75652 1.44832,-0.45492 3.06018,-0.26896 4.55425,0 1.8039,0.32473 3.82079,0.65924 5.15349,1.91758 0.64532,0.60932 0.7877,1.59669 1.07011,2.43809 0.38756,1.15469 0.40101,3.19361 0.84746,3.55434 0.44308,0.358 2.23152,-1.81961 3.54406,-2.35938 1.40904,-0.57946 2.97142,-1.04336 4.4858,-0.87653 1.38699,0.15279 2.82005,0.72047 3.83516,1.67788 0.89682,0.84585 1.49015,2.07743 1.67788,3.29583 0.16652,1.08077 -0.25298,2.18056 -0.53932,3.23592 -0.30793,1.13493 -0.61881,2.30901 -1.25841,3.29583 -0.2151,0.33187 -0.93985,0.45655 -0.83894,0.83894 0.0884,0.33492 3.05582,-0.16319 4.37447,0.4794 1.02853,0.50122 1.83325,1.46125 2.39697,2.45689 0.58007,1.02451 0.90584,2.23838 0.89887,3.41569 -0.007,1.20179 -0.38895,2.41748 -0.95879,3.47561 -0.40272,0.74779 -0.98074,1.43243 -1.67789,1.91757 -0.73688,0.51281 -1.64422,0.74774 -2.51681,0.9588 -0.35162,0.085 -0.91117,-0.20082 -1.07864,0.11984 -0.11181,0.21408 2.25632,2.00711 2.81644,3.35576 0.43075,1.03715 0.4804,2.24738 0.29962,3.35577 -0.22462,1.37718 -0.73501,2.80653 -1.67788,3.83515 -0.67648,0.738 -1.67638,1.15514 -2.63667,1.43819 -1.03746,0.3058 -2.15524,0.28438 -3.23591,0.23969 -0.76779,-0.0317 -1.96383,-1.06122 -2.27712,-0.35954 -0.21984,0.49238 1.35,2.34729 1.55803,3.65538 0.1795,1.12875 0.089,2.34085 -0.29962,3.41569 -0.51246,1.41733 -1.47847,2.68319 -2.57675,3.7153 -0.64655,0.6076 -1.4451,1.07009 -2.27712,1.37826 -1.59513,0.5908 -3.33281,0.81328 -5.03364,0.83894 -1.63262,0.0246 -3.33471,-0.0607 -4.85387,-0.65917 -0.93331,-0.36769 -1.77349,-1.00349 -2.4569,-1.7378 -0.68381,-0.73475 -1.15339,-1.6582 -1.55803,-2.57675 -0.28538,-0.64783 -0.34145,-2.12362 -0.59924,-2.03742 -0.43362,0.145 -2.65854,3.19926 -4.49432,4.01492 -1.70741,0.75863 -3.73606,0.94071 -5.57296,0.59925 -1.58974,-0.29551 -3.08536,-1.16663 -4.31455,-2.2172 -0.97795,-0.83584 -1.81864,-1.91406 -2.27713,-3.11606 -0.3648,-0.95638 -0.33321,-2.0331 -0.29962,-3.05614 0.0605,-1.84125 0.9779,-5.24244 0.89887,-5.45312 z"
       id="path3894"
       inkscape:connector-curvature="0"
       sodipodi:nodetypes="saaasaaaaaaaaaaaaasaaaaaasaaaaaasaaaaasaaaaaaaasaaaaas" />
    <path
       style="fill:none;stroke:#000000;stroke-width:2;stroke-linecap:round;stroke-linejoin:round;stroke-miterlimit:4;stroke-opacity:1;stroke-dasharray:none"
       d="m 215.50768,662.50144 c 0.19375,0.28633 -3.00075,4.099 -3.625,6.5 -0.73392,2.82282 -0.97705,6.00185 0,8.75 0.77388,2.17668 2.34868,4.26557 4.375,5.375 2.24402,1.22862 5.11181,1.35353 7.625,0.875 1.59365,-0.30344 3.02789,-1.27722 4.29289,-2.29289 0.85609,-0.68735 1.81236,-2.45616 2.14277,-2.5013 0.27052,-0.037 2.15863,2.76483 3.72059,3.35669 2.02618,0.76777 4.38657,0.41532 6.5,-0.0625 1.59098,-0.3597 3.14486,-1.06768 4.4375,-2.0625 1.47127,-1.13229 2.77176,-2.60153 3.5625,-4.28125 0.45597,-0.96858 0.52788,-2.08774 0.59375,-3.15625 0.10211,-1.65638 0.018,-3.34247 -0.3125,-4.96875 -0.18026,-0.887 -0.99357,-2.21534 -0.90089,-2.56158 0.0988,-0.36913 3.07161,0.10733 4.46339,-0.43842 1.61955,-0.63507 3.20017,-1.70292 4.15625,-3.15625 1.09692,-1.66742 1.44845,-3.81666 1.4375,-5.8125 -0.008,-1.49567 -0.39456,-3.03855 -1.125,-4.34375 -0.58643,-1.04788 -1.51259,-1.91039 -2.5,-2.59375 -1.08196,-0.7488 -2.37919,-1.13907 -3.625,-1.5625 -0.7224,-0.24553 -2.03353,-0.33337 -2.21875,-0.5625 -0.21697,-0.26841 1.80806,-1.54519 2.375,-2.5625 0.70492,-1.2649 1.13287,-2.73962 1.15625,-4.1875 0.0208,-1.28582 -0.20014,-2.67522 -0.90625,-3.75 -0.60857,-0.92631 -1.65054,-1.53421 -2.65625,-2 -1.20157,-0.5565 -2.55324,-0.79483 -3.875,-0.875 -0.82561,-0.0501 -2.37169,0.62168 -2.46875,0.25 -0.0892,-0.34162 1.48682,-1.73484 1.90705,-2.77581 0.44184,-1.0945 0.81212,-2.33477 0.58302,-3.49264 -0.24403,-1.23333 -1.13113,-2.28618 -1.99096,-3.20343 -0.68065,-0.72611 -1.50225,-1.37324 -2.42884,-1.73651 -1.20283,-0.47157 -2.55635,-0.58327 -3.84489,-0.48928 -0.8396,0.0612 -1.65107,0.3659 -2.43251,0.67899 -0.46494,0.18629 -1.13374,0.83381 -1.32583,0.70711 -0.22104,-0.14579 -1.61071,-2.41883 -2.69585,-3.35875 -0.78871,-0.68315 -1.70491,-1.26419 -2.69585,-1.591 -1.6176,-0.53348 -3.39648,-0.77361 -5.08232,-0.53033 -1.8764,0.27078 -3.75559,1.0107 -5.25911,2.16553 -1.17533,0.90275 -2.15846,2.15436 -2.69584,3.53552 -0.413,1.06148 -0.40739,2.26819 -0.30937,3.40296 0.0683,0.79036 0.76925,1.98465 0.61872,2.29809 -0.17533,0.36509 -2.679,-0.86893 -4.06585,-0.88388 -1.77092,-0.0191 -3.60321,0.28236 -5.21492,1.01647 -1.85306,0.84404 -3.62814,2.10348 -4.81716,3.75651 -1.45008,2.01597 -2.28346,4.55093 -2.47488,7.02686 -0.13629,1.763 0.18717,3.63051 0.97228,5.21492 0.65293,1.31766 1.73706,2.45521 2.96101,3.27037 0.84538,0.56304 1.87315,0.83548 2.87262,1.01646 0.79739,0.14439 1.63136,0.17754 2.43068,0.0442 0.17007,-0.0284 0.44323,-0.34379 0.48613,-0.17678 0.11321,0.44066 -2.61606,2.57128 -3.49134,4.15425 -0.86115,1.55741 -1.54745,3.30486 -1.63518,5.08233 -0.0654,1.32462 0.21667,2.7183 0.83969,3.88909 0.48943,0.91976 1.28219,1.7014 2.16551,2.2539 0.85314,0.53362 1.87009,0.84136 2.87262,0.92808 1.05233,0.091 2.16621,-0.0276 3.13779,-0.44194 1.55574,-0.66351 3.85768,-3.32973 3.98858,-3.13629 z"
       id="path3896"
       inkscape:connector-curvature="0"
       sodipodi:nodetypes="saaaaasaaaaaasaaaaaasaaaaasaaaaaasaaaaaasaaaaaaaasaaaaaas" />
    <path
       sodipodi:type="arc"
       style="fill:none;stroke:#000000;stroke-width:2;stroke-linecap:round;stroke-linejoin:round;stroke-miterlimit:4;stroke-opacity:1;stroke-dasharray:none"
       id="path3904"
       sodipodi:cx="351.125"
       sodipodi:cy="261.9375"
       sodipodi:rx="7.75"
       sodipodi:ry="8.0625"
       d="m 358.875,261.9375 a 7.75,8.0625 0 1 1 -15.5,0 7.75,8.0625 0 1 1 15.5,0 z"
       transform="translate(112.88268,300.37644)" />
    <path
       transform="translate(111.50768,299.37644)"
       sodipodi:type="arc"
       style="fill:none;stroke:#000000;stroke-width:2;stroke-linecap:round;stroke-linejoin:round;stroke-miterlimit:4;stroke-opacity:1;stroke-dasharray:none"
       id="path3906"
       sodipodi:cx="344.5625"
       sodipodi:cy="248.5"
       sodipodi:rx="3.5625"
       sodipodi:ry="3.625"
       d="m 348.125,248.5 a 3.5625,3.625 0 1 1 -7.125,0 3.5625,3.625 0 1 1 7.125,0 z" />
    <path
       transform="translate(111.50768,299.37644)"
       sodipodi:type="arc"
       style="fill:none;stroke:#000000;stroke-width:2;stroke-linecap:round;stroke-linejoin:round;stroke-miterlimit:4;stroke-opacity:1;stroke-dasharray:none"
       id="path3908"
       sodipodi:cx="367.3125"
       sodipodi:cy="251.6875"
       sodipodi:rx="5.4375"
       sodipodi:ry="4.3125"
       d="m 372.75,251.6875 a 5.4375,4.3125 0 1 1 -10.875,0 5.4375,4.3125 0 1 1 10.875,0 z" />
    <path
       transform="translate(111.50768,299.37644)"
       sodipodi:type="arc"
       style="fill:none;stroke:#000000;stroke-width:2;stroke-linecap:round;stroke-linejoin:round;stroke-miterlimit:4;stroke-opacity:1;stroke-dasharray:none"
       id="path3910"
       sodipodi:cx="304.25"
       sodipodi:cy="213.5"
       sodipodi:rx="2.5"
       sodipodi:ry="2.75"
       d="m 306.75,213.5 a 2.5,2.75 0 1 1 -5,0 2.5,2.75 0 1 1 5,0 z" />
    <path
       style="fill:none;stroke:#000000;stroke-width:2;stroke-linecap:round;stroke-linejoin:round;stroke-miterlimit:4;stroke-opacity:1;stroke-dasharray:none"
       d="m 420.63269,508.50143 c 0.53125,-1.29688 1.38231,-2.31888 2.23438,-3.35938 0.714,-0.8719 1.875,-2.10937 2.39062,-2.39062"
       id="path3912"
       inkscape:connector-curvature="0"
       sodipodi:nodetypes="cac" />
    <path
       style="fill:none;stroke:#000000;stroke-width:2;stroke-linecap:round;stroke-linejoin:round;stroke-miterlimit:4;stroke-opacity:1;stroke-dasharray:none"
       d="m 411.63269,505.87643 c -0.60938,-0.70313 -0.96496,-1.69872 -1.25,-2.625 -0.32238,-1.0476 -0.54687,-2.48438 -0.5,-3.25"
       id="path3914"
       inkscape:connector-curvature="0"
       sodipodi:nodetypes="cac" />
    <path
       style="fill:none;stroke:#000000;stroke-width:2;stroke-linecap:round;stroke-linejoin:round;stroke-miterlimit:4;stroke-opacity:1;stroke-dasharray:none"
       d="m 401.00769,514.25143 c 1.17188,-0.95313 2.82637,-1.47706 4.375,-1.625 1.5138,-0.14462 3.95313,0.57813 4.5,0.75"
       id="path3916"
       inkscape:connector-curvature="0"
       sodipodi:nodetypes="cac" />
    <path
       style="fill:none;stroke:#000000;stroke-width:2;stroke-linecap:round;stroke-linejoin:round;stroke-miterlimit:4;stroke-opacity:1;stroke-dasharray:none"
       d="m 412.75769,519.50143 c -0.34375,0.75 -0.62753,1.76516 -0.67187,2.6875 -0.0455,0.94689 0.1875,2.17188 0.42187,2.8125"
       id="path3918"
       inkscape:connector-curvature="0"
       sodipodi:nodetypes="cac" />
    <path
       style="fill:none;stroke:#000000;stroke-width:2;stroke-linecap:round;stroke-linejoin:round;stroke-miterlimit:4;stroke-opacity:1;stroke-dasharray:none"
       d="m 419.00769,517.37643 c 1.25162,0.5222 2.12442,0.83186 3.16031,1.30806 1.04922,0.48233 2.33969,1.17632 3.08969,1.56694"
       id="path3920"
       inkscape:connector-curvature="0"
       sodipodi:nodetypes="cac" />
    <path
       sodipodi:type="arc"
       style="fill:none;stroke:#000000;stroke-width:2;stroke-linecap:round;stroke-linejoin:round;stroke-miterlimit:4;stroke-opacity:1;stroke-dasharray:none"
       id="path3922"
       sodipodi:cx="136.4716"
       sodipodi:cy="231.38068"
       sodipodi:rx="7.4246211"
       sodipodi:ry="7.8665628"
       d="m 143.89622,231.38068 a 7.4246211,7.8665628 0 1 1 -14.84924,0 7.4246211,7.8665628 0 1 1 14.84924,0 z"
       transform="translate(113.629,301.32098)" />
    <path
       transform="translate(111.50768,299.37644)"
       sodipodi:type="arc"
       style="fill:none;stroke:#000000;stroke-width:2;stroke-linecap:round;stroke-linejoin:round;stroke-miterlimit:4;stroke-opacity:1;stroke-dasharray:none"
       id="path3926"
       sodipodi:cx="125.06951"
       sodipodi:cy="220.68568"
       sodipodi:rx="3.2703688"
       sodipodi:ry="3.3587573"
       d="m 128.33988,220.68568 a 3.2703688,3.3587573 0 1 1 -6.54074,0 3.2703688,3.3587573 0 1 1 6.54074,0 z" />
    <path
       transform="translate(111.50768,299.37644)"
       sodipodi:type="arc"
       style="fill:none;stroke:#000000;stroke-width:2;stroke-linecap:round;stroke-linejoin:round;stroke-miterlimit:4;stroke-opacity:1;stroke-dasharray:none"
       id="path3928"
       sodipodi:cx="146.72466"
       sodipodi:cy="222.18828"
       sodipodi:rx="3.7123106"
       sodipodi:ry="2.7400389"
       d="m 150.43697,222.18828 a 3.7123106,2.7400389 0 1 1 -7.42463,0 3.7123106,2.7400389 0 1 1 7.42463,0 z" />
    <path
       transform="translate(111.50768,299.37644)"
       sodipodi:type="arc"
       style="fill:none;stroke:#000000;stroke-width:2;stroke-linecap:round;stroke-linejoin:round;stroke-miterlimit:4;stroke-opacity:1;stroke-dasharray:none"
       id="path3930"
       sodipodi:cx="102.3125"
       sodipodi:cy="293.71875"
       sodipodi:rx="2.8125"
       sodipodi:ry="2.71875"
       d="m 105.125,293.71875 a 2.8125,2.71875 0 1 1 -5.625,0 2.8125,2.71875 0 1 1 5.625,0 z" />
    <path
       transform="translate(111.50768,299.37644)"
       sodipodi:type="arc"
       style="fill:none;stroke:#000000;stroke-width:2;stroke-linecap:round;stroke-linejoin:round;stroke-miterlimit:4;stroke-opacity:1;stroke-dasharray:none"
       id="path3932"
       sodipodi:cx="339.38916"
       sodipodi:cy="312.78635"
       sodipodi:rx="2.8505242"
       sodipodi:ry="2.2539029"
       d="m 342.23968,312.78635 a 2.8505242,2.2539029 0 1 1 -5.70104,0 2.8505242,2.2539029 0 1 1 5.70104,0 z" />
    <path
       transform="translate(111.50768,299.37644)"
       sodipodi:type="arc"
       style="fill:none;stroke:#000000;stroke-width:2;stroke-linecap:round;stroke-linejoin:round;stroke-miterlimit:4;stroke-opacity:1;stroke-dasharray:none"
       id="path3934"
       sodipodi:cx="209.41409"
       sodipodi:cy="206.30048"
       sodipodi:rx="2.6737475"
       sodipodi:ry="2.2318058"
       d="m 212.08784,206.30048 a 2.6737475,2.2318058 0 1 1 -5.34749,0 2.6737475,2.2318058 0 1 1 5.34749,0 z" />
    <path
       style="fill:none;stroke:#000000;stroke-width:2;stroke-linecap:round;stroke-linejoin:round;stroke-miterlimit:4;stroke-opacity:1;stroke-dasharray:none"
       d="m 212.44717,607.52239 c 0,0 -0.0522,-1.25141 -0.44194,-1.67938 -0.86608,-0.95101 -2.3679,-1.60318 -3.62392,-1.32582 -1.60711,0.35489 -2.82752,1.98531 -3.49134,3.49134 -0.52934,1.20093 -0.59328,2.68871 -0.17677,3.93328 0.45492,1.35939 1.44027,2.70998 2.74004,3.31456 1.44263,0.67102 3.24916,0.41348 4.77296,-0.0442 1.4284,-0.42902 2.89587,-1.21261 3.75651,-2.43068 0.73403,-1.03887 1.26529,-2.49881 0.88388,-3.71231 -0.27219,-0.86598 -1.16809,-1.5362 -2.03293,-1.81196 -0.76257,-0.24315 -2.13087,0.55892 -2.38649,0.26517 z"
       id="path3936"
       inkscape:connector-curvature="0"
       sodipodi:nodetypes="saaaaaaaaas" />
    <path
       style="fill:none;stroke:#000000;stroke-width:2;stroke-linecap:round;stroke-linejoin:round;stroke-miterlimit:4;stroke-opacity:1;stroke-dasharray:none"
       d="m 302.24974,729.36573 c -0.55324,-0.71249 0.58138,-6.81237 0.0884,-10.16466 -0.70912,-4.82198 -1.70699,-9.8582 -4.33103,-13.96536 -2.86393,-4.48263 -7.13899,-8.21338 -11.84405,-10.69499 -4.34235,-2.29031 -9.42008,-3.12614 -14.31891,-3.44715 -3.07463,-0.20147 -6.20448,0.21974 -9.19239,0.97227 -4.90765,1.23603 -9.86982,2.89786 -14.05374,5.74525 -3.97949,2.70826 -7.45888,6.33408 -9.98789,10.42982 -2.35011,3.80601 -3.7593,8.2295 -4.5078,12.63954 -0.77898,4.58957 -0.69611,9.37672 0.0884,13.96535 0.59354,3.47163 1.53179,7.03223 3.44714,9.98789 2.10842,3.25359 5.23074,5.84801 8.48528,7.95495 5.06634,3.27987 10.78522,5.80929 16.7054,6.98267 6.3004,1.24875 12.99284,1.27854 19.26866,-0.0884 6.2231,-1.35545 12.19842,-4.20903 17.41252,-7.86656 3.73551,-2.62036 6.46866,-6.44203 9.54594,-9.81111 2.1983,-2.40675 4.32434,-4.882 6.36396,-7.42462 0.92178,-1.14911 1.9279,-2.25244 2.65165,-3.53553 0.85074,-1.50822 1.53346,-3.13506 1.94454,-4.81717 0.43916,-1.79701 0.5014,-3.67461 0.53033,-5.52427 0.0143,-0.91514 0.10216,-2.64519 -0.17678,-2.74004 -0.35971,-0.12231 -1.96179,2.68664 -3.182,3.8007 -2.32976,2.12708 -4.9413,4.01168 -7.77817,5.39169 -2.24594,1.09254 -6.7038,2.79653 -7.15946,2.20971 z"
       id="path3938"
       inkscape:connector-curvature="0"
       sodipodi:nodetypes="saaaaaaaaaaaaaaaaaaasaas" />
    <path
       style="fill:none;stroke:#000000;stroke-width:2;stroke-linecap:round;stroke-linejoin:round;stroke-miterlimit:4;stroke-opacity:1;stroke-dasharray:none"
       d="m 335.61635,494.69465 c -1.41407,0 -2.66149,-0.45868 -3.8228,0.0663 -1.126,0.50901 -2.08498,1.57504 -2.49697,2.74004 -0.33211,0.93912 -0.37371,2.15293 0.17678,2.98311 0.77186,1.16403 2.3604,1.89673 3.7565,1.85616 0.86391,-0.0251 1.68902,-0.62752 2.2539,-1.28164 0.37191,-0.43066 0.41368,-1.6012 0.61872,-1.59099 0.13862,0.007 0.76317,1.3888 1.43631,1.70148 0.86174,0.40029 2.03315,0.48449 2.85053,0 0.76561,-0.45381 1.24348,-1.45311 1.28163,-2.34229 0.029,-0.67546 -0.38942,-1.33295 -0.8176,-1.85616 -0.34815,-0.42542 -1.38231,-0.76312 -1.34792,-0.95017 0.0428,-0.23288 1.86557,-0.475 2.54117,-1.10485 0.58315,-0.54367 1.11189,-1.32409 1.10485,-2.12132 -0.0102,-1.15684 -0.78653,-2.28771 -1.65728,-3.0494 -0.57555,-0.50347 -1.38066,-0.76332 -2.14342,-0.81759 -0.86624,-0.0616 -1.78892,0.14057 -2.54117,0.57452 -0.58241,0.33598 -1.05831,0.88474 -1.37002,1.4805 -0.28607,0.54677 -0.42286,1.19104 -0.39932,1.80767 0.0253,0.66281 0.57611,1.90464 0.57611,1.90464 z"
       id="path3940"
       inkscape:connector-curvature="0"
       sodipodi:nodetypes="saaaaasaaaasaaaaaaas" />
    <path
       style="fill:none;stroke:#000000;stroke-width:2;stroke-linecap:round;stroke-linejoin:round;stroke-miterlimit:4;stroke-opacity:1;stroke-dasharray:none"
       d="m 458.44519,625.37644 c -0.10785,-0.63429 1.24439,-1.69873 1.0625,-2.625 -0.21859,-1.11315 -1.28112,-2.13696 -2.375,-2.4375 -0.85277,-0.2343 -1.89867,0.10316 -2.5625,0.6875 -0.65921,0.58027 -0.91585,1.56332 -1,2.4375 -0.0916,0.95167 0.97331,2.23659 0.5625,2.8125 -0.30059,0.42139 -1.22872,1.38483 -1.4375,2.25 -0.30928,1.28165 -0.4458,2.90572 0.375,3.9375 0.69724,0.87647 2.07194,1.16182 3.1875,1.0625 1.04005,-0.0926 2.08005,-0.6991 2.75,-1.5 0.71859,-0.85905 0.99661,-2.06947 1.0625,-3.1875 0.0363,-0.61589 -0.11789,-1.25167 -0.375,-1.8125 -0.28479,-0.62121 -1.13545,-0.95129 -1.25,-1.625 z"
       id="path3942"
       inkscape:connector-curvature="0"
       sodipodi:nodetypes="saaaasaaaaaas" />
  </g>
</svg>
