<?xml version="1.0" encoding="UTF-8" standalone="no"?>
<!-- Created with Inkscape (http://www.inkscape.org/) -->

<svg
   xmlns:dc="http://purl.org/dc/elements/1.1/"
   xmlns:cc="http://creativecommons.org/ns#"
   xmlns:rdf="http://www.w3.org/1999/02/22-rdf-syntax-ns#"
   xmlns:svg="http://www.w3.org/2000/svg"
   xmlns="http://www.w3.org/2000/svg"
   xmlns:sodipodi="http://sodipodi.sourceforge.net/DTD/sodipodi-0.dtd"
   xmlns:inkscape="http://www.inkscape.org/namespaces/inkscape"
   width="744.09448819"
   height="1052.3622047"
   id="svg4027"
   version="1.1"
   inkscape:version="0.48.4 r9939"
   sodipodi:docname="mewtropic2_orig.svg">
  <defs
     id="defs4029" />
  <sodipodi:namedview
     id="base"
     pagecolor="#ffffff"
     bordercolor="#666666"
     borderopacity="1.0"
     inkscape:pageopacity="0.0"
     inkscape:pageshadow="2"
     inkscape:zoom="0.49497475"
     inkscape:cx="453.22205"
     inkscape:cy="522.98198"
     inkscape:document-units="px"
     inkscape:current-layer="layer1"
     showgrid="false"
     inkscape:window-width="1297"
     inkscape:window-height="752"
     inkscape:window-x="137"
     inkscape:window-y="27"
     inkscape:window-maximized="0" />
  <metadata
     id="metadata4032">
    <rdf:RDF>
      <cc:Work
         rdf:about="">
        <dc:format>image/svg+xml</dc:format>
        <dc:type
           rdf:resource="http://purl.org/dc/dcmitype/StillImage" />
        <dc:title></dc:title>
      </cc:Work>
    </rdf:RDF>
  </metadata>
  <g
     inkscape:label="Layer 1"
     inkscape:groupmode="layer"
     id="layer1">
    <path
       style="fill:none;stroke:#000000;stroke-width:4.71144819;stroke-linecap:round;stroke-linejoin:round;stroke-miterlimit:4;stroke-opacity:1;stroke-dasharray:none"
       d="m 408.95888,731.4035 c 2.39565,4.79129 3.83402,9.66615 4.39204,14.77317 1.01451,9.28491 -0.20448,18.78259 -1.99639,27.94928 -1.15457,5.90683 -4.53024,11.24419 -5.58985,17.16883 -1.1959,6.68679 -4.51344,14.67594 -0.79853,20.36305 2.18962,3.35204 7.27879,5.2941 11.1797,4.39202 6.3326,-1.46444 10.51083,-8.44577 13.17607,-14.37391 3.18224,-7.07806 2.05286,-15.40504 2.39565,-23.15796 0.39984,-9.04237 0.55883,-18.15036 -0.39926,-27.15073 -0.431,-4.04894 -1.99443,-7.92623 -2.39566,-11.97825 -0.0656,-0.66222 0,-1.99637 0,-1.99637"
       id="path2987"
       inkscape:connector-curvature="0"
       sodipodi:nodetypes="caaaaaaaaac" />
    <path
       style="fill:none;stroke:#000000;stroke-width:4.71144819;stroke-linecap:round;stroke-linejoin:round;stroke-miterlimit:4;stroke-opacity:1;stroke-dasharray:none"
       d="m 468.05163,773.32741 c -2.79492,-5.58988 -3.8512,-8.66349 -7.58623,-11.17973 -3.16082,-2.12939 -7.75546,-4.06888 -11.1797,-2.39566 -4.11811,2.01228 -5.03287,7.89496 -5.98914,12.37755 -0.91679,4.29733 -1.1744,9.0735 0.39928,13.17608 0.81173,2.11613 3.87833,2.98311 4.39202,5.19057 0.24875,1.06895 0.0278,2.47199 -0.79854,3.19421 -1.81495,1.58618 -5.23341,-0.61341 -7.18697,0.79856 -2.84773,2.0583 -4.66972,6.07986 -4.392,9.58259 0.18963,2.39184 1.89943,4.81653 3.99273,5.98915 6.04244,3.3848 13.97324,2.16836 20.76232,0.79854 10.79769,-2.17859 20.0053,-9.22839 29.94562,-13.97462 11.49486,-5.48849 24.04764,-9.2616 34.33771,-16.76958 10.87393,-7.93398 21.91574,-17.11434 27.94926,-29.14709 6.16884,-12.30265 6.38577,-26.96935 6.78768,-40.72609 0.32834,-11.2389 0.95722,-23.2575 -3.59349,-33.5391 -3.24322,-7.32753 -9.11691,-13.81618 -15.97101,-17.9674 -6.10189,-3.69564 -13.64765,-5.71239 -20.76232,-5.19058 -9.04644,0.66353 -18.58271,4.12877 -25.15432,10.38117 -3.8388,3.65231 -6.08371,9.1222 -6.78769,14.37389 -0.61048,4.5543 0.53932,9.37198 2.39565,13.57537 2.37674,5.38173 7.48576,9.10049 10.78042,13.97464 4.41007,6.52427 9.40585,12.92011 11.97827,20.36304 2.28113,6.6001 3.89351,13.86606 2.79494,20.7623 -0.67425,4.23253 -2.36103,8.76058 -5.58986,11.57899 -4.21714,3.68112 -10.37805,5.42239 -15.971,5.19058 -4.47011,-0.18515 -9.47494,-1.78601 -12.37755,-5.19058 -6.22001,-7.29564 -4.31081,-18.68751 -6.78768,-27.94928 -2.32851,-8.70698 -3.56582,-17.8863 -7.58624,-25.95289 -3.77584,-7.57586 -9.79973,-13.82202 -15.17245,-20.36302 -5.92115,-7.20873 -14.62912,-12.40093 -18.76594,-20.76232 -2.58137,-5.2175 -5.3438,-11.75914 -3.1942,-17.16885 2.25113,-5.66525 9.06283,-8.64633 14.7732,-10.78043 11.76132,-4.3955 25.41086,0.0815 37.53187,-3.19419 19.48277,-5.26536 38.42765,-14.01597 54.7007,-25.95289 16.2504,-11.92031 30.73467,-27.05105 41.12537,-44.31957 14.38786,-23.91149 23.52482,-51.44185 27.54998,-79.0565 2.09466,-14.37041 0.14228,-29.15709 -1.99635,-43.52101 -1.98235,-13.31394 -9.82235,-25.66922 -9.98189,-39.12898 -0.16185,-13.65574 6.90953,-26.46151 9.18331,-39.92754 2.25132,-13.33303 4.45035,-26.80517 4.39204,-40.32682 -0.0393,-9.11258 0.89326,-19.0062 -3.1942,-27.15072 -3.04049,-6.05837 -8.52393,-11.34873 -14.7732,-13.97462 -9.70024,-4.076 -21.13421,-2.73774 -31.54274,-1.19784 -12.5325,1.85412 -24.23119,7.52704 -35.93478,12.37754 -11.49242,4.763 -22.23794,11.16976 -33.53911,16.37029 -8.82687,4.06191 -17.26774,9.4643 -26.75147,11.57899 -4.2887,0.9563 -8.7823,0.35183 -13.17607,0.39927 -15.30523,0.16537 -30.61239,-0.63868 -45.91665,-0.39927 -9.98864,0.15619 -20.37873,4.0738 -29.94566,1.19781 -3.92643,-1.18035 -8.43539,-3.38979 -9.98188,-7.18696 -2.03858,-5.00537 1.35228,-10.76255 2.79494,-15.97101 1.48448,-5.35945 3.86648,-10.43149 5.98913,-15.57174 2.38808,-5.78303 6.1415,-11.08117 7.58624,-17.16882 0.6154,-2.59312 1.79837,-5.71713 0.39926,-7.9855 -2.59643,-4.20961 -8.7161,-5.06729 -13.57534,-5.98915 -9.68416,-1.83723 -19.73422,2.13563 -29.5464,1.19784 -4.6276,-0.44229 -9.22552,-1.5543 -13.57536,-3.19419 -4.23419,-1.59632 -7.64527,-5.08382 -11.97824,-6.38843 -5.37673,-1.61887 -11.39194,0.0189 -16.76958,-1.59707 -6.78547,-2.03894 -12.45407,-6.76316 -18.76593,-9.98189 -5.67381,-2.89338 -10.82452,-7.82504 -17.16888,-8.38478 -4.82585,-0.42577 -10.39571,0.72752 -13.97461,3.99274 -5.16722,4.71427 -5.8752,12.78239 -7.58624,19.5645 -1.8374,7.28293 -0.89581,15.09233 -2.79491,22.3594 -1.96219,7.50835 -3.43263,15.94055 -8.78406,21.56086 -7.39071,7.76205 -19.27661,9.39863 -29.14709,13.57538 -14.43203,6.10698 -29.9681,9.63406 -43.9203,16.76956 -9.07083,4.63903 -16.18163,12.77376 -25.55361,16.76955 -6.02892,2.57044 -12.78894,2.87603 -19.1652,4.39203 -9.201471,2.18768 -19.182549,2.3788 -27.550015,6.7877 -5.837652,3.0759 -11.746251,7.31286 -14.773174,13.17607 -3.31716,6.42545 -3.906828,14.48936 -2.395651,21.56086 1.097163,5.13404 4.499958,9.64942 7.985507,13.57536 5.107463,5.7528 12.82887,8.63483 18.366664,13.97465 6.194934,5.97347 11.52065,12.85456 16.370279,19.96378 4.29804,6.30062 7.61,13.22373 11.17971,19.96377 6.96444,13.1497 11.1453,27.94201 19.96377,39.92752 5.68992,7.73339 12.97695,14.34515 20.76232,19.96378 9.26873,6.68914 21.80374,8.37478 30.3449,15.971 12.30294,10.94184 18.86052,26.99726 27.94928,40.72606 8.19299,12.37573 13.26284,27.23968 23.9565,37.53189 15.55833,14.97422 35.8037,24.83596 55.89858,32.74057 13.07115,5.14172 27.17183,7.57372 41.12534,9.18334 13.22216,1.52526 26.72572,-1.29299 39.92756,0.39928 7.07586,0.90702 15.08125,0.87591 20.76231,5.19057 5.36372,4.07364 8.41901,11.01664 9.98186,17.56809 1.91695,8.03587 -0.004,16.58049 -1.19781,24.7551 -1.4464,9.9016 -5.76789,19.24153 -7.18697,29.14708 -1.32238,9.23074 -1.1078,18.62473 -1.19781,27.94927 -0.10926,11.31543 2.47966,22.74806 0.79854,33.93841 -0.37514,2.4972 -1.3912,4.87008 -2.39565,7.18694 -1.44498,3.33294 -4.36347,6.04533 -5.19059,9.58262 -0.81875,3.5015 -1.69569,7.85777 0.39928,10.78043 1.74246,2.43086 5.40707,3.47441 8.38477,3.19418 2.02263,-0.19034 5.19059,-3.19418 5.19059,-3.19418"
       id="path2989"
       inkscape:connector-curvature="0"
       sodipodi:nodetypes="caaaaaaaaaaaaaaaaaaaaaaaaaaaaaaaaaaaaaaaaaaaaaaaaaaaaaaaaaaaaaaaaaaaaaaaaaaaaaaaaaaaaaaaaaaaaaac" />
    <path
       style="fill:none;stroke:#000000;stroke-width:4.71144819;stroke-linecap:round;stroke-linejoin:round;stroke-miterlimit:4;stroke-opacity:1;stroke-dasharray:none"
       d="m 428.12411,804.47086 c 6.78767,1.99637 4.42278,1.99056 6.78767,2.39565 0.13126,0.0236 0.39926,0 0.39926,0"
       id="path2991"
       inkscape:connector-curvature="0"
       sodipodi:nodetypes="cac" />
    <path
       style="fill:none;stroke:#000000;stroke-width:4.71144819;stroke-linecap:round;stroke-linejoin:round;stroke-miterlimit:4;stroke-opacity:1;stroke-dasharray:none"
       d="m 228.08715,527.97273 c 1.29765,-6.28856 3.15643,-9.5728 6.28859,-13.37572 2.64857,-3.21574 6.16571,-5.96501 10.0817,-7.3866 3.4161,-1.24009 7.37635,-1.66314 10.88027,-0.69872 3.34571,0.92084 6.31603,3.26326 8.58444,5.88929 2.16616,2.50769 3.52004,4.57133 5.09075,6.98735 1.08875,1.67468 2.3699,4.09739 2.99457,5.19056"
       id="path2993"
       inkscape:connector-curvature="0"
       sodipodi:nodetypes="caaasac" />
    <path
       style="fill:none;stroke:#000000;stroke-width:4.71144819;stroke-linecap:round;stroke-linejoin:round;stroke-miterlimit:4;stroke-opacity:1;stroke-dasharray:none"
       d="m 221.8984,478.4626 c 1.4146,-3.17456 2.69872,-5.06597 4.59168,-7.18695 1.88883,-2.11638 4.0907,-4.05358 6.60631,-5.36448 1.52896,-0.79675 3.82744,-1.3191 4.97265,-1.42321"
       id="path2995"
       inkscape:connector-curvature="0"
       sodipodi:nodetypes="caac" />
    <path
       style="fill:none;stroke:#000000;stroke-width:4.71144819;stroke-linecap:round;stroke-linejoin:round;stroke-miterlimit:4;stroke-opacity:1;stroke-dasharray:none"
       d="m 321.91687,482.45536 c 3.39386,-0.79855 6.23775,-1.01935 9.38297,-0.9982 1.67557,0.0114 4.99096,0.59892 4.99096,0.59892"
       id="path2997"
       inkscape:connector-curvature="0"
       sodipodi:nodetypes="cac" />
    <path
       style="fill:none;stroke:#000000;stroke-width:4.71144819;stroke-linecap:round;stroke-linejoin:round;stroke-miterlimit:4;stroke-opacity:1;stroke-dasharray:none"
       d="m 325.2422,504.33522 c 5.58986,-1.79673 5.91892,-1.86434 8.98368,-1.99637 1.00609,-0.0433 2.99458,0.39929 2.99458,0.39929"
       id="path2999"
       inkscape:connector-curvature="0"
       sodipodi:nodetypes="cac" />
    <path
       style="fill:none;stroke:#000000;stroke-width:4.71144819;stroke-linecap:round;stroke-linejoin:round;stroke-miterlimit:4;stroke-opacity:1;stroke-dasharray:none"
       d="m 327.50673,527.37384 c 5.58984,-2.19603 5.85618,-2.20695 8.38477,-3.99278 0.92245,-0.65149 2.39566,-2.39564 2.39566,-2.39564 l 0,0 0,0 0,0"
       id="path3001"
       inkscape:connector-curvature="0"
       sodipodi:nodetypes="caaaac" />
    <path
       style="fill:none;stroke:#000000;stroke-width:4.71144819;stroke-linecap:round;stroke-linejoin:round;stroke-miterlimit:4;stroke-opacity:1;stroke-dasharray:none"
       d="m 378.0031,500.62886 c 2.11745,4.5173 3.06965,6.3029 5.92892,7.97583 1.76064,1.03014 4.05158,1.07066 6.07011,0.77642 1.55305,-0.22638 3.31163,-0.69105 4.30553,-1.90573 1.31224,-1.60373 1.15745,-4.0061 1.34107,-6.07011 0.10435,-1.17268 -0.14118,-3.52912 -0.14118,-3.52912"
       id="path3003"
       inkscape:connector-curvature="0"
       sodipodi:nodetypes="caaaac" />
    <path
       style="fill:none;stroke:#000000;stroke-width:4.71144819;stroke-linecap:round;stroke-linejoin:round;stroke-miterlimit:4;stroke-opacity:1;stroke-dasharray:none"
       d="m 415.05894,497.6644 c -0.91757,4.16437 -1.36503,6.13127 -3.45856,8.25815 -1.44119,1.46417 -3.6059,2.23314 -5.6466,2.4704 -1.94814,0.22663 -4.02099,-0.20729 -5.78776,-1.05872 -1.32189,-0.6371 -2.57999,-1.62521 -3.3174,-2.89389 -1.07355,-1.847 -1.27047,-6.28185 -1.27047,-6.28185"
       id="path3005"
       inkscape:connector-curvature="0"
       sodipodi:nodetypes="caaaac" />
    <path
       style="fill:none;stroke:#000000;stroke-width:4.71144819;stroke-linecap:round;stroke-linejoin:round;stroke-miterlimit:4;stroke-opacity:1;stroke-dasharray:none"
       d="m 524.17959,498.08789 c 0.29527,-4.64104 1.52003,-8.32798 4.23495,-11.29319 3.38261,-3.69447 8.58864,-5.81717 13.55185,-6.4936 4.26196,-0.58086 8.89091,0.26982 12.70486,2.25863 3.18629,1.66152 5.52178,4.70774 7.62292,7.62292 2.09176,2.90215 4.13705,7.16991 4.7996,9.59924"
       id="path3007"
       inkscape:connector-curvature="0"
       sodipodi:nodetypes="caaaac" />
    <path
       style="fill:none;stroke:#000000;stroke-width:4.71144819;stroke-linecap:round;stroke-linejoin:round;stroke-miterlimit:4;stroke-opacity:1;stroke-dasharray:none"
       d="m 548.74232,442.18651 c 2.48189,-0.33086 5.01724,-0.35105 7.43926,0.18445 2.71493,0.60027 5.37386,1.72941 7.6488,3.32808 1.85838,1.30595 3.9389,3.92676 4.67506,4.95739"
       id="path3009"
       inkscape:connector-curvature="0"
       sodipodi:nodetypes="caac" />
    <path
       style="fill:none;stroke:#000000;stroke-width:4.71144819;stroke-linecap:round;stroke-linejoin:round;stroke-miterlimit:4;stroke-opacity:1;stroke-dasharray:none"
       d="m 460.65527,480.58343 c 6.49359,-3.10562 7.58023,-3.47169 11.2932,-5.36427 1.05058,-0.53551 3.10565,-1.69398 3.10565,-1.69398"
       id="path3011"
       inkscape:connector-curvature="0"
       sodipodi:nodetypes="cac" />
    <path
       style="fill:none;stroke:#000000;stroke-width:4.71144819;stroke-linecap:round;stroke-linejoin:round;stroke-miterlimit:4;stroke-opacity:1;stroke-dasharray:none"
       d="m 464.89023,494.41759 c 5.08192,0 6.77494,0.23534 10.16389,0.28235 0.8469,0.0114 2.54098,0 2.54098,0 l 0,0 0,0"
       id="path3013"
       inkscape:connector-curvature="0"
       sodipodi:nodetypes="caaac" />
    <path
       style="fill:none;stroke:#000000;stroke-width:4.71144819;stroke-linecap:round;stroke-linejoin:round;stroke-miterlimit:4;stroke-opacity:1;stroke-dasharray:none"
       d="m 468.27818,511.63976 c 5.6466,2.82329 4.76614,2.90604 7.3406,3.95262 1.26938,0.51606 3.95262,1.12932 3.95262,1.12932 l 0,0"
       id="path3015"
       inkscape:connector-curvature="0"
       sodipodi:nodetypes="caac" />
    <path
       style="fill:none;stroke:#000000;stroke-width:4.71144819;stroke-linecap:round;stroke-linejoin:round;stroke-miterlimit:4;stroke-opacity:1;stroke-dasharray:none"
       d="m 481.54772,380.07384 c 4.43926,5.92213 11.29537,10.07604 14.68116,16.65749 3.04939,5.92752 4.83013,12.82226 4.51729,19.48079 -0.22356,4.7564 -1.44506,9.91394 -4.51729,13.55186 -2.0645,2.44463 -5.31225,3.99993 -8.46989,4.51728 -3.38952,0.55537 -7.08229,-0.17714 -10.16389,-1.69397 -3.34558,-1.64684 -6.73499,-4.18855 -8.18759,-7.62294 -1.76004,-4.16137 -0.42031,-9.08855 0.28234,-13.55183 0.76396,-4.85295 3.24785,-9.30401 4.23493,-14.11652 0.83737,-4.08252 1.33587,-8.25576 1.41167,-12.42257 0.0668,-3.68049 -0.3052,-7.36982 -0.847,-11.01086 -5.57838,-21.75973 5.08049,3.33636 7.05827,6.21127 z"
       id="path3017"
       inkscape:connector-curvature="0"
       sodipodi:nodetypes="caaaaaaaaacc" />
    <path
       style="fill:none;stroke:#000000;stroke-width:4.71144819;stroke-linecap:round;stroke-linejoin:round;stroke-miterlimit:4;stroke-opacity:1;stroke-dasharray:none"
       d="m 567.65844,306.66796 c -5.49661,3.77262 -8.79186,5.72489 -12.54252,9.34689 -5.36839,5.18421 -10.60686,10.82575 -13.99653,17.47449 -2.74799,5.39011 -5.97272,11.56911 -4.7996,17.50447 0.50735,2.56686 2.43266,5.096 4.7996,6.21127 2.64051,1.24416 6.10221,0.94141 8.75224,-0.28233 2.54033,-1.17308 4.74559,-3.5622 5.64661,-6.21127 0.93291,-2.74286 0.44787,-6.00776 -0.71287,-8.66223 -1.14201,-2.61163 -3.69824,-4.35501 -5.78074,-6.30129 -1.76103,-1.64581 -5.6466,-4.51727 -5.6466,-4.51727"
       id="path3019"
       inkscape:connector-curvature="0"
       sodipodi:nodetypes="caaaaaaaac" />
    <path
       style="fill:none;stroke:#000000;stroke-width:4.71144819;stroke-linecap:round;stroke-linejoin:round;stroke-miterlimit:4;stroke-opacity:1;stroke-dasharray:none"
       d="m 269.23534,392.77868 c -0.65465,-3.08798 -0.47073,-5.18188 0.50293,-7.48526 1.35744,-3.21134 3.7768,-6.43723 6.99647,-7.77469 2.96363,-1.23109 6.59415,-0.59574 9.61513,0.48702 2.57806,0.92403 6.60124,4.89138 6.60124,4.89138"
       id="path3021"
       inkscape:connector-curvature="0"
       sodipodi:nodetypes="caaac" />
    <path
       style="fill:none;stroke:#000000;stroke-width:4.71144819;stroke-linecap:round;stroke-linejoin:round;stroke-miterlimit:4;stroke-opacity:1;stroke-dasharray:none"
       d="m 269.80001,349.29983 c 2.24099,-1.79807 4.32794,-2.09395 6.67007,-2.43687 2.5536,-0.37387 4.70961,-0.47642 7.72878,0.46057"
       id="path3023"
       inkscape:connector-curvature="0"
       sodipodi:nodetypes="cac" />
    <path
       style="fill:none;stroke:#000000;stroke-width:4.71144819;stroke-linecap:round;stroke-linejoin:round;stroke-miterlimit:4;stroke-opacity:1;stroke-dasharray:none"
       d="m 240.71997,288.3165 c 1.694,-4.79962 2.50919,-6.64274 5.33004,-8.3701 2.33805,-1.43171 5.71765,-1.97131 8.18755,-0.78142 1.96493,0.94662 2.9776,3.38312 3.57344,5.48123 0.56578,1.99227 -0.15123,6.21126 -0.15123,6.21126"
       id="path3025"
       inkscape:connector-curvature="0"
       sodipodi:nodetypes="caaac" />
    <path
       style="fill:none;stroke:#000000;stroke-width:4.71144819;stroke-linecap:round;stroke-linejoin:round;stroke-miterlimit:4;stroke-opacity:1;stroke-dasharray:none"
       d="m 321.74877,305.53863 c 2.6614,-2.64887 3.98118,-3.65391 6.46893,-4.4926 2.23935,-0.75498 4.98526,-1.39531 7.08295,-0.307 2.27393,1.17974 3.40794,4.01677 4.1492,6.46892 0.49261,1.62962 0.0858,5.10661 0.0858,5.10661"
       id="path3027"
       inkscape:connector-curvature="0"
       sodipodi:nodetypes="caaac" />
    <path
       style="fill:none;stroke:#000000;stroke-width:4.71144819;stroke-linecap:round;stroke-linejoin:round;stroke-miterlimit:4;stroke-opacity:1;stroke-dasharray:none"
       d="m 280.52856,286.3402 c -1.06668,3.73292 -0.74649,4.5394 0.51328,6.177 1.04664,1.36054 3.13445,1.73109 4.85099,1.72823 2.50059,-0.004 5.40578,-0.66426 7.05828,-2.54097 0.57338,-0.6512 0.56464,-2.54098 0.56464,-2.54098 l 0,0 0.33373,0.59892"
       id="path3029"
       inkscape:connector-curvature="0"
       sodipodi:nodetypes="caaaacc" />
    <path
       style="fill:none;stroke:#000000;stroke-width:4.71144819;stroke-linecap:round;stroke-linejoin:round;stroke-miterlimit:4;stroke-opacity:1;stroke-dasharray:none"
       d="m 305.65595,298.19806 c -2.38977,2.21018 -4.01116,2.14437 -6.21127,2.25863 -1.93751,0.10059 -4.08129,-0.26539 -5.6466,-1.41163 -1.15902,-0.84873 -2.1162,-2.24087 -2.25864,-3.67032 -0.18893,-1.89619 1.97631,-5.36427 1.97631,-5.36427"
       id="path3031"
       inkscape:connector-curvature="0"
       sodipodi:nodetypes="caaac" />
    <path
       style="fill:none;stroke:#000000;stroke-width:4.71144819;stroke-linecap:round;stroke-linejoin:round;stroke-miterlimit:4;stroke-opacity:1;stroke-dasharray:none"
       d="m 254.27184,231.85046 c 3.38355,0.86264 5.2967,1.36835 7.45753,2.94023 2.22604,1.61929 4.6004,3.70104 5.24735,6.37666 0.52059,2.15303 -0.16372,4.66343 -1.41166,6.4936 -0.76462,1.12141 -2.0313,2.21797 -3.38797,2.25865 -1.30683,0.0392 -2.85983,-0.78033 -3.38794,-1.97632 -0.54433,-1.23264 -0.0379,-2.93655 0.84697,-3.95262 1.44696,-1.66127 6.21127,-2.25865 6.21127,-2.25865"
       id="path3033"
       inkscape:connector-curvature="0"
       sodipodi:nodetypes="caaaaaac" />
    <path
       style="fill:none;stroke:#000000;stroke-width:4.71144819;stroke-linecap:round;stroke-linejoin:round;stroke-miterlimit:4;stroke-opacity:1;stroke-dasharray:none"
       d="m 366.92162,262.90676 c -3.92961,0.16396 -6.07878,0.39676 -8.75222,1.694 -2.46121,1.19429 -4.75268,3.04987 -6.21127,5.36427 -1.14421,1.81555 -1.93779,4.07913 -1.694,6.21127 0.15783,1.38053 0.78339,2.95776 1.9763,3.6703 1.21193,0.72386 2.98689,0.65956 4.23497,0 1.26804,-0.67012 2.24915,-2.1313 2.42404,-3.55483 0.1517,-1.23571 -0.56625,-2.49378 -1.29471,-3.50343 -0.70518,-0.97736 -1.87542,-1.51433 -2.82332,-2.25865 -0.59891,-0.47029 -1.80945,-1.39453 -1.80945,-1.39453"
       id="path3035"
       inkscape:connector-curvature="0"
       sodipodi:nodetypes="caaaaaaaac" />
    <path
       style="fill:none;stroke:#000000;stroke-width:4.71144819;stroke-linecap:round;stroke-linejoin:round;stroke-miterlimit:4;stroke-opacity:1;stroke-dasharray:none"
       d="m 80.921044,371.88627 c 5.364283,-1.69401 8.549222,-2.76365 12.987199,-3.10565 3.48318,-0.26842 7.076077,-0.0731 10.446217,0.847 3.53256,0.96449 7.50287,2.01556 9.88157,4.79959 1.46973,1.7202 2.50167,4.29289 1.9763,6.4936 -0.7264,3.04287 -3.681,5.4063 -6.4936,6.77594 -2.55099,1.24227 -5.86511,1.97204 -8.4699,0.84698 -1.417003,-0.61202 -2.364876,-2.19644 -2.823303,-3.6703 -0.531803,-1.70976 0.05917,-3.58766 0.282333,-5.36425 0.418767,-3.33289 1.97632,-9.88156 1.97632,-9.88156"
       id="path3037"
       inkscape:connector-curvature="0"
       sodipodi:nodetypes="caaaaaaaac" />
    <path
       style="fill:none;stroke:#000000;stroke-width:4.71144819;stroke-linecap:round;stroke-linejoin:round;stroke-miterlimit:4;stroke-opacity:1;stroke-dasharray:none"
       d="m 138.23409,456.30302 c -0.93234,-3.67151 -0.93105,-7.3632 0.28233,-10.72855 0.67419,-1.86985 1.87207,-3.87067 3.68322,-4.6896 2.74834,-1.24266 6.19269,-0.5065 9.03458,0.50399 2.84304,1.01089 5.56085,3.54814 7.32765,5.31494"
       id="path3039"
       inkscape:connector-curvature="0"
       sodipodi:nodetypes="caaac" />
    <path
       style="fill:none;stroke:#000000;stroke-width:4.71144819;stroke-linecap:round;stroke-linejoin:round;stroke-miterlimit:4;stroke-opacity:1;stroke-dasharray:none"
       d="m 126.37623,431.74029 c 0.28312,-2.99562 0.53808,-4.84137 1.64543,-6.94824 0.88556,-1.68488 2.15602,-3.3298 3.83047,-4.23494 1.81049,-0.9787 4.84816,-1.39872 6.09963,-0.95702"
       id="path3041"
       inkscape:connector-curvature="0"
       sodipodi:nodetypes="caac" />
    <path
       style="fill:none;stroke:#000000;stroke-width:4.71144819;stroke-linecap:round;stroke-linejoin:round;stroke-miterlimit:4;stroke-opacity:1;stroke-dasharray:none"
       d="m 194.70013,415.92979 c 3.10565,1.96215 4.62014,2.65593 7.05828,2.25865 1.72776,-0.28153 3.40065,-1.5667 4.23495,-3.10565 0.80858,-1.49152 0.62615,-3.42055 0.28231,-5.08192 -0.17055,-0.82427 -1.1293,-2.25864 -1.1293,-2.25864"
       id="path3043"
       inkscape:connector-curvature="0"
       sodipodi:nodetypes="caaac" />
    <path
       style="fill:none;stroke:#000000;stroke-width:4.71144819;stroke-linecap:round;stroke-linejoin:round;stroke-miterlimit:4;stroke-opacity:1;stroke-dasharray:none"
       d="m 218.98054,402.09563 c -0.64733,4.99923 -1.11247,6.16134 -3.38795,7.90524 -1.58456,1.21437 -4.00298,1.37258 -5.92894,0.84698 -1.74401,-0.47595 -4.23495,-3.38795 -4.23495,-3.38795"
       id="path3045"
       inkscape:connector-curvature="0"
       sodipodi:nodetypes="caac" />
    <path
       style="fill:none;stroke:#000000;stroke-width:4.71144819;stroke-linecap:round;stroke-linejoin:round;stroke-miterlimit:4;stroke-opacity:1;stroke-dasharray:none"
       d="m 164.4908,419.88242 c 0.99568,-1.09356 3.07889,-2.64505 4.93814,-3.35399 2.08542,-0.79519 5.67438,-0.82891 6.63739,-0.88097"
       id="path3047"
       inkscape:connector-curvature="0"
       sodipodi:nodetypes="cac" />
    <path
       style="fill:none;stroke:#000000;stroke-width:4.71144819;stroke-linecap:round;stroke-linejoin:round;stroke-miterlimit:4;stroke-opacity:1;stroke-dasharray:none"
       d="m 170.98442,427.50533 c 1.67629,-0.0661 3.96942,-0.79027 5.84511,-1.52192 1.41998,-0.55387 3.38277,-1.56806 4.03643,-2.14837"
       id="path3049"
       inkscape:connector-curvature="0"
       sodipodi:nodetypes="cac" />
    <path
       style="fill:none;stroke:#000000;stroke-width:4.71144819;stroke-linecap:round;stroke-linejoin:round;stroke-miterlimit:4;stroke-opacity:1;stroke-dasharray:none"
       d="m 179.17198,436.82224 c 0.86033,-1.67051 2.46348,-3.181 3.95263,-4.51728 0.85497,-0.76723 1.90308,-1.53462 2.82329,-1.97632"
       id="path3051"
       inkscape:connector-curvature="0"
       sodipodi:nodetypes="cac" />
    <path
       style="fill:none;stroke:#000000;stroke-width:4.71144819;stroke-linecap:round;stroke-linejoin:round;stroke-miterlimit:4;stroke-opacity:1;stroke-dasharray:none"
       d="m 235.92036,408.3069 c 1.00797,-0.57723 2.61535,-1.34881 4.01411,-1.77977 1.35144,-0.41637 3.51093,-0.76122 4.17348,-0.76122"
       id="path3053"
       inkscape:connector-curvature="0"
       sodipodi:nodetypes="cac" />
    <path
       style="fill:none;stroke:#000000;stroke-width:4.71144819;stroke-linecap:round;stroke-linejoin:round;stroke-miterlimit:4;stroke-opacity:1;stroke-dasharray:none"
       d="m 232.53238,397.01366 c 1.55814,-0.81701 3.35102,-1.31834 5.1199,-1.51576 1.95574,-0.21837 5.891,0.38643 5.891,0.38643 0,0 -1.5096,-0.10414 0,0"
       id="path3055"
       inkscape:connector-curvature="0"
       sodipodi:nodetypes="cacc" />
    <path
       style="fill:none;stroke:#000000;stroke-width:4.71144819;stroke-linecap:round;stroke-linejoin:round;stroke-miterlimit:4;stroke-opacity:1;stroke-dasharray:none"
       d="m 229.7091,388.54373 c 0.88315,-1.81838 1.9364,-3.54954 3.35002,-4.95576 1.13428,-1.12835 3.00152,-2.35483 3.99056,-2.66716"
       id="path3057"
       inkscape:connector-curvature="0"
       sodipodi:nodetypes="cac" />
    <path
       style="fill:none;stroke:#000000;stroke-width:4.71144819;stroke-linecap:round;stroke-linejoin:round;stroke-miterlimit:4;stroke-opacity:1;stroke-dasharray:none"
       d="m 101.5169,600.84048 c -3.512481,-0.0935 -7.044459,-1.9622 -9.582617,-4.39204 -4.428641,-4.23968 -6.252105,-10.62226 -8.384778,-16.37027 -4.334335,-11.6821 -8.447055,-23.87835 -8.784047,-36.33406 -0.0989,-3.65324 0.178096,-7.61034 1.996367,-10.78043 1.924949,-3.35596 5.139147,-6.2891 8.784075,-7.58623 4.390386,-1.56241 9.850802,-1.77117 13.97462,0.39928 5.39456,2.83925 8.17071,9.2639 10.78043,14.77319 5.88703,12.42783 9.6365,26.19603 10.38115,39.92751 0.24768,4.56706 0.84446,9.99078 -1.99637,13.57537 -3.82229,4.82299 -11.01704,6.95157 -17.16883,6.78768 z"
       id="path3059"
       inkscape:connector-curvature="0"
       sodipodi:nodetypes="aaaaaaaaaaa" />
    <path
       style="fill:none;stroke:#000000;stroke-width:4.71144819;stroke-linecap:round;stroke-linejoin:round;stroke-miterlimit:4;stroke-opacity:1;stroke-dasharray:none"
       d="m 79.956044,566.50282 c 5.589856,3.19418 7.32401,2.91831 11.179698,3.59346 3.673052,0.64318 7.639505,1.57059 11.179698,0.39927 3.23628,-1.07074 5.7319,-3.8308 7.98551,-6.38839 1.85612,-2.10649 4.39204,-7.18696 4.39204,-7.18696"
       id="path3061"
       inkscape:connector-curvature="0"
       sodipodi:nodetypes="caaac" />
    <path
       style="fill:none;stroke:#000000;stroke-width:4.71144819;stroke-linecap:round;stroke-linejoin:round;stroke-miterlimit:4;stroke-opacity:1;stroke-dasharray:none"
       d="m 198.94006,784.90638 c -4.93867,0.0278 -0.77286,-10.31981 -3.59346,-14.3739 -5.24968,-7.54546 -15.90999,-9.44079 -22.7587,-15.57173 -5.62525,-5.03572 -12.06852,-10.11999 -14.77319,-17.16886 -2.14607,-5.593 -1.52963,-12.08439 -0.39928,-17.96739 1.09148,-5.68061 2.67445,-11.90383 6.7877,-15.971 3.47982,-3.44085 8.68764,-5.34735 13.57535,-5.58985 4.16344,-0.20661 8.64202,1.09421 11.97827,3.59347 2.54086,1.90339 2.03462,8.33023 5.19058,7.98549 4.52165,-0.49391 1.74796,-9.39634 4.79127,-12.7768 3.38499,-3.76003 8.5168,-6.86837 13.57538,-6.78767 5.59707,0.0893 11.20289,3.67413 14.77317,7.98551 3.91953,4.73309 5.63195,11.42292 5.58986,17.56812 -0.049,7.15466 -3.69422,13.91149 -6.78767,20.36302 -3.08059,6.42469 -7.2746,12.28949 -11.57899,17.96739 -3.75924,4.9588 -9.50787,8.45319 -12.37753,13.97465 -2.64987,5.09861 1.75326,16.73727 -3.99276,16.76955 z"
       id="path3063"
       inkscape:connector-curvature="0"
       sodipodi:nodetypes="aaaaaaaaaaaaaaaaa" />
    <path
       sodipodi:type="arc"
       style="fill:#000000;fill-opacity:1;stroke:#000000;stroke-width:2.00016499;stroke-linecap:round;stroke-linejoin:round;stroke-miterlimit:4;stroke-opacity:1;stroke-dasharray:none"
       id="path3065"
       sodipodi:cx="242.18407"
       sodipodi:cy="320.87311"
       sodipodi:rx="2.187237"
       sodipodi:ry="2.187237"
       d="m 244.3713,320.87311 a 2.187237,2.187237 0 1 1 -4.37447,0 2.187237,2.187237 0 1 1 4.37447,0 z"
       transform="matrix(1.5257983,0,0,1.5257983,25.368924,5.1287548)" />
    <path
       sodipodi:type="arc"
       style="fill:#000000;fill-opacity:1;stroke:#000000;stroke-width:1.58800006;stroke-linecap:round;stroke-linejoin:round;stroke-miterlimit:4;stroke-opacity:1;stroke-dasharray:none"
       id="path3835"
       sodipodi:cx="160.68703"
       sodipodi:cy="283.63016"
       sodipodi:rx="0.71909165"
       sodipodi:ry="0.71909165"
       d="m 161.40612,283.63016 a 0.71909165,0.71909165 0 1 1 -1.43818,0 0.71909165,0.71909165 0 1 1 1.43818,0 z"
       transform="matrix(2.3557242,0,0,2.3557242,-174.44667,-262.31795)" />
    <path
       sodipodi:type="arc"
       style="fill:#000000;fill-opacity:1;stroke:#000000;stroke-width:1.58800006;stroke-linecap:round;stroke-linejoin:round;stroke-miterlimit:4;stroke-opacity:1;stroke-dasharray:none"
       id="path3839"
       sodipodi:cx="200.01059"
       sodipodi:cy="234.54449"
       sodipodi:rx="0.47669491"
       sodipodi:ry="0.47669491"
       d="m 200.48728,234.54449 a 0.47669491,0.47669491 0 1 1 -0.95339,0 0.47669491,0.47669491 0 1 1 0.95339,0 z"
       transform="matrix(2.3557242,0,0,2.3557242,-177.07742,-262.89178)" />
    <g
       id="g3898"
       transform="matrix(2.2375355,0.73679803,-0.73679803,2.2375355,140.39007,-473.10393)">
      <path
         sodipodi:nodetypes="aaaaaaaaaaaaaaaaaaaaaaaaa"
         inkscape:connector-curvature="0"
         id="path3841"
         d="m 324.91526,371.94915 c -0.51583,1.5574 -0.44257,3.28549 -0.25424,4.91525 0.25657,2.22026 0.75575,4.49999 1.86441,6.44068 1.02097,1.7872 2.50771,3.3757 4.23728,4.49153 2.3346,1.50616 5.11395,2.46619 7.88135,2.71186 2.56288,0.22751 5.25474,-0.19053 7.62713,-1.18644 1.7868,-0.75009 3.32479,-2.07107 4.66101,-3.47458 0.53363,-0.56051 0.81536,-1.3196 1.29455,-1.9273 0.4578,-0.58056 0.84142,-1.3001 1.50207,-1.63202 0.25981,-0.13053 0.57678,-0.0901 0.86754,-0.0908 0.30554,-7.8e-4 0.60714,0.10936 0.91212,0.0908 1.11445,-0.0678 2.30358,-0.17142 3.26822,-0.73363 1.08854,-0.63443 2.03414,-1.64612 2.53811,-2.80086 0.66747,-1.52939 0.69693,-3.33938 0.43401,-4.98723 -0.14389,-0.90186 -0.51283,-1.80039 -1.07511,-2.52005 -0.66806,-0.85504 -1.58281,-1.57599 -2.59627,-1.96369 -0.82655,-0.3162 -1.76269,-0.16226 -2.64573,-0.22062 -0.53885,-0.0356 -1.14593,0.18299 -1.61815,-0.079 -0.35168,-0.19511 -0.44985,-0.66705 -0.68777,-0.99131 -0.37099,-0.50562 -0.68691,-1.06697 -1.1527,-1.48689 -1.14325,-1.03065 -2.45111,-1.98426 -3.92224,-2.43706 -2.6211,-0.80675 -5.48713,-0.56386 -8.22034,-0.33898 -2.76076,0.22714 -5.55743,0.68175 -8.13559,1.69491 -1.47443,0.57942 -2.92295,1.36266 -4.0678,2.45764 -1.17769,1.12638 -2.19948,2.52081 -2.71186,4.06779 z"
         style="fill:none;stroke:#000000;stroke-width:2;stroke-linecap:round;stroke-linejoin:round;stroke-miterlimit:4;stroke-opacity:1;stroke-dasharray:none" />
      <path
         sodipodi:nodetypes="caaac"
         inkscape:connector-curvature="0"
         id="path3843"
         d="m 329.40678,372.11864 c 1.61017,1.01695 3.35775,1.61894 5.16949,1.94915 2.27884,0.41535 4.64741,0.26009 6.94915,0 2.39007,-0.27007 4.77689,-0.77872 7.0339,-1.61017 0.68765,-0.25333 1.94916,-1.01695 1.94916,-1.01695"
         style="fill:none;stroke:#000000;stroke-width:2;stroke-linecap:round;stroke-linejoin:round;stroke-miterlimit:4;stroke-opacity:1;stroke-dasharray:none" />
      <path
         sodipodi:nodetypes="caaaaaaac"
         inkscape:connector-curvature="0"
         id="path3845"
         d="m 333.05085,373.47457 c 1.35593,-0.67796 2.52489,-0.75209 3.81356,-1.01695 1.34222,-0.27587 3.37081,0.58655 4.06779,-0.59322 0.36829,-0.62341 -0.81084,-1.31143 -0.76271,-2.0339 0.0596,-0.89533 0.42805,-2.06584 1.27119,-2.37288 1.28646,-0.46849 2.61161,0.86985 3.81356,1.52543 1.36938,0.7469 2.32765,2.2374 3.81356,2.71186 0.0538,0.0172 0.14787,-0.0522 0.16949,0 0.0153,0.0369 -0.0847,0.0847 -0.0847,0.0847"
         style="fill:none;stroke:#000000;stroke-width:2;stroke-linecap:round;stroke-linejoin:round;stroke-miterlimit:4;stroke-opacity:1;stroke-dasharray:none" />
      <path
         sodipodi:nodetypes="aaaaa"
         inkscape:connector-curvature="0"
         id="path3847"
         d="m 357.20341,375.97458 c 0,0.89876 -0.45718,2.33051 -1.35594,2.33051 -0.89875,0 -1.35593,-1.43176 -1.35593,-2.33051 0,-0.89875 0.45718,-2.33051 1.35593,-2.33051 0.89876,0 1.35594,1.43175 1.35594,2.33051 z"
         style="fill:none;stroke:#000000;stroke-width:2;stroke-linecap:round;stroke-linejoin:round;stroke-miterlimit:4;stroke-opacity:1" />
    </g>
    <path
       style="fill:none;stroke:#000000;stroke-width:4.71144819;stroke-linecap:round;stroke-linejoin:round;stroke-miterlimit:4;stroke-opacity:1;stroke-dasharray:none"
       d="m 561.08276,586.46656 c 0.79856,4.7913 5.44386,7.86235 6.38841,9.58262 0.72638,1.32292 -9.0678,3.1128 -12.19505,6.49364 -3.32066,3.58994 -5.74322,8.55795 -5.86673,13.44664 -0.11635,4.60266 1.63146,9.65715 4.8771,12.92267 3.31917,3.33952 8.55531,4.20907 13.18468,5.06819 0.52342,0.097 1.57716,-0.532 1.59709,0 0.0238,0.63557 -5.944,5.23542 -7.88251,8.60902 -2.24523,3.90741 -4.17881,8.40529 -4.01736,12.90894 0.16609,4.6295 2.00651,9.46436 5.0693,12.93984 3.06808,3.48148 7.71395,5.56211 12.22081,6.66756 3.21259,0.78798 6.75293,0.76614 9.9218,-0.18258 1.68157,-0.50339 4.27782,-3.06455 4.45211,-2.81209 0.30757,0.44548 -4.03881,8.17884 -3.99276,12.57719 0.0532,5.08903 1.47454,10.7098 4.92344,14.45227 3.80276,4.12643 9.8729,6.00217 15.43961,6.70931 5.48088,0.69624 11.66382,0.29847 16.37028,-2.5953 3.77601,-2.32171 6.01313,-6.71767 7.78587,-10.78043 0.67853,-1.555 0.63099,-4.97291 0.99818,-4.99094 0.49987,-0.0245 3.32161,6.22112 5.98914,8.38478 2.70778,2.19631 6.16359,3.50962 9.58258,4.1924 3.58975,0.7169 7.37021,0.40766 10.98009,-0.19977 3.17511,-0.53425 6.45023,-1.29253 9.18334,-2.99455 2.996,-1.86574 5.83934,-4.41401 7.38659,-7.58624 1.29544,-2.65603 1.59461,-5.85568 1.19781,-8.78404 -0.27221,-2.00884 -1.25916,-3.91122 -2.39565,-5.58987 -0.52762,-0.77931 -2.19516,-1.60055 -1.99637,-1.99637 0.16703,-0.33238 9.8737,0.86757 14.37391,-0.79844 3.69464,-1.36781 6.9436,-4.09326 9.38296,-7.18694 2.02906,-2.57328 3.36689,-5.767 3.99276,-8.98369 0.7503,-3.85617 0.52258,-7.95986 -0.39926,-11.77863 -0.58677,-2.43075 -1.6511,-4.82004 -3.19423,-6.78769 -1.10955,-1.41477 -2.62476,-2.51334 -4.19237,-3.39384 -0.86255,-0.48448 -2.96577,-0.59121 -2.79494,-0.99819 0.20213,-0.48173 7.5028,-1.05189 10.78043,-2.79493 2.90096,-1.54271 5.68213,-3.71832 7.38548,-6.52797 2.1001,-3.46411 2.81941,-7.74615 2.92476,-11.79579 0.10629,-4.0799 -0.74419,-8.25831 -2.32474,-12.02115 -1.31535,-3.13142 -3.24718,-6.13253 -5.78947,-8.38478 -2.25033,-1.99356 -5.12491,-3.26764 -7.98549,-4.1924 -1.34323,-0.43423 -4.06819,-0.13311 -4.19241,-0.5989 -0.13452,-0.50447 3.79664,-3.68112 4.99094,-5.98914 1.33777,-2.5853 2.09737,-5.53151 2.2475,-8.43854 0.14794,-2.86399 -0.13735,-5.8968 -1.34599,-8.49747 -1.47647,-3.17707 -4.00259,-5.94375 -6.87461,-7.95002 -2.99542,-2.09247 -6.62285,-3.45823 -10.25245,-3.87895 -2.60027,-0.30139 -5.30853,0.17952 -7.78585,1.02507 -2.74879,0.93829 -7.24882,4.50083 -7.53134,4.38231 -0.46318,-0.19435 -0.32899,-6.52083 -1.63142,-9.43446 -1.48032,-3.31156 -3.67607,-6.61251 -6.75335,-8.53294 -4.03431,-2.51765 -9.18895,-3.25945 -13.93918,-3.03746 -3.85191,0.17999 -7.75394,1.46312 -11.02414,3.50655 -2.85829,1.78603 -5.30396,4.39192 -6.97873,7.3168 -0.96293,1.68169 -1.5971,5.58986 -1.5971,5.58986"
       id="path3849"
       inkscape:connector-curvature="0"
       sodipodi:nodetypes="csaaaasaaaaasaaaaasaaaaaaasaaaaaasaaaaaasaaaaaasaaaaac" />
    <path
       style="fill:none;stroke:#000000;stroke-width:4.71144819;stroke-linecap:round;stroke-linejoin:round;stroke-miterlimit:4;stroke-opacity:1;stroke-dasharray:none"
       d="m 587.83422,547.33758 c 11.97824,-1.99638 12.28258,-2.46251 18.36667,-1.59709 4.38006,0.62304 9.16291,1.75163 12.3775,4.79129 0.56697,0.53611 0.96576,2.13238 0.96576,2.13238"
       id="path3851"
       inkscape:connector-curvature="0"
       sodipodi:nodetypes="caac" />
    <path
       style="fill:none;stroke:#000000;stroke-width:4.71144819;stroke-linecap:round;stroke-linejoin:round;stroke-miterlimit:4;stroke-opacity:1;stroke-dasharray:none"
       d="m 427.62262,252.74287 c 4.60408,1.35926 9.83583,1.20899 14.39885,-0.28231 5.13717,-1.67894 9.99822,-5.01483 13.26953,-9.31691 2.72059,-3.5778 4.08482,-8.23104 4.51727,-12.70487 0.36625,-3.78886 -0.43363,-7.70141 -1.69398,-11.2932 -1.11701,-3.18327 -2.53596,-6.5389 -5.08192,-8.75224 -3.29727,-2.86643 -7.78407,-4.60536 -12.14023,-4.94077 -4.67703,-0.36011 -9.66243,0.84702 -13.693,3.2468 -4.61007,2.74481 -8.30694,7.21131 -10.72856,11.99903 -2.17014,4.29056 -3.10969,9.31059 -2.96445,14.11652 0.1077,3.55997 0.74743,7.41095 2.82329,10.30505 2.64713,3.69051 6.93735,6.33693 11.2932,7.6229 z"
       id="path3888"
       inkscape:connector-curvature="0"
       sodipodi:nodetypes="aaaaaaaaaaaa" />
    <path
       style="fill:none;stroke:#000000;stroke-width:4.71144819;stroke-linecap:round;stroke-linejoin:round;stroke-miterlimit:4;stroke-opacity:1;stroke-dasharray:none"
       d="m 424.517,244.27299 c 5.92893,-2.25864 7.16356,-2.33507 10.02274,-4.65844 3.0529,-2.48088 5.35922,-5.9101 7.05824,-9.45808 1.38513,-2.89244 2.17993,-6.11744 2.3998,-9.31691 0.1689,-2.4573 -0.36586,-4.92492 -0.84698,-7.34059 -0.13381,-0.67193 -0.56467,-1.9763 -0.56467,-1.9763"
       id="path3890"
       inkscape:connector-curvature="0"
       sodipodi:nodetypes="caaaac" />
    <path
       style="fill:none;stroke:#000000;stroke-width:4.71144819;stroke-linecap:round;stroke-linejoin:round;stroke-miterlimit:4;stroke-opacity:1;stroke-dasharray:none"
       d="m 423.10533,226.20386 c 3.67031,0.2823 6.34463,0.83598 9.45808,1.55279 2.72752,0.62797 8.04642,2.39982 8.04642,2.39982"
       id="path3892"
       inkscape:connector-curvature="0"
       sodipodi:nodetypes="cac" />
    <path
       style="fill:none;stroke:#000000;stroke-width:4.71144819;stroke-linecap:round;stroke-linejoin:round;stroke-miterlimit:4;stroke-opacity:1;stroke-dasharray:none"
       d="m 386.68476,254.71918 c -0.17103,-0.45598 -7.56147,-3.80044 -9.7404,-7.19939 -2.36078,-3.68264 -3.51969,-8.55262 -2.68214,-12.84603 0.79214,-4.06056 3.76761,-7.62246 6.91707,-10.30506 2.48439,-2.11615 8.99353,-3.05646 8.89342,-4.09381 -0.0914,-0.94826 -5.31565,-6.20558 -6.35245,-10.02271 -1.07369,-3.95299 -0.88827,-8.40086 0.42352,-12.28136 1.27527,-3.77249 3.8096,-7.25009 6.91706,-9.74038 2.74831,-2.20244 6.23806,-3.72311 9.74041,-4.0938 3.52416,-0.37301 7.25181,0.44186 10.44622,1.97631 1.5642,0.75135 3.95262,3.38797 3.95262,3.38797 l 0,0 c 0,0 -2.01933,-6.36639 -1.69397,-9.59924 0.33422,-3.32114 1.60093,-6.69784 3.67029,-9.3169 2.34686,-2.97026 5.70534,-5.3592 9.3169,-6.49359 3.41184,-1.07167 7.20894,-0.63359 10.72855,0 4.2495,0.76498 9.00073,1.55299 12.14021,4.5173 1.5202,1.43539 1.8556,3.76135 2.52088,5.74345 0.91299,2.72013 0.94468,7.52326 1.99639,8.37304 1.04378,0.84336 5.25684,-4.28649 8.34883,-5.55804 3.3193,-1.36505 6.99985,-2.45787 10.5673,-2.06486 3.26737,0.35992 6.64325,1.69722 9.03458,3.95262 2.11266,1.9926 3.51038,4.89385 3.95262,7.76406 0.39228,2.546 -0.59594,5.13681 -1.27048,7.62295 -0.7254,2.67357 -1.45776,5.43939 -2.96447,7.76406 -0.50672,0.7818 -2.21403,1.07551 -1.97632,1.97632 0.20825,0.78897 7.19868,-0.38445 10.30505,1.12933 2.42293,1.18073 4.31864,3.44229 5.6466,5.78773 1.36648,2.41348 2.13391,5.27302 2.11749,8.04643 -0.0165,2.83108 -0.91627,5.69491 -2.25864,8.18758 -0.9487,1.76158 -2.31036,3.37441 -3.95264,4.51727 -1.73589,1.20805 -3.87334,1.76147 -5.92892,2.25866 -0.82831,0.20025 -2.14647,-0.47307 -2.54097,0.28232 -0.2634,0.5043 5.31526,4.72819 6.63474,7.90524 1.01474,2.44324 1.1317,5.29421 0.70583,7.90528 -0.52914,3.24425 -1.73147,6.6114 -3.95262,9.03455 -1.59361,1.73852 -3.94909,2.72119 -6.21127,3.38798 -2.44396,0.72037 -5.07715,0.66991 -7.62292,0.56463 -1.80869,-0.0746 -4.62624,-2.49994 -5.36427,-0.84697 -0.51787,1.15992 3.18023,5.52957 3.6703,8.61107 0.42285,2.65902 0.20966,5.51439 -0.70582,8.04642 -1.20722,3.33884 -3.48286,6.32085 -6.07012,8.75221 -1.52308,1.43135 -3.40426,2.52086 -5.36425,3.24681 -3.7577,1.39177 -7.85119,1.91586 -11.85787,1.9763 -3.84601,0.0579 -7.85565,-0.14298 -11.43439,-1.55282 -2.19861,-0.86616 -4.17785,-2.36394 -5.78778,-4.09377 -1.61087,-1.73087 -2.71706,-3.90627 -3.67028,-6.07011 -0.67229,-1.5261 -0.80437,-5.00266 -1.41165,-4.7996 -1.02149,0.34159 -6.26279,7.53657 -10.58737,9.45805 -4.0222,1.78712 -8.80114,2.21605 -13.12837,1.41166 -3.74497,-0.69614 -7.26825,-2.74825 -10.16388,-5.22311 -2.30378,-1.96901 -4.28422,-4.509 -5.3643,-7.34057 -0.85935,-2.25298 -0.78494,-4.78943 -0.70583,-7.19943 0.14253,-4.33748 2.30368,-12.34973 2.11751,-12.84605 z"
       id="path3894"
       inkscape:connector-curvature="0"
       sodipodi:nodetypes="saaasaaaaaaaaaaaaasaaaaaasaaaaaasaaaaasaaaaaaaasaaaaas" />
    <path
       style="fill:none;stroke:#000000;stroke-width:4.71144819;stroke-linecap:round;stroke-linejoin:round;stroke-miterlimit:4;stroke-opacity:1;stroke-dasharray:none"
       d="m 67.019516,590.634 c 0.456413,0.67452 -7.068935,9.65612 -8.539501,15.31222 -1.728919,6.64977 -2.301658,14.13869 0,20.61258 1.823053,5.12765 5.532841,10.0485 10.306292,12.66201 5.286295,2.89429 12.042008,3.18854 17.962399,2.06126 3.754203,-0.71483 7.132875,-3.00878 10.112858,-5.40143 2.016714,-1.6192 4.269416,-5.78602 5.047776,-5.89235 0.63728,-0.0871 5.08514,6.51317 8.76468,7.90743 4.77313,1.80865 10.33355,0.97838 15.31222,-0.14723 3.74789,-0.84736 7.40842,-2.51516 10.45353,-4.85869 3.4659,-2.66736 6.52949,-6.12849 8.39226,-10.08545 1.07414,-2.2817 1.24353,-4.91812 1.39871,-7.43524 0.24055,-3.90198 0.0424,-7.87395 -0.73616,-11.70502 -0.42464,-2.08952 -2.34059,-5.21872 -2.12226,-6.03436 0.23276,-0.86957 7.23588,0.25283 10.51452,-1.0328 3.81521,-1.49605 7.53872,-4.01162 9.79099,-7.43526 2.58403,-3.92798 3.41214,-8.991 3.38635,-13.69264 -0.0189,-3.52339 -0.92948,-7.15799 -2.65019,-10.23267 -1.38147,-2.46853 -3.56325,-4.50036 -5.88932,-6.11017 -2.5488,-1.76397 -5.60471,-2.68334 -8.5395,-3.68081 -1.70177,-0.5784 -4.79043,-0.78534 -5.22676,-1.32511 -0.51112,-0.6323 4.25929,-3.64003 5.59484,-6.03653 1.6606,-2.97976 2.66873,-6.4538 2.72382,-9.86459 0.049,-3.02905 -0.47149,-6.30209 -2.13489,-8.83398 -1.43362,-2.18214 -3.8882,-3.61417 -6.25738,-4.71145 -2.83057,-1.31096 -6.01474,-1.8724 -9.12844,-2.06126 -1.94491,-0.11805 -5.58704,1.4645 -5.8157,0.58894 -0.21013,-0.80476 3.50254,-4.08681 4.49248,-6.53904 1.04086,-2.57834 1.91315,-5.50008 1.37344,-8.2277 -0.57486,-2.90539 -2.66463,-5.38561 -4.69014,-7.5464 -1.60342,-1.71052 -3.53889,-3.23498 -5.72168,-4.09073 -2.83354,-1.1109 -6.02206,-1.37404 -9.05751,-1.15262 -1.97786,0.14417 -3.88946,0.86195 -5.73032,1.59952 -1.09526,0.43885 -2.67078,1.96423 -3.12328,1.66575 -0.52071,-0.34344 -3.79439,-5.69809 -6.35069,-7.91229 -1.857983,-1.60932 -4.016297,-2.97808 -6.350677,-3.74796 -3.810621,-1.25672 -8.001171,-1.82239 -11.972535,-1.24931 -4.420282,0.63789 -8.847134,2.38094 -12.389016,5.10139 -2.768755,2.12663 -5.084731,5.07509 -6.350653,8.32872 -0.972918,2.50055 -0.959707,5.34322 -0.728798,8.01643 0.160897,1.86187 1.812141,4.6753 1.45754,5.41367 -0.413035,0.86005 -6.310992,-2.04697 -9.57802,-2.08218 -4.171806,-0.045 -8.488177,0.66517 -12.28492,2.39452 -4.365299,1.98833 -8.546895,4.95523 -11.34789,8.84931 -3.415991,4.74906 -5.37921,10.72073 -5.830145,16.55334 -0.321057,4.15314 0.440917,8.55247 2.290434,12.28491 1.538109,3.10405 4.092032,5.7838 6.975312,7.70408 1.991485,1.32638 4.412634,1.96818 6.767106,2.39451 1.878436,0.34014 3.843031,0.41824 5.726007,0.10414 0.400647,-0.0669 1.044137,-0.80988 1.145196,-0.41644 0.266681,1.03807 -6.162724,6.05723 -8.224632,9.78627 -2.028634,3.66882 -3.645368,7.78533 -3.852041,11.97256 -0.154058,3.12043 0.510419,6.40357 1.978076,9.16163 1.152971,2.1667 3.020494,4.00802 5.101346,5.30956 2.009761,1.25707 4.405412,1.98201 6.767106,2.1863 2.479002,0.21438 5.102993,-0.065 7.391767,-1.04109 3.664893,-1.56304 9.087622,-7.84392 9.395993,-7.38823 z"
       id="path3896"
       inkscape:connector-curvature="0"
       sodipodi:nodetypes="saaaaasaaaaaasaaaaaasaaaaasaaaaaasaaaaaasaaaaaaaasaaaaaas" />
    <path
       sodipodi:type="arc"
       style="fill:none;stroke:#000000;stroke-width:2;stroke-linecap:round;stroke-linejoin:round;stroke-miterlimit:4;stroke-opacity:1;stroke-dasharray:none"
       id="path3904"
       sodipodi:cx="351.125"
       sodipodi:cy="261.9375"
       sodipodi:rx="7.75"
       sodipodi:ry="8.0625"
       d="m 358.875,261.9375 a 7.75,8.0625 0 1 1 -15.5,0 7.75,8.0625 0 1 1 15.5,0 z"
       transform="matrix(2.3557242,0,0,2.3557242,-174.73668,-262.4326)" />
    <path
       transform="matrix(2.3557242,0,0,2.3557242,-177.9758,-264.78834)"
       sodipodi:type="arc"
       style="fill:none;stroke:#000000;stroke-width:2;stroke-linecap:round;stroke-linejoin:round;stroke-miterlimit:4;stroke-opacity:1;stroke-dasharray:none"
       id="path3906"
       sodipodi:cx="344.5625"
       sodipodi:cy="248.5"
       sodipodi:rx="3.5625"
       sodipodi:ry="3.625"
       d="m 348.125,248.5 a 3.5625,3.625 0 1 1 -7.125,0 3.5625,3.625 0 1 1 7.125,0 z" />
    <path
       transform="matrix(2.3557242,0,0,2.3557242,-177.9758,-264.78834)"
       sodipodi:type="arc"
       style="fill:none;stroke:#000000;stroke-width:2;stroke-linecap:round;stroke-linejoin:round;stroke-miterlimit:4;stroke-opacity:1;stroke-dasharray:none"
       id="path3908"
       sodipodi:cx="367.3125"
       sodipodi:cy="251.6875"
       sodipodi:rx="5.4375"
       sodipodi:ry="4.3125"
       d="m 372.75,251.6875 a 5.4375,4.3125 0 1 1 -10.875,0 5.4375,4.3125 0 1 1 10.875,0 z" />
    <path
       transform="matrix(2.3557242,0,0,2.3557242,-177.9758,-264.78834)"
       sodipodi:type="arc"
       style="fill:none;stroke:#000000;stroke-width:2;stroke-linecap:round;stroke-linejoin:round;stroke-miterlimit:4;stroke-opacity:1;stroke-dasharray:none"
       id="path3910"
       sodipodi:cx="304.25"
       sodipodi:cy="213.5"
       sodipodi:rx="2.5"
       sodipodi:ry="2.75"
       d="m 306.75,213.5 a 2.5,2.75 0 1 1 -5,0 2.5,2.75 0 1 1 5,0 z" />
    <path
       style="fill:none;stroke:#000000;stroke-width:4.71144819;stroke-linecap:round;stroke-linejoin:round;stroke-miterlimit:4;stroke-opacity:1;stroke-dasharray:none"
       d="m 550.23744,227.85247 c 1.2515,-3.0551 3.25635,-5.46266 5.2636,-7.91379 1.68198,-2.05395 4.41698,-4.96909 5.63165,-5.63164"
       id="path3912"
       inkscape:connector-curvature="0"
       sodipodi:nodetypes="cac" />
    <path
       style="fill:none;stroke:#000000;stroke-width:4.71144819;stroke-linecap:round;stroke-linejoin:round;stroke-miterlimit:4;stroke-opacity:1;stroke-dasharray:none"
       d="m 529.03593,221.66868 c -1.43553,-1.65638 -2.27318,-4.00171 -2.94465,-6.18378 -0.75943,-2.46785 -1.28826,-5.85251 -1.17786,-7.65608"
       id="path3914"
       inkscape:connector-curvature="0"
       sodipodi:nodetypes="cac" />
    <path
       style="fill:none;stroke:#000000;stroke-width:4.71144819;stroke-linecap:round;stroke-linejoin:round;stroke-miterlimit:4;stroke-opacity:1;stroke-dasharray:none"
       d="m 504.00637,241.39787 c 2.76062,-2.24531 6.65814,-3.47955 10.3063,-3.82805 3.56608,-0.34069 9.31248,1.36192 10.60075,1.7668"
       id="path3916"
       inkscape:connector-curvature="0"
       sodipodi:nodetypes="cac" />
    <path
       style="fill:none;stroke:#000000;stroke-width:4.71144819;stroke-linecap:round;stroke-linejoin:round;stroke-miterlimit:4;stroke-opacity:1;stroke-dasharray:none"
       d="m 531.68614,253.76542 c -0.8098,1.76681 -1.47831,4.15824 -1.58276,6.33102 -0.10713,2.2306 0.4417,5.11634 0.99381,6.62547"
       id="path3918"
       inkscape:connector-curvature="0"
       sodipodi:nodetypes="cac" />
    <path
       style="fill:none;stroke:#000000;stroke-width:4.71144819;stroke-linecap:round;stroke-linejoin:round;stroke-miterlimit:4;stroke-opacity:1;stroke-dasharray:none"
       d="m 546.4094,248.75951 c 2.94847,1.23016 5.00455,1.95963 7.44482,3.08143 2.47166,1.13624 5.51166,2.77108 7.27847,3.69129"
       id="path3920"
       inkscape:connector-curvature="0"
       sodipodi:nodetypes="cac" />
    <path
       sodipodi:type="arc"
       style="fill:none;stroke:#000000;stroke-width:2;stroke-linecap:round;stroke-linejoin:round;stroke-miterlimit:4;stroke-opacity:1;stroke-dasharray:none"
       id="path3922"
       sodipodi:cx="136.4716"
       sodipodi:cy="231.38068"
       sodipodi:rx="7.4246211"
       sodipodi:ry="7.8665628"
       d="m 143.89622,231.38068 a 7.4246211,7.8665628 0 1 1 -14.84924,0 7.4246211,7.8665628 0 1 1 14.84924,0 z"
       transform="matrix(2.3557242,0,0,2.3557242,-172.97855,-260.20753)" />
    <path
       transform="matrix(2.3557242,0,0,2.3557242,-177.9758,-264.78834)"
       sodipodi:type="arc"
       style="fill:none;stroke:#000000;stroke-width:2;stroke-linecap:round;stroke-linejoin:round;stroke-miterlimit:4;stroke-opacity:1;stroke-dasharray:none"
       id="path3926"
       sodipodi:cx="125.06951"
       sodipodi:cy="220.68568"
       sodipodi:rx="3.2703688"
       sodipodi:ry="3.3587573"
       d="m 128.33988,220.68568 a 3.2703688,3.3587573 0 1 1 -6.54074,0 3.2703688,3.3587573 0 1 1 6.54074,0 z" />
    <path
       transform="matrix(2.3557242,0,0,2.3557242,-177.9758,-264.78834)"
       sodipodi:type="arc"
       style="fill:none;stroke:#000000;stroke-width:2;stroke-linecap:round;stroke-linejoin:round;stroke-miterlimit:4;stroke-opacity:1;stroke-dasharray:none"
       id="path3928"
       sodipodi:cx="146.72466"
       sodipodi:cy="222.18828"
       sodipodi:rx="3.7123106"
       sodipodi:ry="2.7400389"
       d="m 150.43697,222.18828 a 3.7123106,2.7400389 0 1 1 -7.42463,0 3.7123106,2.7400389 0 1 1 7.42463,0 z" />
    <path
       transform="matrix(2.3557242,0,0,2.3557242,-177.9758,-264.78834)"
       sodipodi:type="arc"
       style="fill:none;stroke:#000000;stroke-width:2;stroke-linecap:round;stroke-linejoin:round;stroke-miterlimit:4;stroke-opacity:1;stroke-dasharray:none"
       id="path3930"
       sodipodi:cx="102.3125"
       sodipodi:cy="293.71875"
       sodipodi:rx="2.8125"
       sodipodi:ry="2.71875"
       d="m 105.125,293.71875 a 2.8125,2.71875 0 1 1 -5.625,0 2.8125,2.71875 0 1 1 5.625,0 z" />
    <path
       transform="matrix(2.3557242,0,0,2.3557242,-177.9758,-264.78834)"
       sodipodi:type="arc"
       style="fill:none;stroke:#000000;stroke-width:2;stroke-linecap:round;stroke-linejoin:round;stroke-miterlimit:4;stroke-opacity:1;stroke-dasharray:none"
       id="path3932"
       sodipodi:cx="339.38916"
       sodipodi:cy="312.78635"
       sodipodi:rx="2.8505242"
       sodipodi:ry="2.2539029"
       d="m 342.23968,312.78635 a 2.8505242,2.2539029 0 1 1 -5.70104,0 2.8505242,2.2539029 0 1 1 5.70104,0 z" />
    <path
       transform="matrix(2.3557242,0,0,2.3557242,-177.9758,-264.78834)"
       sodipodi:type="arc"
       style="fill:none;stroke:#000000;stroke-width:2;stroke-linecap:round;stroke-linejoin:round;stroke-miterlimit:4;stroke-opacity:1;stroke-dasharray:none"
       id="path3934"
       sodipodi:cx="209.41409"
       sodipodi:cy="206.30048"
       sodipodi:rx="2.6737475"
       sodipodi:ry="2.2318058"
       d="m 212.08784,206.30048 a 2.6737475,2.2318058 0 1 1 -5.34749,0 2.6737475,2.2318058 0 1 1 5.34749,0 z" />
    <path
       style="fill:none;stroke:#000000;stroke-width:4.71144819;stroke-linecap:round;stroke-linejoin:round;stroke-miterlimit:4;stroke-opacity:1;stroke-dasharray:none"
       d="m 59.80979,461.11852 c 0,0 -0.123025,-2.94796 -1.041086,-3.95615 -2.040241,-2.24032 -5.578121,-3.77665 -8.536948,-3.12327 -3.785917,0.83603 -6.660868,4.67684 -8.224632,8.22464 -1.246992,2.82905 -1.397616,6.33385 -0.416426,9.26572 1.071665,3.20234 3.392876,6.38396 6.454777,7.80818 3.398438,1.58075 7.65412,0.97406 11.24378,-0.10414 3.364907,-1.01065 6.821864,-2.85658 8.849291,-5.726 1.729174,-2.4473 2.980679,-5.88651 2.082186,-8.74519 -0.641205,-2.04 -2.7517,-3.61886 -4.789017,-4.26847 -1.796404,-0.5728 -5.019756,1.31666 -5.621925,0.62467 z"
       id="path3936"
       inkscape:connector-curvature="0"
       sodipodi:nodetypes="saaaaaaaaas" />
    <path
       style="fill:none;stroke:#000000;stroke-width:4.71144819;stroke-linecap:round;stroke-linejoin:round;stroke-miterlimit:4;stroke-opacity:1;stroke-dasharray:none"
       d="m 271.35987,748.14782 c -1.30328,-1.67843 1.36958,-16.04807 0.20825,-23.94514 -1.67048,-11.35925 -4.02119,-23.2232 -10.20271,-32.89853 -6.74663,-10.55983 -16.81748,-19.34846 -27.90132,-25.19444 -10.22937,-5.39535 -22.1911,-7.36432 -33.73139,-8.12054 -7.24298,-0.4746 -14.61605,0.51764 -21.65473,2.2904 -11.56108,2.91175 -23.25059,6.82655 -33.10674,13.53422 -9.37458,6.37993 -17.57108,14.92136 -23.52871,24.56978 -5.53622,8.96591 -8.85588,19.38644 -10.61913,29.77527 -1.83508,10.81177 -1.63985,22.08898 0.20823,32.89852 1.39823,8.1782 3.60847,16.56599 8.12052,23.52871 4.96686,7.66456 12.32217,13.77629 19.98897,18.73968 11.93491,7.72646 25.40701,13.68507 39.35332,16.44923 14.84199,2.94172 30.60754,3.0119 45.39165,-0.20825 14.65991,-3.19306 28.73611,-9.91531 41.01909,-18.53143 8.79983,-6.17286 15.23838,-15.17565 22.4876,-23.11228 5.17859,-5.66964 10.18695,-11.50064 14.99173,-17.49034 2.17146,-2.70699 4.54161,-5.30614 6.24657,-8.32875 2.00411,-3.55295 3.6124,-7.38534 4.58079,-11.34792 1.03454,-4.23326 1.18116,-8.65636 1.24931,-13.01366 0.0337,-2.15581 0.24067,-6.23133 -0.41644,-6.45478 -0.84739,-0.28812 -4.62144,6.32899 -7.49592,8.95341 -5.48828,5.01081 -11.64034,9.45041 -18.32322,12.70133 -5.29082,2.57372 -15.7923,6.58785 -16.86572,5.20547 z"
       id="path3938"
       inkscape:connector-curvature="0"
       sodipodi:nodetypes="saaaaaaaaaaaaaaaaaaasaas" />
    <path
       style="fill:none;stroke:#000000;stroke-width:4.71144819;stroke-linecap:round;stroke-linejoin:round;stroke-miterlimit:4;stroke-opacity:1;stroke-dasharray:none"
       d="m 349.96241,195.3275 c -3.33116,0 -6.26974,-1.08051 -9.00546,0.15618 -2.65255,1.1991 -4.91164,3.71036 -5.88218,6.45479 -0.78236,2.2123 -0.88036,5.0717 0.41644,7.02738 1.8183,2.74213 5.56046,4.46816 8.84928,4.37259 2.03514,-0.0591 3.97887,-1.47826 5.30957,-3.0192 0.87612,-1.01451 0.97452,-3.77197 1.45754,-3.74792 0.32655,0.0165 1.79781,3.27163 3.38355,4.00822 2.03002,0.94297 4.78954,1.14133 6.71506,0 1.80357,-1.06905 2.92929,-3.42311 3.01916,-5.51779 0.0684,-1.5912 -0.91736,-3.14006 -1.92604,-4.37259 -0.82014,-1.00218 -3.25632,-1.79771 -3.17532,-2.23834 0.1009,-0.54861 4.39476,-1.11898 5.98628,-2.60273 1.37376,-1.28073 2.61931,-3.11918 2.60273,-4.99724 -0.024,-2.7252 -1.85284,-5.38923 -3.90409,-7.18354 -1.35584,-1.18604 -3.25245,-1.79818 -5.04931,-1.92603 -2.04061,-0.1451 -4.21419,0.33115 -5.98629,1.35342 -1.372,0.79147 -2.49309,2.0842 -3.2274,3.48765 -0.67389,1.28805 -0.99612,2.80576 -0.94067,4.25838 0.0596,1.56139 1.35715,4.4868 1.35715,4.4868 z"
       id="path3940"
       inkscape:connector-curvature="0"
       sodipodi:nodetypes="saaaaasaaaasaaaaaaas" />
    <path
       style="fill:none;stroke:#000000;stroke-width:4.71144819;stroke-linecap:round;stroke-linejoin:round;stroke-miterlimit:4;stroke-opacity:1;stroke-dasharray:none"
       d="m 639.31327,503.17774 c -0.25406,-1.49421 2.93144,-4.00173 2.50297,-6.18377 -0.51495,-2.62227 -3.01797,-5.03408 -5.59485,-5.74209 -2.0089,-0.55194 -4.47274,0.24302 -6.03654,1.61957 -1.55293,1.36696 -2.15749,3.68275 -2.35573,5.74208 -0.21579,2.24187 2.29286,5.26879 1.32509,6.62547 -0.7081,0.99267 -2.89452,3.26228 -3.38635,5.30038 -0.72857,3.01922 -1.05018,6.84507 0.8834,9.27567 1.64249,2.06471 4.88091,2.73692 7.50886,2.50294 2.45008,-0.21813 4.90003,-1.64688 6.47826,-3.53358 1.69279,-2.02368 2.34773,-4.8751 2.50295,-7.50887 0.0855,-1.45087 -0.27773,-2.94858 -0.8834,-4.26974 -0.67089,-1.4634 -2.6748,-2.24099 -2.94466,-3.82806 z"
       id="path3942"
       inkscape:connector-curvature="0"
       sodipodi:nodetypes="saaaasaaaaaas" />
  </g>
</svg>
