<?xml version="1.0" encoding="UTF-8" standalone="no"?>
<!-- Created with Inkscape (http://www.inkscape.org/) -->

<svg
   xmlns:dc="http://purl.org/dc/elements/1.1/"
   xmlns:cc="http://creativecommons.org/ns#"
   xmlns:rdf="http://www.w3.org/1999/02/22-rdf-syntax-ns#"
   xmlns:svg="http://www.w3.org/2000/svg"
   xmlns="http://www.w3.org/2000/svg"
   xmlns:sodipodi="http://sodipodi.sourceforge.net/DTD/sodipodi-0.dtd"
   xmlns:inkscape="http://www.inkscape.org/namespaces/inkscape"
   width="744.09448819"
   height="1052.3622047"
   id="svg4171"
   version="1.1"
   inkscape:version="0.48.4 r9939"
   sodipodi:docname="catapillar.svg">
  <defs
     id="defs4173" />
  <sodipodi:namedview
     id="base"
     pagecolor="#ffffff"
     bordercolor="#666666"
     borderopacity="1.0"
     inkscape:pageopacity="0.0"
     inkscape:pageshadow="2"
     inkscape:zoom="0.49497475"
     inkscape:cx="373.45545"
     inkscape:cy="571.07907"
     inkscape:document-units="px"
     inkscape:current-layer="layer1"
     showgrid="false"
     inkscape:window-width="896"
     inkscape:window-height="714"
     inkscape:window-x="139"
     inkscape:window-y="66"
     inkscape:window-maximized="0" />
  <metadata
     id="metadata4176">
    <rdf:RDF>
      <cc:Work
         rdf:about="">
        <dc:format>image/svg+xml</dc:format>
        <dc:type
           rdf:resource="http://purl.org/dc/dcmitype/StillImage" />
        <dc:title></dc:title>
      </cc:Work>
    </rdf:RDF>
  </metadata>
  <g
     inkscape:label="Layer 1"
     inkscape:groupmode="layer"
     id="layer1">
    <path
       id="path4037"
       style="fill:none;stroke:#000000;stroke-width:4.491745;stroke-linecap:round;stroke-linejoin:round;stroke-miterlimit:4;stroke-opacity:1;stroke-dasharray:none"
       d="m 178.66281,338.22344 c 0.85063,8.77581 4.43626,17.07249 6.28083,25.69433 1.45074,6.781 3.32037,13.54013 3.76097,20.46057 0.7206,11.31843 -1.48113,22.6382 -1.85768,33.97329 -0.40154,12.08748 -1.85044,24.26975 -0.42769,36.27993 1.10377,9.31758 3.16541,18.68171 6.89884,27.28968 6.43504,14.83695 14.67619,29.49394 26.21604,40.82428 15.74295,15.45712 36.30749,25.4923 56.33937,34.73822 19.86922,9.17085 42.16063,12.03434 62.47466,20.17257 5.68945,2.27931 11.68251,4.28036 16.55854,7.99377 2.68266,2.04303 5.24677,4.55224 6.66151,7.61313 1.45303,3.14375 1.79495,6.82514 1.52262,10.27772 -0.18305,2.32037 -0.73504,4.77154 -2.09362,6.66148 -1.51099,2.10204 -3.88054,3.59818 -6.28082,4.56788 -2.96987,1.19982 -6.31587,1.45971 -9.51641,1.33231 -4.67559,-0.18619 -9.18252,-1.8388 -13.70362,-3.04526 -3.08262,-0.82262 -5.97338,-3.27744 -9.13575,-2.85493 -2.68641,0.35892 -5.12375,2.28967 -6.85184,4.37757 -1.30703,1.57916 -2.14435,3.6647 -2.28393,5.70984 -0.20095,2.94422 0.54918,6.10534 2.14064,8.5905 1.52403,2.37986 4.19108,3.84962 6.61446,5.30346 3.72892,2.23707 7.80782,3.95013 11.99068,5.13887 3.70254,1.05224 7.5867,1.36055 11.4197,1.71295 3.66641,0.33708 7.3577,0.31721 11.03902,0.38064 2.02987,0.035 4.33215,-1.01479 6.09049,0 2.85572,1.64814 3.60425,5.55408 4.94853,8.56477 1.41511,3.16927 2.49658,6.50581 3.23559,9.89708 0.59819,2.74502 1.50876,5.62076 0.95164,8.37443 -0.23094,1.14153 -0.70154,2.46777 -1.71295,3.04524 -2.64512,1.51026 -6.16682,0.49021 -9.13576,-0.19022 -3.26521,-0.74832 -5.8721,-3.43207 -9.13574,-4.18723 -4.94633,-1.14447 -10.37429,-1.87537 -15.22627,-0.38065 -2.91092,0.89676 -5.80909,2.74587 -7.42278,5.32919 -1.60248,2.56532 -2.44073,6.06342 -1.52264,8.94541 1.52508,4.78737 6.41127,7.97386 10.65839,10.65837 3.3585,2.12285 7.36749,3.06311 11.22936,3.99691 4.66584,1.12823 9.48756,1.54677 14.27461,1.90328 3.92309,0.29216 8.04815,-0.99174 11.80036,0.19022 2.70209,0.85116 5.34403,2.49054 7.04213,4.75819 1.87613,2.50539 2.59781,5.82602 2.85493,8.94543 0.28967,3.51416 -0.16911,7.2121 -1.52263,10.46806 -0.60884,1.46455 -1.4808,3.01449 -2.85493,3.80657 -2.32484,1.34006 -5.32106,1.19092 -7.99378,0.95165 -3.23815,-0.28991 -6.08772,-2.56745 -9.32608,-2.85493 -4.01006,-0.35599 -8.63188,-0.77381 -11.99067,1.44561 -2.74934,1.81671 -4.59032,5.28776 -4.93742,8.56477 -0.38361,3.62158 1.16583,7.4862 3.35259,10.39843 2.95721,3.93828 7.70284,6.35922 12.23951,8.27592 4.44523,1.87807 9.42683,2.07976 14.17409,2.94617 4.36691,0.797 9.21771,0.0207 13.15521,2.07041 3.0862,1.60654 5.05718,4.80886 7.24357,7.51539 3.38434,4.18946 6.0196,8.93232 9.01598,13.40748 7.12688,10.64414 13.9518,21.49429 21.31675,31.97512 5.1757,7.36538 10.34675,14.7556 16.06457,21.70853 3.90673,4.75062 7.9814,9.39024 12.43353,13.63401 4.48717,4.27716 8.72885,9.1936 14.32574,11.85886 3.50484,1.66902 7.55891,2.68873 11.4197,2.28394 2.45304,-0.25719 5.18637,-1.05653 6.797,-2.92454 1.6136,-1.87144 2.21613,-4.71637 1.89588,-7.16656 -0.35955,-2.7509 -2.39401,-5.06073 -4.12502,-7.22876 -2.3831,-2.98475 -5.56983,-5.23016 -8.44772,-7.74126 -2.94095,-2.56612 -6.84139,-4.23453 -9.00765,-7.48129 -1.63187,-2.44583 -3.06913,-5.52689 -2.59869,-8.42925 0.48249,-2.9767 2.65911,-5.83383 5.25958,-7.36061 2.14808,-1.26118 4.9362,-0.88754 7.42651,-0.83091 4.32464,0.0983 8.49229,2.06584 12.81788,2.0277 5.24149,-0.0462 10.62361,-0.77332 15.4862,-2.7305 1.80032,-0.72462 3.64709,-1.7085 4.83521,-3.24297 1.71552,-2.21563 2.93545,-5.13346 2.78533,-7.93158 -0.19196,-3.57803 -1.88608,-7.39438 -4.62639,-9.70303 -2.20425,-1.85702 -5.4627,-1.99036 -8.32334,-2.34246 -4.28364,-0.52724 -8.65055,0.83718 -12.9423,0.38066 -4.22306,-0.44922 -8.80299,-0.74245 -12.37134,-3.04523 -1.8982,-1.22497 -3.89066,-3.08961 -4.18724,-5.3292 -0.48883,-3.6915 2.05026,-7.37089 4.37757,-10.27772 3.12517,-3.9034 7.6237,-6.69738 12.18101,-8.75509 4.92332,-2.22299 10.55404,-2.31617 15.79721,-3.61623 6.03302,-1.49591 12.17464,-2.68651 18.01528,-4.81302 6.99823,-2.54797 13.79017,-5.73892 20.24069,-9.4616 7.77422,-4.4866 15.10619,-9.76319 22.07807,-15.41659 8.43149,-6.83698 16.97658,-13.79618 23.75841,-22.2721 7.36492,-9.20467 13.80348,-19.43883 17.93825,-30.47838 4.22972,-11.29308 5.39465,-23.56775 6.6467,-35.56177 1.13327,-10.85612 2.08041,-21.90138 0.76132,-32.73648 -1.89897,-15.59839 -4.10074,-32.12754 -12.37134,-45.48841 -4.91942,-7.94716 -13.42409,-13.09088 -20.93609,-18.65218 -5.49178,-4.0657 -11.00246,-8.57528 -17.5102,-10.65837 -5.81597,-1.86167 -12.16822,-1.53578 -18.27149,-1.33229 -7.29932,0.24334 -14.77028,0.73145 -21.69742,3.04524 -6.46423,2.15916 -12.52182,5.69921 -17.89085,9.89706 -4.84493,3.78807 -9.30294,8.2976 -12.56165,13.51331 -2.99036,4.78617 -5.22469,10.2205 -6.09053,15.79724 -1.46261,9.42066 0.14285,19.14586 1.71296,28.54922 0.97592,5.84513 2.48555,11.65662 4.75821,17.12954 4.1405,9.97093 11.33912,18.42406 15.98756,28.16857 2.29782,4.81692 4.4597,9.75122 5.84908,14.90412 1.33173,4.93909 2.36325,10.05234 2.33516,15.16774 -0.0406,7.39471 -1.77115,14.7268 -3.61624,21.88773 -1.32678,5.1493 -2.86912,10.32175 -5.32919,15.03592 -3.17656,6.0872 -7.46719,11.58336 -11.99067,16.74889 -3.72574,4.25456 -8.10151,7.90177 -12.37134,11.61001 -4.05456,3.52131 -8.03162,7.20337 -12.56166,10.08741 -3.75765,2.3923 -7.61382,5.07172 -11.99067,5.90017 -3.00251,0.56832 -6.41072,0.62149 -9.13575,-0.76132 -2.89745,-1.47031 -5.01155,-4.41899 -6.38886,-7.36178 -1.3982,-2.98743 -2.57366,-6.62142 -1.58363,-9.76777 1.28879,-4.0958 5.69505,-6.46822 8.97115,-9.24377 2.92885,-2.48135 6.6116,-3.99058 9.46939,-6.55344 2.81257,-2.52231 5.60504,-5.25292 7.42279,-8.56478 1.8157,-3.30812 2.8837,-7.0915 3.23558,-10.8487 0.34494,-3.68321 0.23045,-7.60372 -1.14195,-11.03905 -0.69838,-1.74814 -1.75024,-3.66136 -3.44944,-4.47158 -2.25169,-1.07366 -5.16261,-0.74082 -7.48157,0.17857 -3.84749,1.5254 -6.06583,5.63837 -9.24379,8.2899 -3.02064,2.52027 -5.90434,5.29139 -9.32609,7.23247 -3.79153,2.15088 -7.82641,4.95704 -12.181,4.75822 -3.54288,-0.1617 -7.34689,-1.95264 -9.51639,-4.75822 -2.04899,-2.64974 -2.45305,-6.4997 -2.08807,-9.8293 0.2835,-2.58635 1.57947,-5.0973 3.23742,-7.10249 2.02986,-2.45499 5.27854,-3.57517 7.79606,-5.52693 3.41538,-2.64784 6.66912,-5.50106 9.89706,-8.37443 3.05091,-2.71578 6.82133,-4.88563 8.94543,-8.37443 1.5771,-2.59035 2.59585,-5.72487 2.47426,-8.75511 -0.0951,-2.36682 -0.687,-5.10698 -2.47426,-6.66149 -2.45071,-2.13153 -6.33794,-2.76199 -9.51641,-2.0936 -3.99857,0.84083 -6.66689,4.73017 -9.89707,7.23248 -2.53018,1.96004 -4.52624,4.72906 -7.4228,6.09048 -3.70155,1.73977 -8.11874,3.48089 -12.04549,2.33681 -2.80181,-0.81632 -4.89776,-3.49383 -6.35413,-6.02276 -2.10313,-3.65199 -3.56848,-8.13806 -2.91713,-12.30171 0.60707,-3.88062 2.93599,-7.74714 6.0905,-10.08741 3.10178,-2.30117 7.61905,-1.48299 11.22935,-2.85493 3.87259,-1.47161 7.84558,-3.07085 11.03905,-5.70984 2.92531,-2.41741 5.25038,-5.60012 7.04214,-8.94541 1.47115,-2.74671 2.85428,-5.76784 2.90975,-8.88323 0.0557,-3.12713 -0.48653,-6.71088 -2.60146,-9.01503 -2.11271,-2.30175 -5.63404,-3.58132 -8.75048,-3.35907 -3.54799,0.25302 -6.36093,3.22342 -9.31871,5.19922 -2.6686,1.78264 -4.85288,4.23578 -7.55276,5.9707 -2.45864,1.5799 -4.88132,3.94988 -7.80345,3.99691 -2.52546,0.0407 -5.46638,-1.12368 -6.85181,-3.23558 -3.30761,-5.04196 -1.65736,-12.1498 -0.57099,-18.08119 0.95308,-5.20359 2.67768,-10.61318 6.09051,-14.65526 7.06302,-8.36527 18.89273,-11.12742 27.78791,-17.51019 11.35902,-8.1507 21.9926,-17.2859 32.54614,-26.45562 11.82662,-10.27589 24.4354,-19.92594 34.44938,-31.97513 6.14242,-7.39079 11.59288,-15.54541 15.41658,-24.36201 3.31229,-7.63746 4.55922,-16.02687 6.28084,-24.17168 2.35327,-11.13308 4.43916,-22.3604 5.5195,-33.68809 1.08463,-11.37248 2.44572,-22.9331 0.95165,-34.25908 -0.58016,-4.39791 -2.96716,-8.39612 -3.80655,-12.75199 -0.66301,-3.44043 -1.25362,-6.97734 -0.95165,-10.46803 0.7985,-9.23016 5.41996,-17.75076 7.23248,-26.83631 1.23932,-6.21234 1.99081,-12.52623 2.47425,-18.84249 0.43588,-5.69459 1.56127,-11.54163 0.38066,-17.12953 -1.17339,-5.55366 -3.5839,-11.06828 -7.23248,-15.41659 -2.69269,-3.2091 -6.40441,-5.63671 -10.27772,-7.23247 -5.9501,-2.45137 -12.59826,-3.13647 -19.0328,-3.23558 -8.32524,-0.12829 -16.64324,1.49577 -24.74266,3.42593 -6.85031,1.63244 -13.32847,4.55192 -19.98447,6.85179 -7.11149,2.45725 -14.39025,4.48429 -21.31675,7.42281 -6.99998,2.96971 -13.06352,8.15508 -20.36512,10.27772 -4.9586,1.44151 -10.25274,1.50979 -15.4166,1.5226 -10.19531,0.0254 -20.26452,-2.4674 -30.4525,-2.8549 -10.9059,-0.41481 -21.84708,-0.15901 -32.73645,0.57099 -10.8982,0.73057 -21.65125,3.02767 -32.54612,3.80655 -4.81104,0.34396 -9.67446,0.9425 -14.46492,0.38065 -5.15073,-0.60411 -9.91722,-3.16403 -15.03594,-3.99688 -10.98001,-1.78653 -22.2188,-2.98479 -33.30743,-2.0936 -9.14343,0.73485 -18.45333,2.36645 -26.83627,6.09048 -6.45028,2.86547 -12.75323,6.79928 -17.31985,12.18101 -3.87374,4.56516 -6.33405,10.37382 -7.80346,16.17789 -0.6703,2.64751 -0.64427,5.46595 -0.38078,8.18424 z"
       inkscape:connector-curvature="0"
       sodipodi:nodetypes="aaaaaaaaaaaaaaaaaaaaaaaaaaaaaaaaaaaaaaaaaaaaaaaaaaaaaaaaaaaaaaaaaaaaaaaaaaaaaaaaaaaaaaaaaaaaaaaaaaaaaaaaaaaaaaaaaaaaaaaaaaaaaaaaaaaaaaaaaaaaaaaaaaaaaaaaaaaaaaaaaaaaaaaaaaaaa" />
    <path
       style="fill:none;stroke:#000000;stroke-width:4.491745;stroke-linecap:round;stroke-linejoin:round;stroke-miterlimit:4;stroke-opacity:1;stroke-dasharray:none"
       d="m 207.56803,450.83822 c 0,-3.49913 -0.95058,-7.18227 0.40374,-10.36283 1.2927,-3.03588 3.93124,-5.62019 6.8637,-7.13288 1.8945,-0.97726 4.21204,-1.22145 6.32538,-0.94207 3.00749,0.39759 5.87643,1.86917 8.34409,3.63373 2.27302,1.62539 4.12318,3.85203 5.65247,6.1908 0.4836,0.73956 1.07666,2.42247 1.07666,2.42247"
       id="path3761"
       inkscape:connector-curvature="0"
       sodipodi:nodetypes="caaaaac" />
    <path
       style="fill:none;stroke:#000000;stroke-width:4.491745;stroke-linecap:round;stroke-linejoin:round;stroke-miterlimit:4;stroke-opacity:1;stroke-dasharray:none"
       d="m 208.10636,411.94394 c 1.34582,-2.96083 2.69166,-4.44122 4.03747,-5.65246 1.34582,-1.21125 2.69164,-1.48042 2.69164,-1.48042"
       id="path3763"
       inkscape:connector-curvature="0" />
    <path
       style="fill:none;stroke:#000000;stroke-width:4.491745;stroke-linecap:round;stroke-linejoin:round;stroke-miterlimit:4;stroke-opacity:1;stroke-dasharray:none"
       d="m 200.0711,330.85891 c 5.05723,0.80683 7.17153,1.06476 10.59307,2.20572 3.64727,1.21623 7.6862,2.21683 10.44315,4.89656 1.72215,1.67393 2.70068,4.09426 3.24266,6.43393 0.53897,2.32657 0.99217,5.03154 -0.0828,7.16408 -0.91429,1.81376 -2.83214,3.51219 -4.85632,3.68058 -2.3079,0.19201 -4.84864,-1.31117 -6.15436,-3.22384 -0.82853,-1.21367 -0.71519,-2.93096 -0.48279,-4.38196 0.2918,-1.821 1.14817,-3.58933 2.29316,-5.03505 0.92584,-1.16902 2.33642,-1.85488 3.53832,-2.73762 0.71768,-0.52711 2.19191,-1.52699 2.19191,-1.52699"
       id="path3765"
       inkscape:connector-curvature="0"
       sodipodi:nodetypes="caaaaaaaaac" />
    <path
       style="fill:none;stroke:#000000;stroke-width:4.491745;stroke-linecap:round;stroke-linejoin:round;stroke-miterlimit:4;stroke-opacity:1;stroke-dasharray:none"
       d="m 252.65311,407.50272 c 5.65246,-0.53833 6.36267,-0.62714 9.55535,-0.67293 1.07748,-0.0157 3.22997,0.13452 3.22997,0.13452"
       id="path3767"
       inkscape:connector-curvature="0"
       sodipodi:nodetypes="cac" />
    <path
       style="fill:none;stroke:#000000;stroke-width:4.491745;stroke-linecap:round;stroke-linejoin:round;stroke-miterlimit:4;stroke-opacity:1;stroke-dasharray:none"
       d="m 256.95975,418.40387 c 3.63373,-0.53831 4.1154,-0.63452 6.19079,-0.6729 0.62954,-0.0116 1.88416,0.13452 1.88416,0.13452"
       id="path3769"
       inkscape:connector-curvature="0"
       sodipodi:nodetypes="cac" />
    <path
       style="fill:none;stroke:#000000;stroke-width:4.491745;stroke-linecap:round;stroke-linejoin:round;stroke-miterlimit:4;stroke-opacity:1;stroke-dasharray:none"
       d="m 259.51681,439.53331 c 3.49914,-2.96082 4.29184,-2.88678 6.72913,-3.63373 0.43105,-0.13206 1.34581,-0.13454 1.34581,-0.13454"
       id="path3771"
       inkscape:connector-curvature="0"
       sodipodi:nodetypes="cac" />
    <path
       style="fill:none;stroke:#000000;stroke-width:4.491745;stroke-linecap:round;stroke-linejoin:round;stroke-miterlimit:4;stroke-opacity:1;stroke-dasharray:none"
       d="m 354.26278,401.71566 c 4.71038,-2.69165 4.85106,-2.76722 7.53661,-3.36456 2.45268,-0.54555 7.53661,-0.13453 7.53661,-0.13453"
       id="path3773"
       inkscape:connector-curvature="0"
       sodipodi:nodetypes="cac" />
    <path
       style="fill:none;stroke:#000000;stroke-width:4.491745;stroke-linecap:round;stroke-linejoin:round;stroke-miterlimit:4;stroke-opacity:1;stroke-dasharray:none"
       d="m 352.6478,414.09725 c 3.9029,0 5.64819,-0.44857 8.47869,-0.53833 0.26902,-0.009 0.80749,0 0.80749,0"
       id="path3775"
       inkscape:connector-curvature="0"
       sodipodi:nodetypes="cac" />
    <path
       style="fill:none;stroke:#000000;stroke-width:4.491745;stroke-linecap:round;stroke-linejoin:round;stroke-miterlimit:4;stroke-opacity:1;stroke-dasharray:none"
       d="m 352.78239,424.9984 c 4.30662,0.40377 5.2146,1.34741 7.67119,2.42249 0.33133,0.14509 0.94207,0.53833 0.94207,0.53833"
       id="path3777"
       inkscape:connector-curvature="0"
       sodipodi:nodetypes="cac" />
    <path
       style="fill:none;stroke:#000000;stroke-width:4.491745;stroke-linecap:round;stroke-linejoin:round;stroke-miterlimit:4;stroke-opacity:1;stroke-dasharray:none"
       d="m 296.09341,420.71003 c 0.93891,2.92798 1.02998,5.27264 2.84796,7.02952 1.40057,1.35348 3.54968,2.20501 5.48737,2.00766 1.8477,-0.18819 3.6324,-1.43859 4.73916,-2.93007 1.46348,-1.97221 1.66449,-4.67525 1.89221,-7.12054 0.19802,-2.12962 -0.0766,-4.29736 -0.47445,-6.39881 -0.21696,-1.14602 -1.03474,-3.34265 -1.03474,-3.34265"
       id="path3779"
       inkscape:connector-curvature="0"
       sodipodi:nodetypes="caaaaac" />
    <path
       style="fill:none;stroke:#000000;stroke-width:4.491745;stroke-linecap:round;stroke-linejoin:round;stroke-miterlimit:4;stroke-opacity:1;stroke-dasharray:none"
       d="m 327.16802,416.6284 c -0.78326,3.98129 0.2207,6.37566 -1.75136,8.48582 -1.54161,1.64954 -4.26893,1.87577 -6.52589,1.81422 -1.56634,-0.0428 -3.19191,-0.57491 -4.45366,-1.50401 -1.20298,-0.88583 -2.0556,-2.24998 -2.6298,-3.62916 -1.08734,-2.61179 -1.36832,-8.3762 -1.36832,-8.3762"
       id="path3781"
       inkscape:connector-curvature="0"
       sodipodi:nodetypes="caaaac" />
    <path
       style="fill:none;stroke:#000000;stroke-width:4.491745;stroke-linecap:round;stroke-linejoin:round;stroke-miterlimit:4;stroke-opacity:1;stroke-dasharray:none"
       d="m 411.05654,429.57421 c 0,-7.80577 0.48269,-7.4806 2.69163,-10.22826 2.46391,-3.06484 6.65191,-4.5611 10.49744,-5.38329 3.33869,-0.71383 7.06191,-0.73863 10.22826,0.53833 3.30334,1.33219 6.23178,3.9504 8.07494,6.99828 1.62168,2.68161 1.792,6.03868 2.1533,9.15161 0.0414,0.35649 0,1.07665 0,1.07665 l 0,0"
       id="path3783"
       inkscape:connector-curvature="0"
       sodipodi:nodetypes="caaaaaac" />
    <path
       style="fill:none;stroke:#000000;stroke-width:4.491745;stroke-linecap:round;stroke-linejoin:round;stroke-miterlimit:4;stroke-opacity:1;stroke-dasharray:none"
       d="m 436.62719,376.27961 c 5.11413,2.69163 4.19091,3.51809 6.19078,5.38329 0.1855,0.17316 0.53833,0.53833 0.53833,0.53833"
       id="path3785"
       inkscape:connector-curvature="0"
       sodipodi:nodetypes="cac" />
    <path
       style="fill:none;stroke:#000000;stroke-width:4.491745;stroke-linecap:round;stroke-linejoin:round;stroke-miterlimit:4;stroke-opacity:1;stroke-dasharray:none"
       d="m 500.68839,292.03103 c -7.53663,6.19079 -7.48965,6.18845 -10.49744,9.95909 -2.81524,3.52926 -5.68818,7.30393 -6.90452,11.65152 -0.79082,2.82664 -1.6761,6.33289 -0.0936,8.80501 1.53718,2.40159 5.00147,4.0152 7.80578,3.49914 1.62226,-0.29855 3.23261,-1.8713 3.49913,-3.49914 0.43134,-2.63465 -1.76748,-5.1967 -3.56166,-7.17369 -1.5006,-1.65352 -5.6837,-3.54532 -5.6837,-3.54532"
       id="path3787"
       inkscape:connector-curvature="0"
       sodipodi:nodetypes="caaaaaac" />
    <path
       sodipodi:type="arc"
       style="fill:none;stroke:#000000;stroke-width:2;stroke-linecap:round;stroke-linejoin:round;stroke-miterlimit:4;stroke-opacity:1;stroke-dasharray:none"
       id="path3789"
       sodipodi:cx="164.30084"
       sodipodi:cy="285.93219"
       sodipodi:rx="1.25"
       sodipodi:ry="1.1864407"
       d="m 165.55084,285.93219 a 1.25,1.1864407 0 1 1 -2.5,0 1.25,1.1864407 0 1 1 2.5,0 z"
       transform="matrix(2.2358333,0.21211597,-0.21211597,2.2358333,3.0154002,-265.63778)" />
    <path
       style="fill:none;stroke:#000000;stroke-width:4.491745;stroke-linecap:round;stroke-linejoin:round;stroke-miterlimit:4;stroke-opacity:1;stroke-dasharray:none"
       d="m 294.50822,331.46366 c -0.80748,-4.5758 -1.53377,-7.40768 -1.74956,-11.17032 -0.25191,-4.39281 0.054,-8.81582 0.53832,-13.1891 0.16574,-1.49553 0.8075,-4.4412 0.8075,-4.4412"
       id="path3791"
       inkscape:connector-curvature="0"
       sodipodi:nodetypes="caac" />
    <path
       style="fill:none;stroke:#000000;stroke-width:4.491745;stroke-linecap:round;stroke-linejoin:round;stroke-miterlimit:4;stroke-opacity:1;stroke-dasharray:none"
       d="m 303.52524,301.18265 c -3.0954,5.92159 -3.10851,7.00086 -4.30664,10.632 -1.09553,3.32023 -1.80664,6.75604 -2.62098,10.15619 -0.7177,2.99676 -1.99564,9.02655 -1.99564,9.02655"
       id="path3793"
       inkscape:connector-curvature="0"
       sodipodi:nodetypes="caac" />
    <path
       style="fill:none;stroke:#000000;stroke-width:4.491745;stroke-linecap:round;stroke-linejoin:round;stroke-miterlimit:4;stroke-opacity:1;stroke-dasharray:none"
       d="m 323.84718,299.43306 c -0.67292,6.72911 -1.25855,7.96513 -1.21125,11.97782 0.0725,6.14813 1.46617,12.20982 2.28789,18.30322 0.4604,3.41404 0.8674,6.83828 1.48042,10.22824 0.18798,1.03906 0.67291,3.09539 0.67291,3.09539"
       id="path3795"
       inkscape:connector-curvature="0"
       sodipodi:nodetypes="caaac" />
    <path
       style="fill:none;stroke:#000000;stroke-width:4.491745;stroke-linecap:round;stroke-linejoin:round;stroke-miterlimit:4;stroke-opacity:1;stroke-dasharray:none"
       d="m 346.05326,298.49099 c -4.03747,6.0562 -4.8379,4.74991 -6.72911,7.5366 -3.04177,4.48216 -5.40556,9.44812 -7.26746,14.53491 -1.63434,4.46511 -2.42742,9.20042 -3.36454,13.86198 -0.44769,2.227 -1.07667,6.7291 -1.07667,6.7291"
       id="path3797"
       inkscape:connector-curvature="0"
       sodipodi:nodetypes="caaac" />
    <path
       style="fill:none;stroke:#000000;stroke-width:4.491745;stroke-linecap:round;stroke-linejoin:round;stroke-miterlimit:4;stroke-opacity:1;stroke-dasharray:none"
       d="m 360.04984,298.49099 c -0.40377,4.84496 -0.25031,7.46656 0.13452,11.17035 0.38279,3.6841 0.84315,7.43668 2.15331,10.90116 0.22056,0.58294 0.94209,1.61498 0.94209,1.61498 l 0,0"
       id="path3799"
       inkscape:connector-curvature="0"
       sodipodi:nodetypes="caaac" />
    <path
       style="fill:none;stroke:#000000;stroke-width:4.491745;stroke-linecap:round;stroke-linejoin:round;stroke-miterlimit:4;stroke-opacity:1;stroke-dasharray:none"
       d="m 375.39222,299.70223 c -2.82624,3.76831 -4.10894,5.1278 -5.78706,7.94036 -1.75806,2.94656 -3.156,6.10477 -4.4412,9.28618 -0.69079,1.70994 -1.74958,5.2487 -1.74958,5.2487"
       id="path3801"
       inkscape:connector-curvature="0"
       sodipodi:nodetypes="caac" />
    <path
       style="fill:none;stroke:#000000;stroke-width:4.491745;stroke-linecap:round;stroke-linejoin:round;stroke-miterlimit:4;stroke-opacity:1;stroke-dasharray:none"
       d="m 488.04127,413.1176 c 4.09205,0 8.90532,-0.39718 13.32297,-0.95164 3.90182,-0.48973 7.81206,-1.07404 11.61002,-2.09363 1.98665,-0.53332 3.87447,-1.38351 5.80501,-2.09359 0.76311,-0.2807 2.28395,-0.85649 2.28395,-0.85649"
       id="path3803"
       inkscape:connector-curvature="0"
       sodipodi:nodetypes="caaac" />
    <path
       style="fill:none;stroke:#000000;stroke-width:4.491745;stroke-linecap:round;stroke-linejoin:round;stroke-miterlimit:4;stroke-opacity:1;stroke-dasharray:none"
       d="m 519.25508,426.34542 c -4.47269,-1.52264 -6.51833,-1.61962 -9.70672,-2.66463 -2.61435,-0.85684 -5.18282,-1.85879 -7.7083,-2.95006 -1.94053,-0.83852 -3.80588,-1.84128 -5.70985,-2.75977 -1.71234,-0.82604 -3.47061,-1.56248 -5.13887,-2.47426 -0.84977,-0.46445 -2.47426,-1.52263 -2.47426,-1.52263"
       id="path3805"
       inkscape:connector-curvature="0"
       sodipodi:nodetypes="caaaac" />
    <path
       style="fill:none;stroke:#000000;stroke-width:4.491745;stroke-linecap:round;stroke-linejoin:round;stroke-miterlimit:4;stroke-opacity:1;stroke-dasharray:none"
       d="m 515.16305,448.70896 c -5.32919,1.52264 -8.02825,1.41041 -12.08586,1.71297 -3.92268,0.2925 -7.86971,0.24743 -11.80035,0.0952 -2.22697,-0.0863 -6.66148,-0.571 -6.66148,-0.571"
       id="path3807"
       inkscape:connector-curvature="0"
       sodipodi:nodetypes="caac" />
    <path
       style="fill:none;stroke:#000000;stroke-width:4.491745;stroke-linecap:round;stroke-linejoin:round;stroke-miterlimit:4;stroke-opacity:1;stroke-dasharray:none"
       d="m 509.83386,466.02883 c -4.37758,-2.47427 -6.63687,-2.90982 -9.80192,-4.66303 -2.27082,-1.25787 -4.3623,-2.81566 -6.56632,-4.18724 -1.76443,-1.098 -3.61893,-2.05497 -5.32919,-3.23558 -1.35774,-0.93724 -3.90173,-3.04524 -3.90173,-3.04524"
       id="path3809"
       inkscape:connector-curvature="0"
       sodipodi:nodetypes="caaac" />
    <path
       style="fill:none;stroke:#000000;stroke-width:4.491745;stroke-linecap:round;stroke-linejoin:round;stroke-miterlimit:4;stroke-opacity:1;stroke-dasharray:none"
       d="m 425.05311,764.81884 c 4.71038,1.74957 5.87274,2.48674 8.3441,4.4412 2.34355,1.85342 4.472,4.11647 5.92162,6.72913 0.90893,1.6382 1.85351,3.52511 1.61498,5.38329 -0.15385,1.19809 -0.83114,2.50362 -1.88415,3.0954 -0.74306,0.4176 -1.88939,0.52983 -2.55707,0 -1.08255,-0.85902 -0.92704,-2.65559 -0.94207,-4.03747 -0.009,-0.871 0.22009,-1.74621 0.53833,-2.55706 0.38223,-0.97401 1.61499,-2.69165 1.61499,-2.69165"
       id="path3811"
       inkscape:connector-curvature="0"
       sodipodi:nodetypes="caaaaaaac" />
    <path
       style="color:#000000;fill:none;stroke:#000000;stroke-width:4.491745;stroke-linecap:round;stroke-linejoin:round;stroke-miterlimit:4;stroke-opacity:1;stroke-dasharray:none;stroke-dashoffset:0;marker:none;visibility:visible;display:inline;overflow:visible;enable-background:accumulate"
       d="m 492.07511,612.87537 21.53318,15.07324 7.80577,-26.9165 25.1669,16.41903 5.78704,-26.91644 23.95567,12.51616 0.53831,-26.51272 22.87902,6.45996 1.88414,-21.53318"
       id="path3813"
       inkscape:connector-curvature="0"
       sodipodi:nodetypes="ccccccccc" />
    <path
       style="fill:none;stroke:#000000;stroke-width:4.491745;stroke-linecap:round;stroke-linejoin:round;stroke-miterlimit:4;stroke-opacity:1;stroke-dasharray:none"
       d="m 77.80225,329.91908 c -0.960918,-0.83004 -1.792026,-1.96728 -2.05023,-3.2105 -0.261334,-1.25816 0.30916,-2.55713 0.609394,-3.80658 0.26485,-1.10218 1.044062,-2.10199 1.046818,-3.23555 0.0039,-1.46469 -0.719355,-2.85695 -1.332291,-4.18723 -0.906214,-1.96672 -2.691412,-3.48248 -3.425928,-5.51953 -0.868886,-2.4097 -1.244883,-5.0592 -1.046793,-7.61313 0.179221,-2.31132 1.061747,-4.54088 1.998437,-6.66148 1.121023,-2.53793 2.592348,-4.93696 4.282384,-7.13731 1.721775,-2.24168 3.554181,-4.51383 5.900174,-6.09049 2.894282,-1.94515 6.319077,-3.07456 9.706737,-3.90174 3.188976,-0.77867 6.519318,-0.97441 9.801908,-0.95164 2.87243,0.0202 5.78867,0.21381 8.56477,0.95164 2.00469,0.53284 3.97411,1.3385 5.70984,2.47429 2.64812,1.7328 5.1552,3.86258 6.94698,6.47114 1.39409,2.02957 2.2618,4.44045 2.75977,6.85182 0.52621,2.54817 0.61049,5.23569 0.19022,7.80346 -0.35974,2.19851 -1.83557,4.0987 -2.28393,6.28084 -0.33893,1.64945 -0.57732,3.38524 -0.2855,5.04369 0.33491,1.90341 1.9643,3.42313 2.28393,5.32918 0.2893,1.72518 0.16441,3.57184 -0.38064,5.23402 -0.40864,1.24609 -0.93364,2.71911 -2.09363,3.33074 -1.43215,0.75514 -3.30887,0.29536 -4.85336,-0.19022 -1.40184,-0.44073 -2.48144,-1.57498 -3.71141,-2.37909 -1.14877,-0.75103 -2.0601,-2.4192 -3.4259,-2.28395 -1.29463,0.12829 -1.93495,1.75369 -2.75975,2.75978 -0.79763,0.97294 -1.04481,2.44558 -2.09362,3.14041 -1.56113,1.03424 -3.65296,1.1977 -5.5195,1.04679 -1.48035,-0.11966 -2.990565,-0.64304 -4.187237,-1.5226 -1.221801,-0.89806 -1.510417,-2.75695 -2.75977,-3.61624 -0.926269,-0.63709 -2.146228,-1.22942 -3.235566,-0.95165 -1.651858,0.42121 -2.502261,2.32585 -3.616226,3.61624 -0.903792,1.04691 -1.407333,2.45066 -2.474284,3.33074 -0.66487,0.54842 -1.485145,0.95326 -2.330949,1.11889 -0.963661,0.18866 -1.987037,0.0562 -2.940523,-0.17877 -1.062559,-0.2618 -2.166297,-0.63057 -2.994441,-1.34593 z"
       id="path3815"
       inkscape:connector-curvature="0"
       sodipodi:nodetypes="aaaaaaaaaaaaaaaaaaaaaaaaaaaaaaaaaaaa" />
    <path
       style="fill:none;stroke:#000000;stroke-width:4.491745;stroke-linecap:round;stroke-linejoin:round;stroke-miterlimit:4;stroke-opacity:1;stroke-dasharray:none"
       d="m 78.835685,331.37162 c -2.093598,4.66304 -2.106376,5.81241 -2.188786,8.85026 -0.07342,2.71152 0.620381,5.43574 1.522641,7.99378 0.717487,2.03422 2.092684,3.77453 3.045242,5.70987 0.645781,1.31196 1.829984,2.53477 1.808126,3.99691 -0.02383,1.58873 -1.427067,2.84001 -2.093624,4.28236 -0.566128,1.22507 -1.58251,2.36232 -1.61779,3.71141 -0.04238,1.62561 0.538074,3.4436 1.712977,4.56788 1.036398,0.99178 2.666772,1.17001 4.092048,1.33229 1.075774,0.12237 2.262798,0.18979 3.235579,-0.28548 1.129267,-0.55186 1.772395,-1.78788 2.569433,-2.75978 0.929477,-1.13342 1.313048,-2.81356 2.569421,-3.56865 0.905531,-0.54422 2.128865,-0.7331 3.140417,-0.42824 1.3343,0.40212 2.140071,1.78954 3.140404,2.75977 0.950527,0.92192 1.662667,2.09512 2.712187,2.9025 0.98423,0.7572 2.0806,1.45083 3.28315,1.76054 1.2903,0.3323 2.76766,0.56165 3.99691,0.0477 1.66614,-0.69668 2.82388,-2.35669 3.75897,-3.90171 0.70121,-1.15854 0.44699,-2.79015 1.28472,-3.85415 0.83307,-1.05806 2.11126,-1.8493 3.4259,-2.1412 1.4039,-0.31171 2.88251,0.19405 4.28239,0.52342 1.5724,0.36981 2.95427,1.5442 4.56789,1.61778 1.79845,0.0819 3.88937,-0.13521 5.23402,-1.33231 0.86241,-0.76779 1.12945,-2.08592 1.23713,-3.23555 0.1835,-1.95765 -0.26505,-4.00092 -1.04682,-5.80503 -0.61296,-1.41456 -2.16668,-2.28838 -2.75974,-3.71141 -0.4073,-0.97726 -0.65961,-2.09776 -0.47582,-3.14043 0.276,-1.56573 1.99824,-2.62322 2.28395,-4.1872 0.41434,-2.26833 -0.41066,-4.61032 -0.95165,-6.85181 -0.33895,-1.40434 -0.91802,-2.74025 -1.42748,-4.09208 -0.4466,-1.1851 -0.68782,-2.49301 -1.42745,-3.52106 -0.34159,-0.47479 -1.33229,-1.14198 -1.33229,-1.14198"
       id="path3817"
       inkscape:connector-curvature="0"
       sodipodi:nodetypes="caaaaaaaaaaaaaaaaaaaaaaaaaaaaaac" />
    <path
       style="fill:none;stroke:#000000;stroke-width:4.491745;stroke-linecap:round;stroke-linejoin:round;stroke-miterlimit:4;stroke-opacity:1;stroke-dasharray:none"
       d="m 86.639147,373.339 c 0.570971,2.3791 0.62892,3.37607 0.38066,5.04369 -0.270634,1.8179 -1.648432,3.33458 -1.99845,5.13887 -0.489372,2.52258 -0.830772,5.2462 -0.09519,7.70828 0.503708,1.68598 1.60201,3.24669 2.950093,4.37758 1.675443,1.40553 3.829233,2.36339 5.995336,2.66458 1.777315,0.24714 3.763425,0.11515 5.329177,-0.76132 1.258077,-0.70435 1.541167,-2.56007 2.759757,-3.33074 1.6321,-1.03219 3.68616,-1.52696 5.61468,-1.42745 1.65371,0.0853 3.28394,0.79638 4.66304,1.71295 1.04682,0.69569 1.45038,2.18747 2.56944,2.75977 1.36618,0.69867 3.12152,1.08345 4.56788,0.57097 2.11467,-0.74928 2.83077,-3.55876 4.66303,-4.85336 1.19427,-0.84382 2.56291,-1.52185 3.99689,-1.80814 2.02295,-0.40384 4.13711,0.43258 6.18567,0.19024 1.79588,-0.21247 3.78464,-0.34603 5.23403,-1.42748 1.49571,-1.116 2.51186,-2.94421 2.95009,-4.7582 0.27651,-1.1446 0.32755,-2.51569 -0.28549,-3.52107 -0.87524,-1.43545 -3.1194,-1.4505 -4.28239,-2.6646 -0.98254,-1.02573 -1.83667,-2.31443 -2.0936,-3.7114 -0.30757,-1.67222 0.73014,-3.3437 0.76131,-5.04368 0.0258,-1.40448 0.0344,-2.87848 -0.47583,-4.18723 -0.52781,-1.3537 -2.56941,-3.52108 -2.56941,-3.52108"
       id="path3819"
       inkscape:connector-curvature="0"
       sodipodi:nodetypes="caaaaaaaaaaaaaaaaaaaaac" />
    <path
       style="fill:none;stroke:#000000;stroke-width:4.491745;stroke-linecap:round;stroke-linejoin:round;stroke-miterlimit:4;stroke-opacity:1;stroke-dasharray:none"
       d="m 97.075916,399.42777 c 2.287916,3.36454 9.086844,17.26125 13.727414,25.8398 5.04404,9.32444 9.61251,18.93913 15.34239,27.85854 1.9931,3.10259 3.53433,6.82492 6.59452,8.88246 1.34539,0.90456 3.11319,1.48912 4.71038,1.21124 1.49553,-0.26018 2.88927,-1.31949 3.76831,-2.55706 1.20987,-1.70334 1.3466,-3.98425 1.61501,-6.05622 1.22823,-9.48196 0.49975,-22.52594 0.13452,-33.78016 -0.33833,-10.42695 -2.15331,-31.22313 -2.15331,-31.22313"
       id="path3821"
       inkscape:connector-curvature="0"
       sodipodi:nodetypes="caaaaasac" />
    <path
       style="fill:none;stroke:#000000;stroke-width:4.491745;stroke-linecap:round;stroke-linejoin:round;stroke-miterlimit:4;stroke-opacity:1;stroke-dasharray:none"
       d="m 110.39959,420.42262 c 5.38329,-3.0954 16.5103,-16.24772 23.68649,-25.30148 0.80375,-1.01408 2.15333,-3.22997 2.15333,-3.22997"
       id="path3823"
       inkscape:connector-curvature="0"
       sodipodi:nodetypes="cac" />
    <path
       style="fill:none;stroke:#000000;stroke-width:4.491745;stroke-linecap:round;stroke-linejoin:round;stroke-miterlimit:4;stroke-opacity:1;stroke-dasharray:none"
       d="m 118.47453,436.30334 c 4.17204,-2.82622 10.34762,-8.16233 14.53488,-13.18909 2.66918,-3.2043 4.68042,-6.92688 6.59454,-10.63201 0.42449,-0.82165 1.07668,-2.55705 1.07668,-2.55705"
       id="path3825"
       inkscape:connector-curvature="0"
       sodipodi:nodetypes="caac" />
    <path
       style="fill:none;stroke:#000000;stroke-width:4.491745;stroke-linecap:round;stroke-linejoin:round;stroke-miterlimit:4;stroke-opacity:1;stroke-dasharray:none"
       d="m 127.08779,452.85697 c 4.97955,-2.69166 8.24939,-7.47767 11.84325,-11.70868 1.104,-1.2997 2.0614,-2.72321 2.96082,-4.17205 0.34935,-0.56274 0.94208,-1.74957 0.94208,-1.74957"
       id="path3827"
       inkscape:connector-curvature="0"
       sodipodi:nodetypes="caac" />
    <path
       style="fill:none;stroke:#000000;stroke-width:4.491745;stroke-linecap:round;stroke-linejoin:round;stroke-miterlimit:4;stroke-opacity:1;stroke-dasharray:none"
       d="m 101.7863,406.0223 c 15.47698,10.90118 22.94819,15.799 35.66432,21.26402 1.37007,0.58882 4.30664,1.21125 4.30664,1.21125"
       id="path3829"
       inkscape:connector-curvature="0"
       sodipodi:nodetypes="cac" />
    <path
       style="fill:none;stroke:#000000;stroke-width:4.491745;stroke-linecap:round;stroke-linejoin:round;stroke-miterlimit:4;stroke-opacity:1;stroke-dasharray:none"
       d="m 122.91574,396.33238 c 3.76831,2.55706 9.38394,7.52683 14.26574,11.03575 1.05071,0.75522 3.22997,2.15331 3.22997,2.15331"
       id="path3831"
       inkscape:connector-curvature="0"
       sodipodi:nodetypes="cac" />
    <path
       style="fill:none;stroke:#000000;stroke-width:4.491745;stroke-linecap:round;stroke-linejoin:round;stroke-miterlimit:4;stroke-opacity:1;stroke-dasharray:none"
       d="m 114.97539,432.53504 c 4.30661,4.4412 11.10143,8.35849 17.22655,11.57408 2.81758,1.47919 8.88241,3.49914 8.88241,3.49914 l 0,0 1.74959,0.67291"
       id="path3833"
       inkscape:connector-curvature="0"
       sodipodi:nodetypes="caacc" />
    <path
       sodipodi:type="arc"
       style="fill:none;stroke:#000000;stroke-width:2;stroke-linecap:round;stroke-linejoin:round;stroke-miterlimit:4;stroke-opacity:1;stroke-dasharray:none"
       id="path3837"
       sodipodi:cx="90.338982"
       sodipodi:cy="343.89832"
       sodipodi:rx="4.9152541"
       sodipodi:ry="3.8983052"
       d="m 95.254236,343.89832 a 4.9152541,3.8983052 0 1 1 -9.830508,0 4.9152541,3.8983052 0 1 1 9.830508,0 z"
       transform="matrix(2.2458726,0,0,2.2458726,-57.344123,-230.66747)" />
    <path
       style="fill:none;stroke:#000000;stroke-width:4.491745;stroke-linecap:round;stroke-linejoin:round;stroke-miterlimit:4;stroke-opacity:1;stroke-dasharray:none"
       d="m 571.88243,364.57094 c 2.40704,4.5365 5.86531,8.5506 9.68993,11.97784 3.21582,2.8817 7.02647,5.0924 10.90118,6.99827 5.25859,2.58658 10.76575,5.00312 16.55363,5.92163 6.16113,0.97777 12.58486,0.65977 18.70695,-0.53834 5.02914,-0.98421 9.97731,-2.79523 14.40031,-5.38329 3.90165,-2.283 7.27654,-5.44489 10.36283,-8.74786 3.00171,-3.21241 5.67957,-6.78371 7.80578,-10.632 1.88946,-3.41974 3.38187,-7.10518 4.30664,-10.90116 0.52301,-2.14684 -0.74735,-4.90189 0.67291,-6.59457 1.85182,-2.20697 5.7334,-1.07893 8.3152,-2.3573 2.64349,-1.30894 5.13987,-3.08676 7.08078,-5.30811 2.11325,-2.41857 3.83228,-5.3208 4.69304,-8.41505 0.8007,-2.87831 0.918,-6.03385 0.30387,-8.95764 -0.5009,-2.38465 -1.5681,-4.74944 -3.16635,-6.58874 -1.90966,-2.19768 -4.58281,-3.71834 -7.26743,-4.84498 -2.62047,-1.09971 -5.50754,-1.57649 -8.34413,-1.74956 -2.001,-0.12223 -4.06653,-0.0468 -5.99256,0.50942 -1.95358,0.56413 -3.70876,1.70163 -5.41802,2.80307 -1.54669,0.99668 -2.49559,3.42767 -4.33554,3.41662 -1.4993,-0.009 -2.26285,-1.97798 -3.49916,-2.82622 -2.2207,-1.52365 -4.47697,-3.09089 -6.99827,-4.03748 -3.46761,-1.30186 -7.20916,-1.85631 -10.90118,-2.15332 -3.89263,-0.31317 -7.83468,-0.0891 -11.70865,0.40377 -4.51318,0.57429 -9.06877,1.35008 -13.32365,2.96079 -4.07505,1.54262 -7.7133,4.06677 -11.4395,6.32537 -3.26653,1.97999 -6.56908,3.94362 -9.55535,6.32538 -3.15043,2.51271 -6.31957,5.12817 -8.74786,8.3441 -1.74126,2.30604 -3.07495,4.9466 -4.03747,7.67121 -1.08136,3.06104 -1.71166,6.31348 -1.88415,9.55532 -0.1891,3.55287 0.26346,7.13946 0.94208,10.63203 0.41142,2.11745 0.87315,4.28536 1.88414,6.1908 z"
       id="path3839"
       inkscape:connector-curvature="0"
       sodipodi:nodetypes="aaaaaaaaaaaaaaaaaaaaaaaaaaaaaaaa" />
    <path
       style="fill:none;stroke:#000000;stroke-width:4.491745;stroke-linecap:round;stroke-linejoin:round;stroke-miterlimit:4;stroke-opacity:1;stroke-dasharray:none"
       d="m 583.86026,347.47897 c 3.9029,0.26914 8.25769,0.4569 12.38159,0.26914 4.78067,-0.21762 9.56622,-0.7112 14.26573,-1.61498 3.83672,-0.73785 7.62644,-1.77873 11.30492,-3.0954 4.34853,-1.5565 8.54621,-3.53459 12.65073,-5.65245 2.59133,-1.33709 5.14508,-2.77287 7.53661,-4.44122 1.56877,-1.09439 4.44123,-3.63373 4.44123,-3.63373"
       id="path3841"
       inkscape:connector-curvature="0"
       sodipodi:nodetypes="caaaaac" />
    <path
       style="fill:none;stroke:#000000;stroke-width:4.491745;stroke-linecap:round;stroke-linejoin:round;stroke-miterlimit:4;stroke-opacity:1;stroke-dasharray:none"
       d="m 601.08682,346.67146 c 1.34581,-2.69164 0.71512,-4.39092 2.1533,-5.92162 1.30688,-1.39094 3.84837,-0.99112 5.24871,-2.28789 1.82584,-1.69078 2.60299,-4.27304 3.49914,-6.59454 0.98349,-2.54775 0.36267,-5.7688 2.01875,-7.94037 1.37669,-1.80519 3.7219,-2.80314 5.92162,-3.36454 2.56495,-0.6546 5.37646,-0.52421 7.94036,0.13453 2.60444,0.66916 5.2356,1.86272 7.13286,3.7683 1.57148,1.57835 2.60283,3.74949 3.0954,5.92162 0.27795,1.22579 0.0413,2.52376 -0.13453,3.76831 -0.0516,0.3663 -0.26914,1.07665 -0.26914,1.07665"
       id="path3843"
       inkscape:connector-curvature="0"
       sodipodi:nodetypes="caaaaaaaaac" />
    <path
       sodipodi:type="arc"
       style="fill:none;stroke:#000000;stroke-width:2.1777606;stroke-linecap:round;stroke-linejoin:round;stroke-miterlimit:4;stroke-opacity:1;stroke-dasharray:none"
       id="path3845"
       sodipodi:cx="324.28036"
       sodipodi:cy="249.02388"
       sodipodi:rx="3.1460259"
       sodipodi:ry="3.0261774"
       d="m 327.42639,249.02388 a 3.1460259,3.0261774 0 1 1 -6.29205,0 3.1460259,3.0261774 0 1 1 6.29205,0 z"
       transform="matrix(1.8977469,0,0,2.2416699,51.630086,-231.06646)" />
    <path
       style="fill:none;stroke:#000000;stroke-width:4.491745;stroke-linecap:round;stroke-linejoin:round;stroke-miterlimit:4;stroke-opacity:1;stroke-dasharray:none"
       d="m 401.66082,213.57751 c -0.1024,-4.10976 0.75949,-8.35967 2.5266,-12.07156 2.48771,-5.22554 6.80495,-9.43484 10.94864,-13.47524 2.96164,-2.8878 6.1249,-5.73185 9.82568,-7.57982 5.03718,-2.51527 10.68685,-3.86924 16.28258,-4.49174 5.86591,-0.65256 11.94205,-0.51381 17.68625,0.84219 4.28148,1.01072 8.82771,2.3624 12.07156,5.33396 3.86043,3.53637 5.98917,8.7681 7.57983,13.75597 2.00318,6.28141 3.75723,13.23384 2.24587,19.65138 -1.0234,4.3455 -4.33454,7.89139 -7.29909,11.22936 -3.39731,3.82524 -7.3533,7.27962 -11.79083,9.82569 -4.05672,2.32759 -8.56432,4.11215 -13.19451,4.77249 -4.36296,0.62221 -8.86732,-0.006 -13.19449,-0.84221 -7.35102,-1.41961 -14.83628,-3.30229 -21.3358,-7.01835 -3.56889,-2.0405 -7.10497,-4.64296 -9.26422,-8.14128 -2.13393,-3.45732 -2.98687,-7.72927 -3.08807,-11.79084 z"
       id="path3847"
       inkscape:connector-curvature="0"
       sodipodi:nodetypes="aaaaaaaaaaaaaaaa" />
    <path
       style="fill:none;stroke:#000000;stroke-width:4.491745;stroke-linecap:round;stroke-linejoin:round;stroke-miterlimit:4;stroke-opacity:1;stroke-dasharray:none"
       d="m 414.64147,213.31719 c -0.21224,-1.90713 3.04095,-2.48977 3.97018,-4.1687 0.77714,-1.40416 -0.10124,-3.71328 1.19106,-4.66496 1.04031,-0.76617 2.77851,-0.49131 3.87091,0.19852 2.35317,1.48597 3.39444,4.622 3.9702,7.34484 0.2609,1.23387 0.51299,2.80569 -0.29776,3.77168 -1.27423,1.51819 -3.78196,1.6582 -5.75678,1.48881 -1.12125,-0.0961 -2.09258,-0.84402 -3.07687,-1.38956 -1.35637,-0.75177 -3.69933,-1.0394 -3.87094,-2.58063 z"
       id="path3849"
       inkscape:connector-curvature="0"
       sodipodi:nodetypes="aaaaaaaaa" />
    <path
       style="fill:none;stroke:#000000;stroke-width:4.491745;stroke-linecap:round;stroke-linejoin:round;stroke-miterlimit:4;stroke-opacity:1;stroke-dasharray:none"
       d="m 445.60886,224.6322 c 0.0993,-7.94036 -4.16868,-6.84857 0.29778,-8.63514 4.46646,-1.78659 7.74184,-4.76422 9.03216,-0.89329 1.2903,3.87091 4.46643,4.86348 1.88583,6.9478 -2.58061,2.08435 -4.26793,2.38211 -6.94783,2.58063 -2.67986,0.19853 -4.26794,0 -4.26794,0 z"
       id="path3851"
       inkscape:connector-curvature="0" />
    <path
       style="fill:none;stroke:#000000;stroke-width:4.491745;stroke-linecap:round;stroke-linejoin:round;stroke-miterlimit:4;stroke-opacity:1;stroke-dasharray:none"
       d="m 464.16947,208.15595 c -2.97765,-3.57315 -5.45899,-2.28285 -2.77913,-5.95526 2.67987,-3.67243 3.97018,-3.27541 6.35229,-1.98511 2.38211,1.29033 5.459,1.19106 3.67241,4.36722 -1.7866,3.17613 -2.38211,3.6724 -3.57316,3.77167 -1.19106,0.0993 -3.67241,-0.19853 -3.67241,-0.19853 z"
       id="path3853"
       inkscape:connector-curvature="0" />
    <path
       style="fill:none;stroke:#000000;stroke-width:4.491745;stroke-linecap:round;stroke-linejoin:round;stroke-miterlimit:4;stroke-opacity:1;stroke-dasharray:none"
       d="m 446.10516,192.87077 c -0.92228,-1.58253 0.35513,-4.15526 1.88581,-5.16124 1.4401,-0.94645 3.96193,-0.93972 5.16124,0.29776 0.87526,0.90311 0.79924,2.7268 0.0993,3.77167 -0.82761,1.23539 -2.68906,1.4405 -4.1687,1.58807 -1.00126,0.1 -2.47095,0.37312 -2.97762,-0.49626 z"
       id="path3855"
       inkscape:connector-curvature="0"
       sodipodi:nodetypes="aaaaaa" />
    <path
       style="fill:none;stroke:#000000;stroke-width:4.491745;stroke-linecap:round;stroke-linejoin:round;stroke-miterlimit:4;stroke-opacity:1;stroke-dasharray:none"
       d="m 225.35982,262.98671 c -5.16886,-1.95449 -9.51669,-6.53944 -11.93119,-11.5101 -3.04114,-6.2607 -3.68896,-13.99659 -2.10551,-20.77432 1.58303,-6.77591 6.34517,-12.59557 11.08901,-17.68625 5.41039,-5.80596 12.1547,-10.4426 19.23027,-14.0367 6.43803,-3.27024 13.50749,-5.43274 20.63396,-6.59725 6.37304,-1.04139 13.04368,-1.57292 19.37064,-0.28073 5.76709,1.17782 11.53716,3.49264 16.14222,7.15871 4.57571,3.64272 8.20645,8.66838 10.52752,14.0367 1.621,3.74918 3.21676,8.14105 2.1055,12.07158 -0.73047,2.58369 -2.8086,5.12382 -5.33394,6.03578 -2.58298,0.93277 -5.93669,-2.90089 -8.14129,-1.2633 -1.89635,1.40861 -0.0404,4.85204 -0.98256,7.01835 -0.88881,2.04385 -2.10859,4.45394 -4.21101,5.19357 -3.34164,1.17561 -6.84806,-2.09364 -10.38717,-2.24587 -2.21488,-0.0952 -4.85791,-0.53238 -6.59724,0.84221 -3.02047,2.387 -1.49281,7.94892 -4.07065,10.80825 -1.96157,2.17578 -4.98034,3.3955 -7.86056,3.93029 -2.86548,0.53204 -5.86492,-0.17832 -8.70276,-0.84221 -2.43685,-0.57009 -4.51741,-2.75999 -7.01835,-2.66697 -3.20033,0.11902 -6.06104,2.26017 -8.70274,4.07064 -2.56592,1.75852 -3.8777,5.23331 -6.73762,6.45689 -1.93771,0.82902 -4.34517,1.02615 -6.31653,0.28073 z"
       id="path3857"
       inkscape:connector-curvature="0"
       sodipodi:nodetypes="aaaaaaaaaaaaaaaaaaaaaaa" />
    <path
       style="fill:none;stroke:#000000;stroke-width:4.491745;stroke-linecap:round;stroke-linejoin:round;stroke-miterlimit:4;stroke-opacity:1;stroke-dasharray:none"
       d="m 227.1846,264.39038 c 5.47432,3.22843 9.0828,4.69066 14.03671,5.61468 7.8658,1.46716 16.10589,1.00879 24.00276,-0.28073 4.5124,-0.73688 9.04913,-2.00541 13.05413,-4.21102 8.96287,-4.93595 16.8859,-11.91421 23.58166,-19.65139 2.04796,-2.36648 3.88516,-5.04482 4.91285,-8.0009 0.64986,-1.86927 0.70184,-5.89543 0.70184,-5.89543"
       id="path3859"
       inkscape:connector-curvature="0"
       sodipodi:nodetypes="caaaaac" />
    <path
       style="fill:none;stroke:#000000;stroke-width:4.491745;stroke-linecap:round;stroke-linejoin:round;stroke-miterlimit:4;stroke-opacity:1;stroke-dasharray:none"
       d="m 230.55341,227.33348 c 6.45688,2.38624 9.3,2.37326 14.0367,2.24587 4.88047,-0.13115 9.76429,-1.32601 14.31743,-3.08807 4.69258,-1.81604 9.35377,-4.17018 13.05415,-7.57982 1.92812,-1.77664 3.31656,-4.11316 4.49174,-6.45688 0.59686,-1.19039 1.26331,-3.78991 1.26331,-3.78991"
       id="path3861"
       inkscape:connector-curvature="0"
       sodipodi:nodetypes="caaaac" />
    <path
       style="fill:none;stroke:#000000;stroke-width:4.491745;stroke-linecap:round;stroke-linejoin:round;stroke-miterlimit:4;stroke-opacity:1;stroke-dasharray:none"
       d="m 206.00856,700.06117 c -0.79403,-5.26049 0.15069,-5.59339 -0.99254,-8.03959 -2.05166,-4.38966 -6.41722,-7.278 -9.92546,-10.62024 -4.74179,-4.51746 -11.01051,-7.50109 -14.98742,-12.70457 -2.40902,-3.15202 -4.44367,-6.85885 -5.04247,-10.78059 -0.73768,-4.83123 -0.006,-10.05735 1.96558,-14.52931 1.07819,-2.44575 2.86491,-4.75228 5.14086,-6.15378 2.23335,-1.37527 5.05131,-2.02836 7.66297,-1.78657 2.95027,0.27314 5.99823,1.52463 8.13886,3.57316 1.78522,1.70841 2.52221,4.29667 3.2754,6.65005 0.5007,1.56446 0.79404,4.86346 0.79404,4.86346"
       id="path3863"
       inkscape:connector-curvature="0"
       sodipodi:nodetypes="caaaaaaaaac" />
    <path
       style="fill:none;stroke:#000000;stroke-width:4.491745;stroke-linecap:round;stroke-linejoin:round;stroke-miterlimit:4;stroke-opacity:1;stroke-dasharray:none"
       d="m 205.7108,698.57236 c 0.0993,-4.06943 0.66455,-6.62883 1.98508,-9.62767 1.5469,-3.51291 4.15777,-6.49844 6.7493,-9.32994 2.86307,-3.12819 6.73324,-5.22093 9.60864,-8.33779 2.5062,-2.71667 5.38169,-5.43253 6.56984,-8.93248 1.25106,-3.68525 0.96577,-7.84987 0.23795,-11.67302 -0.68556,-3.6012 -1.89197,-7.33575 -4.24844,-10.14391 -1.95121,-2.32521 -4.69186,-4.29253 -7.66121,-4.92241 -2.63309,-0.55855 -5.59357,-0.0128 -7.98067,1.23095 -1.86772,0.97313 -3.11655,2.87124 -4.36722,4.5657 -1.37209,1.85897 -2.42255,3.9493 -3.37465,6.05451 -0.44845,0.9916 -1.09178,3.07689 -1.09178,3.07689"
       id="path3865"
       inkscape:connector-curvature="0"
       sodipodi:nodetypes="caaaaaaaaaac" />
    <path
       style="fill:none;stroke:#000000;stroke-width:4.491745;stroke-linecap:round;stroke-linejoin:round;stroke-miterlimit:4;stroke-opacity:1;stroke-dasharray:none"
       d="m 263.53966,774.20346 c 5.33394,-5.33394 5.95722,-4.82871 9.26422,-6.73762 0.79821,-0.46074 2.52661,-1.12293 2.52661,-1.12293"
       id="path3867"
       inkscape:connector-curvature="0"
       sodipodi:nodetypes="cac" />
    <path
       style="fill:none;stroke:#000000;stroke-width:4.491745;stroke-linecap:round;stroke-linejoin:round;stroke-miterlimit:4;stroke-opacity:1;stroke-dasharray:none"
       d="m 265.78553,752.58694 c 7.86055,0.28073 7.87163,-1.24681 11.79083,-1.96514 0.46935,-0.086 0.92884,-0.2337 1.40368,-0.28073 0.0933,-0.009 0.28073,0 0.28073,0"
       id="path3869"
       inkscape:connector-curvature="0"
       sodipodi:nodetypes="caac" />
    <path
       style="fill:none;stroke:#000000;stroke-width:4.491745;stroke-linecap:round;stroke-linejoin:round;stroke-miterlimit:4;stroke-opacity:1;stroke-dasharray:none"
       d="m 267.18921,730.68968 c 7.57982,1.40367 9.27208,1.28756 12.91376,3.93028 0.92449,0.67089 1.4912,1.76804 1.96514,2.80734 0.16013,0.35106 0.28073,1.12294 0.28073,1.12294"
       id="path3871"
       inkscape:connector-curvature="0"
       sodipodi:nodetypes="caac" />
    <path
       style="fill:none;stroke:#000000;stroke-width:4.491745;stroke-linecap:round;stroke-linejoin:round;stroke-miterlimit:4;stroke-opacity:1;stroke-dasharray:none"
       d="m 296.10481,725.9172 c -2.24587,-4.49174 -1.74243,-3.66284 -2.24587,-5.61467 -0.75371,-2.92219 0.20302,-6.27257 -1.12293,-8.9835 -0.17451,-0.35665 -0.84221,-0.84221 -0.84221,-0.84221"
       id="path3873"
       inkscape:connector-curvature="0"
       sodipodi:nodetypes="caac" />
    <path
       style="fill:none;stroke:#000000;stroke-width:4.491745;stroke-linecap:round;stroke-linejoin:round;stroke-miterlimit:4;stroke-opacity:1;stroke-dasharray:none"
       d="m 316.5984,726.75941 c 3.08807,-5.05322 2.43551,-4.38328 4.49174,-5.61469 2.20448,-1.32019 7.57982,-1.40367 7.57982,-1.40367"
       id="path3875"
       inkscape:connector-curvature="0"
       sodipodi:nodetypes="cac" />
    <path
       style="fill:none;stroke:#000000;stroke-width:4.491745;stroke-linecap:round;stroke-linejoin:round;stroke-miterlimit:4;stroke-opacity:1;stroke-dasharray:none"
       d="m 315.47547,741.91904 c 9.82569,-2.80733 11.22935,-2.80733 11.22935,-2.80733"
       id="path3877"
       inkscape:connector-curvature="0"
       sodipodi:nodetypes="cc" />
    <path
       style="fill:none;stroke:#000000;stroke-width:4.491745;stroke-linecap:round;stroke-linejoin:round;stroke-miterlimit:4;stroke-opacity:1;stroke-dasharray:none"
       d="m 304.80757,769.43098 c 5.05321,5.33395 6.59995,4.66786 10.38715,5.89542 0.8061,0.26129 2.52662,0.28074 2.52662,0.28074"
       id="path3879"
       inkscape:connector-curvature="0"
       sodipodi:nodetypes="cac" />
    <path
       style="fill:none;stroke:#000000;stroke-width:4.491745;stroke-linecap:round;stroke-linejoin:round;stroke-miterlimit:4;stroke-opacity:1;stroke-dasharray:none"
       d="m 290.2094,775.60714 c 0,7.57981 0.93646,7.2015 1.96513,10.66788 0.34609,1.16625 1.40367,3.36882 1.40367,3.36882"
       id="path3881"
       inkscape:connector-curvature="0"
       sodipodi:nodetypes="cac" />
    <path
       style="fill:none;stroke:#000000;stroke-width:4.491745;stroke-linecap:round;stroke-linejoin:round;stroke-miterlimit:4;stroke-opacity:1;stroke-dasharray:none"
       d="m 109.23544,573.61098 c 10.32248,-4.36721 11.51352,-5.16124 11.51352,-5.16124"
       id="path3883"
       inkscape:connector-curvature="0"
       sodipodi:nodetypes="cc" />
    <path
       style="fill:none;stroke:#000000;stroke-width:4.491745;stroke-linecap:round;stroke-linejoin:round;stroke-miterlimit:4;stroke-opacity:1;stroke-dasharray:none"
       d="m 94.545795,539.0704 c 11.910525,-1.98508 12.762705,-5.04077 19.056845,-3.57317 0.64442,0.15026 1.58806,1.19106 1.58806,1.19106"
       id="path3885"
       inkscape:connector-curvature="0"
       sodipodi:nodetypes="cac" />
    <path
       style="fill:none;stroke:#000000;stroke-width:4.491745;stroke-linecap:round;stroke-linejoin:round;stroke-miterlimit:4;stroke-opacity:1;stroke-dasharray:none"
       d="m 126.70424,518.42549 c -0.79405,-8.33737 -0.79405,-10.32248 -0.79405,-10.32248"
       id="path3887"
       inkscape:connector-curvature="0"
       sodipodi:nodetypes="cc" />
    <path
       style="fill:none;stroke:#000000;stroke-width:4.491745;stroke-linecap:round;stroke-linejoin:round;stroke-miterlimit:4;stroke-opacity:1;stroke-dasharray:none"
       d="m 149.73129,517.63144 c 0,-5.55824 0.18303,-4.82874 0.79402,-7.14633 0.51387,-1.94912 2.38211,-5.55823 2.38211,-5.55823"
       id="path3889"
       inkscape:connector-curvature="0"
       sodipodi:nodetypes="cac" />
    <path
       style="fill:none;stroke:#000000;stroke-width:4.491745;stroke-linecap:round;stroke-linejoin:round;stroke-miterlimit:4;stroke-opacity:1;stroke-dasharray:none"
       d="m 166.00901,540.26148 c 7.54332,-0.39703 6.16806,-1.02529 9.1314,-1.9851 2.19875,-0.71217 6.35229,-2.77915 6.35229,-2.77915"
       id="path3891"
       inkscape:connector-curvature="0"
       sodipodi:nodetypes="cac" />
    <path
       style="fill:none;stroke:#000000;stroke-width:4.491745;stroke-linecap:round;stroke-linejoin:round;stroke-miterlimit:4;stroke-opacity:1;stroke-dasharray:none"
       d="m 155.68655,575.59606 c 0.39701,-7.54335 0.52936,-5.82294 0.79403,-8.7344 0.13228,-1.45573 0.39703,-4.36719 0.39703,-4.36719 l 0,0"
       id="path3893"
       inkscape:connector-curvature="0"
       sodipodi:nodetypes="caac" />
    <path
       style="fill:none;stroke:#000000;stroke-width:4.491745;stroke-linecap:round;stroke-linejoin:round;stroke-miterlimit:4;stroke-opacity:1;stroke-dasharray:none"
       d="m 247.24879,567.30832 c -3.24306,2.01893 -6.30688,5.70058 -8.98251,8.98252 -2.12796,2.61018 -3.82829,5.54726 -5.55827,8.43662 -1.85557,3.09915 -3.3614,6.39663 -5.16124,9.52846 -1.33165,2.3171 -1.71079,5.7992 -4.16868,6.84853 -6.29141,2.68604 -13.20063,-4.35508 -20.04113,-4.41827 -8.64183,-0.08 -17.59317,1.44306 -25.41741,5.11306 -9.54308,4.47625 -17.8845,11.73883 -24.61511,19.8509 -6.42726,7.74645 -11.40925,16.95641 -14.29264,26.60021 -2.5879,8.65544 -3.86103,18.08505 -2.38211,26.99721 1.65858,9.99485 6.20454,19.70416 12.30755,27.79125 5.60358,7.42529 13.14462,13.65403 21.43896,17.86581 7.29778,3.70572 15.66233,5.30333 23.82107,5.95526 9.26818,0.74058 19.00606,0.66223 27.79125,-2.3821 10.92477,-3.78573 21.20304,-10.50321 28.98231,-19.05686 6.85097,-7.53294 11.40583,-17.23262 14.29265,-26.9972 2.56126,-8.66337 2.92151,-17.97931 2.3821,-26.99723 -0.46026,-7.69495 -2.15374,-15.3768 -4.76421,-22.63002 -2.02465,-5.62551 -5.97262,-10.38952 -8.33737,-15.88072 -3.07061,-7.13025 -6.07794,-14.41073 -7.54333,-22.03448 -0.87539,-4.5543 -0.82598,-9.25982 -0.69478,-13.89565 0.0881,-3.10981 1.41259,-7.37203 0.99252,-9.2803"
       id="path3895"
       inkscape:connector-curvature="0"
       sodipodi:nodetypes="caaaaaaaaaaaaaaaaaaaac" />
    <path
       style="fill:none;stroke:#000000;stroke-width:4.491745;stroke-linecap:round;stroke-linejoin:round;stroke-miterlimit:4;stroke-opacity:1;stroke-dasharray:none"
       d="m 549.32693,499.08407 c 6.17616,-1.96512 8.69065,-2.8029 13.19451,-3.3688 1.02133,-0.12829 3.08807,0 3.08807,0"
       id="path3897"
       inkscape:connector-curvature="0"
       sodipodi:nodetypes="cac" />
    <path
       style="fill:none;stroke:#000000;stroke-width:4.491745;stroke-linecap:round;stroke-linejoin:round;stroke-miterlimit:4;stroke-opacity:1;stroke-dasharray:none"
       d="m 573.47007,524.06941 c 1.12293,-4.77248 2.68363,-4.94557 4.77248,-6.73762 0.15878,-0.13632 0.56146,-0.28073 0.56146,-0.28073 l 0,0"
       id="path3899"
       inkscape:connector-curvature="0"
       sodipodi:nodetypes="caac" />
    <path
       style="fill:none;stroke:#000000;stroke-width:4.491745;stroke-linecap:round;stroke-linejoin:round;stroke-miterlimit:4;stroke-opacity:1;stroke-dasharray:none"
       d="m 558.59116,448.27121 c 10.10643,5.61469 8.14894,5.38056 12.3523,7.86056 1.00986,0.59583 3.08807,1.6844 3.08807,1.6844"
       id="path3901"
       inkscape:connector-curvature="0"
       sodipodi:nodetypes="cac" />
    <path
       style="fill:none;stroke:#000000;stroke-width:4.491745;stroke-linecap:round;stroke-linejoin:round;stroke-miterlimit:4;stroke-opacity:1;stroke-dasharray:none"
       d="m 588.34897,435.35745 c 3.93028,5.05321 3.77257,7.91421 7.01835,10.66789 0.7028,0.59624 2.52661,1.12294 2.52661,1.12294"
       id="path3903"
       inkscape:connector-curvature="0"
       sodipodi:nodetypes="cac" />
    <path
       style="fill:none;stroke:#000000;stroke-width:4.491745;stroke-linecap:round;stroke-linejoin:round;stroke-miterlimit:4;stroke-opacity:1;stroke-dasharray:none"
       d="m 625.96734,445.46387 c 2.80734,-5.33394 4.49175,-8.42202 4.49175,-8.42202"
       id="path3905"
       inkscape:connector-curvature="0"
       sodipodi:nodetypes="cc" />
    <path
       style="fill:none;stroke:#000000;stroke-width:4.491745;stroke-linecap:round;stroke-linejoin:round;stroke-miterlimit:4;stroke-opacity:1;stroke-dasharray:none"
       d="m 650.11046,459.78131 c 4.21102,-3.36881 6.39017,-3.88983 9.82569,-5.33395 1.17336,-0.49321 3.64955,-1.12293 3.64955,-1.12293"
       id="path3907"
       inkscape:connector-curvature="0"
       sodipodi:nodetypes="cac" />
    <path
       style="fill:none;stroke:#000000;stroke-width:4.491745;stroke-linecap:round;stroke-linejoin:round;stroke-miterlimit:4;stroke-opacity:1;stroke-dasharray:none"
       d="m 662.18203,492.6272 c 7.01835,0 7.29909,0 10.94863,0 1.40367,0 4.21101,0 4.21101,0"
       id="path3909"
       inkscape:connector-curvature="0"
       sodipodi:nodetypes="cac" />
    <path
       style="fill:none;stroke:#000000;stroke-width:4.491745;stroke-linecap:round;stroke-linejoin:round;stroke-miterlimit:4;stroke-opacity:1;stroke-dasharray:none"
       d="m 650.11046,517.33179 c 5.89543,2.24587 8.9835,3.64955 10.6679,4.21101 1.68441,0.56147 2.24588,0.84221 2.24588,0.84221"
       id="path3911"
       inkscape:connector-curvature="0" />
    <path
       style="fill:none;stroke:#000000;stroke-width:4.491745;stroke-linecap:round;stroke-linejoin:round;stroke-miterlimit:4;stroke-opacity:1;stroke-dasharray:none"
       d="m 625.96734,548.21254 c 0.28073,-4.49174 -0.84221,-9.26422 -0.84221,-9.26422"
       id="path3913"
       inkscape:connector-curvature="0"
       sodipodi:nodetypes="cc" />
    <path
       style="fill:none;stroke:#000000;stroke-width:4.491745;stroke-linecap:round;stroke-linejoin:round;stroke-miterlimit:4;stroke-opacity:1;stroke-dasharray:none"
       d="m 600.98201,500.41756 c -1.54775,-2.25754 -5.28876,-1.66055 -7.57982,-3.15825 -2.49295,-1.6297 -5.56839,-3.3334 -6.45688,-6.17616 -0.62688,-2.00565 -0.15273,-4.62364 1.2633,-6.17614 1.41647,-1.55288 3.95222,-1.54795 6.03578,-1.82478 1.57765,-0.20953 3.2025,0.40128 4.77248,0.14037 1.18308,-0.19652 2.57037,-0.36841 3.3688,-1.2633 1.02747,-1.15159 0.98721,-2.95439 1.12294,-4.49174 0.23924,-2.70967 -0.91368,-5.44397 -0.56146,-8.1413 0.28163,-2.15675 0.35394,-4.88659 2.1055,-6.17614 1.39462,-1.02678 3.69002,-0.99973 5.19358,-0.14037 2.18188,1.24708 2.67003,4.28286 3.64954,6.59726 0.87686,2.07185 0.59678,4.67109 1.96514,6.45687 1.07389,1.4015 2.7527,2.50211 4.49174,2.80735 2.63934,0.46325 5.20984,-1.2916 7.86056,-1.68441 2.22933,-0.33037 4.80994,-1.72896 6.73762,-0.56146 1.65011,0.99939 2.4675,3.41757 2.24588,5.33394 -0.29244,2.52874 -2.92745,4.16792 -4.49175,6.17615 -0.89827,1.15317 -2.34604,1.98179 -2.80735,3.36881 -0.56189,1.68945 -0.25492,3.636 0.28075,5.33394 0.53118,1.68383 1.89025,2.98298 2.80733,4.49175 1.24204,2.04341 2.91021,3.90203 3.64954,6.17615 0.61034,1.87731 1.13916,4.00781 0.56148,5.89542 -0.6031,1.97062 -1.90162,4.40981 -3.93028,4.77248 -2.55949,0.45754 -4.715,-2.29649 -6.73762,-3.93028 -1.13361,-0.91567 -1.80809,-2.32026 -2.94771,-3.22844 -1.59761,-1.27315 -3.32477,-3.3872 -5.33395,-3.01789 -1.22555,0.22528 -1.69235,1.84251 -2.38624,2.87753 -1.38702,2.06889 -2.30628,4.41612 -3.50918,6.59724 -1.09303,1.98191 -1.79206,4.27163 -3.3688,5.89542 -1.37517,1.41622 -3.08006,3.02916 -5.05321,3.08807 -2.48974,0.0743 -5.41572,-1.31642 -6.59726,-3.50917 -1.42669,-2.64771 0.18462,-6.04864 0.84221,-8.98349 0.63106,-2.81633 2.48586,-5.29232 2.9477,-8.1413 0.28836,-1.77874 0.87858,-3.9179 -0.14036,-5.40413 z"
       id="path3915"
       inkscape:connector-curvature="0"
       sodipodi:nodetypes="aaaaaaaaaaaaaaaaaaaaaaaaaaaaaaaaaaa" />
    <path
       style="fill:none;stroke:#000000;stroke-width:4.491745;stroke-linecap:round;stroke-linejoin:round;stroke-miterlimit:4;stroke-opacity:1;stroke-dasharray:none"
       d="m 549.0462,345.52252 c -3.93028,-0.70183 -7.61964,-2.27345 -9.96606,-5.19358 -2.70154,-3.36205 -3.40094,-8.17981 -3.3688,-12.49267 0.0278,-3.7468 1.12619,-7.61602 3.08807,-10.80825 1.80295,-2.93364 4.36036,-5.79694 7.57983,-7.01835 2.01281,-0.76364 6.45687,0.14035 6.45687,0.14035"
       id="path3917"
       inkscape:connector-curvature="0"
       sodipodi:nodetypes="caaaac" />
    <path
       style="fill:none;stroke:#000000;stroke-width:4.491745;stroke-linecap:round;stroke-linejoin:round;stroke-miterlimit:4;stroke-opacity:1;stroke-dasharray:none"
       d="m 551.15171,310.00967 c -3.93028,-1.82477 -6.5493,-4.20502 -8.00092,-7.57982 -1.42355,-3.30959 -1.23921,-7.42533 0,-10.80827 1.37029,-3.74086 4.44622,-6.85384 7.72018,-9.12385 2.73649,-1.89737 6.08863,-3.06421 9.4046,-3.36882 1.74645,-0.16035 3.60286,0.10356 5.19358,0.84221 0.39125,0.18169 0.98257,0.8422 0.98257,0.8422"
       id="path3919"
       inkscape:connector-curvature="0"
       sodipodi:nodetypes="caaaaac" />
    <path
       style="fill:none;stroke:#000000;stroke-width:4.491745;stroke-linecap:round;stroke-linejoin:round;stroke-miterlimit:4;stroke-opacity:1;stroke-dasharray:none"
       d="m 565.46915,279.83075 c 0.28073,-4.77248 0.32682,-4.92389 1.2633,-7.15871 1.62073,-3.86771 3.94841,-7.72514 7.29908,-10.2468 4.95418,-3.7284 11.35399,-5.85166 17.54588,-6.17615 3.02596,-0.15856 6.37644,0.34566 8.84313,2.1055 1.84918,1.3193 2.87119,3.62101 3.64954,5.75505 0.5986,1.64118 0.70184,5.19358 0.70184,5.19358"
       id="path3921"
       inkscape:connector-curvature="0"
       sodipodi:nodetypes="caaaaac" />
    <path
       style="fill:none;stroke:#000000;stroke-width:4.491745;stroke-linecap:round;stroke-linejoin:round;stroke-miterlimit:4;stroke-opacity:1;stroke-dasharray:none"
       d="m 604.91229,268.32065 c 2.1055,-3.22844 6.22229,-6.78781 9.96605,-9.40458 3.17284,-2.21772 6.64981,-4.18494 10.38716,-5.19358 4.97906,-1.34376 10.34396,-1.77197 15.44038,-0.98258 2.67898,0.41495 5.35395,1.40022 7.57982,2.94772 2.313,1.60809 4.37054,3.78907 5.61467,6.31651 0.88351,1.79481 1.16581,3.8954 1.12295,5.89542 -0.018,0.81693 -0.56147,2.38623 -0.56147,2.38623"
       id="path3923"
       inkscape:connector-curvature="0"
       sodipodi:nodetypes="caaaaaac" />
    <path
       style="fill:none;stroke:#000000;stroke-width:4.491745;stroke-linecap:round;stroke-linejoin:round;stroke-miterlimit:4;stroke-opacity:1;stroke-dasharray:none"
       d="m 654.54261,270.24979 c 5.19357,-5.75505 7.23265,-8.83574 12.27153,-11.05299 3.35585,-1.47667 7.29978,-1.41075 10.94864,-1.05276 3.64617,0.35772 7.36798,1.30357 10.52752,3.15826 2.81075,1.64994 5.23111,4.0823 7.01835,6.80781 1.05557,1.60968 1.62239,3.52404 2.03532,5.40413 0.36195,1.64802 0.44702,3.36339 0.36516,5.0487 -0.12623,2.59881 -0.47709,5.23079 -1.315,7.69404 -0.40078,1.17816 -1.07551,2.48135 -1.74548,3.30023"
       id="path3925"
       inkscape:connector-curvature="0"
       sodipodi:nodetypes="caaaaaaac" />
    <path
       style="fill:none;stroke:#000000;stroke-width:4.491745;stroke-linecap:round;stroke-linejoin:round;stroke-miterlimit:4;stroke-opacity:1;stroke-dasharray:none"
       d="m 695.30865,289.3757 c 4.35138,-1.82476 7.2687,-0.82066 10.38716,0.70184 2.14391,1.04672 3.61339,3.24865 4.77248,5.33396 0.97109,1.74708 1.4728,3.76744 1.6844,5.75505 0.27317,2.56568 0.19427,5.25311 -0.56146,7.72017 -0.63226,2.06426 -1.96467,3.86435 -3.22844,5.61469 -1.02809,1.42395 -3.50918,3.93028 -3.50918,3.93028"
       id="path3927"
       inkscape:connector-curvature="0"
       sodipodi:nodetypes="caaaaac" />
    <path
       style="fill:none;stroke:#000000;stroke-width:4.491745;stroke-linecap:round;stroke-linejoin:round;stroke-miterlimit:4;stroke-opacity:1;stroke-dasharray:none"
       d="m 705.55545,318.71242 c 2.66696,1.12293 5.81132,3.54854 7.86055,6.17614 1.76462,2.26269 3.21578,5.00618 3.50917,7.86057 0.42605,4.14475 -0.71129,8.53282 -2.66696,12.21193 -1.33588,2.51305 -3.631,4.45206 -5.89542,6.17614 -2.28181,1.73735 -4.92545,2.98479 -7.57982,4.07067 -1.08265,0.44288 -3.36882,0.98257 -3.36882,0.98257"
       id="path3929"
       inkscape:connector-curvature="0"
       sodipodi:nodetypes="caaaaac" />
    <path
       style="fill:none;stroke:#000000;stroke-width:4.491745;stroke-linecap:round;stroke-linejoin:round;stroke-miterlimit:4;stroke-opacity:1;stroke-dasharray:none"
       d="m 698.5371,357.31338 c 3.93026,3.22844 5.77907,4.18293 7.15871,7.29908 1.30919,2.95701 1.17289,6.5098 0.56148,9.68533 -0.62531,3.24751 -1.94823,6.57163 -4.21102,8.98349 -1.86257,1.98526 -4.67737,2.8107 -7.15872,3.93027 -1.74859,0.78896 -3.54189,1.53418 -5.41471,1.94958 -2.77897,0.61638 -5.65919,0.68421 -8.50424,0.77554 -2.4719,0.0794 -7.41684,-0.19853 -7.41684,-0.19853"
       id="path3931"
       inkscape:connector-curvature="0"
       sodipodi:nodetypes="caaaaaac" />
    <path
       style="fill:none;stroke:#000000;stroke-width:4.491745;stroke-linecap:round;stroke-linejoin:round;stroke-miterlimit:4;stroke-opacity:1;stroke-dasharray:none"
       d="m 673.89623,389.83595 c 2.56357,3.30214 2.64845,6.95713 2.46287,10.57011 -0.15473,3.01454 -1.12477,6.15647 -2.94771,8.56238 -1.7871,2.35862 -4.61658,3.80377 -7.29908,5.05321 -1.93437,0.90101 -4.05922,1.41588 -6.17616,1.68441 -3.34234,0.424 -6.87891,0.82626 -10.10642,-0.14036 -2.49921,-0.7485 -6.59724,-4.21101 -6.59724,-4.21101"
       id="path3933"
       inkscape:connector-curvature="0"
       sodipodi:nodetypes="caaaaac" />
    <path
       style="fill:none;stroke:#000000;stroke-width:4.491745;stroke-linecap:round;stroke-linejoin:round;stroke-miterlimit:4;stroke-opacity:1;stroke-dasharray:none"
       d="m 598.01022,414.24424 c 2.31606,3.50918 4.6254,6.50542 7.74427,8.90128 3.96605,3.04666 8.56425,5.65169 13.47523,6.59724 3.68593,0.70968 7.68785,0.40175 11.22937,-0.8422 2.88971,-1.01503 5.5594,-2.89168 7.57981,-5.19358 1.9739,-2.24892 3.02268,-5.19814 4.07064,-8.00092 0.33784,-0.9035 0.70184,-2.80734 0.70184,-2.80734"
       id="path3935"
       inkscape:connector-curvature="0"
       sodipodi:nodetypes="caaaaac" />
    <path
       style="fill:none;stroke:#000000;stroke-width:4.491745;stroke-linecap:round;stroke-linejoin:round;stroke-miterlimit:4;stroke-opacity:1;stroke-dasharray:none"
       d="m 597.95208,414.2002 c -1.75665,4.14876 -4.21097,6.04729 -7.35724,7.68201 -2.51699,1.30777 -5.59794,1.6387 -8.41204,1.28325 -3.33367,-0.42106 -6.84016,-1.63377 -9.2742,-3.95022 -2.63759,-2.51019 -4.19086,-6.23131 -4.77247,-9.82569 -0.39955,-2.46925 -0.29204,-5.28722 0.98255,-7.43946 0.44351,-0.74886 2.10552,-1.54403 2.10552,-1.54403"
       id="path3937"
       inkscape:connector-curvature="0"
       sodipodi:nodetypes="caaaaac" />
    <path
       style="fill:none;stroke:#000000;stroke-width:4.491745;stroke-linecap:round;stroke-linejoin:round;stroke-miterlimit:4;stroke-opacity:1;stroke-dasharray:none"
       d="m 570.5423,400.61162 c -3.22844,1.54403 -6.24523,2.25897 -9.43864,1.92402 -2.93788,-0.30814 -5.78118,-1.73816 -8.12718,-3.53326 -2.49872,-1.91196 -4.54746,-4.52842 -5.89542,-7.37133 -1.21199,-2.55614 -1.69376,-5.47099 -1.77659,-8.29868 -0.0602,-2.05185 0.11206,-4.20602 0.93439,-6.08688 0.82126,-1.87856 2.17575,-3.67762 3.82884,-4.81359"
       id="path3939"
       inkscape:connector-curvature="0"
       sodipodi:nodetypes="caaaaac" />
    <path
       style="fill:none;stroke:#000000;stroke-width:4.491745;stroke-linecap:round;stroke-linejoin:round;stroke-miterlimit:4;stroke-opacity:1;stroke-dasharray:none"
       d="m 549.60767,372.33265 c -5.19357,0.14036 -7.40008,-1.60066 -9.82569,-4.21101 -2.05473,-2.21124 -2.77743,-5.54868 -2.94771,-8.56239 -0.17046,-3.01482 0.58471,-6.15751 1.96514,-8.84314 0.8331,-1.62081 2.10939,-3.09651 3.64955,-4.07066 1.11354,-0.70429 3.7899,-1.12293 3.7899,-1.12293 l 0,0"
       id="path3941"
       inkscape:connector-curvature="0"
       sodipodi:nodetypes="caaaacc" />
    <path
       style="fill:none;stroke:#000000;stroke-width:4.491745;stroke-linecap:round;stroke-linejoin:round;stroke-miterlimit:4;stroke-opacity:1;stroke-dasharray:none"
       d="m 602.66642,240.80871 c -3.78992,-1.96514 -5.69489,-2.27203 -7.01837,-4.77247 -1.59783,-3.01882 -0.7624,-6.91738 0,-10.2468 0.69601,-3.03938 1.98652,-6.10282 4.07066,-8.42201 1.95255,-2.1728 4.64926,-3.76701 7.43944,-4.63212 2.01304,-0.62416 4.32861,-0.98084 6.31653,-0.28073 1.46967,0.5176 2.71078,1.75001 3.50917,3.08807 0.31985,0.53607 0.42109,1.82478 0.42109,1.82478"
       id="path3943"
       inkscape:connector-curvature="0"
       sodipodi:nodetypes="caaaaaac" />
    <path
       style="fill:none;stroke:#000000;stroke-width:4.491745;stroke-linecap:round;stroke-linejoin:round;stroke-miterlimit:4;stroke-opacity:1;stroke-dasharray:none"
       d="m 617.54532,213.85825 c 3.22844,-1.54405 6.00315,-2.15824 8.84311,-1.2633 2.87308,0.90538 5.27936,3.46738 6.59726,6.17614 1.64386,3.37873 2.30222,7.7113 0.98257,11.22936 -1.18544,3.16028 -4.09306,5.96287 -7.29909,7.01836 -2.06166,0.67875 -4.41109,-0.11696 -6.45688,-0.8422 -1.34631,-0.47728 -2.56988,-1.31063 -3.64954,-2.24587 -0.27623,-0.23929 -0.70184,-0.84222 -0.70184,-0.84222 l 0,0"
       id="path3945"
       inkscape:connector-curvature="0"
       sodipodi:nodetypes="caaaaaaac" />
    <path
       style="fill:none;stroke:#000000;stroke-width:4.491745;stroke-linecap:round;stroke-linejoin:round;stroke-miterlimit:4;stroke-opacity:1;stroke-dasharray:none"
       d="m 596.06916,239.26468 c -1.54404,4.21101 -1.75618,6.12581 -0.14036,8.42202 1.42199,2.02079 4.54741,2.37276 7.01835,2.38624 3.00359,0.0157 6.08713,-1.10589 8.56238,-2.80734 2.13781,-1.4695 3.54608,-3.83087 4.91286,-6.03578 0.89357,-1.44156 2.1055,-4.63212 2.1055,-4.63212"
       id="path3947"
       inkscape:connector-curvature="0"
       sodipodi:nodetypes="caaaac" />
    <path
       sodipodi:type="arc"
       style="fill:none;stroke:#000000;stroke-width:2;stroke-linecap:round;stroke-linejoin:round;stroke-miterlimit:4;stroke-opacity:1;stroke-dasharray:none"
       id="path3949"
       sodipodi:cx="271.21875"
       sodipodi:cy="214.5625"
       sodipodi:rx="4.15625"
       sodipodi:ry="3.625"
       d="m 275.375,214.5625 a 4.15625,3.625 0 1 1 -8.3125,0 4.15625,3.625 0 1 1 8.3125,0 z"
       transform="matrix(2.2458726,0,0,2.2458726,-59.585256,-233.7722)" />
    <path
       style="fill:none;stroke:#000000;stroke-width:4.491745;stroke-linecap:round;stroke-linejoin:round;stroke-miterlimit:4;stroke-opacity:1;stroke-dasharray:none"
       d="m 419.70346,289.54462 c -4.56572,-2.7791 -4.74036,-3.82866 -6.35231,-6.35227 -1.13814,-1.78185 -2.18359,-5.95526 -2.18359,-5.95526"
       id="path3951"
       inkscape:connector-curvature="0"
       sodipodi:nodetypes="cac" />
    <path
       style="fill:none;stroke:#000000;stroke-width:4.491745;stroke-linecap:round;stroke-linejoin:round;stroke-miterlimit:4;stroke-opacity:1;stroke-dasharray:none"
       d="m 411.16756,277.4356 c -2.1836,3.37463 -5.72094,4.35443 -9.13141,4.96273 -3.15987,0.56357 -6.69308,0.11476 -9.52843,-1.38957 -1.82046,-0.96593 -3.17503,-2.76025 -4.16868,-4.56572 -1.09128,-1.98289 -2.0096,-4.29848 -1.78659,-6.55079 0.26246,-2.65033 3.57317,-7.14634 3.57317,-7.14634"
       id="path3953"
       inkscape:connector-curvature="0"
       sodipodi:nodetypes="caaaac" />
    <path
       style="fill:none;stroke:#000000;stroke-width:4.491745;stroke-linecap:round;stroke-linejoin:round;stroke-miterlimit:4;stroke-opacity:1;stroke-dasharray:none"
       d="m 388.73605,263.53996 c -7.14632,1.58806 -4.91811,1.21255 -7.34481,0.79402 -4.05387,-0.69913 -8.17136,-2.48768 -11.11651,-5.35973 -1.97044,-1.9215 -3.34184,-4.6264 -3.77168,-7.34485 -0.38736,-2.44982 0.10536,-5.11482 1.19106,-7.34481 1.02491,-2.10509 4.76422,-5.16124 4.76422,-5.16124"
       id="path3955"
       inkscape:connector-curvature="0"
       sodipodi:nodetypes="caaaac" />
    <path
       style="fill:none;stroke:#000000;stroke-width:4.491745;stroke-linecap:round;stroke-linejoin:round;stroke-miterlimit:4;stroke-opacity:1;stroke-dasharray:none"
       d="m 372.25981,239.32186 c -6.15378,0.79403 -8.19838,0.74094 -11.71202,-0.99254 -4.49465,-2.21746 -8.05891,-6.54982 -10.12397,-11.11648 -1.7282,-3.82179 -2.29465,-8.41058 -1.38954,-12.5061 0.93542,-4.23286 3.49231,-8.25568 6.7493,-11.11648 1.66398,-1.4616 4.84569,-2.25354 6.0767,-2.68695"
       id="path3957"
       inkscape:connector-curvature="0"
       sodipodi:nodetypes="caaaac" />
    <path
       style="fill:none;stroke:#000000;stroke-width:4.491745;stroke-linecap:round;stroke-linejoin:round;stroke-miterlimit:4;stroke-opacity:1;stroke-dasharray:none"
       d="m 361.73884,200.50838 c -2.80321,-4.24266 -4.19944,-7.61272 -4.43946,-11.81214 -0.21201,-3.70909 1.03766,-7.49268 2.70688,-10.8117 2.06346,-4.10297 5.12452,-7.81632 8.73441,-10.6555 1.98828,-1.56383 4.39416,-2.63707 6.83738,-3.29243 2.81228,-0.75437 5.83681,-1.12797 8.71029,-0.65779 2.86437,0.46866 6.05573,1.56398 8.02087,3.38875"
       id="path3959"
       inkscape:connector-curvature="0"
       sodipodi:nodetypes="caaaaac" />
    <path
       style="fill:none;stroke:#000000;stroke-width:4.491745;stroke-linecap:round;stroke-linejoin:round;stroke-miterlimit:4;stroke-opacity:1;stroke-dasharray:none"
       d="m 391.94042,166.18248 c 0.20842,-4.47934 -0.25096,-7.02529 1.0906,-10.15388 1.85993,-4.33754 5.26127,-8.13376 9.15547,-10.79999 2.61437,-1.78999 5.83085,-2.78534 8.98279,-3.10803 3.84323,-0.39345 7.87762,0.13162 11.49358,1.49174 2.34376,0.88164 4.33654,2.55587 6.24013,4.1828 1.30731,1.11732 3.50504,3.78578 3.50504,3.78578"
       id="path3961"
       inkscape:connector-curvature="0"
       sodipodi:nodetypes="caaaaac" />
    <path
       style="fill:none;stroke:#000000;stroke-width:4.491745;stroke-linecap:round;stroke-linejoin:round;stroke-miterlimit:4;stroke-opacity:1;stroke-dasharray:none"
       d="m 432.64472,151.70132 c -0.60962,-4.12052 -1.25926,-6.9278 -0.0381,-10.04588 1.29212,-3.29948 4.23642,-5.90947 7.24849,-7.7759 3.84563,-2.38295 8.49058,-3.6497 13.00939,-3.868 4.37346,-0.21133 8.86895,0.78684 12.89311,2.5125 2.83488,1.21567 5.55188,3.00423 7.54335,5.35973 1.47125,1.74019 2.27668,3.98548 2.97762,6.15378 0.35137,1.08689 0.59553,3.37465 0.59553,3.37465"
       id="path3963"
       inkscape:connector-curvature="0"
       sodipodi:nodetypes="caaaaaac" />
    <path
       style="fill:none;stroke:#000000;stroke-width:4.491745;stroke-linecap:round;stroke-linejoin:round;stroke-miterlimit:4;stroke-opacity:1;stroke-dasharray:none"
       d="m 477.16475,146.80671 c 2.49839,-2.30985 5.39736,-4.84594 8.6422,-6.34233 2.09879,-0.96787 4.43815,-1.60411 6.74929,-1.58804 3.81945,0.0265 7.8178,0.85367 11.11651,2.7791 3.07216,1.7932 5.75887,4.55777 7.34483,7.74187 1.25614,2.52193 1.73209,5.5408 1.38955,8.33737 -0.26304,2.14742 -1.05075,4.32418 -2.5806,5.95527"
       id="path3965"
       inkscape:connector-curvature="0"
       sodipodi:nodetypes="caaaaac" />
    <path
       style="fill:none;stroke:#000000;stroke-width:4.491745;stroke-linecap:round;stroke-linejoin:round;stroke-miterlimit:4;stroke-opacity:1;stroke-dasharray:none"
       d="m 510.03501,163.96071 c 4.18863,-1.38957 8.23576,-0.9437 11.81833,0.71181 3.08146,1.42395 5.34152,4.41397 7.05412,7.34483 1.57908,2.70235 2.56182,5.86451 2.70688,8.99104 0.13902,2.99864 -0.42884,6.14932 -1.78659,8.82659 -0.70019,1.38065 -1.87089,2.52933 -3.12798,3.4328 -1.46758,1.05475 -3.10247,1.71921 -4.9627,2.18363"
       id="path3967"
       inkscape:connector-curvature="0"
       sodipodi:nodetypes="caaaaac" />
    <path
       style="fill:none;stroke:#000000;stroke-width:4.491745;stroke-linecap:round;stroke-linejoin:round;stroke-miterlimit:4;stroke-opacity:1;stroke-dasharray:none"
       d="m 522.7155,195.64987 c 3.74759,1.20103 6.78054,2.8735 8.74851,5.75679 1.25836,1.84368 1.40937,4.3187 1.38955,6.55079 -0.0393,4.41387 -0.45163,9.28322 -2.97763,12.90307 -1.1763,1.68568 -3.30677,2.48802 -5.16124,3.37467 -2.13329,1.01996 -4.41359,1.81516 -6.74929,2.1836 -0.58827,0.0927 -1.78659,0 -1.78659,0"
       id="path3969"
       inkscape:connector-curvature="0"
       sodipodi:nodetypes="caaaaac" />
    <path
       style="fill:none;stroke:#000000;stroke-width:4.491745;stroke-linecap:round;stroke-linejoin:round;stroke-miterlimit:4;stroke-opacity:1;stroke-dasharray:none"
       d="m 517.76688,227.41133 c 3.57316,3.37465 3.74461,4.01896 4.56571,6.55078 1.10247,3.39946 1.38397,7.34804 0.19853,10.71948 -0.85714,2.43771 -2.82845,4.49859 -4.96273,5.95529 -1.38263,0.94367 -3.13638,1.19777 -4.76422,1.58806 -1.30132,0.31199 -2.63202,0.60643 -3.97018,0.59553 -0.40248,-0.003 -1.19105,-0.19853 -1.19105,-0.19853 l 0,0"
       id="path3971"
       inkscape:connector-curvature="0"
       sodipodi:nodetypes="caaaaaac" />
    <path
       style="fill:none;stroke:#000000;stroke-width:4.491745;stroke-linecap:round;stroke-linejoin:round;stroke-miterlimit:4;stroke-opacity:1;stroke-dasharray:none"
       d="m 507.97766,252.7723 c 3.58727,2.22763 4.33327,3.79872 4.8647,6.43451 0.43021,2.13384 -0.47345,4.47302 -1.61216,6.3282 -0.78547,1.27968 -2.17073,2.08965 -3.38877,2.96767 -1.23792,0.89235 -3.95023,2.314 -3.95023,2.314"
       id="path3973"
       inkscape:connector-curvature="0"
       sodipodi:nodetypes="caaac" />
    <path
       transform="matrix(2.2458726,0,0,2.2458726,-62.673326,-234.47403)"
       sodipodi:type="arc"
       style="fill:none;stroke:#000000;stroke-width:2;stroke-linecap:round;stroke-linejoin:round;stroke-miterlimit:4;stroke-opacity:1;stroke-dasharray:none"
       id="path3975"
       sodipodi:cx="164.5"
       sodipodi:cy="230.0625"
       sodipodi:rx="2.5"
       sodipodi:ry="2.1875"
       d="m 167,230.0625 a 2.5,2.1875 0 1 1 -5,0 2.5,2.1875 0 1 1 5,0 z" />
    <path
       style="fill:none;stroke:#000000;stroke-width:4.491745;stroke-linecap:round;stroke-linejoin:round;stroke-miterlimit:4;stroke-opacity:1;stroke-dasharray:none"
       d="m 322.49382,244.73899 c -1.97633,0.41552 -4.18809,0.0622 -5.78059,1.22072 -1.27835,0.92999 -2.15543,2.54577 -2.3607,4.11323 -0.37726,2.88084 0.39053,6.18612 2.24587,8.42202 1.52351,1.836 4.07486,3.2222 6.45688,3.08807 2.64425,-0.1489 5.37737,-1.93856 6.73762,-4.211 0.72254,-1.20708 0.32139,-2.80481 0.28073,-4.21101 -0.0224,-0.75415 -0.13183,-1.65034 -0.28073,-2.24587"
       id="path3977"
       inkscape:connector-curvature="0"
       sodipodi:nodetypes="caaaaaac" />
    <path
       style="fill:none;stroke:#000000;stroke-width:4.491745;stroke-linecap:round;stroke-linejoin:round;stroke-miterlimit:4;stroke-opacity:1;stroke-dasharray:none"
       d="m 322.49235,244.47677 c 0.28073,-3.93028 1.08827,-5.8908 3.08954,-7.87907 0.92462,-0.91862 2.34621,-1.39167 3.64955,-1.40366 2.19051,-0.0202 4.62714,0.69686 6.17614,2.24587 1.549,1.54899 2.09843,3.99051 2.24587,6.17615 0.14823,2.19756 -0.16282,4.63707 -1.40366,6.45688 -0.38015,0.55753 -1.03324,0.94596 -1.68441,1.12294 -1.49063,0.40513 -3.18731,0.0822 -4.62651,-0.26517"
       id="path3979"
       inkscape:connector-curvature="0"
       sodipodi:nodetypes="caaaaaac" />
    <path
       style="fill:none;stroke:#000000;stroke-width:4.491745;stroke-linecap:round;stroke-linejoin:round;stroke-miterlimit:4;stroke-opacity:1;stroke-dasharray:none"
       d="m 325.37558,296.85146 c 2.9735,-2.51029 4.37371,-4.59184 5.97023,-7.29959 1.15017,-1.95071 2.04406,-4.09507 2.51955,-6.30912 0.45551,-2.12098 0.28073,-6.50197 0.28073,-6.50197"
       id="path3981"
       inkscape:connector-curvature="0"
       sodipodi:nodetypes="caac" />
    <path
       style="fill:none;stroke:#000000;stroke-width:4.491745;stroke-linecap:round;stroke-linejoin:round;stroke-miterlimit:4;stroke-opacity:1;stroke-dasharray:none"
       d="m 334.41978,276.47003 c 5.07486,2.77621 7.30037,3.4696 11.23982,3.74468 3.82583,0.26714 7.76075,-0.64374 11.31502,-2.08435 2.65329,-1.07544 5.13436,-2.72746 7.14633,-4.76421 1.58004,-1.59949 2.61199,-3.67499 3.6724,-5.65752 1.22325,-2.28692 2.18362,-4.76421 3.07692,-7.14632"
       id="path3983"
       inkscape:connector-curvature="0"
       sodipodi:nodetypes="caaaac" />
    <path
       style="fill:none;stroke:#000000;stroke-width:4.491745;stroke-linecap:round;stroke-linejoin:round;stroke-miterlimit:4;stroke-opacity:1;stroke-dasharray:none"
       d="m 333.16171,177.78391 c 5.19358,-0.14035 8.41205,-0.78196 12.3523,0.42111 2.95516,0.9023 5.55368,2.85725 7.86055,4.91285 1.27545,1.13652 3.19731,4.00544 3.19731,4.00544"
       id="path3985"
       inkscape:connector-curvature="0"
       sodipodi:nodetypes="caac" />
    <path
       style="fill:none;stroke:#000000;stroke-width:4.491745;stroke-linecap:round;stroke-linejoin:round;stroke-miterlimit:4;stroke-opacity:1;stroke-dasharray:none"
       d="m 333.23395,177.09911 c 1.46474,-3.09513 0.28872,-6.00744 -0.49334,-8.86015 -0.69717,-2.543 -1.86686,-5.07542 -3.64955,-7.01835 -1.94816,-2.12326 -4.55526,-3.75171 -7.29908,-4.63211 -3.21268,-1.03086 -6.81266,-1.29286 -10.10643,-0.56148 -2.573,0.57136 -5.03938,1.94156 -6.96726,3.73883 -0.98577,0.91899 -2.15659,3.4199 -2.15659,3.4199"
       id="path3987"
       inkscape:connector-curvature="0"
       sodipodi:nodetypes="caaaaac" />
    <path
       style="fill:none;stroke:#000000;stroke-width:4.491745;stroke-linecap:round;stroke-linejoin:round;stroke-miterlimit:4;stroke-opacity:1;stroke-dasharray:none"
       d="m 302.44541,163.27089 c -2.24587,-4.35137 -3.70059,-6.90469 -6.69358,-9.26009 -3.55531,-2.79794 -8.0708,-4.58695 -12.56079,-5.14249 -4.4621,-0.5521 -9.14991,0.31451 -13.35188,1.91405 -2.76571,1.05279 -5.22249,2.90029 -7.40128,4.90287 -1.24497,1.14429 -2.25829,2.5401 -3.14741,3.97845 -1.08918,1.76196 -1.84182,3.34472 -2.63585,5.62757"
       id="path3989"
       inkscape:connector-curvature="0"
       sodipodi:nodetypes="caaaaac" />
    <path
       style="fill:none;stroke:#000000;stroke-width:4.491745;stroke-linecap:round;stroke-linejoin:round;stroke-miterlimit:4;stroke-opacity:1;stroke-dasharray:none"
       d="m 256.57241,165.3353 c -1.9963,-2.89956 -5.35982,-5.08271 -8.75386,-6.22019 -3.06239,-1.02634 -6.51681,-0.90694 -9.68533,-0.28073 -4.12575,0.81535 -8.20808,2.54892 -11.5242,5.13542 -2.50459,1.95355 -4.3884,4.69395 -5.8813,7.4976 -1.01948,1.91459 -1.86976,4.02548 -2.00627,6.19026 -0.0836,1.32604 0.54445,3.32063 0.74297,3.91618"
       id="path3991"
       inkscape:connector-curvature="0"
       sodipodi:nodetypes="caaaaac" />
    <path
       style="fill:none;stroke:#000000;stroke-width:4.491745;stroke-linecap:round;stroke-linejoin:round;stroke-miterlimit:4;stroke-opacity:1;stroke-dasharray:none"
       d="m 219.39217,181.66895 c -2.70225,-2.82437 -8.67168,-5.19069 -13.54336,-5.7098 -4.91747,-0.52401 -10.20661,0.44138 -14.57823,2.75333 -3.39556,1.79574 -5.92089,5.02101 -8.14128,8.15538 -1.77362,2.50371 -3.2105,5.32778 -3.9884,8.29577 -0.86999,3.31922 -0.86182,6.9269 -0.66366,10.2726"
       id="path3993"
       inkscape:connector-curvature="0"
       sodipodi:nodetypes="caaaac" />
    <path
       style="fill:none;stroke:#000000;stroke-width:4.491745;stroke-linecap:round;stroke-linejoin:round;stroke-miterlimit:4;stroke-opacity:1;stroke-dasharray:none"
       d="m 177.29615,204.72028 c -3.90033,-0.95849 -8.98349,-0.73733 -12.85561,1.13705 -3.18764,1.54304 -5.69826,4.56119 -7.29909,7.72018 -2.23596,4.4124 -3.94918,9.82064 -2.66697,14.59818 0.74853,2.78898 3.26049,4.71226 5.61467,6.59724"
       id="path3995"
       inkscape:connector-curvature="0"
       sodipodi:nodetypes="caaac" />
    <path
       style="fill:none;stroke:#000000;stroke-width:4.491745;stroke-linecap:round;stroke-linejoin:round;stroke-miterlimit:4;stroke-opacity:1;stroke-dasharray:none"
       d="m 159.53768,234.91331 c -3.3822,1.71114 -5.37419,4.92499 -6.88797,8.14128 -0.78948,1.67742 -0.98257,5.47431 -0.98257,5.47431"
       id="path3997"
       inkscape:connector-curvature="0"
       sodipodi:nodetypes="cac" />
    <path
       style="fill:none;stroke:#000000;stroke-width:4.491745;stroke-linecap:round;stroke-linejoin:round;stroke-miterlimit:4;stroke-opacity:1;stroke-dasharray:none"
       d="m 184.37265,315.76471 c -2.0785,-1.98703 -3.17364,-2.7639 -5.05321,-3.64954 -2.01214,-0.94809 -4.23879,-1.85075 -6.45689,-1.6844 -0.71067,0.0532 -1.96513,0.8422 -1.96513,0.8422"
       id="path3999"
       inkscape:connector-curvature="0"
       sodipodi:nodetypes="caac" />
    <path
       style="fill:none;stroke:#000000;stroke-width:4.491745;stroke-linecap:round;stroke-linejoin:round;stroke-miterlimit:4;stroke-opacity:1;stroke-dasharray:none"
       d="m 158.82585,283.33992 c 4.21101,-1.75458 6.64329,-1.51061 9.8257,-0.70182 2.98759,0.75927 6.02897,2.45325 7.79036,4.98302 1.81968,2.6135 1.91947,6.15194 2.03533,9.33441 0.0964,2.64503 -0.17832,5.38807 -1.12294,7.86055 -0.48167,1.26073 -1.29155,2.41449 -2.24588,3.36882 -1.19288,1.19288 -4.211,2.80734 -4.211,2.80734"
       id="path4001"
       inkscape:connector-curvature="0"
       sodipodi:nodetypes="caaaaac" />
    <path
       style="fill:none;stroke:#000000;stroke-width:4.491745;stroke-linecap:round;stroke-linejoin:round;stroke-miterlimit:4;stroke-opacity:1;stroke-dasharray:none"
       d="m 141.13961,250.77477 c 2.1055,-1.6844 4.19367,-2.15814 6.45688,-2.1055 3.70098,0.0861 7.5036,1.60876 10.38716,3.93027 3.17417,2.55547 5.49374,6.34447 6.66743,10.2468 0.90293,3.0021 0.54029,6.30508 0.0701,9.40459 -0.33506,2.20913 -0.98988,4.41198 -2.03531,6.3867 -0.90435,1.70824 -1.96514,3.22845 -3.57936,4.56193"
       id="path4003"
       inkscape:connector-curvature="0"
       sodipodi:nodetypes="caaaaac" />
    <path
       style="fill:none;stroke:#000000;stroke-width:4.491745;stroke-linecap:round;stroke-linejoin:round;stroke-miterlimit:4;stroke-opacity:1;stroke-dasharray:none"
       d="m 104.64418,242.77385 c -0.0326,-5.59473 2.57448,-10.66667 6.73762,-13.47523 3.89117,-2.62507 9.44049,-2.07532 14.0367,-1.12293 4.53981,0.94071 9.17057,3.09005 12.28211,6.52706 2.35882,2.60551 3.51697,6.2743 4.00047,9.75551 0.28504,2.05228 -0.49129,4.84267 -0.70184,6.17615"
       id="path4005"
       inkscape:connector-curvature="0"
       sodipodi:nodetypes="caaaac" />
    <path
       style="fill:none;stroke:#000000;stroke-width:4.491745;stroke-linecap:round;stroke-linejoin:round;stroke-miterlimit:4;stroke-opacity:1;stroke-dasharray:none"
       d="m 67.587284,258.49496 c -1.263303,-3.08807 -1.891927,-5.61816 -1.403676,-8.42202 0.542647,-3.11613 2.450559,-5.99136 4.632119,-8.28166 2.435526,-2.55694 5.601627,-4.59846 8.983478,-5.61467 5.334072,-1.60281 11.244602,-1.5254 16.70368,-0.42111 1.662717,0.33634 3.356952,0.98318 4.637705,2.09553 1.38315,1.20129 2.94212,4.64209 2.94212,4.64209"
       id="path4007"
       inkscape:connector-curvature="0"
       sodipodi:nodetypes="caaaaac" />
    <path
       style="fill:none;stroke:#000000;stroke-width:4.491745;stroke-linecap:round;stroke-linejoin:round;stroke-miterlimit:4;stroke-opacity:1;stroke-dasharray:none"
       d="m 67.166178,258.35459 c -3.228443,-1.82477 -5.149828,-2.00586 -7.860548,-2.1055 -2.998666,-0.11026 -6.039362,0.61522 -8.843131,1.68441 -2.549173,0.9721 -5.016038,2.35787 -7.018351,4.21101 -3.201446,2.96298 -5.788641,6.6904 -7.579816,10.66789 -1.696335,3.76689 -2.794097,7.94035 -2.807338,12.07156 -0.009,2.97395 0.529598,6.09822 1.965127,8.70276 0.958226,1.7385 2.567244,3.09811 4.211014,4.21101 0.59015,0.39954 1.96514,0.8422 1.96514,0.8422"
       id="path4009"
       inkscape:connector-curvature="0"
       sodipodi:nodetypes="caaaaaaac" />
    <path
       style="fill:none;stroke:#000000;stroke-width:4.491745;stroke-linecap:round;stroke-linejoin:round;stroke-miterlimit:4;stroke-opacity:1;stroke-dasharray:none"
       d="m 40.821221,298.67401 c -4.183281,0.92296 -7.869874,2.86415 -10.0101,6.14207 -2.633578,4.03358 -2.784745,9.57045 -1.96514,14.31744 0.484259,2.80455 2.280818,5.26048 3.93028,7.57982 0.796807,1.12037 1.706537,2.21061 2.83556,2.99514 1.244059,0.86446 4.182791,1.77734 4.182791,1.77734"
       id="path4011"
       inkscape:connector-curvature="0"
       sodipodi:nodetypes="caaaac" />
    <path
       style="fill:none;stroke:#000000;stroke-width:4.491745;stroke-linecap:round;stroke-linejoin:round;stroke-miterlimit:4;stroke-opacity:1;stroke-dasharray:none"
       d="m 39.310508,331.60211 c -2.706611,0.37852 -6.291177,2.18851 -8.499387,4.51582 -2.593443,2.73332 -4.228286,6.5184 -4.772478,10.24679 -0.464448,3.18217 0.321474,6.51668 1.403663,9.54498 1.101741,3.08296 2.858911,5.99235 5.05321,8.42203 1.708379,1.89158 4.239943,3.42634 6.123536,4.57946"
       id="path4013"
       inkscape:connector-curvature="0"
       sodipodi:nodetypes="caaaac" />
    <path
       style="fill:none;stroke:#000000;stroke-width:4.491745;stroke-linecap:round;stroke-linejoin:round;stroke-miterlimit:4;stroke-opacity:1;stroke-dasharray:none"
       d="m 38.67167,369.38494 c -2.523669,2.93189 -4.668094,7.06763 -5.217658,11.12717 -0.56502,4.17369 0.488639,8.57558 2.129587,12.45449 1.174092,2.77532 3.064602,5.31645 5.333943,7.29908 1.923498,1.68048 4.324247,2.81323 6.737619,3.64955 2.602021,0.90167 5.412618,1.0325 8.141294,1.40368"
       id="path4015"
       inkscape:connector-curvature="0"
       sodipodi:nodetypes="caaaac" />
    <path
       style="fill:none;stroke:#000000;stroke-width:4.491745;stroke-linecap:round;stroke-linejoin:round;stroke-miterlimit:4;stroke-opacity:1;stroke-dasharray:none"
       d="m 55.796455,405.59964 c -5.333956,6.45688 -4.879903,6.76879 -6.176154,10.66788 -1.010624,3.04002 -1.468465,6.36005 -1.122943,9.54497 0.277706,2.55965 1.129448,5.13649 2.526606,7.29909 1.257287,1.94606 3.050355,3.60783 5.053223,4.77248 3.045178,1.7707 6.614583,2.62391 10.106421,3.08807 2.877138,0.38245 5.833633,0.15765 8.702759,-0.28074 1.728125,-0.264 5.053211,-1.40367 5.053211,-1.40367"
       id="path4017"
       inkscape:connector-curvature="0"
       sodipodi:nodetypes="caaaaaac" />
    <path
       style="fill:none;stroke:#000000;stroke-width:4.491745;stroke-linecap:round;stroke-linejoin:round;stroke-miterlimit:4;stroke-opacity:1;stroke-dasharray:none"
       d="m 79.34698,439.69885 c -2.146628,3.56146 -2.976357,7.96519 -2.21474,11.94117 0.561735,2.93239 2.577496,5.55587 4.772478,7.57982 1.784722,1.64564 4.132647,2.66792 6.456886,3.36882 1.711689,0.51616 3.574841,0.88044 5.333943,0.56146 1.441248,-0.26136 3.930281,-1.96514 3.930281,-1.96514"
       id="path4019"
       inkscape:connector-curvature="0"
       sodipodi:nodetypes="caaaac" />
    <path
       style="fill:none;stroke:#000000;stroke-width:4.491745;stroke-linecap:round;stroke-linejoin:round;stroke-miterlimit:4;stroke-opacity:1;stroke-dasharray:none"
       d="m 97.415269,461.25517 c -1.544036,3.71972 -3.962637,7.27177 -3.368803,11.08899 0.703267,4.52056 4.133098,8.55105 7.790374,11.29955 3.07533,2.31115 7.12848,3.19619 10.94862,3.64953 3.26435,0.3874 6.7621,0.34958 9.8257,-0.84219 1.67896,-0.65315 3.07648,-1.95917 4.28119,-3.29863 1.04645,-1.16345 2.45643,-4.00046 2.45643,-4.00046"
       id="path4021"
       inkscape:connector-curvature="0"
       sodipodi:nodetypes="caaaaac" />
    <path
       style="fill:none;stroke:#000000;stroke-width:4.491745;stroke-linecap:round;stroke-linejoin:round;stroke-miterlimit:4;stroke-opacity:1;stroke-dasharray:none"
       d="m 129.2969,479.3101 c 1.41656,3.52704 4.31848,6.27617 7.63055,7.75097 3.38846,1.5088 7.50407,1.33793 11.11651,0.49627 3.34563,-0.7795 6.38107,-2.77808 9.03215,-4.96273 1.99416,-1.64331 3.831,-3.63227 4.96271,-5.95526 1.17095,-2.40347 1.78167,-5.16924 1.68732,-7.84112 -0.0377,-1.06729 -0.89329,-3.07689 -0.89329,-3.07689"
       id="path4023"
       inkscape:connector-curvature="0"
       sodipodi:nodetypes="caaaaac" />
    <path
       style="fill:none;stroke:#000000;stroke-width:4.491745;stroke-linecap:round;stroke-linejoin:round;stroke-miterlimit:4;stroke-opacity:1;stroke-dasharray:none"
       d="m 162.75063,465.8015 c 4.12053,2.58477 6.93233,1.97278 10.4458,1.67239 2.59446,-0.22189 5.1666,-1.17433 7.39198,-2.52642 2.42489,-1.47331 6.15458,-5.88029 6.15458,-5.88029"
       id="path4025"
       inkscape:connector-curvature="0"
       sodipodi:nodetypes="caac" />
  </g>
</svg>
